<svg width="24" height="24" viewBox="0 0 24 24" fill="none" xmlns="http://www.w3.org/2000/svg">
<path d="M11.9988 9.86412V21.8339H0.678223V6.11133H8.24602C10.318 6.11133 11.9988 7.79208 11.9988 9.86412Z" stroke="#0F511A" stroke-miterlimit="10"/>
<path d="M11.9993 9.86412V21.8339H23.3198V6.11133H15.752C13.68 6.11133 11.9993 7.79208 11.9993 9.86412Z" fill="#C6D64E" stroke="#0F511A" stroke-miterlimit="10"/>
<path d="M2.78613 16.5342H8.61983" stroke="#C6D64E" stroke-miterlimit="10"/>
<path d="M2.78613 19.4336H8.61983" stroke="#C6D64E" stroke-miterlimit="10"/>
<path d="M7.86953 9.06445H3.31641V13.6176H7.86953V9.06445Z" fill="#EEEFC9" stroke="#C6D64E" stroke-miterlimit="10"/>
<path d="M15.4226 10.7363H21.2474" stroke="#C6D64E" stroke-miterlimit="10"/>
<path d="M15.4226 13.6357H21.2474" stroke="#C6D64E" stroke-miterlimit="10"/>
<path d="M15.4226 16.5342H21.2474" stroke="#C6D64E" stroke-miterlimit="10"/>
<path d="M15.4226 19.4336H21.2474" stroke="#C6D64E" stroke-miterlimit="10"/>
<path d="M19.4517 0.891705V15.4493C17.4064 16.3208 15.6456 17.7348 14.3472 19.5045C13.5202 20.6339 12.8799 21.9055 12.4797 23.2839C12.3997 23.5596 11.9995 23.4974 11.9995 23.2128V11.4653C12.2841 6.69874 15.2721 2.67028 19.4517 0.882812V0.891705Z" fill="#0F511A" stroke="#0F511A" stroke-miterlimit="10"/>
</svg>
