<svg width="560" height="277" fill="none" xmlns="http://www.w3.org/2000/svg">
  <path d="M307.493 194.928c-32.077 0-59.238 21.496-67.569 50.906h135.222c-8.499-29.41-35.576-50.906-67.653-50.906zM491.871 194.928c-32.077 0-59.238 21.496-67.569 50.906h135.222c-8.415-29.41-35.493-50.906-67.653-50.906z" fill="#fff"/>
  <path d="M404.056 173.1c-45.907 0-84.565 30.743-96.563 72.734H500.62c-11.998-41.991-50.74-72.734-96.564-72.734z" fill="#fff"/>
  <path d="M74.318 64.109C39.038 64.109 9.164 87.75 0 120.1h148.728c-9.347-32.349-39.129-55.991-74.41-55.991zM277.113 64.109c-35.28 0-65.154 23.642-74.318 55.991h148.728c-9.255-32.349-39.037-55.991-74.41-55.991z" fill="#D3D3D3"/>
  <path d="M180.527 40.1c-50.493 0-93.013 33.814-106.209 80h212.417c-13.196-46.186-55.807-80-106.208-80z" fill="#D3D3D3"/>
  <path d="M237.369 236.94l154.095 24.728 26.643-165.986-19.69-3.16 3.16-19.688-134.405-21.568-29.803 185.674z" fill="#fff"/>
  <path d="M360.134 83.746l-38.952-6.25-.523 3.252L359.612 87l.522-3.253zM359.076 90.337l-38.952-6.251-.522 3.253 38.952 6.25.522-3.252zM358.004 97.014l-38.952-6.25-.522 3.253 38.952 6.251.522-3.254zM356.946 103.605l-38.952-6.25-.522 3.253 38.952 6.25.522-3.253zM355.889 110.198l-38.952-6.251-.523 3.253 38.953 6.251.522-3.253zM403.967 90.78l-38.524-6.182-4.809 29.962 38.524 6.181 4.809-29.961zM354.83 116.788l-38.952-6.25-.522 3.253 38.952 6.251.522-3.254zM398.834 123.85l-38.952-6.251-.522 3.253 38.952 6.251.522-3.253zM353.759 123.466l-38.952-6.251-.523 3.254 38.953 6.25.522-3.253zM397.763 130.528l-38.952-6.251-.523 3.253 38.953 6.251.522-3.253zM352.701 130.057l-38.952-6.251-.522 3.253 38.952 6.251.522-3.253zM396.704 137.118l-38.952-6.25-.522 3.253 38.952 6.251.522-3.254zM351.643 136.649l-38.953-6.251-.522 3.254 38.953 6.25.522-3.253zM395.647 143.711l-38.953-6.251-.522 3.253 38.953 6.251.522-3.253zM350.585 143.24l-38.952-6.251-.522 3.253 38.952 6.251.522-3.253zM394.589 150.302l-38.952-6.251-.522 3.253 38.952 6.251.522-3.253zM349.513 149.918l-38.952-6.251-.523 3.253 38.953 6.251.522-3.253zM393.517 156.979l-38.953-6.25-.522 3.253 38.953 6.25.522-3.253zM348.455 156.508l-38.952-6.25-.522 3.253 38.952 6.251.522-3.254zM392.459 163.57l-38.952-6.251-.522 3.254 38.952 6.25.522-3.253zM303.481 156.052l-38.953-6.251-.522 3.253 38.952 6.251.523-3.253zM316.645 76.766l-39.379-6.319-12.23 76.188 39.379 6.319 12.23-76.188zM347.398 163.099l-38.953-6.251-.522 3.254 38.952 6.25.523-3.253zM391.402 170.161l-38.953-6.251-.522 3.253 38.952 6.251.523-3.253zM302.423 162.644l-38.952-6.251-.522 3.253 38.952 6.251.522-3.253zM346.339 169.692l-38.952-6.251-.522 3.253 38.952 6.251.522-3.253zM301.351 169.32l-38.953-6.251-.522 3.253 38.953 6.251.522-3.253zM345.268 176.368l-38.953-6.251-.522 3.253 38.953 6.251.522-3.253zM300.293 175.912l-38.952-6.25-.522 3.253 38.952 6.251.522-3.254zM344.21 182.96l-38.952-6.251-.522 3.254 38.952 6.25.522-3.253zM299.236 182.503l-38.953-6.251-.522 3.253 38.952 6.251.523-3.253zM343.152 189.551l-38.953-6.251-.522 3.253 38.952 6.251.523-3.253zM298.177 189.095l-38.952-6.25-.523 3.253 38.953 6.251.522-3.254zM342.094 196.143l-38.952-6.251-.523 3.254 38.953 6.25.522-3.253zM390.228 176.383l-38.524-6.182-4.809 29.962 38.524 6.181 4.809-29.961zM297.106 195.771l-38.953-6.25-.522 3.253 38.953 6.251.522-3.254zM341.023 202.819l-38.953-6.251-.522 3.254 38.952 6.25.523-3.253zM385.026 209.881l-38.953-6.251-.522 3.253 38.952 6.251.523-3.253zM296.047 202.364l-38.952-6.251-.522 3.253 38.952 6.251.522-3.253zM339.964 209.412l-38.952-6.251-.522 3.253 38.952 6.251.522-3.253zM383.968 216.473l-38.952-6.25-.523 3.253 38.953 6.25.522-3.253zM294.989 208.955l-38.952-6.251-.522 3.253 38.952 6.251.522-3.253zM338.906 216.002l-38.952-6.25-.522 3.253 38.952 6.251.522-3.254zM382.91 223.064l-38.952-6.251-.522 3.253 38.952 6.251.522-3.253zM293.932 215.546l-38.953-6.251-.522 3.253 38.953 6.251.522-3.253zM337.849 222.593l-38.953-6.251-.522 3.254 38.953 6.25.522-3.253zM381.852 229.655l-38.953-6.251-.522 3.253 38.953 6.251.522-3.253z" fill="#AAA"/>
  <path d="M398.418 92.524l19.69 3.16-16.53-22.849-3.16 19.69z" fill="#AEAEAE"/>
  <path d="M324.492 98.287L133.459 71l-19.137 133.945 191.034 27.287 19.136-133.945z" fill="#fff"/>
  <path d="M143.324 84.153L127.47 195.124l167.979 23.994 15.854-110.972-167.979-23.993z" fill="#DEDEDE"/>
  <path d="M295.487 219.088l4.35-30.446-167.98-23.994-4.349 30.446 167.979 23.994z" fill="#949494"/>
  <path d="M298.178 200.132l1.647-11.527-167.979-23.995-1.647 11.527 167.979 23.995z" fill="#BFBFBF"/>
  <path d="M227.161 180.816l-39.66-5.635 19.382-28.603 6.248-9.23 2.882 8.942 11.148 34.526z" fill="#BFBFBF"/>
  <path d="M273.11 187.378l-71.991-10.259 36.732-54.071 9.827-14.492 6.278 19.457 19.154 59.365z" fill="#BFBFBF"/>
  <path d="M235.717 136.084l-28.39 41.954 43.961 6.236-15.571-48.19z" fill="#878787"/>
  <path d="M301.237 178.599l-1.773 12.583-58.925-8.447 42.065-62.008 18.633 57.872z" fill="#BFBFBF"/>
  <path d="M253.955 128.013l-2.427 4.955-3.055-5.894-2.881 3.628-3.068-9.602-3.841 5.482-.834-3.534 9.828-14.492 6.278 19.457zM216.013 146.289l-1.667-1.267-3.427 5.355-.314-5.908-3.721 2.108 6.247-9.23 2.882 8.942z" fill="#fff"/>
  <path d="M176.03 173.581l3.171-22.619" stroke="#0181A1" stroke-width="2.714" stroke-miterlimit="10" stroke-linecap="round" stroke-linejoin="round"/>
  <path d="M148.801 169.624l6.069-42.925" stroke="#949494" stroke-width="2.714" stroke-miterlimit="10" stroke-linecap="round" stroke-linejoin="round"/>
  <path d="M180.218 166.631c6.37-.88 10.82-6.758 9.94-13.127-.881-6.37-6.759-10.819-13.129-9.939-6.37.881-10.82 6.758-9.939 13.128.88 6.369 6.758 10.819 13.128 9.938z" fill="#AAA"/>
  <path d="M187.059 147.114a7.71 7.71 0 00-13.407-7.615 7.708 7.708 0 002.896 10.51 7.71 7.71 0 0010.511-2.895zM160.075 148.828c5.144-3.858 6.187-11.156 2.328-16.3-3.858-5.144-11.157-6.187-16.302-2.328-5.144 3.858-6.187 11.156-2.328 16.3 3.858 5.144 11.157 6.187 16.302 2.328z" fill="#AAA"/>
  <path d="M139.93 149.387c.932-6.368 6.774-10.717 13.149-9.864 6.369.933 10.718 6.773 9.865 13.148-.933 6.369-6.774 10.717-13.15 9.865-6.368-.933-10.711-6.854-9.864-13.149zM147.141 126.62c.593-4.221 4.54-7.115 8.762-6.522 4.221.593 7.116 4.54 6.523 8.761-.593 4.221-4.541 7.116-8.762 6.523s-7.116-4.54-6.523-8.762z" fill="#AAA"/>
  <path d="M190.119 108.844c-4.461-.613-8.696 1.855-10.469 5.736l18.873 2.698c-.608-4.321-3.942-7.821-8.404-8.434zM215.841 112.515c-4.462-.613-8.696 1.855-10.469 5.737l18.873 2.698c-.608-4.321-3.943-7.822-8.404-8.435z" fill="#949494"/>
  <path d="M203.996 107.662c-6.368-.932-12.383 2.596-14.95 8.264l26.915 3.851c-.78-6.108-5.596-11.182-11.965-12.115z" fill="#949494"/>
  <path d="M360.255 111.063l-191.092 26.892 18.86 133.986 191.092-26.893-18.86-133.985z" fill="#fff"/>
  <path d="M365.908 235.189l-15.625-111.005-168.031 23.647 15.626 111.005 168.03-23.647z" fill="#878787"/>
  <path d="M275.634 219.835c17.351-1.095 30.528-16.047 29.433-33.396-1.095-17.35-16.049-30.526-33.399-29.431-17.351 1.095-30.528 16.047-29.433 33.396 1.095 17.349 16.048 30.526 33.399 29.431z" fill="#AAA"/>
  <path d="M365.952 235.171l-6.603-46.915-168.031 23.647 6.603 46.916 168.031-23.648z" fill="#7D7D7D"/>
  <path d="M220.045 183.035c-.551.196-1.102.392-1.568.662-.566-.044-1.137-.169-1.698-.134-1.292-.079-2.574.002-3.932.168-2.79.417-5.309 1.3-7.322 2.554.424-3.487 3.057-6.388 6.723-6.941a7.622 7.622 0 015.812 1.564 5.587 5.587 0 011.985 2.127z" fill="#fff"/>
  <path d="M231.681 182.542a19.83 19.83 0 00-7.75-.396 19.343 19.343 0 00-3.806.884c-.551.196-1.102.391-1.567.662-.566-.045-1.138-.169-1.699-.134a8.526 8.526 0 011.276-2.736 7.806 7.806 0 015.198-3.063c3.586-.548 7.013 1.488 8.348 4.783zM244.802 169.887c-.566-.045-1.127-.009-1.688.026-.501-.29-.997-.5-1.579-.785a24.226 24.226 0 00-3.697-1.215c-2.776-.63-5.435-.703-7.739-.236 1.571-3.156 5.161-4.912 8.753-4.092 2.124.509 3.813 1.77 4.966 3.468.457.856.758 1.802.984 2.834z" fill="#fff"/>
  <path d="M255.809 173.457c-1.939-1.407-4.339-2.462-7.115-3.091a16.27 16.27 0 00-3.892-.479c-.566-.045-1.127-.009-1.688.026-.501-.29-.997-.5-1.579-.785a7.67 7.67 0 012.203-2.07c1.703-1.073 3.846-1.53 5.97-1.021 3.512.825 5.959 3.889 6.101 7.42z" fill="#fff"/>
  <path d="M324.56 207.173c-.272-1.753-1.88-3.019-3.633-2.748l-9.251 1.308c-1.117.151-2.215-.665-2.366-1.781-.151-1.117.665-2.215 1.782-2.366l2.63-.407c1.753-.272 3.019-1.88 2.747-3.633-.271-1.753-1.88-3.019-3.633-2.748l-75.05 10.53c-1.753.271-3.02 1.88-2.748 3.633.271 1.753 1.88 3.019 3.633 2.747l2.63-.407c1.117-.151 2.214.665 2.365 1.782.151 1.116-.665 2.214-1.782 2.365l-19.143 2.656c-1.753.272-3.019 1.88-2.748 3.633.272 1.753 1.881 3.019 3.634 2.748l29.431-4.11c1.357-.166 2.54.724 2.786 2.077.166 1.357-.725 2.54-2.077 2.786l-12.922 1.781c-1.753.271-3.02 1.88-2.748 3.633.271 1.753 1.88 3.019 3.633 2.747l75.051-10.529c1.753-.271 3.019-1.88 2.747-3.633-.271-1.753-1.88-3.019-3.633-2.747l-12.922 1.781c-1.358.166-2.541-.725-2.787-2.077-.166-1.358.725-2.54 2.077-2.787l19.539-2.761c1.768-.031 3.03-1.72 2.758-3.473zM287.031 237.218l-34.294 4.82c-1.753.271-3.442-.99-3.634-2.748-.271-1.753.99-3.442 2.748-3.633l34.295-4.819c1.753-.272 3.441.989 3.633 2.747.271 1.753-.99 3.442-2.748 3.633zM315.184 233.269l-14.996 2.073c-1.753.272-3.442-.99-3.633-2.748-.272-1.753.99-3.441 2.748-3.633l14.996-2.072c1.753-.272 3.442.989 3.633 2.747.272 1.753-.995 3.362-2.748 3.633z" fill="#949494"/>
  <path d="M276.824 217.025l-12.041 1.725c-1.437.171-2.785-.79-2.957-2.227-.171-1.438.79-2.786 2.228-2.957l12.04-1.725c1.438-.171 2.786.79 2.957 2.227.252 1.432-.789 2.785-2.227 2.957z" fill="#7D7D7D"/>
  <path d="M325.124 45.1c-13.4 0-24.7 9-28.2 21.2h56.4c-3.5-12.2-14.8-21.2-28.2-21.2zM402.024 45.1c-13.4 0-24.7 9-28.2 21.2h56.3c-3.5-12.2-14.8-21.2-28.1-21.2z" fill="#D3D3D3"/>
  <path d="M365.324 36.1c-19.1 0-35.2 12.8-40.2 30.3h80.5c-5-17.5-21.1-30.3-40.3-30.3z" fill="#D3D3D3"/>
  <path d="M102.124 198.1c-13.4 0-24.7 9-28.2 21.2h56.4c-3.5-12.2-14.8-21.2-28.2-21.2zM179.024 198.1c-13.4 0-24.7 9-28.2 21.2h56.3c-3.5-12.2-14.8-21.2-28.1-21.2z" fill="#DEDEDE"/>
  <path d="M142.324 189.1c-19.1 0-35.2 12.8-40.2 30.3h80.5c-5-17.5-21.1-30.3-40.3-30.3z" fill="#DEDEDE"/>
  <path d="M416.386 207.1v53.896h-7.547c-7.7-6.174-16.848-17.381-17.839-26.834-.076-.533-.076-1.067-.076-1.6 0-3.431.686-6.709 1.906-9.682 3.811-9.224 12.959-15.78 23.556-15.78z" fill="#878787"/>
  <path d="M441.924 232.562c0 .533 0 1.067-.077 1.6-.991 9.453-10.139 20.66-17.838 26.834h-7.62V207.1c10.596 0 19.817 6.556 23.629 15.78a25.503 25.503 0 011.906 9.682z" fill="#7D7D7D"/>
  <path d="M393.516 242.319h45.435M408.457 260.996h15.933" stroke="#CCC" stroke-width="1.407" stroke-miterlimit="10" stroke-linecap="round" stroke-linejoin="round"/>
  <path d="M416.386 242.319v26.072M435.139 242.319l-15.475 26.911M425.305 242.319l-7.243 26.911M397.709 242.319l15.475 26.911M407.467 242.319l7.242 26.911" stroke="#CCC" stroke-width=".704" stroke-miterlimit="10" stroke-linecap="round" stroke-linejoin="round"/>
  <path d="M418.977 276.167h-5.183c-.458 0-.915-.381-.992-.839l-.914-6.937h8.919l-.915 6.937c0 .534-.381.839-.915.839z" fill="#E9E9E9"/>
  <path d="M411.735 271.212c0-.763 1.373-1.982 1.373-1.982s1.372 1.219 1.372 1.982c0 .762-.61 1.372-1.372 1.372-.763 0-1.373-.61-1.373-1.372zM415.014 271.212c0-.763 1.372-1.983 1.372-1.983s1.372 1.22 1.372 1.983c0 .762-.61 1.372-1.372 1.372-.762 0-1.372-.61-1.372-1.372zM418.215 271.212c0-.763 1.372-1.983 1.372-1.983s1.372 1.22 1.372 1.983c0 .762-.61 1.372-1.372 1.372-.762 0-1.372-.61-1.372-1.372zM434.453 226.31c0 2.973-5.336 7.852-5.336 7.852s-5.337-4.955-5.337-7.852c0-2.897 2.364-5.336 5.337-5.336 2.973-.076 5.336 2.363 5.336 5.336z" fill="#C5C5C5"/>
  <path d="M411.05 228.826a5.303 5.303 0 005.336 5.336v-13.188c0-.076-5.336 4.879-5.336 7.852z" fill="#DDD"/>
  <path d="M416.386 220.969v13.189a5.303 5.303 0 005.336-5.336c.076-2.897-5.336-7.853-5.336-7.853zM441.924 232.561c0 .534 0 1.068-.076 1.601-2.897-.076-5.26-2.439-5.26-5.336 0-1.753 1.906-4.193 3.43-5.946a25.483 25.483 0 011.906 9.681z" fill="#C5C5C5"/>
  <path d="M396.26 228.826c0 2.897-2.363 5.336-5.26 5.336-.076-.533-.076-1.067-.076-1.601 0-3.43.686-6.708 1.906-9.681 1.601 1.677 3.43 4.193 3.43 5.946zM409.067 226.31c0 2.973-5.336 7.852-5.336 7.852s-5.336-4.955-5.336-7.852c0-2.897 2.363-5.336 5.336-5.336 2.973-.076 5.336 2.363 5.336 5.336z" fill="#DDD"/>
  <path d="M421.265 269.23h-9.682c0-.61.534-1.144 1.144-1.144h7.47c.534 0 1.068.534 1.068 1.144z" fill="#DCDCDC"/>
  <path d="M124.225 0v86.6h-12.2c-12.3-9.9-27.2-27.9-28.7-43.2-.1-.9-.1-1.7-.1-2.6 0-5.5 1.1-10.8 3.1-15.6 6.1-14.8 20.7-25.2 37.9-25.2z" fill="#878787"/>
  <path d="M165.125 40.9c0 .8-.1 1.7-.1 2.6-1.5 15.2-16.3 33.3-28.7 43.2h-12.2V0c17.1 0 31.8 10.5 37.9 25.4 2 4.7 3.1 10 3.1 15.5z" fill="#7D7D7D"/>
  <path d="M87.425 56.6h73.1M111.324 86.6h25.7" stroke="#CCC" stroke-width="1.726" stroke-miterlimit="10" stroke-linecap="round" stroke-linejoin="round"/>
  <path d="M124.125 56.6v42M154.225 56.6l-24.8 43.3M138.524 56.6l-11.7 43.3M94.125 56.6l24.8 43.3M109.824 56.6l11.7 43.3" stroke="#CCC" stroke-width=".863" stroke-miterlimit="10" stroke-linecap="round" stroke-linejoin="round"/>
  <path d="M128.325 111.1h-8.4c-.8 0-1.4-.6-1.5-1.3l-1.5-11.2h14.4l-1.5 11.2c0 .7-.7 1.3-1.5 1.3z" fill="#E9E9E9"/>
  <path d="M116.725 103.1c0-1.2 2.2-3.2 2.2-3.2s2.2 2 2.2 3.2c0 1.2-1 2.2-2.2 2.2-1.2 0-2.2-1-2.2-2.2zM121.925 103.1c0-1.2 2.2-3.2 2.2-3.2s2.2 2 2.2 3.2c0 1.2-1 2.2-2.2 2.2-1.2 0-2.2-1-2.2-2.2zM127.024 103.1c0-1.2 2.2-3.2 2.2-3.2s2.2 2 2.2 3.2c0 1.2-1 2.2-2.2 2.2-1.2 0-2.2-1-2.2-2.2zM153.224 30.8c0 4.8-8.6 12.7-8.6 12.7s-8.6-7.9-8.6-12.7c0-4.8 3.9-8.6 8.6-8.6 4.7 0 8.6 3.8 8.6 8.6z" fill="#C5C5C5"/>
  <path d="M115.524 34.8c0 4.8 3.9 8.6 8.6 8.6V22.1c0 .1-8.6 8-8.6 12.7z" fill="#DDD"/>
  <path d="M124.124 22.2v21.3c4.8 0 8.6-3.9 8.6-8.6.1-4.8-8.6-12.7-8.6-12.7zM165.124 40.9c0 .8-.1 1.7-.1 2.6-4.7-.1-8.5-3.9-8.5-8.6 0-2.8 3.1-6.8 5.5-9.5 2 4.7 3.1 10 3.1 15.5z" fill="#C5C5C5"/>
  <path d="M91.825 34.9c0 4.7-3.8 8.5-8.5 8.6-.1-.9-.1-1.7-.1-2.6 0-5.5 1.1-10.8 3.1-15.6 2.4 2.8 5.5 6.7 5.5 9.6zM112.325 30.8c0 4.8-8.6 12.7-8.6 12.7s-8.6-7.9-8.6-12.7c0-4.8 3.9-8.6 8.6-8.6 4.8 0 8.6 3.8 8.6 8.6z" fill="#DDD"/>
  <path d="M132.025 99.9h-15.6c0-1 .8-1.8 1.8-1.8h12c.9 0 1.8.8 1.8 1.8z" fill="#DCDCDC"/>
  <path d="M201.211 53.267c-.347-.26-.868-.26-1.214-.087-.434.174-.607.607-.607 1.04v21.762c-1.301-.347-2.948-.087-4.509.78-2.514 1.474-3.728 4.075-2.688 5.896 1.041 1.82 3.989 2.167 6.503.693 2.081-1.214 3.208-3.208 3.035-4.855 0-.087.086-.26.086-.347v-21.5c2.341 2.08 5.723 5.808 3.729 8.842-.347.52-.174 1.3.347 1.648.52.346 1.3.173 1.647-.347 4.162-6.242-5.896-13.265-6.329-13.525zM232.841 36.85l-14.239 5.485-2.347.904 1.839 4.773 6.048 15.695c-1.226.194-2.62.917-3.827 2.125-2.122 2.21-2.705 5.037-1.242 6.424 1.464 1.388 4.452.701 6.573-1.51 1.811-1.812 2.469-4.203 1.796-5.709l-6.952-18.04 14.24-5.487 6.048 15.695c-1.226.194-2.508.966-3.666 2.063-2.121 2.21-2.705 5.037-1.241 6.424 1.464 1.387 4.29.763 6.411-1.448 1.811-1.812 2.469-4.203 1.796-5.709l-6.952-18.04-1.839-4.774-2.508.966.062.162zM210.387 25.89l-10.823-1.76-1.784-.29-.589 3.629-1.939 11.929c-.831-.325-1.958-.382-3.145-.07-2.118.603-3.505 2.145-3.1 3.536.405 1.392 2.508 2.049 4.626 1.446 1.78-.468 3.055-1.712 3.184-2.89l2.229-13.713 10.823 1.759-1.939 11.93c-.831-.325-1.907-.31-3.022-.05-2.118.602-3.505 2.144-3.099 3.536.405 1.39 2.384 2.028 4.502 1.425 1.78-.468 3.055-1.712 3.184-2.89l2.229-13.713.589-3.628-1.906-.31-.02.123z" fill="#909090"/>
</svg>
