<svg width="25" height="24" viewBox="0 0 25 24" fill="none" xmlns="http://www.w3.org/2000/svg">
<path d="M12.5966 18.1353C17.0479 18.1353 20.6564 14.5268 20.6564 10.0755C20.6564 5.62414 17.0479 2.01562 12.5966 2.01562C8.14533 2.01562 4.53687 5.62414 4.53687 10.0755C4.53687 14.5268 8.14533 18.1353 12.5966 18.1353Z" fill="#EEEFC9" stroke="#83AF1D" stroke-miterlimit="10"/>
<path d="M12.5967 10.9912V23.1408" stroke="#4E871C" stroke-miterlimit="10"/>
<path d="M19.4848 23.1324C21.8624 23.1324 23.7897 21.205 23.7897 18.8274C23.7897 16.4499 21.8624 14.5225 19.4848 14.5225C17.1073 14.5225 15.1799 16.4499 15.1799 18.8274C15.1799 21.205 17.1073 23.1324 19.4848 23.1324Z" fill="#C6D64E" stroke="#0F511A" stroke-miterlimit="10"/>
<path d="M19.4846 19.6012C20.2199 19.6012 20.816 19.0051 20.816 18.2698C20.816 17.5345 20.2199 16.9385 19.4846 16.9385C18.7494 16.9385 18.1533 17.5345 18.1533 18.2698C18.1533 19.0051 18.7494 19.6012 19.4846 19.6012Z" fill="#E0E594" stroke="#0F511A" stroke-miterlimit="10"/>
<path d="M17.1409 22.4391V21.5143C17.8823 21.2752 18.6635 21.1396 19.4847 21.1396C20.3058 21.1396 21.095 21.2752 21.8364 21.5143V22.4391" stroke="#0F511A" stroke-miterlimit="10"/>
<path d="M5.7168 9.10991C8.09434 9.10991 10.0217 7.18252 10.0217 4.80496C10.0217 2.4274 8.09434 0.5 5.7168 0.5C3.33926 0.5 1.41187 2.4274 1.41187 4.80496C1.41187 7.18252 3.33926 9.10991 5.7168 9.10991Z" fill="#C6D64E" stroke="#0F511A" stroke-miterlimit="10"/>
<path d="M5.71687 5.58652C6.45214 5.58652 7.04819 4.99046 7.04819 4.25518C7.04819 3.51989 6.45214 2.92383 5.71687 2.92383C4.98159 2.92383 4.3855 3.51989 4.3855 4.25518C4.3855 4.99046 4.98159 5.58652 5.71687 5.58652Z" fill="#E0E594" stroke="#0F511A" stroke-miterlimit="10"/>
<path d="M3.36523 8.42446V7.49969C4.10664 7.26053 4.8879 7.125 5.70902 7.125C6.53014 7.125 7.31934 7.26053 8.06074 7.49969V8.42446" stroke="#0F511A" stroke-miterlimit="10"/>
</svg>
