<svg width="25" height="20" viewBox="0 0 25 20" fill="none" xmlns="http://www.w3.org/2000/svg">
<path d="M6.53305 19.9718V13.7381H4.67358V8.4569C7.25702 7.81676 9.95477 7.48145 12.7363 7.48145C15.5179 7.48145 18.2157 7.81676 20.7915 8.4569V13.7381H18.9396V19.9718" fill="#C6D64E"/>
<path d="M6.53305 19.9718V13.7381H4.67358V8.4569C7.25702 7.81676 9.95477 7.48145 12.7363 7.48145C15.5179 7.48145 18.2157 7.81676 20.7915 8.4569V13.7381H18.9396V19.9718" stroke="#4E871C" stroke-miterlimit="10"/>
<path d="M9.19294 5.63637C10.6113 5.63637 11.7611 4.48655 11.7611 3.06818C11.7611 1.64981 10.6113 0.5 9.19294 0.5C7.77457 0.5 6.62476 1.64981 6.62476 3.06818C6.62476 4.48655 7.77457 5.63637 9.19294 5.63637Z" fill="#C6D64E" stroke="#4E871C" stroke-miterlimit="10"/>
<path d="M16.2725 5.63637C17.6909 5.63637 18.8407 4.48655 18.8407 3.06818C18.8407 1.64981 17.6909 0.5 16.2725 0.5C14.8542 0.5 13.7043 1.64981 13.7043 3.06818C13.7043 4.48655 14.8542 5.63637 16.2725 5.63637Z" fill="#C6D64E" stroke="#4E871C" stroke-miterlimit="10"/>
<path d="M12.7363 9.89648V19.9711" stroke="#4E871C" stroke-miterlimit="10"/>
<path d="M4.67386 9.62262C5.6966 9.62262 6.52572 8.79352 6.52572 7.77078C6.52572 6.74804 5.6966 5.91895 4.67386 5.91895C3.65111 5.91895 2.82202 6.74804 2.82202 7.77078C2.82202 8.79352 3.65111 9.62262 4.67386 9.62262Z" fill="#C6D64E" stroke="#0F511A" stroke-miterlimit="10"/>
<path d="M2.75312 19.9711V15.4749H1.41187V12.0075C2.43305 11.6798 3.53043 11.4893 4.67354 11.4893C5.81666 11.4893 6.8988 11.6722 7.93522 12.0075V15.4749H6.59399V19.9711" fill="#C6D64E"/>
<path d="M2.75312 19.9711V15.4749H1.41187V12.0075C2.43305 11.6798 3.53043 11.4893 4.67354 11.4893C5.81666 11.4893 6.8988 11.6722 7.93522 12.0075V15.4749H6.59399V19.9711" stroke="#0F511A" stroke-miterlimit="10"/>
<path d="M20.7916 9.62262C21.8143 9.62262 22.6434 8.79352 22.6434 7.77078C22.6434 6.74804 21.8143 5.91895 20.7916 5.91895C19.7688 5.91895 18.9397 6.74804 18.9397 7.77078C18.9397 8.79352 19.7688 9.62262 20.7916 9.62262Z" fill="#C6D64E" stroke="#0F511A" stroke-miterlimit="10"/>
<path d="M18.8708 19.9711V15.4749H17.5295V12.0075C18.5507 11.6798 19.6481 11.4893 20.7912 11.4893C21.9343 11.4893 23.0165 11.6722 24.0529 12.0075V15.4749H22.7116V19.9711" fill="#C6D64E"/>
<path d="M18.8708 19.9711V15.4749H17.5295V12.0075C18.5507 11.6798 19.6481 11.4893 20.7912 11.4893C21.9343 11.4893 23.0165 11.6722 24.0529 12.0075V15.4749H22.7116V19.9711" stroke="#0F511A" stroke-miterlimit="10"/>
</svg>
