<svg width="24" height="25" viewBox="0 0 24 25" fill="none" xmlns="http://www.w3.org/2000/svg">
<path d="M21.6851 2.81448C21.4443 3.03203 21.1879 3.2185 20.9315 3.38167C20.9004 3.39721 20.8771 3.42051 20.846 3.43605C20.7372 3.50598 20.6207 3.56814 20.5041 3.62253C20.473 3.63807 20.4342 3.66138 20.4031 3.67691C20.2866 3.7313 20.1623 3.78569 20.0457 3.83231C20.0147 3.84785 19.9836 3.85562 19.9525 3.87116C19.8204 3.91778 19.6883 3.96439 19.5562 4.00324C19.5329 4.00324 19.5096 4.01878 19.4863 4.02655C19.3387 4.0654 19.1911 4.09648 19.0357 4.12756C19.0279 4.12756 19.0201 4.12756 19.0046 4.12756C18.6782 4.18195 18.3442 4.21302 17.9945 4.21302C16.2463 4.21302 14.3894 3.49821 12.5946 2.80671C10.7998 2.1152 8.93505 1.40039 7.18686 1.40039C6.89938 1.40039 6.61966 1.4237 6.34772 1.46255C6.30887 1.46255 6.27 1.47032 6.22338 1.47809C6.10683 1.49363 5.99806 1.52471 5.88929 1.54802C5.84267 1.55578 5.79606 1.57132 5.74944 1.57909C5.64066 1.61017 5.5319 1.64125 5.42312 1.6801C5.3765 1.69564 5.32989 1.71118 5.28327 1.72672C5.16673 1.76557 5.05796 1.81995 4.94918 1.86657C4.91033 1.88211 4.87146 1.89765 4.83262 1.92096C4.7083 1.98312 4.59174 2.04528 4.47519 2.1152C4.44411 2.13074 4.42081 2.14628 4.38974 2.16182C4.24988 2.24729 4.11005 2.34053 3.97797 2.44153C3.97797 2.44153 3.9624 2.4493 3.95463 2.45707C3.80701 2.56585 3.65939 2.68239 3.51953 2.81448L4.80155 13.9019C5.05019 13.6765 5.30657 13.4901 5.56297 13.3191C5.58628 13.3036 5.6096 13.288 5.62514 13.2725C5.74169 13.2026 5.85824 13.1404 5.97479 13.0783C6.00587 13.0627 6.03694 13.0472 6.06802 13.0316C6.18457 12.9695 6.30886 12.9229 6.43318 12.8685C6.46426 12.8529 6.48755 12.8452 6.51863 12.8296C6.64295 12.783 6.77503 12.7364 6.90712 12.6975C6.93043 12.6975 6.95376 12.682 6.97707 12.6742C7.11692 12.6354 7.26454 12.6043 7.41217 12.5732C7.42771 12.5732 7.43547 12.5732 7.45101 12.5655C7.77734 12.5111 8.11142 12.48 8.46106 12.48C10.2015 12.48 12.0584 13.1948 13.8455 13.8863C15.6325 14.5778 17.4817 15.2926 19.2222 15.2926C19.5174 15.2926 19.7971 15.2693 20.069 15.2305C20.1079 15.2305 20.1467 15.2227 20.1778 15.2149C20.2944 15.1994 20.4031 15.1683 20.5197 15.145C20.5663 15.1372 20.6129 15.1295 20.6595 15.1139C20.7683 15.0828 20.8771 15.0518 20.9858 15.0129C21.0325 14.9974 21.0713 14.9818 21.118 14.9663C21.2345 14.9275 21.3433 14.8731 21.4598 14.8264C21.4987 14.8109 21.5375 14.7954 21.5764 14.7798C21.7007 14.7177 21.8172 14.6555 21.9416 14.5856C21.9649 14.57 21.9959 14.5545 22.0192 14.539C22.1669 14.4535 22.3067 14.3603 22.4466 14.2515C22.4466 14.2515 22.4466 14.2515 22.4543 14.2515C22.602 14.1427 22.7496 14.0262 22.8972 13.8941L21.6929 2.80671L21.6851 2.81448Z" fill="#E0E594" stroke="#C6D64E" stroke-miterlimit="10"/>
<path d="M3.50444 22.9453C2.69639 16.2634 1.88056 9.58918 1.07251 2.90723L3.50444 22.9453Z" fill="#C6D64E"/>
<path d="M3.50444 22.9453C2.69639 16.2634 1.88056 9.58918 1.07251 2.90723" stroke="#C6D64E" stroke-miterlimit="10"/>
<path d="M14.6069 10.7474C15.8127 10.7474 16.7902 9.76994 16.7902 8.56415C16.7902 7.35835 15.8127 6.38086 14.6069 6.38086C13.4011 6.38086 12.4236 7.35835 12.4236 8.56415C12.4236 9.76994 13.4011 10.7474 14.6069 10.7474Z" fill="#C6D64E" stroke="#0F511A" stroke-miterlimit="10"/>
<path d="M12.346 22.9459V17.6392H10.7688V13.5523C11.9731 13.1638 13.2707 12.9463 14.6148 12.9463C15.959 12.9463 17.2409 13.1638 18.4608 13.5523V17.6392H16.8836V22.9459" fill="#C6D64E"/>
<path d="M12.346 22.9459V17.6392H10.7688V13.5523C11.9731 13.1638 13.2707 12.9463 14.6148 12.9463C15.959 12.9463 17.2409 13.1638 18.4608 13.5523V17.6392H16.8836V22.9459" stroke="#0F511A" stroke-miterlimit="10"/>
<path d="M18.4454 22.6416H0.411865" stroke="#0F511A" stroke-width="3" stroke-miterlimit="10"/>
<path d="M20.683 22.6416H19.502" stroke="#0F511A" stroke-width="3" stroke-miterlimit="10"/>
<path d="M23.0528 22.6416H21.8718" stroke="#0F511A" stroke-width="3" stroke-miterlimit="10"/>
</svg>
