<svg width="132" height="34" viewBox="0 0 132 34" fill="none" xmlns="http://www.w3.org/2000/svg">
<path d="M23.5566 28.4557H25.0968V19.2681H23.5566V17.5156H32.7014V20.8037H30.6799V19.5024H27.4596V23.2069H31.6163V24.9594H27.4596V28.4557H29.1485V30.2081H23.5566V28.4557Z" fill="#202121"/>
<path d="M56.2774 28.4478V24.3355C56.2774 21.941 55.0872 20.8652 53.232 20.8652C51.7706 20.8652 50.633 21.7762 50.1342 22.852H50.0992C49.7404 21.4552 48.7253 20.8652 47.4476 20.8652C45.9337 20.8652 44.8661 21.9757 44.4023 22.904V22.0972C44.4023 21.4552 43.9997 21.0821 43.1946 21.0821H40.7969V22.8346H41.8207C42.0745 22.8346 42.2145 22.9561 42.2145 23.2077V30.1916H45.8199V28.4391H44.5073V26.2875C44.5073 24.6392 45.2511 22.9474 46.8701 22.9474C47.9552 22.9474 48.1127 23.7803 48.1127 24.7693V30.2003H51.7181V28.4478H50.3792V26.1748C50.3792 24.4917 51.158 22.9387 52.7245 22.9387C53.7921 22.9387 53.9846 23.7282 53.9846 24.7606V30.1916H57.6075V28.4391H56.2774V28.4478Z" fill="#202121"/>
<path d="M40.4819 28.4556C40.2281 28.4556 40.0881 28.3341 40.0881 28.0652V24.4648C40.0881 22.1397 38.7754 20.873 36.2989 20.873C34.0849 20.873 32.6585 22.0009 32.6585 22.0009L33.5074 23.5712C33.5074 23.5712 34.7325 22.6949 36.1064 22.6949C37.0603 22.6949 37.8041 23.1027 37.8041 24.2652V24.5689H37.2265C35.7476 24.5689 32.0547 24.8552 32.0547 27.6401C32.0547 29.4967 33.5336 30.4076 35.1 30.4076C37.0427 30.4076 37.8566 28.9501 37.9791 28.6898V29.2277C37.9791 29.7483 38.3029 30.1907 39.1517 30.1907H41.3132V28.4556H40.4819ZM37.8128 26.252C37.8128 27.3972 36.929 28.7159 35.6863 28.7159C34.8375 28.7159 34.3474 28.1433 34.3474 27.4666C34.3474 26.0871 36.5264 25.9483 37.4278 25.9483H37.8128V26.252Z" fill="#202121"/>
<path d="M60.8022 17.5156H58.5095V19.5371H60.8022V17.5156ZM60.8022 28.447V21.0813H57.0918V22.8338H58.5182V30.1995H62.1236V28.447H60.8022Z" fill="#202121"/>
<path d="M66.2974 28.4123C65.5711 28.3949 65.396 27.9698 65.396 27.163V17.5156H61.7031V19.2594H63.1295V27.3105C63.1295 29.7917 64.4772 30.2776 65.9386 30.2776H66.7699V28.421H66.2974V28.4123Z" fill="#202121"/>
<path d="M79.9136 26.1133V27.059C79.9136 27.8832 80.9637 28.3603 82.1714 28.3603C83.4665 28.3603 84.3941 27.8051 84.3941 26.79C84.3941 25.506 82.9327 25.0896 81.4538 24.517C79.7386 23.875 78.0671 23.1029 78.0671 20.8385C78.0671 18.2879 80.1586 17.2988 82.3551 17.2988C84.3766 17.2988 86.4156 18.0623 86.4156 19.5285V21.1855H84.2716V20.3266C84.2716 19.6846 83.3177 19.3463 82.3639 19.3463C81.3138 19.3463 80.4562 19.7714 80.4562 20.7431C80.4562 21.9056 81.6463 22.3134 82.9764 22.8166C84.8929 23.4933 86.8006 24.2481 86.8006 26.6252C86.8006 29.2192 84.6041 30.4165 82.1889 30.4165C80.0624 30.4165 77.7871 29.4708 77.7871 27.5622V26.1133H79.9136Z" fill="#202121"/>
<path d="M130.669 28.4468V24.3345C130.669 21.9226 129.409 20.8642 127.37 20.8642C125.803 20.8642 124.762 21.8012 124.298 22.6688V17.498H120.588V19.2505H122.014V30.1906H125.62V28.4381H124.298V26.0089C124.298 24.3345 125.313 22.9377 126.932 22.9377C128.087 22.9377 128.376 23.6838 128.376 24.7943V30.1906H131.999V28.4381H130.669V28.4468Z" fill="#202121"/>
<path d="M108.942 26.5221C108.942 24.8043 109.773 23.1993 111.628 23.1993H112.188V20.9609H111.768C110.359 20.9609 109.266 22.002 108.846 23.3034V22.1929C108.846 21.4294 108.434 21.0824 107.62 21.0824H105.223V22.8349H106.247C106.5 22.8349 106.649 22.9737 106.649 23.2253V30.2005H110.254V28.4567H108.933V26.5221H108.942Z" fill="#202121"/>
<path d="M104.914 28.4556C104.661 28.4556 104.521 28.3341 104.521 28.0652V24.4648C104.521 22.1397 103.208 20.873 100.731 20.873C98.5175 20.873 97.0911 22.0009 97.0911 22.0009L97.9399 23.5712C97.9399 23.5712 99.1651 22.6949 100.539 22.6949C101.493 22.6949 102.237 23.1027 102.237 24.2652V24.5689H101.659C100.18 24.5689 96.4785 24.8552 96.4785 27.6401C96.4785 29.4967 97.9574 30.4076 99.5239 30.4076C101.467 30.4076 102.28 28.9501 102.412 28.6898V29.2277C102.412 29.7483 102.735 30.1907 103.584 30.1907H105.746V28.4556H104.914ZM102.245 26.252C102.245 27.3972 101.362 28.7159 100.119 28.7159C99.2701 28.7159 98.7888 28.1433 98.7888 27.4666C98.7888 26.0871 100.968 25.9483 101.869 25.9483H102.245V26.252Z" fill="#202121"/>
<path d="M94.8431 27.7705C94.6156 27.9267 93.7055 28.5166 92.4016 28.5166C91.0102 28.5166 89.785 27.6577 89.6363 26.3303H96.1733V25.7144C96.1733 20.6131 91.964 20.8733 91.964 20.8733C89.1987 20.8733 87.291 22.8427 87.291 25.6536C87.291 28.2477 89.19 30.4339 92.2353 30.4339C94.2393 30.4339 95.4294 29.6097 95.7095 29.3928L94.8431 27.7705ZM91.9203 22.7212C93.0842 22.7212 93.9068 23.4153 94.1343 24.5865H89.7063C89.9338 23.4153 90.7564 22.7212 91.9203 22.7212Z" fill="#202121"/>
<path d="M120.248 27.5533C119.688 27.9524 118.734 28.499 117.597 28.499C116.03 28.499 114.709 27.4839 114.709 25.6013C114.709 23.9356 115.741 22.7991 117.413 22.7991C118.192 22.7991 119.128 23.0853 119.128 23.6926V24.2999H121.106V23.0506C121.106 21.437 118.874 20.873 117.334 20.873C114.507 20.873 112.398 22.9465 112.398 25.662C112.398 28.6118 114.779 30.4163 117.465 30.4163C119.075 30.4163 120.414 29.7222 121.106 29.1496L120.248 27.5533Z" fill="#202121"/>
<path d="M70.8211 22.8334V21.0809H66.2969V22.8334H67.417L70.5499 30.4507C70.0423 31.7434 69.3335 32.1338 68.7121 32.1511C68.2921 32.1424 67.9508 32.0383 67.7145 31.9255V33.8515C68.0383 33.9383 68.4146 33.999 68.8522 33.999C70.4186 33.999 71.7312 33.1748 72.4313 31.3703L75.8004 22.8248H76.8681V21.0723H72.5276V22.8248H73.5689L71.6787 28.0822L69.7885 22.8248" fill="#202121"/>
<path d="M11.7966 27.4059C13.4768 26.3127 14.7807 24.7077 15.3233 22.5128H14.3869C13.8006 24.1091 12.6455 25.1068 11.1841 25.6447C10.8078 24.3347 10.6153 22.9466 10.6153 21.5151C10.6153 18.4352 11.5341 15.5722 13.118 13.1777H11.1841C9.66141 15.2773 8.62879 17.7498 8.235 20.4306C7.15863 19.7626 6.30978 18.9124 5.81097 17.5243H4.78711C5.37343 19.6758 6.51105 21.1594 8.05998 22.3219C8.05998 22.4867 8.05123 22.6516 8.05123 22.8164C8.05123 27.0241 9.63516 30.8675 12.243 33.7912H16.8635C14.6495 32.1688 12.8818 29.9652 11.7966 27.4059Z" fill="#202121"/>
<path d="M17.2227 13.9237H24.9235V6.28906H17.2227V13.9237ZM23.1121 12.1278H19.0341V8.08493H23.1121V12.1278Z" fill="#202121"/>
<path d="M12.6895 23.3631H20.8454V15.2773H12.6895V23.3631ZM19.0339 21.5585H14.5009V17.0645H19.0339V21.5585Z" fill="#202121"/>
<path d="M9.51172 13.9246H15.8562V7.63477H9.51172V13.9246ZM14.4998 12.5799H10.8769V8.98817H14.4998V12.5799Z" fill="#202121"/>
<path d="M3.16797 8.98811H8.15603V4.04297H3.16797V8.98811ZM6.79963 7.6347H4.53312V5.3877H6.79963V7.6347Z" fill="#202121"/>
<path d="M9.51172 6.28987H15.8562V0H9.51172V6.28987ZM14.4998 4.94514H10.8769V1.34473H14.4998V4.94514Z" fill="#202121"/>
<path d="M0 18.4178H8.15592V10.332H0V18.4178ZM6.34446 16.6219H1.81145V12.1279H6.34446V16.6219Z" fill="#202121"/>
</svg>
