<svg width="132" height="34" viewBox="0 0 132 34" fill="none" xmlns="http://www.w3.org/2000/svg">
<path d="M23.5566 28.29H25.0968V19.1563H23.5566V17.4141H32.7014V20.6829H30.6799V19.3892H27.4596V23.072H31.6163V24.8142H27.4596V28.29H29.1485V30.0323H23.5566V28.29Z" fill="#202121"/>
<path d="M56.2774 28.2803V24.1921C56.2774 21.8117 55.0872 20.7422 53.232 20.7422C51.7706 20.7422 50.633 21.6478 50.1342 22.7173H50.0992C49.7404 21.3287 48.7253 20.7422 47.4476 20.7422C45.9337 20.7422 44.8661 21.8462 44.4023 22.769V21.9669C44.4023 21.3287 43.9997 20.9578 43.1946 20.9578H40.7969V22.7H41.8207C42.0745 22.7 42.2145 22.8208 42.2145 23.0709V30.0139H45.8199V28.2717H44.5073V26.1327C44.5073 24.494 45.2511 22.8122 46.8701 22.8122C47.9552 22.8122 48.1127 23.6401 48.1127 24.6234V30.0226H51.7181V28.2803H50.3792V26.0206C50.3792 24.3474 51.158 22.8035 52.7245 22.8035C53.7921 22.8035 53.9846 23.5884 53.9846 24.6148V30.0139H57.6075V28.2717H56.2774V28.2803Z" fill="#202121"/>
<path d="M40.4819 28.2901C40.2281 28.2901 40.0881 28.1693 40.0881 27.902V24.3227C40.0881 22.0112 38.7754 20.752 36.2989 20.752C34.0849 20.752 32.6585 21.8732 32.6585 21.8732L33.5074 23.4343C33.5074 23.4343 34.7325 22.5632 36.1064 22.5632C37.0602 22.5632 37.8041 22.9685 37.8041 24.1243V24.4262H37.2265C35.7476 24.4262 32.0547 24.7108 32.0547 27.4794C32.0547 29.3251 33.5336 30.2307 35.1 30.2307C37.0427 30.2307 37.8566 28.7817 37.9791 28.523V29.0577C37.9791 29.5752 38.3029 30.0151 39.1517 30.0151H41.3132V28.2901H40.4819ZM37.8128 26.0994C37.8128 27.2379 36.929 28.5488 35.6863 28.5488C34.8375 28.5488 34.3474 27.9796 34.3474 27.3069C34.3474 25.9355 36.5264 25.7975 37.4278 25.7975H37.8128V26.0994Z" fill="#202121"/>
<path d="M60.8022 17.4141H58.5095V19.4237H60.8022V17.4141ZM60.8022 28.2814V20.9589H57.0918V22.7011H58.5182V30.0236H62.1236V28.2814H60.8022Z" fill="#202121"/>
<path d="M66.2974 28.2469C65.5711 28.2297 65.396 27.807 65.396 27.0049V17.4141H61.7031V19.1477H63.1295V27.1516C63.1295 29.6183 64.4772 30.1013 65.9386 30.1013H66.77V28.2555H66.2974V28.2469Z" fill="#202121"/>
<path d="M79.9136 25.9601V26.9003C79.9136 27.7196 80.9637 28.194 82.1714 28.194C83.4665 28.194 84.3941 27.642 84.3941 26.6329C84.3941 25.3564 82.9327 24.9424 81.4538 24.3732C79.7386 23.7349 78.0671 22.9673 78.0671 20.7162C78.0671 18.1805 80.1586 17.1973 82.3551 17.1973C84.3766 17.1973 86.4156 17.9563 86.4156 19.4139V21.0612H84.2716V20.2073C84.2716 19.5691 83.3177 19.2327 82.3639 19.2327C81.3138 19.2327 80.4562 19.6554 80.4562 20.6213C80.4562 21.7771 81.6463 22.1824 82.9764 22.6827C84.8929 23.3554 86.8006 24.1058 86.8006 26.469C86.8006 29.0479 84.6041 30.2381 82.1889 30.2381C80.0624 30.2381 77.7871 29.298 77.7871 27.4005V25.9601H79.9136Z" fill="#202121"/>
<path d="M130.669 28.2811V24.1929C130.669 21.7952 129.409 20.7429 127.37 20.7429C125.803 20.7429 124.762 21.6744 124.298 22.5369V17.3965H120.588V19.1387H122.014V30.0147H125.62V28.2725H124.298V25.8575C124.298 24.1929 125.313 22.8043 126.932 22.8043C128.087 22.8043 128.376 23.546 128.376 24.65V30.0147H131.999V28.2725H130.669V28.2811Z" fill="#202121"/>
<path d="M108.942 26.3664C108.942 24.6587 109.773 23.0631 111.628 23.0631H112.188V20.8379H111.768C110.359 20.8379 109.266 21.8729 108.846 23.1666V22.0626C108.846 21.3036 108.434 20.9586 107.62 20.9586H105.223V22.7009H106.247C106.5 22.7009 106.649 22.8389 106.649 23.089V30.0234H110.254V28.2898H108.933V26.3664H108.942Z" fill="#202121"/>
<path d="M104.914 28.2901C104.661 28.2901 104.521 28.1693 104.521 27.902V24.3227C104.521 22.0112 103.208 20.752 100.731 20.752C98.5175 20.752 97.0911 21.8732 97.0911 21.8732L97.9399 23.4343C97.9399 23.4343 99.1651 22.5632 100.539 22.5632C101.493 22.5632 102.237 22.9685 102.237 24.1243V24.4262H101.659C100.18 24.4262 96.4785 24.7108 96.4785 27.4794C96.4785 29.3251 97.9574 30.2307 99.5239 30.2307C101.467 30.2307 102.28 28.7817 102.412 28.523V29.0577C102.412 29.5752 102.735 30.0151 103.584 30.0151H105.746V28.2901H104.914ZM102.245 26.0994C102.245 27.2379 101.362 28.5488 100.119 28.5488C99.2701 28.5488 98.7888 27.9796 98.7888 27.3069C98.7888 25.9355 100.968 25.7975 101.869 25.7975H102.245V26.0994Z" fill="#202121"/>
<path d="M94.8431 27.609C94.6156 27.7642 93.7055 28.3507 92.4016 28.3507C91.0102 28.3507 89.785 27.4969 89.6363 26.1773H96.1733V25.5649C96.1733 20.4935 91.964 20.7522 91.964 20.7522C89.1987 20.7522 87.291 22.7101 87.291 25.5045C87.291 28.0834 89.19 30.2568 92.2353 30.2568C94.2393 30.2568 95.4294 29.4375 95.7095 29.2219L94.8431 27.609ZM91.9203 22.5893C93.0842 22.5893 93.9068 23.2793 94.1343 24.4437H89.7063C89.9338 23.2793 90.7564 22.5893 91.9203 22.5893Z" fill="#202121"/>
<path d="M120.248 27.3931C119.688 27.7899 118.734 28.3332 117.597 28.3332C116.03 28.3332 114.709 27.3241 114.709 25.4525C114.709 23.7965 115.741 22.6667 117.413 22.6667C118.192 22.6667 119.128 22.9513 119.128 23.555V24.1588H121.106V22.9168C121.106 21.3126 118.874 20.752 117.334 20.752C114.507 20.752 112.398 22.8133 112.398 25.5129C112.398 28.4453 114.779 30.2393 117.465 30.2393C119.075 30.2393 120.414 29.5493 121.106 28.9801L120.248 27.3931Z" fill="#202121"/>
<path d="M70.8211 22.7001V20.9578H66.2969V22.7001H67.417L70.5499 30.2727C70.0423 31.5578 69.3335 31.9459 68.7121 31.9632C68.2921 31.9546 67.9508 31.8511 67.7145 31.7389V33.6537C68.0383 33.7399 68.4146 33.8003 68.8522 33.8003C70.4186 33.8003 71.7312 32.9809 72.4313 31.1869L75.8004 22.6914H76.8681V20.9492H72.5276V22.6914H73.5689L71.6787 27.9181L69.7885 22.6914" fill="#202121"/>
<path d="M11.7966 27.2464C13.4768 26.1596 14.7807 24.564 15.3233 22.3819H14.3869C13.8006 23.9689 12.6455 24.9608 11.1841 25.4955C10.8078 24.1932 10.6153 22.8132 10.6153 21.3901C10.6153 18.3282 11.5341 15.482 13.118 13.1016H11.1841C9.66141 15.1888 8.62879 17.6469 8.235 20.312C7.15863 19.6478 6.30978 18.8026 5.81098 17.4226H4.78711C5.37343 19.5616 6.51105 21.0365 8.05998 22.1922C8.05998 22.3561 8.05123 22.5199 8.05123 22.6838C8.05123 26.8669 9.63516 30.6877 12.243 33.5943H16.8635C14.6495 31.9814 12.8818 29.7907 11.7966 27.2464Z" fill="#202121"/>
<path d="M17.2227 13.8438H24.9235V6.25391H17.2227V13.8438ZM23.1121 12.0584H19.0341V8.03926H23.1121V12.0584Z" fill="#202121"/>
<path d="M12.6895 23.2259H20.8454V15.1875H12.6895V23.2259ZM19.0339 21.4319H14.5009V16.9642H19.0339V21.4319Z" fill="#202121"/>
<path d="M9.51172 13.8429H15.8562V7.58984H9.51172V13.8429ZM14.4998 12.506H10.8769V8.93532H14.4998V12.506Z" fill="#202121"/>
<path d="M3.16797 8.93571H8.15603V4.01953H3.16797V8.93571ZM6.79963 7.59023H4.53312V5.35639H6.79963V7.59023Z" fill="#202121"/>
<path d="M9.51172 6.25304H15.8562V0H9.51172V6.25304ZM14.4998 4.91618H10.8769V1.33686H14.4998V4.91618Z" fill="#202121"/>
<path d="M0 18.3099H8.15592V10.2715H0V18.3099ZM6.34446 16.5245H1.81145V12.0568H6.34446V16.5245Z" fill="#202121"/>
<path d="M130.999 12.4993L130.483 11.1733H128.785L128.275 12.4993H127.729L129.403 8.19727H129.889L131.557 12.4993H130.999ZM129.841 9.39727C129.829 9.36527 129.809 9.30727 129.781 9.22327C129.753 9.13927 129.725 9.05327 129.697 8.96527C129.673 8.87327 129.653 8.80327 129.637 8.75527C129.617 8.83527 129.595 8.91727 129.571 9.00127C129.551 9.08127 129.529 9.15527 129.505 9.22327C129.485 9.29127 129.467 9.34927 129.451 9.39727L128.965 10.6933H130.321L129.841 9.39727Z" fill="#FF0000"/>
<path d="M126.394 12.5008H125.854V8.6908H124.516V8.2168H127.726V8.6908H126.394V12.5008Z" fill="#FF0000"/>
<path d="M123.738 12.5008H121.344V8.2168H123.738V8.6908H121.884V10.0288H123.63V10.4968H121.884V12.0268H123.738V12.5008Z" fill="#FF0000"/>
<path d="M118.306 8.2168C118.662 8.2168 118.96 8.2508 119.2 8.3188C119.444 8.3868 119.626 8.4988 119.746 8.6548C119.87 8.8108 119.932 9.0188 119.932 9.2788C119.932 9.4468 119.9 9.5968 119.836 9.7288C119.776 9.8568 119.684 9.9648 119.56 10.0528C119.44 10.1368 119.292 10.1948 119.116 10.2268V10.2568C119.296 10.2848 119.458 10.3368 119.602 10.4128C119.75 10.4888 119.866 10.5968 119.95 10.7368C120.034 10.8768 120.076 11.0588 120.076 11.2828C120.076 11.5428 120.016 11.7648 119.896 11.9488C119.776 12.1288 119.604 12.2668 119.38 12.3628C119.16 12.4548 118.896 12.5008 118.588 12.5008H117.082V8.2168H118.306ZM118.414 10.0408C118.782 10.0408 119.034 9.9828 119.17 9.8668C119.306 9.7468 119.374 9.5708 119.374 9.3388C119.374 9.1028 119.29 8.9348 119.122 8.8348C118.958 8.7308 118.694 8.6788 118.33 8.6788H117.622V10.0408H118.414ZM117.622 10.4908V12.0448H118.486C118.866 12.0448 119.13 11.9708 119.278 11.8228C119.426 11.6748 119.5 11.4808 119.5 11.2408C119.5 11.0888 119.466 10.9568 119.398 10.8448C119.334 10.7328 119.224 10.6468 119.068 10.5868C118.916 10.5228 118.708 10.4908 118.444 10.4908H117.622Z" fill="#FF0000"/>
</svg>
