<svg width="24" height="24" viewBox="0 0 24 24" fill="none" xmlns="http://www.w3.org/2000/svg">
<path d="M22.2375 12.5228C22.2375 14.5155 21.6961 16.3827 20.7547 17.991C18.8797 21.1919 15.3963 23.3415 11.4188 23.3415C11.3011 23.3415 11.1834 23.3415 11.0736 23.3337C9.59082 23.2866 8.18651 22.9493 6.91557 22.3609C4.89148 21.4351 3.20474 19.8974 2.09071 17.991C1.14142 16.3827 0.600098 14.5155 0.600098 12.5228C0.600098 6.54467 5.4485 1.7041 11.4188 1.7041C12.9643 1.7041 14.4314 2.02576 15.7572 2.61416C18.6286 3.86941 20.8488 6.33285 21.7667 9.369C22.0727 10.3654 22.2375 11.4245 22.2375 12.5228Z" fill="#EEEFC9" stroke="#4E871C" stroke-miterlimit="10"/>
<path d="M8.99469 12.131C10.0996 12.131 10.9952 11.2353 10.9952 10.1304C10.9952 9.02556 10.0996 8.12988 8.99469 8.12988C7.88982 8.12988 6.99414 9.02556 6.99414 10.1304C6.99414 11.2353 7.88982 12.131 8.99469 12.131Z" fill="#83AF1D" stroke="#4E871C" stroke-miterlimit="10"/>
<path d="M12.5251 14.7192V18.4692H11.0738V23.3333C9.59099 23.2863 8.18668 22.9489 6.91574 22.3605V18.4692H5.46436V14.7192C6.57054 14.3583 7.75519 14.1543 8.99474 14.1543C10.2343 14.1543 11.4033 14.3583 12.5251 14.7192Z" fill="#83AF1D" stroke="#4E871C" stroke-miterlimit="10"/>
<path d="M23.2415 6.0346C23.2415 8.51373 21.2645 10.5143 18.7932 10.5614C18.7697 10.5614 18.7383 10.5614 18.7148 10.5614H14.0625L15.3648 9.25119L15.4511 9.16489C15.1452 8.84324 14.8863 8.48235 14.6823 8.08224C14.3685 7.46246 14.188 6.76422 14.188 6.02676C14.188 3.53194 16.22 1.5 18.7148 1.5C21.2096 1.5 23.2415 3.53194 23.2415 6.02676V6.0346Z" fill="#C6D64E" stroke="#0F511A" stroke-miterlimit="10"/>
<path d="M16.6284 6.35636C16.7974 6.35636 16.9345 6.21931 16.9345 6.05025C16.9345 5.88119 16.7974 5.74414 16.6284 5.74414C16.4593 5.74414 16.3223 5.88119 16.3223 6.05025C16.3223 6.21931 16.4593 6.35636 16.6284 6.35636Z" fill="#0F511A" stroke="#0F511A" stroke-miterlimit="10"/>
<path d="M18.809 6.35636C18.9781 6.35636 19.1151 6.21931 19.1151 6.05025C19.1151 5.88119 18.9781 5.74414 18.809 5.74414C18.64 5.74414 18.5029 5.88119 18.5029 6.05025C18.5029 6.21931 18.64 6.35636 18.809 6.35636Z" fill="#0F511A" stroke="#0F511A" stroke-miterlimit="10"/>
<path d="M20.9819 6.35636C21.1509 6.35636 21.288 6.21931 21.288 6.05025C21.288 5.88119 21.1509 5.74414 20.9819 5.74414C20.8128 5.74414 20.6758 5.88119 20.6758 6.05025C20.6758 6.21931 20.8128 6.35636 20.9819 6.35636Z" fill="#0F511A" stroke="#0F511A" stroke-miterlimit="10"/>
</svg>
