<svg width="24" height="24" viewBox="0 0 24 24" fill="none" xmlns="http://www.w3.org/2000/svg">
<path d="M22.0001 17.8564C19.9917 21.285 16.2607 23.5875 12.0002 23.5875C7.73979 23.5875 4.01716 21.285 2.00879 17.8564H22.0001Z" fill="#FEE7DA" stroke="#DA4234" stroke-miterlimit="10"/>
<path d="M23.5882 12.0002C23.5882 14.1346 23.0084 16.1346 22 17.8572H2.00873C0.991934 16.1346 0.412109 14.1346 0.412109 12.0002C0.412109 5.59691 5.60531 0.412109 12.0002 0.412109C18.395 0.412109 23.5882 5.59691 23.5882 12.0002Z" fill="#FEBFAA" stroke="#DA4234" stroke-miterlimit="10"/>
<path d="M8.08383 7.42002C11.3359 9.50402 13.2098 13.4367 12.7812 17.2098C12.7224 17.8148 11.8065 17.7812 11.7897 17.1678C11.7056 13.9325 9.75607 10.8822 6.86536 9.55444C5.30236 8.74773 6.59646 6.47886 8.08383 7.42002Z" fill="#FED7C8" stroke="#8A1317" stroke-miterlimit="10"/>
<path d="M15.8989 12.3022C14.2686 13.277 13.0418 15.0921 12.7813 17.2013C12.7476 17.4786 12.504 17.6719 12.2266 17.6382C11.9914 17.613 11.8149 17.4198 11.7897 17.1929C11.5544 14.8064 12.4703 12.2098 14.3611 10.3863C15.7056 9.10056 17.4535 11.277 15.8989 12.3022Z" fill="#FED7C8" stroke="#8A1317" stroke-miterlimit="10"/>
<line x1="2.10742" y1="17.8691" x2="22.0396" y2="17.8691" stroke="#DA4234"/>
</svg>
