<svg width="24" height="24" viewBox="0 0 24 24" fill="none" xmlns="http://www.w3.org/2000/svg">
<rect x="0.5" y="2" width="17.5" height="21.5" fill="#B4E8F4" stroke="#39AECB"/>
<path d="M18.6963 0.862305C18.8756 0.725197 19.1244 0.725197 19.3037 0.862305L19.7168 1.17871C19.9887 1.38685 20.3237 1.49583 20.666 1.4873L21.1865 1.47363C21.4121 1.46816 21.6133 1.61481 21.6777 1.83105L21.8262 2.33008C21.9239 2.65826 22.1311 2.94344 22.4131 3.1377L22.8408 3.43262C23.0269 3.56077 23.1045 3.79771 23.0293 4.01074L22.8555 4.50098C22.7416 4.82383 22.7416 5.17617 22.8555 5.49902L23.0293 5.98926C23.1045 6.20229 23.0269 6.43923 22.8408 6.56738L22.4131 6.8623C22.1311 7.05656 21.9239 7.34174 21.8262 7.66992L21.6777 8.16895C21.6133 8.38519 21.4121 8.53184 21.1865 8.52637L20.666 8.5127C20.3237 8.50417 19.9887 8.61315 19.7168 8.82129L19.3037 9.1377C19.1244 9.2748 18.8756 9.2748 18.6963 9.1377L18.2832 8.82129C18.0113 8.61315 17.6763 8.50417 17.334 8.5127L16.8135 8.52637C16.5879 8.53184 16.3867 8.38519 16.3223 8.16895L16.1738 7.66992C16.0761 7.34174 15.8689 7.05656 15.5869 6.8623L15.1592 6.56738C14.9731 6.43923 14.8955 6.20229 14.9707 5.98926L15.1445 5.49902C15.2584 5.17617 15.2584 4.82383 15.1445 4.50098L14.9707 4.01074C14.8955 3.79771 14.9731 3.56077 15.1592 3.43262L15.5869 3.1377C15.8689 2.94344 16.0761 2.65826 16.1738 2.33008L16.3223 1.83105C16.3867 1.61481 16.5879 1.46816 16.8135 1.47363L17.334 1.4873C17.6763 1.49583 18.0113 1.38685 18.2832 1.17871L18.6963 0.862305Z" fill="#DBF0F7" stroke="#39AECB"/>
<circle cx="19" cy="5" r="2" fill="#B4E8F4" stroke="#39AECB"/>
<circle cx="11.75" cy="15.25" r="1.75" fill="#DBF0F7" stroke="#39AECB"/>
<path d="M3.5 9V1.5H7V9L5.25 7.30645L3.5 9Z" fill="#DBF0F7" stroke="#39AECB"/>
<line x1="3" y1="18" x2="6.5" y2="18" stroke="#9EA1A1"/>
<path d="M8.5 20.5C8.5 19.4749 8.5 19 8.5 19C8.5 19 9.58333 17.5 11.75 17.5C13.9167 17.5 15 19 15 19C15 19 15 19.4749 15 20.5" stroke="#9EA1A1"/>
<line x1="3" y1="20" x2="6.5" y2="20" stroke="#9EA1A1"/>
<rect x="0.5" y="2" width="17.5" height="21.5" fill="#B4E8F4" stroke="#0383A4"/>
<path d="M18.6963 0.862305C18.8756 0.725197 19.1244 0.725197 19.3037 0.862305L19.7168 1.17871C19.9887 1.38685 20.3237 1.49583 20.666 1.4873L21.1865 1.47363C21.4121 1.46816 21.6133 1.61481 21.6777 1.83105L21.8262 2.33008C21.9239 2.65826 22.1311 2.94344 22.4131 3.1377L22.8408 3.43262C23.0269 3.56077 23.1045 3.79771 23.0293 4.01074L22.8555 4.50098C22.7416 4.82383 22.7416 5.17617 22.8555 5.49902L23.0293 5.98926C23.1045 6.20229 23.0269 6.43923 22.8408 6.56738L22.4131 6.8623C22.1311 7.05656 21.9239 7.34174 21.8262 7.66992L21.6777 8.16895C21.6133 8.38519 21.4121 8.53184 21.1865 8.52637L20.666 8.5127C20.3237 8.50417 19.9887 8.61315 19.7168 8.82129L19.3037 9.1377C19.1244 9.2748 18.8756 9.2748 18.6963 9.1377L18.2832 8.82129C18.0113 8.61315 17.6763 8.50417 17.334 8.5127L16.8135 8.52637C16.5879 8.53184 16.3867 8.38519 16.3223 8.16895L16.1738 7.66992C16.0761 7.34174 15.8689 7.05656 15.5869 6.8623L15.1592 6.56738C14.9731 6.43923 14.8955 6.20229 14.9707 5.98926L15.1445 5.49902C15.2584 5.17617 15.2584 4.82383 15.1445 4.50098L14.9707 4.01074C14.8955 3.79771 14.9731 3.56077 15.1592 3.43262L15.5869 3.1377C15.8689 2.94344 16.0761 2.65826 16.1738 2.33008L16.3223 1.83105C16.3867 1.61481 16.5879 1.46816 16.8135 1.47363L17.334 1.4873C17.6763 1.49583 18.0113 1.38685 18.2832 1.17871L18.6963 0.862305Z" fill="#84DAED" stroke="#39AECB"/>
<circle cx="19" cy="5" r="2" fill="#B4E8F4" stroke="#39AECB"/>
<circle cx="12.25" cy="15.25" r="1.75" fill="#84DAED" stroke="#39AECB"/>
<path d="M3.5 9V1.5H7V9L5.25 7.30645L3.5 9Z" fill="#84DAED" stroke="#39AECB"/>
<line x1="3" y1="18" x2="6.5" y2="18" stroke="#39AECB"/>
<path d="M9 20.5C9 19.4749 9 19 9 19C9 19 10.0833 17.5 12.25 17.5C14.4167 17.5 15.5 19 15.5 19C15.5 19 15.5 19.4749 15.5 20.5" stroke="#39AECB"/>
<line x1="3" y1="20" x2="6.5" y2="20" stroke="#39AECB"/>
</svg>
