<svg width="629" height="412" fill="none" xmlns="http://www.w3.org/2000/svg"><g clip-path="url(#a)"><path d="M629 0H0v412h629V0Z" fill="#B4E8F4"/><path d="M448.8 213.3s2.5-6.8-1.2-14.9c-3.8-8 2.7-12 6.2-9.6 3.6 2.5 5.8 11.6-5 24.5ZM442.6 218.7s-2.4-6.9-10.4-10.7c-8-3.9-5.7-11-1.3-11.4 4.3-.4 11.8 5.2 11.7 22ZM443.4 219.4s7.3-.6 14 5.2c6.8 5.7 12.5.6 11-3.5-1.4-4-9.6-8.6-25-1.7ZM434.4 231.9s7.3-.6 14 5.1c6.8 5.8 12.5.7 11-3.4-1.4-4-9.6-8.6-25-1.7ZM429.3 245.1s7.2-.5 14 5.2c6.8 5.8 12.4.7 11-3.4-1.5-4.1-9.6-8.7-25-1.8ZM423.6 261.8s7.3-.5 14 5.2c6.8 5.8 12.4.7 11-3.4-1.4-4.1-9.6-8.7-25-1.8ZM434.5 231.8s-2.4-6.9-10.4-10.7c-8-3.9-5.7-11.1-1.3-11.4 4.3-.4 11.8 5.2 11.7 22ZM428.2 246.4s-2.5-6.9-10.5-10.7c-8-3.9-5.6-11.1-1.3-11.4 4.3-.4 11.8 5.2 11.8 22ZM423 261.5s-2.3-6.8-10.3-10.7c-8-3.8-5.7-11-1.4-11.4 4.4-.3 11.9 5.3 11.8 22.1Z" fill="#5BC5DE"/><path d="M415.8 329.8c.4 0 .7-.4.7-.8 0-.2-1.3-18.8 2.3-42.6 3.3-22 11.6-52.9 32-75.7a.8.8 0 1 0-1.2-1c-20.6 23.1-29 54.4-32.3 76.5-3.6 24-2.3 42.7-2.3 42.9 0 .4.4.7.8.7ZM496.7 242.3s3.7-4.8 2.8-12.1c-1-7.4 5.2-9 7.3-6.1 2.2 2.9 1.7 10.6-10.1 18.2ZM490.5 245s-.2-6-5.6-11.1c-5.4-5-1.7-10.2 1.8-9.4 3.5.8 8 7.1 3.8 20.5ZM491 245.7s5.9 1.4 9.8 7.6c3.9 6.3 9.6 3.7 9.5 0-.1-3.5-5.4-9.2-19.4-7.6ZM480.7 253.4s6 1.3 9.8 7.6c4 6.2 9.7 3.6 9.6 0-.1-3.6-5.5-9.3-19.4-7.6ZM473.3 262.6s5.9 1.4 9.8 7.6c4 6.3 9.7 3.7 9.6 0-.2-3.5-5.5-9.2-19.4-7.6ZM464.6 274.4s6 1.4 9.8 7.7c4 6.2 9.7 3.6 9.6 0-.1-3.6-5.5-9.3-19.4-7.7ZM480.8 253.3s-.2-6-5.6-11c-5.4-5.1-1.7-10.3 1.8-9.4 3.5.8 8 7 3.8 20.4ZM472 263.3s-.1-6-5.5-11c-5.4-5.1-1.7-10.3 1.8-9.5 3.5.9 8 7.2 3.8 20.5ZM464.3 274s-.2-6-5.6-11c-5.4-5-1.7-10.2 1.8-9.4 3.5.8 8 7.1 3.8 20.5Z" fill="#5BC5DE"/><path d="M441.5 326.4c.3 0 .6-.2.7-.5 0-.2 3.7-15.2 12.5-33.2 8-16.5 22.3-39 44.2-52a.6.6 0 0 0-.6-1c-22.2 13-36.6 35.8-44.8 52.5-8.8 18-12.5 33.2-12.6 33.4a.6.6 0 0 0 .6.8Z" fill="#5BC5DE"/><path d="M263.7 311a77.6 77.6 0 0 0-74.6 56.2h149.1a77.6 77.6 0 0 0-74.5-56.2ZM467 311a77.6 77.6 0 0 0-74.5 56.2h149.1a77.6 77.6 0 0 0-74.5-56.2Z" fill="#DBF0F7"/><path d="M370.1 287c-50.6 0-93.2 33.9-106.4 80.2h213a110.8 110.8 0 0 0-106.5-80.3Z" fill="#DBF0F7"/><path d="M532 396.6H97a14.6 14.6 0 1 1 0-29.1h435.2a14.6 14.6 0 1 1 0 29Z" fill="#1698B8"/><path d="M-24.1 39a60 60 0 0 0-57.7 43.4H33.6a60 60 0 0 0-57.7-43.5ZM133.3 39a60 60 0 0 0-57.7 43.4h115.3a60 60 0 0 0-57.6-43.5Z" fill="#fff"/><path d="M58.3 20.3a85.7 85.7 0 0 0-82.4 62h164.8a85.7 85.7 0 0 0-82.4-62Z" fill="#fff"/><path d="M2.2 70.1c-13.5 0-25 9-28.5 21.5h57A29.6 29.6 0 0 0 2.2 70ZM79.8 70.1c-13.5 0-24.9 9-28.4 21.5h56.9A29.6 29.6 0 0 0 79.8 70Z" fill="#5BC5DE"/><path d="M42.8 61C23.5 61 7.2 73.8 2.2 91.5h81.3a42.3 42.3 0 0 0-40.7-30.7Z" fill="#5BC5DE"/><path d="M176.8 306.8c-8.5 2.6-15.2 7-18.2 9.3l-.2-.8c-1.7-6.5-3.7-13.8-6.2-21.7 3.5-.7 11.6-2.7 19.5-7.5a61.3 61.3 0 0 0 16.7-15.3s-10.7 1.4-21.2 7.8a62.1 62.1 0 0 0-15.4 13.6c-2.1-6.5-4.5-13.3-7.3-20.4a62.2 62.2 0 0 0 16.9-12.2c8.4-8.8 12.2-19 12.2-19s-10 4.1-18.5 13a62 62 0 0 0-11.2 16.5c-2.8-7-6-14.2-9.5-21.5 3-2 9.5-7 14.8-14.6 7-10 9.2-20.7 9.2-20.7s-9.3 5.6-16.3 15.7c-4.9 6.9-7.4 14-8.5 17.9-2.4-4.9-5-9.8-7.7-14.6 2-3 6-10.2 8-19.1 2.8-12 .7-22.7.7-22.7s-6.4 8.8-9.1 20.7c-1.7 7.3-1.6 14-1.2 18.3-2-3.4-4-6.8-6.3-10.1-1-4-3.2-10.5-7.2-16.9-6.5-10.3-15.5-16.4-15.5-16.4s1.6 10.7 8.1 21.1c4 6.3 8.8 11 12 13.7 2.3 3.4 4.4 7 6.5 10.4-3.7-1.5-11-4-19.3-4.4-12.3-.7-22.4 3.1-22.4 3.1s9.7 5 21.9 5.6c9.3.5 17.4-1.5 20.8-2.6l7.8 14.7c-3.7-.4-11.8-.9-20.6 1.3-12 2.9-20.5 9.4-20.5 9.4s10.6 2 22.6-1a62 62 0 0 0 19-8.4c3.7 7.4 7 14.8 9.8 22a62 62 0 0 0-20.5-.5c-12 1.8-21.3 7.6-21.3 7.6s10.5 2.9 22.6 1c9.2-1.3 16.6-5 19.8-6.7 2.7 7.2 5.2 14 7.3 20.7a62.1 62.1 0 0 0-20.4-1.3c-12.1 1.4-21.5 6.9-21.5 6.9s10.3 3.2 22.5 1.8c9-1 16.6-4.3 19.9-6 2.4 7.8 4.4 15 6 21.5l.3 1a61.9 61.9 0 0 0-22 1 61.3 61.3 0 0 0-20.6 9.5s10.7 2 22.6-1a62 62 0 0 0 20-9c6.6 26.4 8.3 45.3 8.3 45.5l3-.2c0-.2-1.7-19-8-45.2 3.6.2 11.7.2 20.3-2.4 11.8-3.6 20-10.7 20-10.7s-10.8-1.2-22.5 2.3Z" fill="#84DAED"/><path d="M100.2 317.5c-4.5 3-7.6 6.7-8.9 8.5l-.2-.4a224 224 0 0 0-7.3-11.4c1.9-1 6.2-3.6 9.9-7.7 5-5.5 7-11.6 7-11.6s-6 2.6-10.9 8.1a37 37 0 0 0-6.5 10.5c-2.3-3.4-4.8-7-7.6-10.5 1.5-1.5 5-5 7.5-9.9 3.3-6.5 3.7-13 3.7-13s-5 4.1-8.4 10.6a37 37 0 0 0-3.5 11.4 191 191 0 0 0-9.1-10.7c1.3-1.6 4.2-5.7 6-10.9 2.3-7 1.6-13.4 1.6-13.4s-4.3 4.8-6.6 11.8a37 37 0 0 0-1.8 11.7c-2.2-2.4-4.5-4.8-7-7 .7-2.1 1.8-7 1.4-12.4-.5-7.3-3.5-13-3.5-13s-2.2 6-1.7 13.4a37 37 0 0 0 2.5 10.6l-5.3-4.7a36.9 36.9 0 0 0-7-8.4c-5.6-4.8-11.8-6.8-11.8-6.8a36.6 36.6 0 0 0 17.5 16.5c2 1.6 3.7 3.2 5.5 4.9a36.6 36.6 0 0 0-24.1 6.4s6.4 1.2 13.5-.6c5.4-1.3 9.7-3.8 11.5-5l7 7a36.7 36.7 0 0 0-21.7 13.2s6.4-.7 12.7-4.4c4.9-2.8 8.2-6.5 9.5-8.1 3.4 3.6 6.5 7.3 9.4 11-2.2.2-7 .9-11.8 3.2-6.7 3.1-11 8-11 8s6.6-.2 13.2-3.3c5-2.3 8.7-5.7 10.2-7.2 2.8 3.6 5.4 7.1 7.7 10.5-2.3.2-7 .7-11.9 2.8-6.7 2.9-11.2 7.6-11.2 7.6s6.5.1 13.3-2.8c5-2.1 8.7-5.3 10.3-6.8 2.8 4 5.2 7.8 7.2 11.3l.3.5a37 37 0 0 0-12.4 4.4c-6.3 3.7-10.2 9-10.2 9s6.5-.8 12.8-4.5a37 37 0 0 0 10-8.7c8.3 14 12.4 24.6 12.5 24.7l1.7-.6c0-.1-4.2-10.6-12.4-24.5 2.1-.6 6.8-2 11.3-5 6-4 9.6-9.4 9.6-9.4s-6.4 1-12.5 5.1Z" fill="#84DAED"/><path d="M63.9 343.6a34 34 0 0 0-32.7 24.6h65.4a34 34 0 0 0-32.7-24.6ZM153 343.6a34 34 0 0 0-32.6 24.6h65.4a34 34 0 0 0-32.7-24.6Z" fill="#5BC5DE"/><path d="M110.6 333a48.6 48.6 0 0 0-46.7 35.2h93.4a48.6 48.6 0 0 0-46.7-35.2Z" fill="#5BC5DE"/><path d="M0 362.7c-7 0-13 4.8-15 11.3h30a15.6 15.6 0 0 0-15-11.3ZM41 362.7c-7.1 0-13.1 4.8-15 11.3h30a15.6 15.6 0 0 0-15-11.3Z" fill="#00496F"/><path d="M21.5 357.9A22.3 22.3 0 0 0 .1 374h42.8A22.3 22.3 0 0 0 21.5 358Z" fill="#00496F"/><path d="M504.6 153.4a27 27 0 0 0-25.9 19.5h51.8a27 27 0 0 0-25.9-19.5ZM575.2 153.4a27 27 0 0 0-25.9 19.5h51.8a27 27 0 0 0-25.9-19.5Z" fill="#1698B8"/><path d="M541.6 145a38.5 38.5 0 0 0-37 27.9h74a38.5 38.5 0 0 0-37-27.9Z" fill="#1698B8"/><path d="M592.7 164.3c-8 0-14.7 5.4-16.8 12.7h33.6c-2-7.3-8.8-12.7-16.8-12.7ZM638.6 164.3c-8 0-14.7 5.4-16.8 12.7h33.6c-2-7.3-8.8-12.7-16.8-12.7Z" fill="#5BC5DE"/><path d="M616.7 158.9a25 25 0 0 0-24 18h48a25 25 0 0 0-24-18Z" fill="#5BC5DE"/><path d="M196.9 132c-7 0-13 4.6-14.8 11h29.5a15.3 15.3 0 0 0-14.7-11ZM237.1 132c-7 0-12.9 4.6-14.7 11h29.5a15.3 15.3 0 0 0-14.8-11Z" fill="#fff"/><path d="M218 127.2a22 22 0 0 0-21.1 15.8H239a22 22 0 0 0-21-15.8Z" fill="#fff"/><path d="M168.2 37.4a27 27 0 0 0-26 19.5H194a27 27 0 0 0-25.8-19.5ZM238.8 37.4a27 27 0 0 0-26 19.5h51.9a27 27 0 0 0-26-19.5Z" fill="#1698B8"/><path d="M205.1 29a38.5 38.5 0 0 0-37 28h74a38.5 38.5 0 0 0-37-28Z" fill="#1698B8"/><path d="M520.8 213.4c4.3 0 7.8-3.5 7.8-7.8 0 4.3 3.5 7.8 7.8 7.8a7.8 7.8 0 0 0-7.8 7.7c0-4.3-3.5-7.7-7.8-7.7ZM153 145c2.3 0 4.3-2 4.3-4.3 0 2.4 2 4.3 4.3 4.3-2.4 0-4.3 2-4.3 4.4 0-2.4-2-4.4-4.4-4.4ZM10.7 328.4c2.4 0 4.4-2 4.4-4.3 0 2.4 2 4.3 4.3 4.3-2.4 0-4.3 2-4.3 4.4 0-2.4-2-4.4-4.4-4.4Z" fill="#fff"/><path d="M573.3 309.7a4.5 4.5 0 0 0-6.8 4.4 129 129 0 0 0-13 8.5c1.6-3.8 3.8-9.7 4.8-15.8a4.5 4.5 0 1 0-2.4-.3c-1.5 9.1-6 18-6.7 19.4-8.8 7-16.2 14.5-21.7 20.6-9.8 11-15.6 19.8-15.7 19.9l2 1.3c.1-.1 5.8-8.8 15.5-19.6 3-3.2 6.4-6.9 10.3-10.6 1.8 0 8.3.3 16.4 3.5a4.5 4.5 0 1 0 1.1-2.1 52.3 52.3 0 0 0-15-3.7c7.2-6.6 15.8-13.4 25.3-18.9l1 1a4.5 4.5 0 0 0 5-7.6Z" fill="#84DAED"/><path d="M513 327.9c1.6-.6 7.8-2.6 16.5-2.4a4.5 4.5 0 1 0 .3-2.4c-6.9-.2-12.3 1-15.4 1.8 4.5-8.7 10.1-18 17.1-26.6.4.3.8.4 1.3.5a4.5 4.5 0 1 0-3-2.2c-3.3 4-6.4 8.3-9.2 12.6.2-4.2.2-10.5-1-16.6 1-.6 1.9-1.6 2.1-3a4.5 4.5 0 1 0-4.4 3.6c1.8 9.1.7 19 .6 20.5a184.7 184.7 0 0 0-13.1 27c-5.4 13.6-7.7 24-7.7 24l2.4.6a194 194 0 0 1 13.5-37.4Z" fill="#84DAED"/><path d="M463.7 354.8c-11.4 0-21 7.6-24 18h47.9c-3-10.4-12.6-18-24-18ZM529 354.8c-11.4 0-21 7.6-24 18h47.8c-3-10.4-12.5-18-23.9-18Z" fill="#5BC5DE"/><path d="M497.8 347.1c-16.2 0-29.9 10.9-34.1 25.7H532a35.5 35.5 0 0 0-34.2-25.7Z" fill="#5BC5DE"/><path d="M578 366.6c6.8 0 12.7 4.6 14.5 11h-29.2c1.8-6.4 7.7-11 14.6-11ZM538.1 366.6c7 0 12.8 4.6 14.6 11h-29.2c1.8-6.4 7.7-11 14.6-11Z" fill="#00496F"/><path d="M557 361.9c10 0 18.3 6.6 20.9 15.7h-41.7c2.6-9.1 11-15.7 20.9-15.7Z" fill="#00496F"/><g clip-path="url(#b)"><path d="M360.3 91.2H222.9c-2 0-3.5 1.6-3.5 3.6V184c0 2 1.5 3.6 3.5 3.6h137.4c2 0 3.5-1.6 3.5-3.6V94.8c0-2-1.6-3.6-3.5-3.6Z" fill="#454A5F"/><path d="M359.7 180V95.3H223.5v84.5h136.2Z" fill="#FD9CAE"/><path d="M359.7 100.8v-5.5H223.5v5.5h136.2Z" fill="#C0285C"/><path d="M227.8 99.4a1.3 1.3 0 1 0 0-2.6 1.3 1.3 0 0 0 0 2.6ZM230.7 98a1.3 1.3 0 1 1 2.5 0 1.3 1.3 0 0 1-2.5 0ZM234.9 98a1.3 1.3 0 1 1 2.5 0 1.3 1.3 0 0 1-2.5 0Z" fill="#FEBBC4"/><path d="M296.7 185.1h-10.2a1.4 1.4 0 1 1 0-2.8h10.2a1.4 1.4 0 1 1 0 2.8Z" fill="#515470"/><mask id="c" style="mask-type:luminance" maskUnits="userSpaceOnUse" x="223" y="69" width="137" height="111"><path d="M359.7 180V69H223.5v111h136.2Z" fill="#fff"/></mask><g mask="url(#c)"><path d="M297.6 130.8s13 82.3 20.9 93c0 0-9.6 8.8-18.4 6.4-14.6-4.1-11.7-59-7.8-85.9a27 27 0 0 1 5.3-13.5Z" fill="#055C7F"/><path d="M346.6 118.2s5-9.9 7.8-10.4c2.7-.6-1 9.4-6.6 13l-1.2-2.6Z" fill="#AF7D61"/><path d="m346.3 116.7 3.9 3.8c-22.4 21.8-35.3 23.4-60.7 6.9-4-2.6-3.2-4.1-.3-6.5-.5-.7-.5-.7 0 0 2.8-2.3 3.8-1.6 7 .6 21.2 15 30.2 11.3 50-4.8ZM266.3 188.3a91.3 91.3 0 0 1-5 3.2c-12.5-36.4-13.9-46.6 16.2-72 4.6-4 8.5 4.6 1.2 9-25.7 15.4-20.2 35-12.4 59.8Z" fill="#055C7F"/><path d="M299.1 297.6c-2.1 1-2.3 2.7-4.5 3.4-6.9-40-6.8-91-16-127.2l18-3.7c7.2 42.1-6.5 79.8 2.5 127.5Z" fill="#AF7D61"/><path d="m296.6 170-18 3.8c8.6 33.6 8.5 80 14 118.4l5.7.6c-7.3-45.4 5.2-82-1.7-122.7Z" fill="#2D334A"/><path d="M282.7 298.1c-2.2.8-2.5 2.6-4.8 3.2-4.2-40.4-.8-91.4-7.7-128 6-1 12.1-1.8 18.2-2.6 4.5 42.5-11.6 79.2-5.7 127.4Z" fill="#AF7D61"/><path d="m288.4 170.7-18.2 2.6c6.4 34 3.3 80.2 6.3 119l5.7 1c-4.4-45.8 10.5-81.5 6.2-122.6Z" fill="#2D334A"/><path d="m254.8 235.6 1.6-5.3a647 647 0 0 0 14.3-65.5c3.5-20.6 2.4-29.7 5.8-39.7 1.4-4.2 1.6-6.3 5-8.4.4-.3 1.3-.5 1.8-.7.6-.3.7-.1 1.3-.3 6.6-1.4 10.8 6.7 11.9 12.7l.6 2.9c1 3.4 1.3 3.6-1.7 12.2-1.3 3.7 1.6 25.5 2.9 32.8.4 2.3.7 6.5 1.6 10.9 5.6 25.9 9.2 53.5 12.2 80.2l.3 2.8c-2.7.1-5.5-.3-8-1-6.3-1.8-12.1-4.8-18.5-6.1-4.3-.9-8.6-.6-12.8.2-2.7.5-5 1.7-7.8 1.8-4 .3-7.5 0-11.1-2.3-2.4-1.6-5.9-1.8-8-4.9 3-6 6-13.7 8.6-22.3Z" fill="#B4E8F4"/><path d="M272.2 234.2c-7 0-13.1-2.5-15.8-3.9 6.7-23.5 11.9-51.4 14.3-65.5 3.5-20.6 1.8-29.6 5.2-39.6 1.2-3.8 2-6.2 4.6-8.2.4-.3 1 0 1 .5 0 7 2.2 21.2 2.7 46.4.8 33.5-12 70.3-12 70.3Z" fill="#055C7F"/><path d="M297.1 131.3s-4.3-13.5-10.3-15c-1-.2-1.6-1-2-1.4 6.7-.1 11 7.5 12.2 13.6.2 1.1 0 2 .1 2.8Z" fill="#454A5F"/><path d="M290.2 99.7c0-.9-.7-1.6-1-2.4-.1-.8 0-1.8-.3-2.5-.3-.8-1.1-1.3-1.6-2-.4-.7-.5-1.6-1-2.2-.6-.7-1.6-.9-2.2-1.4-.7-.5-1-1.4-1.8-1.8-.7-.5-1.7-.4-2.4-.7-.8-.3-1.5-1-2.3-1.2-.8-.2-1.7.2-2.5.2s-1.7-.5-2.5-.5c-.9.1-1.6.8-2.4 1-.8.2-1.7 0-2.5.3-.8.4-1.3 1.2-2 1.6-.7.5-1.6.6-2.2 1.1-.7.6-.9 1.5-1.4 2.2-.5.6-1.4 1-1.8 1.7-.5.8-.4 1.7-.7 2.5-.3.8-1 1.4-1.2 2.2-.1.8.2 1.7.2 2.6 0 .8-.5 1.6-.5 2.5.1.8.8 1.5 1 2.3.2.8 0 1.8.3 2.6.4.7 1.2 1.2 1.6 2 .5.6.6 1.6 1.1 2.2.6.6 1.6.8 2.2 1.4.6.5 1 1.4 1.8 1.8.7.4 1.6.3 2.4.6.8.3 1.4 1 2.2 1.2.9.2 1.7-.2 2.6-.1.8 0 1.6.5 2.5.4.8 0 1.6-.7 2.3-1 .9-.1 1.8 0 2.6-.3.7-.3 1.2-1.1 2-1.6.6-.4 1.6-.5 2.2-1.1.6-.5.8-1.5 1.4-2.1.5-.7 1.4-1 1.8-1.8.4-.7.3-1.7.6-2.5.3-.7 1-1.4 1.2-2.2.2-.8-.2-1.7-.1-2.5 0-.8.5-1.7.4-2.5Z" fill="#2D334A"/><path d="M270.8 103.7c.3.8 1 1.2 1.5 1.9.4.6.5 1.5 1 2.1.6.6 1.4.8 2 1.3.6.5 1 1.3 1.7 1.7.7.4 1.6.3 2.3.6l.3.1c.6.3 1.1.8 1.8 1 .7.2 1.6-.2 2.3-.2.8 0 1.6.5 2.4.5.8-.1 1.4-.7 2.2-1 .7-.1 1.6 0 2.3-.2.7-.3 1.2-1.1 1.9-1.5.6-.5 1.5-.6 2-1 .7-.6.9-1.5 1.4-2 .4-.7 1.3-1 1.7-1.7.4-.7.3-1.6.6-2.3.2-.7 1-1.3 1-2.1.2-.8-.1-1.6 0-2.4 0-.7.4-1.5.3-2.3 0-.8-.6-1.5-.8-2.2-.2-.8 0-1.7-.3-2.4-.3-.5-.9-1-1.3-1.4l-.3-.4c-.4-.6-.5-1.5-1-2.1-.5-.6-1.4-.8-2-1.3-.6-.5-1-1.3-1.6-1.7-.7-.4-1.6-.3-2.3-.6-.7-.3-1.4-1-2.1-1.1-.7-.2-1.5.1-2.2.1h-.2c-.7 0-1.5-.5-2.3-.4-.8.1-1.5.7-2.2.9-.8.2-1.7 0-2.4.3s-1.1 1.1-1.8 1.5c-.7.4-1.6.5-2.1 1-.6.6-.8 1.5-1.3 2-.5.7-1.3 1-1.7 1.7-.4.7-.3 1.6-.6 2.3-.3.7-1 1.3-1.1 2-.2.8.2 1.7.1 2.4 0 .8-.5 1.6-.4 2.4 0 .8.7 1.4.9 2.2.2.7 0 1.6.3 2.3Z" fill="#2D334A"/><path d="M263.3 100.1c.3.8 1.2 1.3 1.6 2 .5.7.6 1.6 1.1 2.3.6.6 1.5.8 2.2 1.3.6.6 1 1.4 1.7 1.9.7.4 1.7.3 2.5.6.7.3 1.4 1 2.2 1.2.8.2 1.7-.2 2.5-.2.9 0 1.7.6 2.5.5.6 0 1-.4 1.6-.6l.8-.4c.8-.2 1.8 0 2.5-.3.8-.3 1.3-1.2 2-1.6.7-.5 1.6-.6 2.3-1.1.6-.6.8-1.5 1.3-2.2.5-.6 1.4-1 1.8-1.7.5-.7.4-1.7.7-2.5.3-.8 1-1.4 1.2-2.2.1-.7 0-1.4-.2-2v-.6c0-.8.6-1.6.5-2.5-.1-.8-.8-1.5-1-2.3-.2-.8 0-1.8-.3-2.5-.3-.8-1.2-1.3-1.6-2-.5-.7-.6-1.7-1.1-2.3-.6-.6-1.5-.8-2.2-1.3l-.7-.8c-.3-.4-.6-.8-1-1-.7-.5-1.7-.4-2.5-.7-.8-.3-1.4-1-2.2-1.2-.8-.2-1.7.2-2.6.2-.8 0-1.6-.6-2.5-.5-.8 0-1.5.7-2.3 1-.8.2-1.8 0-2.5.3-.8.3-1.3 1.2-2 1.6l-1.1.5c-.4.2-.9.3-1.2.6-.6.6-.8 1.5-1.3 2.2-.6.6-1.5 1-1.9 1.7-.4.7-.3 1.7-.6 2.5-.3.7-1 1.4-1.2 2.2-.2.8.2 1.7.2 2.5-.1.9-.6 1.7-.5 2.5 0 .9.7 1.6 1 2.4.1.8 0 1.8.3 2.5Z" fill="#2D334A"/><path d="M280 105.7c3.4 5.6 10 7.8 13.4 5.7 3.5-2 2.4-7.5-1-13.1-3.3-5.6-7.7-6.8-11.2-4.8-3.4 2-4.5 6.5-1.1 12.2Z" fill="#AF7D61"/><path d="m280.8 105.5 6.7-1c.2.8 1.5 9.7 1.3 13-.2 1-1.8 1.7-3.7 1.3-1.7-.3-3-1.2-3-2.1 0-2-.8-8-1.3-11.2Z" fill="#AF7D61"/><path d="M294.8 94.8s-5 5.4-15.4.3c0 0 7-8 15.4-.3Z" fill="#2D334A"/><path d="M285.6 94.4s-4.5 6.3-5.2 13.2c-.4 4.5-8.2-8.6-8.2-8.6s7.8-10.4 13.4-4.6Z" fill="#2D334A"/><path d="M278.7 109c.8 1.4 3 2.3 4 1.7 1-.5.5-1.7-.2-3-.8-1.3-2.3-2.1-3.2-1.5-1 .5-1.4 1.6-.6 2.9Z" fill="#AF7D61"/></g><path d="M454.8 150.3h-63a3.2 3.2 0 0 0-3.2 3.2v115.8c0 1.7 1.4 3.1 3.2 3.1h63c1.8 0 3.2-1.4 3.2-3.1V153.5c0-1.7-1.4-3.2-3.2-3.2Z" fill="#565B6F"/><path d="M452.3 155.4h-58c-.6 0-1 .5-1 1v103.7c0 .6.4 1.1 1 1.1h58c.6 0 1.1-.5 1.1-1V156.4c0-.6-.5-1.1-1.1-1.1Z" fill="#EC577F"/><path d="M434 272.4h-21.3l.8-2.9a3.6 3.6 0 0 1 3.5-2.5h12.7c1.6 0 3 1 3.4 2.5l.9 3Z" fill="#FFC1BF"/><mask id="d" style="mask-type:luminance" maskUnits="userSpaceOnUse" x="393" y="155" width="86" height="107"><path d="M477 155.4h-82.2c-.9 0-1.6.5-1.6 1v103.7c0 .6.7 1.1 1.6 1.1H477c.9 0 1.6-.5 1.6-1V156.4c0-.6-.7-1.1-1.6-1.1Z" fill="#fff"/></mask><g mask="url(#d)"><path d="M415.9 190.7s9.7-4.7 10.3-7.3c.6-2.7-9.1.8-12.7 6.2l2.4 1.1Z" fill="#fff"/><path d="M436.5 190.2s1.8 7.2 10.5 5c8.6-2.3 9.5-11.3 8.4-15.3-1.1-4-7.9-10.9-16.1-5.9-8.2 5-2.8 16.2-2.8 16.2Z" fill="#2D334A"/><path d="M462.3 369.8c2-.3 3.7.3 5.5-.2-28.4-44-26-65.8-14.7-115.3l-17.6-4.2c-6.9 47.9 3.9 79 26.8 119.7Z" fill="#AF7D61"/><path d="m435.5 250.1 17.6 4.2c-8 35.1-11.6 76.9 10.7 107.6l-3.8 3.9c-23.4-32.7-30.1-76.5-24.5-115.7Z" fill="#2D334A"/><path d="M426.8 211.6s6.2-12.4 10-14.6c1-.5 1.6-1 2-1.3-6.4-1.4-10.3 7.3-11.4 13.1l-.6 2.8Z" fill="#999"/><path d="M443.7 188.7c-3.9 5-10.6 6.3-13.6 4-3-2.5-1.3-7.7 2.6-12.7 3.9-5 8.4-5.6 11.4-3.2 3 2.4 3.5 7-.4 11.9Z" fill="#fff"/><path d="M428.2 205.7s-14.4 86.3-22 96.8c0 0 9.2 8.5 17.8 6 14.2-3.9 11.3-57.4 7.6-83.5-1-6.7.2-14.6-.6-17.7-.2-1-2.8-1.6-2.8-1.6Z" fill="#1698B8"/><path d="m418 191.7-4.1-5.1c-28.6 41.7 12.1 55.2 23.7 16.7 1.8-5.9-7-5.8-8.3.3-5 23.5-34.5 20.8-11.4-12Z" fill="#1698B8"/><path d="M425 374.2c2 1 2.2 2.7 4.4 3.4 6.6-38.9 6.5-88.7 15.6-123.8l-17.6-3.7c-7 41 6.3 77.7-2.5 124.1Z" fill="#AF7D61"/><path d="m427.4 250.1 17.6 3.7c-8.4 32.6-8.4 77.7-13.7 115.2l-5.5.6c7-44.2-5.2-79.8 1.6-119.5Z" fill="#2D334A"/><path d="m468.1 313.9-1.5-5.2c-6.6-22.8-11.6-50-14-63.8-3.4-20-2.4-28.9-5.6-38.6-1.4-4-1.6-6.5-4.9-8.5a13.2 13.2 0 0 0-3.1-1.4c-6.5-1.4-9 7.2-10.2 13l-.6 2.8c-.9 3.4-2.5 3.7.4 12 1.3 3.7-1.6 24.8-2.8 32-.5 2.3-.7 6.3-1.6 10.6-5.5 25.2-9 52.1-11.9 78.1l-.3 2.7c2.7 0 5.3-.3 7.9-1 6-1.8 11.7-4.7 18-6 4.1-.8 8.2-.5 12.4.3 2.6.5 5 1.6 7.6 1.8 3.9.2 7.3-.1 10.8-2.4 2.3-1.4 5.7-1.6 7.8-4.7-3-5.8-5.8-13.4-8.4-21.7Z" fill="#84DAED"/><path d="M451.2 312.5c6.8.1 12.8-2.4 15.4-3.8-6.6-22.8-11.6-50-14-63.8-3.4-20-2.4-28.9-5.6-38.6-1.4-4-1.6-6.5-4.9-8.5.1 6.4-2.1 20.4-2.7 46.3a229.4 229.4 0 0 0 11.8 68.4Z" fill="#1698B8"/><path d="m442.8 187.2-6.6-1c-.1.9-1.4 9.5-1.2 12.7.1 1 1.8 1.6 3.6 1.3 1.6-.3 2.9-1.2 3-2.1-.1-2 .7-7.7 1.2-10.9ZM448.1 251.5s-10 3.8-10.9 6.4c-.8 2.6 9.2 0 13.3-5.1l-2.4-1.3Z" fill="#fff"/><path d="m447 251.3 2.9 4.6c24.1-18.5 26.5-35.4-.4-53-4-2.8-6.4-2.1-6.7 1.4-.2 2.7.4 4.6 4 6.7 22.8 14 16.4 25.5.1 40.3Z" fill="#1698B8"/><path d="M450 177s-1-6.3 5.8-8.5c6.7-2.2 14.5.3 13.6 7.4-.8 7-7.7 15.4-15.6 12.8-8-2.6-3.8-11.8-3.8-11.8Z" fill="#2D334A"/><path d="M436.6 176.3s7.6 4.6 4.5 14c-1.5 4.4 11-7.4 11-7.4s-8-11.6-15.5-6.6Z" fill="#2D334A"/><path d="M444.6 192.2c-.9 1.2-3.2 1.7-4 1-.9-.6-.4-1.7.6-2.9.9-1.1 2.4-1.7 3.2-1 .9.6 1.1 1.7.2 2.9Z" fill="#fff"/></g><path d="M304.2 233c2 0 3.7-1.6 3.7-3.7 0 2 1.6 3.7 3.6 3.7-2 0-3.6 1.7-3.6 3.7 0-2-1.7-3.7-3.7-3.7ZM308.7 74c2 0 3.7-1.7 3.7-3.8 0 2 1.7 3.7 3.7 3.7-2 0-3.7 1.7-3.7 3.7 0-2-1.6-3.7-3.7-3.7Z" fill="#fff"/><path d="M349.6 237.2c.2-3.5 2-6.6 5-8.6 7.4-5 21.7-14 27-12.5 7.3 2-14 21.5-32 23.1v-2Z" fill="#CEAA97"/><path d="M348 229c4.3 3.8 8.8 6.6 13.2 10-52.4 61.2-99 39.8-145.8-13-10.6-11.8 9.4-21 21.9-9.2 42.8 40.3 61.3 64.4 110.6 12.2Z" fill="#fff"/><path d="M281.4 367.6h-74.6a417.2 417.2 0 0 1-8.1-26.2A298 298 0 0 1 190 295c-1.5-15.4-1.7-30-1-44.3.4-8.3 1.4-15.6 2.6-22a26.4 26.4 0 0 1 42-15.9l3.3 2.6a29.5 29.5 0 0 1 11.1 28c-1.7 11.7-.7 28.5 6.5 53.8l1.4 4.7 2.2 7.2a460.1 460.1 0 0 0 11.2 30.4l1.5 3.8a447.4 447.4 0 0 0 7.2 17l3.3 7.2Z" fill="#fff"/><path d="M115.4 213.8a11 11 0 0 0 2-9.5c-2.3-8.5-7-24.4-12-26.7-5-2.5-4.5 13 1.4 26.2 2 4.3 4.4 8.4 7.4 11.5l1.2-1.5Z" fill="#CEAA97"/><path d="m210.9 236.8-1 1-.8.8-1.7 1.8a320.9 320.9 0 0 1-25.5 22.9 182.4 182.4 0 0 1-16.5 11.5 75.6 75.6 0 0 1-15.2 6.7 32.5 32.5 0 0 1-10.2 1 20.9 20.9 0 0 1-6-1.3l-.9-.4a31.1 31.1 0 0 1-4-2.4c-2-1.5-3.6-3.1-5-4.7a59.4 59.4 0 0 1-8-15 165 165 0 0 1-7.6-43.9l-.1-2.4v-1.2l-.1-1.3 14.1-.6.1 1 .1 1.2.2 2.2a217.7 217.7 0 0 0 1.9 13.5 149.7 149.7 0 0 0 6.8 25.6 42.7 42.7 0 0 0 5.7 9.6c.7.8 1.4 1.4 2 1.7l.8.5h.2l.2.1h1.9a29.7 29.7 0 0 0 6-2c2.3-1.1 4.7-2.5 7-4 4.7-3.2 9.3-7 13.8-10.9a245.2 245.2 0 0 0 22.3-22.5l1.5-1.7.7-.8.7-.8 16.6 14.8Z" fill="#fff"/><path d="M221.8 220.4s12.2 30 10 68.5c-1 16-.1 26.1-.1 26.1l15.4 5.8 4.6-15s-6.6-17.3-8.3-28.6c-2.2-14-9.8-49-17.2-57.5l-4.4.7Z" fill="#1698B8"/><path d="M212 204s-6.3 2-7 8.5c-1 7.7 15.2 23.6 15.2 23.6s5.1-11.8 5.2-13.4l11.3 3s-3.7-16.4-11.3-19.7c-7.3-3.2-11.1-3.2-13.4-2Z" fill="#84DAED"/><path d="M206.3 191.8s1.8 9.2 6.8 11c5 1.6.4-14.6.4-14.6l-7.2 3.6ZM235.9 154.3s12 6.7 7.9 14.4c-4.2 7.7-14-8-14-8s.8-10.4 6-6.4Z" fill="#2D334A"/><path d="M209 183.1c6 15.9 22.1 24.5 31.8 20.8 9.7-3.7 9.4-18.4 3.3-34.3-6-15.9-17-21-26.8-17.2-9.7 3.7-14.4 14.8-8.3 30.7Z" fill="#CEAA97"/><path d="m209.4 183.2 17.8-1.7c.3 2.4 2.1 25.6 1.2 34.4-.6 2.7-5 3.9-9.9 2.7-4.3-1-7.4-3.7-7.6-6.1.6-5.3-.6-20.8-1.5-29.3Z" fill="#CEAA97"/><path d="M216.5 189.7c3.1-2.2 5 .8 10.4 5.6 5.5 4.8 16.7 6.2 20.5-8 1.7-6.1 3-1 3.9 3 .5 3 .6 6.2-.3 9.2a13 13 0 0 1-8.5 8.9c-6.4 2.5-15 1-22.5-4-4-2.7-6.3-7.5-5-12.1.3-1.2.8-2 1.5-2.6Z" fill="#2D334A"/><path d="m248 186.8-.6.2c-3.4 1-18.9 5.8-21.5 11.2-2.9 6 8-1 11.6-4.5 3.6-3.5 6.7-2.2 9.9-2.5 3.1-.2 5.2-3.6.6-4.4ZM203.1 176a24 24 0 0 1-.1-6.1c.4-4 1.7-10 5.8-14.2 6.5-6.7 22.1-12 30.8.8 0 0 5.4 9.7-6.8 15.1-12.2 5.5-12-1.8-16.3 6.3-4.3 8.2-11.3 5.2-12 7l-1.4-8.8Z" fill="#2D334A"/><path d="M203.1 190.2c1.5 3.6 7 7 9.6 6 2.7-1 2.2-4.3.8-8-1.4-3.7-5-6.4-7.6-5.3-2.7 1-4.2 3.6-2.8 7.3Z" fill="#CEAA97"/><path d="m202.6 258.5 19.4-2.8 1.1 18.6-6.4 7.4-9.6-5-4.5-18.2Z" fill="#84DAED"/><path d="M439.3 251.8H283.9a4 4 0 0 0-4 3.9v101.2a4 4 0 0 0 4 4h155.4a4 4 0 0 0 4-4V255.7a4 4 0 0 0-4-4Z" fill="#454A5F"/><path d="M437 354.7v-96.8H286.2v96.8h151Z" fill="#F87895"/><path d="M266.7 360.8h189.8c.3 0 .6.3.6.7v6.6c0 3-2.4 5.5-5.4 5.5H271.5c-3 0-5.4-2.5-5.4-5.5v-6.6c0-.4.3-.7.6-.7Z" fill="#454A5F"/><path d="M346.3 360.8h30.6v2.4c0 1.6-1.2 2.8-2.8 2.8h-25a2.8 2.8 0 0 1-2.8-2.8v-2.4Z" fill="#F87895"/><path d="M310.1 358H296v2.7H310v-2.6ZM413 360.7h14.2v-2.6H413v2.6Z" fill="#6C7080"/><path d="M399.1 166.4H276c-1.2 0-2.1 1-2.1 2.1v32.7c0 1.2 1 2.1 2 2.1h123.3c1.2 0 2.1-1 2.1-2v-32.8c0-1.1-1-2-2-2Z" fill="#fff"/><path d="m275 195.3-16.3 2.3 18.1-13-1.8 10.7Z" fill="#fff"/><path d="M344.8 179.9H289v3.5h56v-3.5ZM386.4 186.6h-97.5v3.5h97.5v-3.5Z" fill="#A90E4B"/><path d="M274.5 285c-5.9 0-11 3.9-12.5 9.3h25a13 13 0 0 0-12.5-9.4ZM308.6 285c-5.9 0-11 3.9-12.5 9.3h25a13 13 0 0 0-12.5-9.4Z" fill="#5BC5DE"/><path d="M292.4 280.9c-8.5 0-15.6 5.7-17.9 13.4h35.8a18.6 18.6 0 0 0-18-13.4Z" fill="#5BC5DE"/><path d="M301.6 308.3c-3 0-5.5 2-6.2 4.7h12.5a6.5 6.5 0 0 0-6.3-4.7ZM318.7 308.3c-3 0-5.5 2-6.3 4.7H325a6.5 6.5 0 0 0-6.2-4.7Z" fill="#B4E8F4"/><path d="M310.5 306.3a9.3 9.3 0 0 0-8.9 6.7h17.9a9.3 9.3 0 0 0-9-6.7Z" fill="#B4E8F4"/><mask id="e" style="mask-type:luminance" maskUnits="userSpaceOnUse" x="286" y="238" width="152" height="117"><path d="M437 354.7V239H286.2v115.7h151Z" fill="#fff"/></mask><g mask="url(#e)"><path d="M353.6 519.6c3 0 6-.4 9-.8-9-48.4-15.8-113.3 8.4-158.5a1576 1576 0 0 0-22.2-10.7c-17.7 39.4-2.6 128.4 4.8 170Z" fill="#969696"/><path d="M342.7 362c4.2-.5 9.5-.8 16.2-.5 10 .5 15.7 2 19.6 3.5a191.8 191.8 0 0 0 9.7-32.3 144.6 144.6 0 0 0 2.2-33.4 78 78 0 0 0-1.3-10.8 12.9 12.9 0 0 0-20.5-7.7L367 282a14.4 14.4 0 0 0-5.5 13.6c1 6.1.3 15-3.8 28.7a316.8 316.8 0 0 1-4.1 12 259.6 259.6 0 0 1-5.3 13.2l-1.4 3.3-4.2 9.1Z" fill="#39AECB"/><path d="M380.3 267c-5.4 6.7-14.5 8.4-18.6 5-4.1-3.2-1.7-10.3 3.7-17 5.4-6.8 11.5-7.5 15.6-4.2s4.7 9.4-.7 16.2Z" fill="#fff"/><path d="m380.3 265-9-.9c-.2 1.3-1.1 13-.6 17.5.3 1.4 2.5 2 5 1.4 2.2-.5 3.8-1.9 3.8-3.1-.2-2.7.4-10.6.8-14.9Z" fill="#fff"/><path d="M384.7 263.5s2-5.5 0-9.8c-2.2-4.2-8.9-9.2-15-4.4 0 0-4.2 3.9.9 8.4 5 4.6 6 1 6.9 5.6.8 4.6 4.6 4.2 4.7 5.2l2.5-5Z" fill="#3B3E54"/><path d="M380.9 359.3c1.4 2 3 4 4 5.7 34.2-24.5 38-50.5 6.5-78.2-5.8-5.1-8.8-.7-9-.5-3.3 5-2.7 6.7 2 10.4 31 25.3 20.4 38-3.5 62.6Z" fill="#39AECB"/><path d="M304.8 263.8s-5.7-13.6-9.3-14.6c-3.6-1 .4 12.6 7.6 17.8l1.7-3.2Z" fill="#fff"/><path d="M305.3 262.2c-2.3.7-4.7 1.5-6.8 2 12.6 40.2 36 52 72.2 30.7 6.7-3.9 3.5-8.1 3.3-8.3-3.7-4.7-5.4-4.7-10.5-1.5-33.7 21.5-42.4 7.5-58.2-23Z" fill="#39AECB"/><path d="M374.7 247.4s5.1 17 7.8 20.5c0 0 2.3-.6 4.5-6.7 0 0 4.5-.8 5-3.7.5-3-9.3-11.7-17.3-10.1Z" fill="#F69E7B"/><path d="M382.6 269.8c-1.2 1.6-4.4 2.4-5.5 1.5-1.2-1-.4-2.5.8-4 1.3-1.6 3.4-2.3 4.5-1.4 1.2.9 1.5 2.4.2 4Z" fill="#fff"/><path d="M377.3 270s-1.3-1.5-3.6.2-4.8 2.8-7.3 1.6c-2.4-1.2-2.7-2-4.7-2.9-2-1-.6-6.7-.1-7.7 1.1-2.5-.7-.9-1.7.6s-4.5 5.7-1.2 9.7c3.2 4 4.7 4.7 8 4.4 3.3-.4 8.1-.5 10.6-6Z" fill="#3B3E54"/></g><path d="M395.9 273.7c2 0 3.6-1.6 3.6-3.6 0 2 1.7 3.6 3.7 3.6-2 0-3.7 1.7-3.7 3.7 0-2-1.6-3.7-3.6-3.7ZM424.3 166.4c3.7 0 6.6-2.9 6.6-6.5 0 3.6 3 6.5 6.6 6.5-3.6 0-6.6 3-6.6 6.6 0-3.6-3-6.6-6.6-6.6ZM408.3 289.3c3.7 0 6.6-3 6.6-6.6 0 3.6 3 6.6 6.6 6.6-3.6 0-6.6 3-6.6 6.6 0-3.7-3-6.6-6.6-6.6Z" fill="#fff"/></g><path d="M182.1 364.1c-5 0-9.4 3.4-10.8 8.1H193a11.2 11.2 0 0 0-10.8-8.1ZM211.6 364.1c-5.1 0-9.5 3.4-10.8 8.1h21.6a11.2 11.2 0 0 0-10.8-8.1Z" fill="#39AECB"/><path d="M197.6 360.6a16 16 0 0 0-15.5 11.6H213a16 16 0 0 0-15.4-11.6Z" fill="#39AECB"/></g><defs><clipPath id="a"><path fill="#fff" d="M0 0h629v412H0z"/></clipPath><clipPath id="b"><path fill="#fff" transform="translate(102 69)" d="M0 0h376.5v304.6H0z"/></clipPath></defs></svg>