<svg width="629" height="412" fill="none" xmlns="http://www.w3.org/2000/svg"><g clip-path="url(#a)"><path d="M629 0H0v412h629V0Z" fill="#84DAED"/><path d="M448.75 213.34s2.52-6.84-1.2-14.9c-3.7-8.06 2.71-12.12 6.27-9.63 3.55 2.5 5.75 11.6-5.07 24.53ZM442.62 218.68s-2.42-6.87-10.43-10.71c-8-3.84-5.65-11.06-1.32-11.4 4.32-.34 11.83 5.26 11.75 22.11ZM443.42 219.38s7.26-.57 14.02 5.18c6.77 5.75 12.42.67 10.97-3.42-1.44-4.09-9.62-8.67-25-1.76ZM434.43 231.86s7.27-.57 14.03 5.18 12.41.67 10.97-3.42c-1.45-4.09-9.62-8.67-25-1.76ZM429.28 245.13s7.27-.57 14.03 5.18 12.4.67 10.96-3.42c-1.44-4.09-9.61-8.67-25-1.76ZM423.61 261.83s7.27-.57 14.03 5.18 12.4.67 10.97-3.42c-1.45-4.09-9.62-8.67-25-1.76ZM434.53 231.77s-2.43-6.87-10.43-10.72c-8-3.84-5.65-11.06-1.33-11.4 4.33-.34 11.84 5.26 11.76 22.12ZM428.15 246.37s-2.42-6.87-10.43-10.71c-8-3.84-5.65-11.06-1.32-11.4 4.32-.34 11.83 5.26 11.75 22.11ZM423.09 261.54s-2.43-6.87-10.44-10.71c-8-3.84-5.64-11.07-1.32-11.4 4.33-.34 11.83 5.26 11.76 22.11Z" fill="#5BC5DE"/><path d="M415.85 329.77c.38-.06.66-.4.63-.8 0-.18-1.26-18.8 2.34-42.59 3.32-21.91 11.54-52.83 31.9-75.66a.75.75 0 1 0-1.14-1c-20.6 23.11-28.91 54.34-32.26 76.47-3.62 23.95-2.36 42.7-2.34 42.9.03.4.39.72.8.7l.07-.02ZM496.7 242.28s3.7-4.8 2.77-12.11c-.92-7.32 5.18-8.94 7.37-6.07 2.19 2.86 1.66 10.63-10.15 18.18ZM490.5 244.98s-.21-6.05-5.6-11.1c-5.38-5.05-1.7-10.18 1.81-9.37 3.52.81 8.06 7.13 3.78 20.47ZM490.95 245.73s5.9 1.37 9.82 7.62c3.93 6.25 9.68 3.63 9.55.03-.12-3.6-5.45-9.28-19.37-7.65ZM480.7 253.38s5.9 1.37 9.82 7.62c3.93 6.25 9.68 3.63 9.55.03-.12-3.6-5.45-9.28-19.37-7.65ZM473.3 262.61s5.9 1.37 9.82 7.62 9.67 3.63 9.55.03c-.12-3.6-5.45-9.28-19.38-7.65ZM464.62 274.44s5.9 1.36 9.83 7.61c3.92 6.25 9.67 3.64 9.55.03-.13-3.6-5.46-9.28-19.38-7.64ZM480.8 253.33s-.2-6.05-5.58-11.1c-5.39-5.05-1.72-10.18 1.8-9.37 3.52.81 8.06 7.13 3.78 20.47ZM472.09 263.32s-.2-6.05-5.59-11.1c-5.38-5.05-1.7-10.19 1.8-9.38 3.52.82 8.07 7.13 3.79 20.48ZM464.28 274.08s-.2-6.05-5.59-11.1c-5.38-5.05-1.7-10.19 1.8-9.38 3.52.82 8.07 7.14 3.79 20.48Z" fill="#5BC5DE"/><path d="M441.46 326.36c.32.05.63-.15.7-.47.04-.15 3.71-15.22 12.52-33.19 8.11-16.54 22.37-39 44.22-52.01a.63.63 0 0 0-.64-1.08c-22.13 13.18-36.53 35.86-44.72 52.57-8.86 18.08-12.55 33.27-12.59 33.42a.63.63 0 0 0 .51.76Z" fill="#5BC5DE"/><path d="M263.65 311.02a77.55 77.55 0 0 0-74.56 56.18h149.12a77.55 77.55 0 0 0-74.56-56.18ZM467.06 311.02a77.55 77.55 0 0 0-74.56 56.18h149.12a77.56 77.56 0 0 0-74.56-56.18Z" fill="#DBF0F7"/><path d="M370.15 286.95c-50.6 0-93.27 33.92-106.5 80.25h213c-13.23-46.33-55.9-80.25-106.5-80.25Z" fill="#DBF0F7"/><path d="M532.06 396.59H96.9a14.56 14.56 0 1 1 0-29.1h435.16a14.56 14.56 0 1 1 0 29.1Z" fill="#1698B8"/><path d="M-24.1 38.92A60 60 0 0 0-81.8 82.38H33.58A60 60 0 0 0-24.1 38.92ZM133.26 38.92a60 60 0 0 0-57.68 43.46h115.36a60 60 0 0 0-57.68-43.46Z" fill="#fff"/><path d="M58.29 20.3a85.7 85.7 0 0 0-82.4 62.09h164.8a85.7 85.7 0 0 0-82.4-62.08Z" fill="#fff"/><path d="M2.2 70.13a29.61 29.61 0 0 0-28.47 21.44h56.92A29.6 29.6 0 0 0 2.2 70.13ZM79.84 70.13a29.61 29.61 0 0 0-28.46 21.44h56.92a29.6 29.6 0 0 0-28.46-21.44Z" fill="#5BC5DE"/><path d="M42.85 60.94A42.29 42.29 0 0 0 2.19 91.58H83.5a42.29 42.29 0 0 0-40.65-30.64Z" fill="#5BC5DE"/><path d="M176.8 306.82a62.13 62.13 0 0 0-18.24 9.28l-.19-.76a373.8 373.8 0 0 0-6.16-21.74 62.19 62.19 0 0 0 19.53-7.53 61.25 61.25 0 0 0 16.68-15.29s-10.76 1.45-21.23 7.83a62.1 62.1 0 0 0-15.41 13.63 354.67 354.67 0 0 0-7.24-20.43 62.17 62.17 0 0 0 16.82-12.21c8.49-8.85 12.22-19.05 12.22-19.05s-10.04 4.15-18.53 13a62 62 0 0 0-11.17 16.58 317.7 317.7 0 0 0-9.43-21.51c2.93-2.05 9.5-7.1 14.78-14.65 7.04-10.03 9.17-20.68 9.17-20.68s-9.29 5.63-16.33 15.67a62.13 62.13 0 0 0-8.47 17.93 278.2 278.2 0 0 0-7.74-14.63 62.06 62.06 0 0 0 8.12-19.1c2.72-11.95.67-22.61.67-22.61s-6.47 8.72-9.2 20.67a61.53 61.53 0 0 0-1.19 18.25 250.61 250.61 0 0 0-6.21-10.08 61.65 61.65 0 0 0-7.2-16.84C104.3 192.18 95.3 186.1 95.3 186.1s1.6 10.74 8.15 21.1a61.65 61.65 0 0 0 11.99 13.69c2.24 3.44 4.38 6.92 6.42 10.42a62.12 62.12 0 0 0-19.28-4.41c-12.25-.68-22.41 3.14-22.41 3.14s9.68 4.9 21.93 5.58c9.3.52 17.4-1.56 20.76-2.59 2.79 4.88 5.38 9.79 7.8 14.69a62.16 62.16 0 0 0-20.55 1.25c-11.93 2.89-20.56 9.47-20.56 9.47s10.7 1.9 22.62-.98a62.03 62.03 0 0 0 19.12-8.47 312.5 312.5 0 0 1 9.72 22.06 62.09 62.09 0 0 0-20.47-.54c-12.13 1.82-21.32 7.62-21.32 7.62s10.49 2.84 22.61 1.02c9.14-1.38 16.6-5 19.73-6.71a350.55 350.55 0 0 1 7.32 20.62 62.1 62.1 0 0 0-20.34-1.26c-12.18 1.39-21.57 6.85-21.57 6.85s10.38 3.22 22.56 1.83a62.15 62.15 0 0 0 19.83-5.93c2.45 7.76 4.46 15 6.08 21.45l.24.97a61.87 61.87 0 0 0-22 1.08 61.26 61.26 0 0 0-20.55 9.47s10.7 1.9 22.62-.98a61.91 61.91 0 0 0 20.04-9.1c6.54 26.49 8.17 45.4 8.19 45.58l3-.24c-.02-.2-1.63-18.9-8.05-45.17 3.7.18 11.8.19 20.42-2.43 11.73-3.57 19.97-10.64 19.97-10.64s-10.78-1.29-22.52 2.27v.01Z" fill="#84DAED"/><path d="M100.17 317.52a37.14 37.14 0 0 0-8.86 8.45l-.24-.4a223.93 223.93 0 0 0-7.27-11.4 37.18 37.18 0 0 0 9.9-7.67c4.9-5.46 6.93-11.63 6.93-11.63s-5.92 2.68-10.82 8.13a37.06 37.06 0 0 0-6.49 10.46c-2.31-3.37-4.87-6.9-7.66-10.46a37.2 37.2 0 0 0 7.55-9.89c3.34-6.53 3.72-13.01 3.72-13.01s-5.04 4.1-8.38 10.63A37.08 37.08 0 0 0 75 302.15c-2.8-3.55-5.84-7.15-9.1-10.71a37.13 37.13 0 0 0 5.95-10.93c2.3-6.96 1.7-13.43 1.7-13.43s-4.36 4.82-6.67 11.79c-1.59 4.8-1.79 9.35-1.76 11.73a167.31 167.31 0 0 0-6.95-7.06 37.1 37.1 0 0 0 1.36-12.34c-.5-7.32-3.5-13.07-3.5-13.07s-2.21 6.1-1.71 13.42c.3 4.45 1.53 8.32 2.44 10.67-1.71-1.6-3.48-3.18-5.29-4.71a36.87 36.87 0 0 0-7.02-8.42c-5.53-4.82-11.73-6.76-11.73-6.76s2.76 5.88 8.3 10.7c3.32 2.9 6.9 4.76 9.21 5.78 1.88 1.59 3.7 3.22 5.47 4.88-2.37-.23-6.91-.4-11.8.78a36.64 36.64 0 0 0-12.3 5.64s6.39 1.15 13.52-.56c5.42-1.3 9.7-3.88 11.45-5.05 2.44 2.31 4.77 4.68 7 7.07A37.2 37.2 0 0 0 52 295.82a36.66 36.66 0 0 0-10.15 8.96s6.46-.74 12.8-4.44a37.13 37.13 0 0 0 9.5-8.14c3.36 3.64 6.48 7.33 9.36 10.97-2.22.22-6.99.93-11.83 3.21a36.66 36.66 0 0 0-10.9 8.03s6.5-.17 13.13-3.3c5-2.36 8.65-5.72 10.15-7.23 2.83 3.6 5.4 7.15 7.75 10.55-2.26.15-7 .7-11.88 2.78-6.74 2.89-11.18 7.63-11.18 7.63s6.5.06 13.24-2.83a37.14 37.14 0 0 0 10.35-6.8c2.73 4.02 5.13 7.83 7.17 11.25l.3.5a37.03 37.03 0 0 0-12.42 4.4c-6.33 3.7-10.15 8.96-10.15 8.96s6.46-.74 12.8-4.44a36.98 36.98 0 0 0 9.92-8.67c8.3 14.07 12.48 24.62 12.52 24.73l1.68-.66c-.05-.1-4.18-10.54-12.37-24.5 2.14-.53 6.79-1.92 11.28-4.9 6.1-4.06 9.62-9.52 9.62-9.52s-6.4 1.1-12.51 5.17v-.01Z" fill="#84DAED"/><path d="M63.88 343.6a34.01 34.01 0 0 0-32.7 24.63h65.4a34 34 0 0 0-32.7-24.63ZM153.08 343.6a34.01 34.01 0 0 0-32.7 24.63h65.39a34.01 34.01 0 0 0-32.7-24.63Z" fill="#5BC5DE"/><path d="M110.58 333.05a48.57 48.57 0 0 0-46.7 35.18h93.4a48.58 48.58 0 0 0-46.7-35.19Z" fill="#5BC5DE"/><path d="M.06 362.7a15.62 15.62 0 0 0-15.02 11.32h30.03A15.62 15.62 0 0 0 .06 362.7ZM41.02 362.7A15.62 15.62 0 0 0 26 374.03h30.03a15.62 15.62 0 0 0-15.01-11.31Z" fill="#00496F"/><path d="M21.5 357.86A22.3 22.3 0 0 0 .06 374.02h42.89a22.3 22.3 0 0 0-21.45-16.16Z" fill="#00496F"/><path d="M504.6 153.38a26.92 26.92 0 0 0-25.88 19.5h51.77a26.93 26.93 0 0 0-25.88-19.5ZM575.22 153.38a26.92 26.92 0 0 0-25.88 19.5h51.77a26.92 26.92 0 0 0-25.88-19.5Z" fill="#1698B8"/><path d="M541.58 145.02a38.46 38.46 0 0 0-36.98 27.86h73.95a38.46 38.46 0 0 0-36.97-27.86Z" fill="#1698B8"/><path d="M592.71 164.3c-8 0-14.73 5.36-16.82 12.68h33.64a17.5 17.5 0 0 0-16.82-12.68ZM638.6 164.3c-7.99 0-14.73 5.36-16.82 12.68h33.65a17.5 17.5 0 0 0-16.82-12.68Z" fill="#5BC5DE"/><path d="M616.74 158.87a25 25 0 0 0-24.03 18.1h48.06a25 25 0 0 0-24.03-18.1Z" fill="#5BC5DE"/><path d="M182.15 364.1c-5.13 0-9.46 3.44-10.8 8.13h21.6a11.23 11.23 0 0 0-10.8-8.13ZM211.6 364.1c-5.13 0-9.45 3.44-10.8 8.13h21.6a11.23 11.23 0 0 0-10.8-8.13Z" fill="#39AECB"/><path d="M197.57 360.61c-7.33 0-13.5 4.92-15.42 11.63h30.84a16.04 16.04 0 0 0-15.42-11.63Z" fill="#39AECB"/><path d="M196.89 171.91c-7 0-12.91 4.7-14.74 11.11h29.48a15.33 15.33 0 0 0-14.74-11.1ZM237.11 171.91c-7 0-12.91 4.7-14.74 11.11h29.49a15.33 15.33 0 0 0-14.75-11.1Z" fill="#fff"/><path d="M217.95 167.15c-10 0-18.44 6.71-21.06 15.87H239a21.9 21.9 0 0 0-21.06-15.87Z" fill="#fff"/><path d="M247.51 323.15a2.78 2.78 0 0 1 3.35 3.76 79.6 79.6 0 0 1 6.32 7.33c-.34-2.6-.65-6.48-.2-10.3a2.77 2.77 0 0 1 .38-5.17 2.78 2.78 0 1 1 1.1 5.42c-.65 5.71.48 11.75.67 12.68a114.74 114.74 0 0 1 9.46 16.01c4 8.19 5.95 14.44 5.97 14.5l-1.43.45c-.02-.06-1.94-6.2-5.9-14.29-1.18-2.43-2.63-5.2-4.36-8.12a29.52 29.52 0 0 0-10.33-.64 2.78 2.78 0 1 1-.32-1.47c4.24-.47 7.64-.05 9.58.33a89.1 89.1 0 0 0-11.9-15.56 2.78 2.78 0 1 1-2.4-4.93Z" fill="#00365D"/><path d="M280.41 344.26a29.48 29.48 0 0 0-9.45-4.24 2.78 2.78 0 1 1 .23-1.49 32.4 32.4 0 0 1 8.85 3.69 89.09 89.09 0 0 0-5.65-18.75 2.78 2.78 0 1 1 1.3-.75 79.33 79.33 0 0 1 3.33 9.07c.6-2.55 1.68-6.3 3.44-9.7a2.77 2.77 0 1 1 1.3.75c-2.62 5.12-3.69 11.17-3.84 12.1a114.7 114.7 0 0 1 3.2 18.32c.86 9.07.49 15.61.49 15.68l-1.5-.1c0-.06.37-6.48-.47-15.43-.26-2.7-.64-5.8-1.22-9.15Z" fill="#00365D"/><path d="M168.16 47.42a26.92 26.92 0 0 0-25.88 19.5h51.77a26.92 26.92 0 0 0-25.89-19.5ZM238.78 47.42a26.92 26.92 0 0 0-25.89 19.5h51.77a26.93 26.93 0 0 0-25.88-19.5Z" fill="#1698B8"/><path d="M205.13 39.06a38.46 38.46 0 0 0-36.97 27.86h73.94a38.46 38.46 0 0 0-36.97-27.86Z" fill="#1698B8"/><path d="M520.82 213.37c4.3 0 7.77-3.47 7.77-7.76a7.77 7.77 0 0 0 7.77 7.76 7.77 7.77 0 0 0-7.77 7.77 7.77 7.77 0 0 0-7.77-7.77ZM152.95 145.02c2.4 0 4.33-1.94 4.33-4.33 0 2.4 1.94 4.33 4.34 4.33a4.34 4.34 0 0 0-4.34 4.34c0-2.4-1.94-4.34-4.33-4.34ZM10.73 328.43c2.4 0 4.34-1.94 4.34-4.33 0 2.4 1.94 4.33 4.34 4.33a4.34 4.34 0 0 0-4.34 4.33c0-2.39-1.94-4.33-4.34-4.33Z" fill="#fff"/><path d="M573.32 309.71a4.48 4.48 0 0 0-6.86 4.36c-4.58 2.6-8.94 5.51-13.04 8.56a69.61 69.61 0 0 0 4.87-15.88 4.47 4.47 0 1 0-2.4-.26c-1.52 9.15-5.95 18-6.65 19.37a184.63 184.63 0 0 0-21.75 20.65c-9.82 10.93-15.61 19.76-15.67 19.84l2.02 1.32c.06-.09 5.75-8.76 15.45-19.55 2.92-3.24 6.4-6.9 10.36-10.67 1.74.03 8.25.35 16.3 3.58a4.47 4.47 0 1 0 1.15-2.14 52.28 52.28 0 0 0-15-3.73c7.2-6.6 15.78-13.4 25.32-18.86a4.48 4.48 0 1 0 5.9-6.59Z" fill="#84DAED"/><path d="M512.96 327.9c1.64-.59 7.85-2.58 16.53-2.39a4.47 4.47 0 1 0 .31-2.4 52.19 52.19 0 0 0-15.35 1.8c4.4-8.73 10.05-18.1 17.06-26.58a4.48 4.48 0 1 0-1.69-1.75c-3.36 4.06-6.42 8.31-9.19 12.6.21-4.2.2-10.5-1.03-16.57a4.46 4.46 0 0 0-1.3-8.25 4.48 4.48 0 1 0-1.04 8.85c1.8 9.1.77 18.95.6 20.47a184.76 184.76 0 0 0-13.08 26.98c-5.34 13.68-7.65 23.98-7.67 24.09l2.35.52c.03-.1 2.3-10.22 7.57-23.73 1.59-4.06 3.56-8.71 5.94-13.64Z" fill="#84DAED"/><path d="M463.69 356.83a24.87 24.87 0 0 0-23.91 18.01h47.82a24.87 24.87 0 0 0-23.91-18.01ZM528.92 356.83a24.87 24.87 0 0 0-23.9 18.01h47.81a24.87 24.87 0 0 0-23.9-18.01Z" fill="#5BC5DE"/><path d="M497.84 349.11a35.53 35.53 0 0 0-34.15 25.74h68.3a35.52 35.52 0 0 0-34.15-25.74Z" fill="#5BC5DE"/><path d="M577.9 366.57c6.94 0 12.78 4.65 14.6 11h-29.18c1.81-6.35 7.66-11 14.58-11ZM538.11 366.57c6.93 0 12.78 4.65 14.59 11h-29.17c1.8-6.35 7.65-11 14.58-11Z" fill="#00496F"/><path d="M557.07 361.87c9.9 0 18.25 6.63 20.84 15.7h-41.67a21.67 21.67 0 0 1 20.83-15.7Z" fill="#00496F"/><g clip-path="url(#b)"><path d="M355.65 196.14c-19.36.79-39.96 5.1-53.36 19.1-8.19 8.55-12.9 19.95-21.08 28.52-15.26 16-39.53 19.25-61.63 18.41-22.1-.83-44.61-4.73-66.06.66a78.71 78.71 0 0 0-34.52 19.1v19.95h292.33V193.43c-18.18 3.74-37.08 1.94-55.68 2.7Z" fill="#EC577F"/><path d="M119 139.96v141.97a78.7 78.7 0 0 1 34.52-19.1c21.45-5.38 43.96-1.48 66.06-.65s46.37-2.42 61.63-18.42c8.17-8.56 12.89-19.96 21.08-28.52 13.4-14 34-18.31 53.36-19.1 18.6-.76 37.5 1.03 55.68-2.71v-53.47H119Z" fill="#FD9CAE"/><path d="M411.33 139.96H119v22.33h292.33v-22.33Z" fill="#383E56"/><path d="M162.47 155.24a3.8 3.8 0 1 0 0-7.59 3.8 3.8 0 0 0 0 7.59Z" fill="#E0E594"/><path d="M149.49 155.24a3.8 3.8 0 1 0 0-7.59 3.8 3.8 0 0 0 0 7.59Z" fill="#FEDD73"/><path d="M136.5 155.24a3.8 3.8 0 1 0 0-7.59 3.8 3.8 0 0 0 0 7.59ZM205.23 190.36s-1.05 16.1-23.32 20.54c0 0 16.1-6.67 16.04-21.51l7.28.97Z" fill="#EC577F"/><path d="M270.6 56.38h-93.27v138.85h93.26V56.38Z" fill="#EC577F"/><path d="M202.14 259.7c3.28 4.62 1.6 14.05-4.39 15.67-.56.15-1.15.24-1.64.55-.78.5-1.14 1.42-1.37 2.3-.5 2-.6 4.13-1.5 5.98a7.25 7.25 0 0 1-8.28 3.72c-2.92-.88-4.97-3.77-5.32-6.8-.34-3.03.84-6.1 2.75-8.47.47-.59 1-1.16 1.3-1.85.58-1.29.33-2.78.59-4.17a5.7 5.7 0 0 1 1.96-3.33c1.31-1.08 3.04-1.52 4.47-2.44 1.67-1.1 2.91-2.85 4.78-3.55 2.37-.88 5.19.32 6.65 2.38Z" fill="#2D334A"/><path d="M198.5 347.85c.67-1.33 1.43-2 2.67-2a2.41 2.41 0 0 1 2.4 2.5l-1.29 38a1.11 1.11 0 0 1-2.22 0l-.06-1.64c-2.13-26.01-3.49-32.04-1.5-36.86ZM182.7 343.87c1.26-.8 2.25-.96 3.3-.31 1.17.71 1.5 2.24.75 3.38l-21 31.71a1.11 1.11 0 0 1-1.89-1.16l.81-1.43c11.8-23.29 13.8-29.13 18.03-32.2Z" fill="#fff"/><path d="M193.37 313.62s1.45 24.71 4.87 32.23c0 0-3.27 4.27.85 33.85h3.7s1.7-30.78 1.6-31.97c-.08-1.2-1.09-32.86-1.86-35.11-.78-2.26-9.16 1-9.16 1Z" fill="#00496F"/><path d="M187.22 312.5s-3.83 15.53-4.32 30.31c0 0-6.06 1.67-15.74 27.45l3.24 2.51s17.4-25.7 17.48-26.31c.07-.62 8.81-34.24 8.81-34.24l-9.47.29Z" fill="#00496F"/><path d="M200.1 386.1s-.72 2.85-.22 3c.5.14 12.16.24 12.97-.29.82-.52-1.7-1.27-1.7-1.27s-5.54-1.3-8.71-1.53c0 0-2.34-.08-2.33.08ZM165.5 376.24s-2.8-.92-2.99-.43c-.18.5-1.06 12.12-.58 12.96.47.85 1.38-1.62 1.38-1.62s1.67-5.43 2.11-8.58c0 0 .24-2.32.08-2.33Z" fill="#fff"/><path d="M194.27 271.34c-2.45-1.95-.53-3.82-.5-3.9.36-.86 2.17-1.19 3.19-.67l22.13 12.8c.38.17.1.8-.05 1.18a.78.78 0 0 1-.24.31c-.64.73-1.9.99-2.86.75-5.01-1.2-18.47-7.94-21.66-10.47Z" fill="#84DAED"/><path d="M203.42 313.23c-.84.6-1.62 1.02-2.53 1.36-6.27 2.27-9.9-2.18-16.18-.16-.47.16 1.27-9.51 2.4-16.45 1.86-18.08-.93-20.2.44-24.55.97-3.04 2.48-5.37 4.41-6.46 1.54-.87 3.35-.95 5.36.02.23.11.45.3.67.56 1.17 1.4 2.21 4.82 2.72 8.42.6 4.28 1.45 3.42-.9 9.69-.84 2.23 1.27 17.32 2.3 21.31.3 1.15.74 5.05 1.31 6.25Z" fill="#84DAED"/><path d="M194.23 271.88c2-2.05 0-3.76-.04-3.84-.45-.82-2.15-1.03-3.02-.46l-18.74 13.84c-.32.2.01.8.2 1.16.07.12.16.22.27.29.68.67 1.87.84 2.73.56 4.46-1.48 15.99-8.88 18.6-11.54Z" fill="#84DAED"/><path d="M179.73 302.04c.88-.18 1.79.06 2.47.65 1.74 1.52 4.92 4.48 4.9 5.9 0 1.96-6.27-2.04-7.87-6.44l.5-.1Z" fill="#fff"/><path d="M181.57 302.12c-.84-5.27-4.4-16.42-6.13-19.32-1.44-2.41-2.89-1.5-2.96-1.49-.83.22-1.54 1.68-1.2 2.64l7.86 18.95 2.43-.78Z" fill="#84DAED"/><path d="M207.06 386.4c-1.19.57-3.18.99-5.45 1.06-.72.03-1.42.02-2.08-.03-.11 1.03-.14 2.23.36 2.27.89.07 13.55.02 13.6-.57.11-1.16-3.32-2.15-6.43-2.73ZM164.72 383.15c-.49-1.22-.77-3.23-.7-5.5.03-.73.09-1.42.17-2.07-1.02-.19-2.21-.3-2.28.2-.14.88-.93 13.52-.35 13.6 1.16.2 2.38-3.17 3.16-6.23Z" fill="#00365D"/><path d="M193.57 265.64s-4.45-.95-5.36-5.17c-1.23-5.67 4.18-9.26 7.58-7.8 3.13 1.34 2.97 3.88 2.71 4.54-.26.65-4.92 8.43-4.92 8.43Z" fill="#2D334A"/><path d="M191.66 253.97s1.61-1.7.12-3.22c-1.5-1.52-3.53-.55-3.82.85-.32 1.56.56 2.36 1.24 2.7.68.32 1.79.21 2.46-.33Z" fill="#2D334A"/><path d="M221.45 261.46a2.87 2.87 0 0 0 1.6-1.99c.5-2.25 1.3-6.53.46-7.66-1.17-1.57-3.84 5.36-2.53 9.86l.47-.21Z" fill="#fff"/><path d="M223.03 260.38c-.14 5.33-2.17 16.86-3.5 19.97-1.1 2.58-2.66 1.87-2.73 1.86-.85-.1-1.76-1.45-1.55-2.45l5.27-19.83 2.5.45h.01Z" fill="#84DAED"/><path d="m189.65 280.79 1.62-2.4 1.76 2.4h-3.38Z" fill="#F87895"/><path d="M193.35 280.27h-4.16v1.04h4.16v-1.04Z" fill="#1698B8"/><path d="m195.99 315.83.52-13 2.05 12.88-2.57.12Z" fill="#00496F"/><path d="m196.51 302.83-.2 5c.33-.03.65-.08.97-.13l-.77-4.87ZM195.99 277.05c-4.03-5.54-4.25-8.68-4.03-10.08 1.54-.87 3.34-.95 5.36.02.22.11.45.3.67.56.3 4.11-2 9.5-2 9.5Z" fill="#1698B8"/><path d="m192.44 259.66 4.64-.33c.04.64.36 6.68.07 8.95-.19.7-1.35.98-2.6.65-1.11-.3-1.91-1.02-1.93-1.66.18-1.36-.02-5.39-.18-7.61Z" fill="#fff"/><path d="M191.9 261.04c1.27 3.5 4.73 5.47 6.88 4.7 2.14-.77 2.15-3.98.89-7.49-1.26-3.5-3.64-4.66-5.78-3.9-2.15.78-3.24 3.19-1.98 6.7Z" fill="#fff"/><path d="M196.5 253.56s-.16 4.99-4.4 7.32c-2.19 1.2-3.5-2.33-3.5-2.33l1.76-3.81s1.64-1.77 3.08-1.83c.13 0 3.06.65 3.06.65Z" fill="#2D334A"/><path d="M198.58 256.1s-4.26-.85-5.07-2.17c-.82-1.31 1.28-1.46 1.28-1.46s2.83.58 3.79 3.62Z" fill="#2D334A"/><path d="M190.33 262.65c.5.78 1.9 1.3 2.47.94.57-.35.31-1.08-.18-1.86-.49-.79-1.4-1.23-1.98-.88-.56.36-.8 1.01-.3 1.8Z" fill="#fff"/><path d="m235.91 244.56-21.7-18.68-.01.06-2.35 28.52 7.93-7.72 4.98 12.15 2.53-1.04 2.52-1.04-4.98-12.15 11.08-.1Z" fill="#066F90"/><path d="M244.64 121.64a30.88 30.88 0 1 0-43.67-43.67 30.88 30.88 0 0 0 43.67 43.67Z" fill="#5BC5DE"/><mask id="c" style="mask-type:luminance" maskUnits="userSpaceOnUse" x="163" y="49" width="129" height="82"><path d="M291.58 69.25c-1.2-.12-19.64-.33-19.64-.33l-3.28 3.03-19.86-3.03-28.08-19.53-35.4 21.6-21.84 16.18 20.56 21.25 9.69 1.83a30.9 30.9 0 0 0 55.21 6l11.31 9.56 25.66-37.15s6.86-19.28 5.67-19.4Z" fill="#fff"/></mask><g mask="url(#c)"><path d="M230.73 72.1c-7.41-5.47-22.76-3.03-25.56 6.63-.26.91-.43 1.87-.95 2.66-.82 1.24-2.34 1.8-3.79 2.14-3.25.77-6.7.85-9.73 2.26-4.84 2.25-7.73 8.18-6.3 13.33 1.34 4.76 5.98 8.18 10.88 8.83 4.9.65 9.91-1.18 13.82-4.2.98-.75 1.92-1.58 3.06-2.07 2.1-.9 4.52-.43 6.77-.8a9.26 9.26 0 0 0 5.47-3.1c1.8-2.1 2.55-4.88 4.1-7.17 1.82-2.67 4.7-4.64 5.9-7.64 1.5-3.83-.36-8.44-3.67-10.88Z" fill="#2D334A"/><path d="M206.05 148.19c-1.74-8.49-8.28-26.32-11.3-30.9-2.5-3.82-4.77-2.24-4.88-2.2-1.34.4-2.4 2.81-1.78 4.36l14.07 30.18 3.89-1.44ZM244.85 160.04c.8.1-2.3-12.2-4.11-23.45.4-9.75-2.2-33.04-4.44-40.1-2.8-8.86-7.23-13.71-14.6-10.17-2.32 1.12-4.52 7.64-5.5 14.58-.98 6.95-2.36 5.55 1.46 15.72 1.36 3.62-2.06 28.12-3.75 34.6-.48 1.86-1.19 8.19-2.11 10.15 1.35.97 2.62 1.67 4.1 2.2 10.18 3.7 19.25-4.75 28.95-3.53Z" fill="#DBF0F7"/><path d="M225.06 94.41c3.22-3.94-.48-6.24-.56-6.35-.87-1.25-3.84-1.13-5.28.05l-30.63 28c-.54.4.11 1.3.5 1.85.13.18.3.32.48.4 1.28.93 3.35.9 4.8.2 7.53-3.65 26.52-19.02 30.7-24.15Z" fill="#DBF0F7"/><path d="M272.72 85.42c1.38.47 2.9.26 4.1-.56 3.1-2.1 8.82-6.26 9.08-8.54.36-3.15-10.51 2.06-13.97 8.83l.79.27Z" fill="#fff"/><path d="M228.15 94.26c-2.76-3.76.86-6.06.94-6.17.9-1.22 3.7-1.17 4.96-.06L261 114.55c.48.38-.19 1.27-.58 1.8-.14.19-.3.32-.49.42-1.25.92-3.2.93-4.52.28-6.83-3.4-23.67-17.9-27.26-22.8Z" fill="#DBF0F7"/><path d="M275.71 85.66c-2.4 8.32-10.33 25.59-13.7 29.92-2.79 3.6-4.93 1.85-5.04 1.8-1.3-.5-2.16-3-1.43-4.48l16.41-28.98 3.76 1.74Z" fill="#DBF0F7"/><path d="M227.56 83.3s6.9-2.64 7.31-9.63c.55-9.4-9.03-13.8-14.11-10.6-4.68 2.93-3.79 6.97-3.21 7.96.58.98 10.02 12.28 10.02 12.28Z" fill="#2D334A"/><path d="m229.62 74.42-7.53-.53c-.07 1.03-.6 10.84-.12 14.52.31 1.13 2.2 1.6 4.22 1.05 1.81-.49 3.1-1.63 3.13-2.68-.28-2.21.04-8.75.3-12.35Z" fill="#fff"/><path d="M229.09 75.52c-1.14 5.94-6.2 9.96-9.84 9.26-3.63-.7-4.45-5.84-3.31-11.78 1.14-5.94 4.66-8.4 8.3-7.7 3.62.7 5.99 4.28 4.84 10.22Z" fill="#fff"/><path d="M219.83 64.68s1.52 7.95 8.9 10.63c3.8 1.38 5.03-4.62 5.03-4.62L229.99 65s-3.08-2.4-5.41-2.15c-.2.02-4.75 1.82-4.75 1.82Z" fill="#2D334A"/><path d="M217.15 69.25s6.61-2.42 7.59-4.73c.97-2.32-2.44-2.01-2.44-2.01s-4.38 1.63-5.16 6.74Z" fill="#2D334A"/><path d="M220.72 73.9a2.83 2.83 0 1 1 5.65-.18 2.83 2.83 0 0 1-5.65.18ZM218.99 73.93a2.83 2.83 0 1 0-4.18-3.8 2.83 2.83 0 0 0 4.18 3.8Z" fill="#84DAED"/><path d="m230.08 76.08-3.87-1.39" stroke="#84DAED" stroke-width=".24" stroke-miterlimit="10"/><path d="M232.01 77.7c-.6 1.38-2.72 2.56-3.72 2.13-1-.42-.77-1.65-.18-3.03.59-1.38 1.95-2.33 2.95-1.9 1 .43 1.54 1.42.95 2.8Z" fill="#fff"/></g><path d="M169.8 221.2h-32.43v1.78h32.43v-1.79ZM158.06 213.8h-20.69v1.79h20.69v-1.8ZM195.15 235.98h-57.78v1.8h57.78v-1.8ZM158.06 243.14h-20.69v1.8h20.69v-1.8ZM195.15 228.8h-57.78v1.8h57.78v-1.8Z" fill="#A90E4B"/><path d="M234.03 206.49a3.9 3.9 0 0 0 3.9-3.9 3.9 3.9 0 0 0 3.9 3.9 3.9 3.9 0 0 0-3.9 3.9 3.9 3.9 0 0 0-3.9-3.9ZM149.7 280.27a3.9 3.9 0 0 0 3.89-3.9 3.9 3.9 0 0 0 3.9 3.9 3.9 3.9 0 0 0-3.9 3.9 3.9 3.9 0 0 0-3.9-3.9ZM225.8 150.45h-32.43v1.79h32.43v-1.8ZM251.14 143.05h-57.77v1.8h57.77v-1.8ZM251.14 165.23h-57.77v1.8h57.77v-1.8ZM251.14 172.4h-57.77v1.78h57.77v-1.79ZM251.14 158.06h-57.77v1.79h57.77v-1.8Z" fill="#fff"/><path d="M315.35 250.06s1.04 16.1 23.32 20.54c0 0-16.1-6.66-16.04-21.5l-7.28.96Z" fill="#FED6D6"/><path d="M342.75 115.8H249.5v138.85h93.26V115.8Z" fill="#FED6D6"/><path d="M317.96 180.46a30.88 30.88 0 1 0-43.67-43.68 30.88 30.88 0 0 0 43.67 43.68Z" fill="#39AECB"/><mask id="d" style="mask-type:luminance" maskUnits="userSpaceOnUse" x="223" y="107" width="105" height="83"><path d="m316.43 135.35-8.86-25-33.83 5.45-11.7 22.48-27.74-31.25-10.34 11.52s16.36 45.4 17.82 45.4c.8 0 14.66 4.77 27.03 9.09a30.88 30.88 0 1 0 47.62-37.7Z" fill="#fff"/></mask><g mask="url(#d)"><path d="M288.04 147.8c4.62.78 3.46 4.62 3.47 4.74.16 1.4-1.97 3.13-3.68 3.18L249.6 155c-.62.05-.72-.97-.78-1.58-.03-.2 0-.4.08-.59.32-1.41 1.78-2.65 3.2-3.05 7.44-2.05 29.93-2.97 35.94-1.96Z" fill="#5BC5DE"/><path d="M307.18 177.8c.06.84.07 1.82.12 2.73.1 2.13.16 4.33.18 6.5.01.88.02 1.8.01 2.72a178.63 178.63 0 0 1-.3 8.61 89.93 89.93 0 0 1-.72 7.04c-.36 2.62 1.49 6.98 1.03 9.6-2.04-.25-5.28-2.1-7.58-2.13a70.08 70.08 0 0 0-11.28 1c-4.08.72-8.08 1.6-12.01 2.9a380.6 380.6 0 0 0 2.42-10.62l.6-3.1.23-1.26c.1-.53.19-1.1.27-1.6a233.9 233.9 0 0 0 1.76-12.9l.31-2.96c.07-.62.13-1.58.18-2 .75-6.9 1.57-15.47.88-21.87-.63-5.84.93-7.88 4.14-11.77.31-.38.95-.8 1.29-1.05 6.32-4.6 14.39-2.66 16.47 5.3.7 2.66.75 5.2.97 8.28.37 5.25.67 11.14 1.03 16.58Z" fill="#5BC5DE"/><path d="M294.31 152.54c-5.24 19.58 7.52 22.4 3.87 38.64l-5.77 5.1-4.23-6.6c6.24-15.27-3.91-20.27 3.23-37.74.97.18 1.94.4 2.9.6Z" fill="#055C7F"/><path d="M296.8 154.08c-2.01-4.23 1.8-5.48 1.89-5.56 1.05-.93 3.69-.18 4.72 1.19l21.33 31.74c.39.48-.39 1.14-.85 1.55-.16.14-.34.22-.53.26-1.34.55-3.2.07-4.34-.87-5.94-4.91-19.6-22.81-22.22-28.3Z" fill="#5BC5DE"/><path d="M307.57 210.16c1.88-7.75 8.5-23.96 11.43-28.08 2.43-3.43 4.47-1.9 4.58-1.87 1.21.42 2.1 2.68 1.49 4.08l-13.97 27.33-3.53-1.46Z" fill="#5BC5DE"/><path d="M232.8 127.47a4.3 4.3 0 0 0 1.5-3.51c-.2-3.44-.78-9.92-2.47-11.21-2.32-1.78-3.34 9.28.39 15.22l.58-.5Z" fill="#AF7D61"/><path d="M234.5 124.75c5.45 5.84 15.37 20.26 17.2 24.98 1.53 3.9-.87 4.78-.95 4.84-1.03.79-3.4.3-4.23-.99l-15.17-26.68 3.16-2.15Z" fill="#5BC5DE"/><path d="M282.87 130.36c.06-.64.55-1.2.7-1.8.16-.61.01-1.33.26-1.9.26-.58.9-.96 1.23-1.48.34-.54.42-1.27.84-1.74s1.14-.63 1.63-1.03.79-1.07 1.33-1.39c.54-.32 1.27-.25 1.87-.48.58-.23 1.07-.78 1.7-.91.6-.13 1.28.16 1.91.12.63-.03 1.26-.4 1.9-.34.64.07 1.19.55 1.79.71.62.16 1.34 0 1.9.26.59.25.96.89 1.49 1.23.53.34 1.26.42 1.73.84s.63 1.14 1.03 1.62c.4.5 1.07.8 1.4 1.34.31.54.24 1.27.48 1.86.22.59.77 1.08.9 1.7.14.6-.15 1.28-.12 1.92.04.62.4 1.26.34 1.9-.06.63-.55 1.19-.7 1.79-.17.61-.01 1.33-.26 1.9-.26.58-.9.96-1.23 1.49-.35.53-.42 1.26-.84 1.73s-1.14.63-1.63 1.03-.79 1.07-1.33 1.39c-.54.32-1.28.25-1.87.48-.58.23-1.07.78-1.7.91-.6.14-1.28-.16-1.92-.12-.62.04-1.25.4-1.9.34-.63-.06-1.18-.55-1.78-.7-.62-.17-1.34-.02-1.9-.27-.59-.25-.97-.89-1.5-1.23-.52-.34-1.26-.42-1.72-.84-.47-.42-.64-1.13-1.03-1.62-.4-.5-1.08-.8-1.4-1.34-.31-.54-.25-1.27-.48-1.86-.23-.58-.77-1.08-.9-1.7-.14-.6.15-1.28.11-1.92-.03-.62-.4-1.26-.33-1.9Z" fill="#2D334A"/><path d="M284.55 143.23s-.86-2.68.45-4.95 2.01.44 2.01.44l-2.46 4.5ZM301.17 138.28c-.15.24-2.23 4.91-3.05 4.95-1.11.05-.56-3.62-.56-3.62l3.6-1.33ZM286.75 131.38s-1.01-2.45 0-4.1c.96-1.58 2.6-3.22 8.8-1.66a1.9 1.9 0 0 1 1.41 1.96l-.16 2.57-10.05 1.23Z" fill="#2D334A"/><path d="M298.3 136.7c-.76 3.7-1.68 6.7-4.12 8.14a7.23 7.23 0 0 1-5.63.77c-2.32-.63-3.4-1.93-3.78-3.72-.43-2.06.08-4.77.72-7.86 1.21-5.8 4.7-8.14 8.24-7.4 3.53.74 5.79 4.29 4.58 10.08Z" fill="#AF7D61"/><path d="m298.7 137.08-6.18-.65c-.09.85-.8 8.9-.5 11.95.22.94 1.76 1.38 3.44.98 1.5-.35 2.6-1.26 2.65-2.12-.17-1.83.28-7.2.59-10.16Z" fill="#AF7D61"/><path d="M300.98 138.67s-1.59.36-2.79-1.09c-1.57-1.9-2.88-5.88-3.17-7.68-.5-3.15.46-3.92.46-3.92s5.91.87 7.05 2.93c1.7 3.1-1.55 9.76-1.55 9.76Z" fill="#2D334A"/><path d="m296.82 133.47-1.76 8.45c-.2.9-.89 1.59-1.78 1.77l-1.03.2a1.02 1.02 0 0 1-1.22-1v-1.76c0-.4-.26-.74-.64-.85l-3.76-1.09a.89.89 0 0 0-1.03.44l-.82 1.53a2.82 2.82 0 0 0 1.54 3.98l2.24.81a3.13 3.13 0 0 0 1.61.14l.07-.01.8-.16 2.58-.52a4.02 4.02 0 0 0 3.15-3.12l1.76-8.45-1.71-.36Z" fill="#2D334A"/><path d="M300.87 137.4c-.25 1.25-1.83 2.6-2.74 2.42-.9-.18-.93-1.25-.67-2.5.26-1.26 1.23-2.28 2.14-2.1.91.19 1.53.93 1.27 2.18Z" fill="#AF7D61"/><path d="m295.66 128.67-3.74-.75a5.32 5.32 0 0 0-3.66.59l-1.51.86 2.45-3.15 3.23-.53 3.76 1.05-.53 1.92Z" fill="#2D334A"/></g><path d="M255.38 186.53a6.99 6.99 0 0 0 6.99-6.98 6.99 6.99 0 0 0 6.99 6.98 6.99 6.99 0 0 0-7 7 6.99 6.99 0 0 0-6.98-7ZM347.2 274.2a6.99 6.99 0 0 0 6.99-7 6.99 6.99 0 0 0 6.98 7 6.99 6.99 0 0 0-6.99 6.98 6.99 6.99 0 0 0-6.98-6.98ZM177.12 181.91a6.38 6.38 0 0 1 6.13 4.63H171a6.37 6.37 0 0 1 6.13-4.63ZM147.25 179.73c4.29 0 7.9 2.87 9.03 6.8h-18.06a9.4 9.4 0 0 1 9.03-6.8Z" fill="#fff"/><path d="M175.27 186.53c-1.39-4.78-6.87-8.36-13.43-8.36s-12.04 3.58-13.43 8.37h26.86Z" fill="#fff"/><path d="m374.67 375.81 104.08-.27c2.9 0 5.26-2.37 5.25-5.28l-.5-191c-.01-2.9-2.38-5.25-5.28-5.24l-104.09.27a5.26 5.26 0 0 0-5.25 5.28l.51 191c0 2.9 2.37 5.25 5.28 5.24Z" fill="#383E56"/><path d="m409.16 375.72 35.1-.1-1.41-4.79a5.89 5.89 0 0 0-5.67-4.22l-20.99.06a5.89 5.89 0 0 0-5.64 4.25l-1.39 4.8Z" fill="#F87895"/><path d="m378.39 182.59 95.62-.25c1.01 0 1.84.81 1.84 1.83l.17 64.03.12 43.22.04 15.2.42.23.03 12.67.1 33.83c0 .44-.17.85-.43 1.17v.67c0 1.02-.82 1.84-1.83 1.85l-95.62.25a1.84 1.84 0 0 1-1.85-1.84l-.16-63.77-.12-43.22-.08-29.54-.09-34.49c0-1.01.82-1.84 1.84-1.84Z" fill="#FD9CAE"/><path d="M459.7 247.52c-12.13 2.74-26.62 10.29-30.89 27.15-4.26 16.86-7.84 25.62-41.18 32.92-4.02.88-7.55 2.2-10.63 3.85v43.82c0 .96.83 1.74 1.86 1.74h96.28c1.03 0 1.86-.78 1.86-1.74V237c-6.1 5.8-12.5 9.44-17.3 10.52Z" fill="#EC577F"/><path d="M425.99 295.18a35.5 35.5 0 1 0 0-70.99 35.5 35.5 0 0 0 0 70.99Z" fill="#5BC5DE"/><mask id="e" style="mask-type:luminance" maskUnits="userSpaceOnUse" x="391" y="224" width="72" height="72"><path d="M427.15 295.16a35.24 35.24 0 1 0 0-70.48 35.24 35.24 0 0 0 0 70.48Z" fill="#fff"/></mask><g mask="url(#e)"><path d="M446.16 301.16h-33.6l2.5-16.13a13.75 13.75 0 0 1 13.58-11.64h4.13c7.4 0 13.4 5.99 13.4 13.38v14.39Z" fill="#066F90"/><path d="M414.92 243.88c.01.3-2.66 7 .49 9.04 3.14 2.03 1.67-8.66 1.67-8.66l-2.16-.38Z" fill="#00365D"/><path d="M434.84 237.97a8.34 8.34 0 0 0-5.26-2.25c-1.22-.1-2.32.72-3.9-2.45-1.54-3.07-4.72-1.06-5.68-1.84-2.46-2-8.29-1.08-9.7 4.85-1.37 5.73 2.26 9.15 5.45 10.37.97.37 2.04.38 3.03.7 1.7.55 3.25 1.54 5.03 1.83 1.62.25 3.25-.16 4.84-.58a19 19 0 0 0 4.62-1.64 6.4 6.4 0 0 0 3.13-3.65 5.64 5.64 0 0 0-1.56-5.34ZM441.48 260.12c-.23.38-1.9 6.63-5.22 6.29-4.45-.46-1.68-6.3-1.68-6.3h6.9Z" fill="#00365D"/><path d="M436.3 257.35c-1.35 6.48-2.95 11.74-7.25 14.27-1.5.9-3.37 1.62-5.52 1.79-1.35.1-2.8 0-4.37-.43-4.07-1.1-5.97-3.38-6.62-6.53-.76-3.62.13-8.37 1.26-13.8 2.13-10.17 8.25-14.29 14.46-12.99 6.21 1.3 10.17 7.53 8.05 17.7Z" fill="#fff"/><path d="m437 258.01-10.85-1.13c-.16 1.48-1.4 15.63-.88 20.97.39 1.64 3.09 2.41 6.04 1.72 2.64-.62 4.57-2.22 4.65-3.73h.01c-.3-3.2.48-12.64 1.02-17.83Z" fill="#fff"/><path d="M441.15 260.8s-2.94.62-5.04-1.91c-2.76-3.34-3.03-11.27-3.53-14.42-.89-5.54-1.25-5.95-1.25-5.95s8.92.89 11.22 5.64c2.97 6.14-1.4 16.65-1.4 16.65Z" fill="#00365D"/><path d="M440.8 258.57c-.44 2.2-3.2 4.57-4.8 4.25-1.6-.32-1.63-2.2-1.18-4.4.45-2.2 2.16-4 3.76-3.68 1.6.33 2.68 1.62 2.23 3.83Z" fill="#fff"/><path d="M433.66 248.44a4.22 4.22 0 1 0-3.23-7.8 4.22 4.22 0 0 0 3.23 7.8Z" fill="#00365D"/><path d="M436.7 243.04c-1.23-3.25-7.71-4.57-7.71-4.57s-.43.5-.6 2.12l5.56 1.8-2.52 13.57c.14.3.28.58.43.83 1.3 2.27 3.04 1.7 3.04 1.7s3.64-10.57 1.8-15.45Z" fill="#00365D"/><path d="M432.29 240.27a3.46 3.46 0 0 0-1.12-2.48 3.8 3.8 0 0 0-2.6-.72c-.93.04-1.83.27-2.75.38-1.2.15-2.43.1-3.62-.14-.78-.16-1.57-.4-2.36-.35a4.17 4.17 0 0 0-2.74 1.55c-.7.82-1.18 1.8-1.64 2.77-.54 1.1-1.85 2.9-1.32 4.2.48 1.18 2.32 1.33 3.32.9 1.16-.51 1.98-1.55 2.87-2.45.89-.9 2.03-1.74 3.3-1.64.86.07 1.62.57 2.44.84.72.22 1.47.27 2.22.29 1.28.02 2.75-.14 3.5-1.18.4-.56.53-1.28.5-1.97Z" fill="#00365D"/></g><path d="M411.33 281.85s-1.05 16.1-23.32 20.54c0 0 16.1-6.66 16.04-21.5l7.28.96Z" fill="#5BC5DE"/><path d="M428.9 316.76h-32.43v1.8h32.42v-1.8ZM417.15 309.37h-20.68v1.79h20.68v-1.8ZM454.24 331.55h-57.77v1.79h57.77v-1.8ZM417.15 338.7h-20.68v1.8h20.68v-1.8ZM454.24 324.37h-57.77v1.8h57.77v-1.8Z" fill="#fff"/><path d="M324.33 208.37h-61.3v1.79h61.3v-1.8ZM461.48 208.37h-61.3v1.79h61.3v-1.8ZM302.13 200.98h-39.1v1.79h39.1v-1.8ZM461.48 200.98h-39.1v1.79h39.1v-1.8ZM324.33 223.16h-61.3v1.79h61.3v-1.8ZM302.13 230.32h-39.1v1.79h39.1v-1.8ZM461.48 215.98H263.04v1.79h198.44v-1.8Z" fill="#A90E4B"/><path d="M386.25 233.15a3.9 3.9 0 0 0 3.9-3.9 3.9 3.9 0 0 0 3.9 3.9 3.9 3.9 0 0 0-3.9 3.9 3.9 3.9 0 0 0-3.9-3.9ZM448.86 302.9a6.99 6.99 0 0 0 6.99-6.98 6.99 6.99 0 0 0 6.98 6.98 6.99 6.99 0 0 0-6.98 7 6.99 6.99 0 0 0-6.99-7Z" fill="#fff"/><path d="m290.02 405.24 23.55 14.7 26.1-53.06-23.37-13.15-26.28 51.5Z" fill="#CEAA97"/><path d="M311.33 340.69c-3.83 10.82-4.43 33.16-4 33.75l24.27 8.22c3.37-1.64 9.35-6.9 11.9-11.56a33.75 33.75 0 0 0 4.13-15.64l.18-10.19-8.75-7.2-10.02-5-15.2-3.05-2.51 10.67Z" fill="#CEAA97"/><path d="m327.67 312.22-6.2 21.34c-.68 2.35-3.04 3.8-5.26 3.24-2.23-.55-3.48-2.9-2.8-5.25l6.2-21.34c.68-2.35 3.03-3.8 5.26-3.24 2.23.55 3.48 2.9 2.8 5.25ZM354.36 330.79l-19.03 12.38a3.93 3.93 0 0 1-4.28-6.6l19.02-12.37a3.93 3.93 0 0 1 4.3 6.59ZM357.68 341.04 340.3 351.5a3.6 3.6 0 0 1-3.72-6.17l17.37-10.46a3.6 3.6 0 0 1 3.72 6.17Z" fill="#CEAA97"/><path d="m360.56 338.69.44 6.5c.15 2.22-1.23 4.13-3.09 4.25-1.7.12-3.25-1.31-3.58-3.33l-1.08-6.45c-.4-2.38 1.02-4.58 3.04-4.72l.63-.05c1.85-.12 3.48 1.57 3.64 3.8ZM333.67 297.33l-6.15 15.09c-.92 2.25-3.38 3.42-5.5 2.61-2.12-.8-3.1-3.28-2.18-5.53l6.14-15.1c.92-2.25 3.38-3.42 5.5-2.61 2.12.8 3.1 3.29 2.19 5.54ZM352.92 326.9l-6.66-5.01c-1.98-1.69-2.3-4.55-.68-6.25 1.55-1.63 4.27-1.56 6.08.16l7.54 7.16c1.17 1.1 1.25 2.87.2 3.86-1.7 1.59-4.42 1.62-6.48.07Z" fill="#CEAA97"/><path d="m351.63 348.74 4.12-4.28c1.36-1.26 3.4-1.23 4.47.05 1.01 1.23.73 3.14-.64 4.28l-5.71 4.71c-.88.73-2.14.64-2.75-.2-.97-1.32-.75-3.25.51-4.57ZM339.72 322.77l-13.66 18.53a4.1 4.1 0 0 1-6.6-4.87l13.66-18.53a4.1 4.1 0 0 1 6.6 4.87Z" fill="#CEAA97"/><path d="m348.96 322.28-12.06 2.06a4.02 4.02 0 1 1-1.35-7.93l12.05-2.05a4.02 4.02 0 1 1 1.36 7.92ZM355.46 339.88l-6.07-11.65a3.57 3.57 0 1 1 6.33-3.3l6.07 11.65a3.56 3.56 0 1 1-6.33 3.3ZM337.06 289.02l-3.32 7.95c-1.18 2.42-3.93 3.51-6 2.37-1.97-1.08-2.56-3.8-1.3-6.05l5.23-9.41c.81-1.46 2.53-2.03 3.76-1.25 1.97 1.25 2.66 3.94 1.63 6.39ZM308.24 373.9c4.84-1.23 8.72-3.23 11.86-10.9 2.5-6.11 2.96-11 1.69-14.98-1.32-4.11-4.4-7.59-8.4-7.27-1.03.08-1.96-.04-2.4-.6a.2.2 0 0 0-.03-.03c-2.28-3 0-4.23-4.82-11.8-4.81-7.56-9.48-4.53-10.48-3.53-1 1.01 2.11 3.89 3.32 5.5 1.22 1.63 1.64 7.69 2.64 10.5.6 1.63.8 5.83.86 9.04.07 3.01.35 6 .85 8.95.72 4.3.41 8.3 1.97 11.69.49 1.07 2.29 2.54 2.94 3.42Z" fill="#CEAA97"/><path d="m295.04 391.88 27.53 12.59-55.25 120.76-38.2-15.62 65.92-117.73Z" fill="#055C7F"/></g></g><defs><clipPath id="a"><path fill="#fff" d="M0 0h629v412H0z"/></clipPath><clipPath id="b"><path fill="#fff" transform="translate(119 49.4)" d="M0 0h365v475.83H0z"/></clipPath></defs></svg>