<svg width="629" height="412" fill="none" xmlns="http://www.w3.org/2000/svg"><g clip-path="url(#a)"><path d="M629 0H0v412h629V0Z" fill="#B4E8F4"/><path d="M448.8 213.3s2.5-6.8-1.2-14.9c-3.8-8 2.7-12 6.2-9.6 3.6 2.5 5.8 11.6-5 24.5ZM442.6 218.7s-2.4-6.9-10.4-10.7c-8-3.9-5.7-11-1.3-11.4 4.3-.4 11.8 5.2 11.7 22ZM443.4 219.4s7.3-.6 14 5.2c6.8 5.7 12.5.6 11-3.5-1.4-4-9.6-8.6-25-1.7ZM434.4 231.9s7.3-.6 14 5.1c6.8 5.8 12.5.7 11-3.4-1.4-4-9.6-8.6-25-1.7ZM429.3 245.1s7.2-.5 14 5.2c6.8 5.8 12.4.7 11-3.4-1.5-4.1-9.6-8.7-25-1.8ZM423.6 261.8s7.3-.5 14 5.2c6.8 5.8 12.4.7 11-3.4-1.4-4.1-9.6-8.7-25-1.8ZM434.5 231.8s-2.4-6.9-10.4-10.7c-8-3.9-5.7-11.1-1.3-11.4 4.3-.4 11.8 5.2 11.7 22ZM428.2 246.4s-2.5-6.9-10.5-10.7c-8-3.9-5.6-11.1-1.3-11.4 4.3-.4 11.8 5.2 11.8 22ZM423 261.5s-2.3-6.8-10.3-10.7c-8-3.8-5.7-11-1.4-11.4 4.4-.3 11.9 5.3 11.8 22.1Z" fill="#5BC5DE"/><path d="M415.8 329.8c.4 0 .7-.4.7-.8 0-.2-1.3-18.8 2.3-42.6 3.3-22 11.6-52.9 32-75.7a.8.8 0 1 0-1.2-1c-20.6 23.1-29 54.4-32.3 76.5-3.6 24-2.3 42.7-2.3 42.9 0 .4.4.7.8.7ZM496.7 242.3s3.7-4.8 2.8-12.1c-1-7.4 5.2-9 7.3-6.1 2.2 2.9 1.7 10.6-10.1 18.2ZM490.5 245s-.2-6-5.6-11.1c-5.4-5-1.7-10.2 1.8-9.4 3.5.8 8 7.1 3.8 20.5ZM491 245.7s5.9 1.4 9.8 7.6c3.9 6.3 9.6 3.7 9.5 0-.1-3.5-5.4-9.2-19.4-7.6ZM480.7 253.4s5.9 1.3 9.8 7.6c4 6.2 9.7 3.6 9.6 0-.1-3.6-5.5-9.3-19.4-7.6ZM473.3 262.6s5.9 1.4 9.8 7.6c4 6.3 9.7 3.7 9.6 0-.2-3.5-5.5-9.2-19.4-7.6ZM464.6 274.4s6 1.4 9.8 7.7c4 6.2 9.7 3.6 9.6 0-.1-3.6-5.5-9.3-19.4-7.7ZM480.8 253.3s-.2-6-5.6-11c-5.4-5.1-1.7-10.3 1.8-9.4 3.5.8 8 7 3.8 20.4ZM472 263.3s-.1-6-5.5-11c-5.4-5.1-1.7-10.3 1.8-9.5 3.5.9 8 7.2 3.8 20.5ZM464.3 274s-.2-6-5.6-11c-5.4-5-1.7-10.2 1.8-9.4 3.5.8 8 7.1 3.8 20.5Z" fill="#5BC5DE"/><path d="M441.5 326.4c.3 0 .6-.2.7-.5 0-.2 3.7-15.2 12.5-33.2 8-16.5 22.3-39 44.2-52a.6.6 0 0 0-.6-1c-22.2 13-36.6 35.8-44.8 52.5-8.8 18-12.5 33.2-12.6 33.4a.6.6 0 0 0 .6.8Z" fill="#5BC5DE"/><path d="M263.7 311a77.6 77.6 0 0 0-74.6 56.2h149.1a77.6 77.6 0 0 0-74.5-56.2ZM467 311a77.6 77.6 0 0 0-74.5 56.2h149.1a77.6 77.6 0 0 0-74.5-56.2Z" fill="#DBF0F7"/><path d="M370.1 287c-50.6 0-93.2 33.9-106.5 80.2h213a110.8 110.8 0 0 0-106.4-80.3Z" fill="#DBF0F7"/><path d="M532 396.6H97a14.6 14.6 0 1 1 0-29.1h435.2a14.6 14.6 0 1 1 0 29Z" fill="#1698B8"/><path d="M-24.1 39a60 60 0 0 0-57.7 43.4H33.6a60 60 0 0 0-57.7-43.5ZM133.3 39a60 60 0 0 0-57.7 43.4h115.3a60 60 0 0 0-57.6-43.5Z" fill="#fff"/><path d="M58.3 20.3a85.7 85.7 0 0 0-82.4 62h164.8a85.7 85.7 0 0 0-82.4-62Z" fill="#fff"/><path d="M2.2 70.1c-13.5 0-25 9-28.5 21.5h57A29.6 29.6 0 0 0 2.2 70ZM79.8 70.1c-13.5 0-24.9 9-28.4 21.5h56.9A29.6 29.6 0 0 0 79.8 70Z" fill="#5BC5DE"/><path d="M42.8 61C23.5 61 7.2 73.8 2.2 91.5h81.3a42.3 42.3 0 0 0-40.7-30.7Z" fill="#5BC5DE"/><path d="M176.8 306.8c-8.5 2.6-15.2 7-18.2 9.3l-.2-.8c-1.7-6.5-3.7-13.8-6.2-21.7 3.5-.7 11.6-2.7 19.5-7.5a61.3 61.3 0 0 0 16.7-15.3s-10.7 1.4-21.2 7.8a62.1 62.1 0 0 0-15.4 13.6c-2.1-6.5-4.5-13.3-7.3-20.4a62.2 62.2 0 0 0 16.9-12.2c8.4-8.8 12.2-19 12.2-19s-10 4.1-18.5 13a62 62 0 0 0-11.2 16.5c-2.8-7-6-14.2-9.5-21.5 3-2 9.5-7 14.8-14.6 7-10 9.2-20.7 9.2-20.7s-9.3 5.6-16.3 15.7c-4.9 6.9-7.4 14-8.5 17.9-2.4-4.9-5-9.8-7.7-14.6 2-3 6-10.2 8-19.1 2.8-12 .7-22.7.7-22.7s-6.4 8.8-9.1 20.7c-1.7 7.3-1.6 14-1.2 18.3-2-3.4-4-6.8-6.3-10.1-1-4-3.2-10.5-7.2-16.9-6.5-10.3-15.5-16.4-15.5-16.4s1.6 10.7 8.1 21.1c4 6.3 8.8 11 12 13.7 2.3 3.4 4.4 7 6.5 10.4-3.7-1.5-11-4-19.3-4.4-12.3-.7-22.4 3.1-22.4 3.1s9.7 5 21.9 5.6c9.3.5 17.4-1.5 20.8-2.6l7.8 14.7c-3.7-.4-11.8-.9-20.6 1.3-12 2.9-20.5 9.4-20.5 9.4s10.6 2 22.6-1a62 62 0 0 0 19-8.4c3.7 7.4 7 14.8 9.8 22a62 62 0 0 0-20.5-.5c-12 1.8-21.3 7.6-21.3 7.6s10.5 2.9 22.6 1c9.2-1.3 16.6-5 19.8-6.7 2.7 7.2 5.2 14 7.3 20.7a62.1 62.1 0 0 0-20.4-1.3c-12.1 1.4-21.5 6.9-21.5 6.9s10.3 3.2 22.5 1.8c9-1 16.6-4.3 19.9-6 2.4 7.8 4.4 15 6 21.5l.3 1a61.9 61.9 0 0 0-22 1 61.3 61.3 0 0 0-20.6 9.5s10.7 2 22.6-1a62 62 0 0 0 20-9c6.6 26.4 8.3 45.3 8.3 45.5l3-.2c0-.2-1.7-19-8-45.2 3.6.2 11.7.2 20.3-2.4 11.8-3.6 20-10.7 20-10.7s-10.8-1.2-22.5 2.3Z" fill="#84DAED"/><path d="M100.2 317.5c-4.5 3-7.6 6.7-8.9 8.5l-.2-.4a224 224 0 0 0-7.3-11.4c1.9-1 6.2-3.6 9.9-7.7 5-5.5 7-11.6 7-11.6s-6 2.6-10.9 8.1a37 37 0 0 0-6.5 10.5c-2.3-3.4-4.8-7-7.6-10.5 1.5-1.5 5-5 7.5-9.9 3.3-6.5 3.7-13 3.7-13s-5 4.1-8.4 10.6a37 37 0 0 0-3.5 11.4 191 191 0 0 0-9.1-10.7c1.3-1.6 4.2-5.7 6-10.9 2.3-7 1.6-13.4 1.6-13.4s-4.3 4.8-6.6 11.8a37 37 0 0 0-1.8 11.7c-2.2-2.4-4.5-4.8-7-7 .7-2.1 1.8-7 1.4-12.4-.5-7.3-3.5-13-3.5-13s-2.2 6-1.7 13.4a37 37 0 0 0 2.5 10.6l-5.3-4.7a36.9 36.9 0 0 0-7-8.4c-5.6-4.8-11.8-6.8-11.8-6.8a36.6 36.6 0 0 0 17.5 16.5c2 1.6 3.7 3.2 5.5 4.9a36.6 36.6 0 0 0-24.1 6.4s6.4 1.2 13.5-.6c5.4-1.3 9.7-3.8 11.5-5l7 7a36.7 36.7 0 0 0-21.7 13.2s6.4-.7 12.7-4.4c4.9-2.8 8.2-6.5 9.5-8.1 3.4 3.6 6.5 7.3 9.4 11-2.2.2-7 .9-11.8 3.2-6.7 3.1-11 8-11 8s6.6-.2 13.2-3.3c5-2.3 8.7-5.7 10.2-7.2 2.8 3.6 5.4 7.1 7.7 10.5-2.3.2-7 .7-11.9 2.8-6.7 2.9-11.2 7.6-11.2 7.6s6.5.1 13.3-2.8c5-2.1 8.7-5.3 10.3-6.8 2.8 4 5.2 7.8 7.2 11.3l.3.5a37 37 0 0 0-12.4 4.4c-6.3 3.7-10.2 9-10.2 9s6.5-.8 12.8-4.5a37 37 0 0 0 10-8.7c8.3 14 12.4 24.6 12.5 24.7l1.7-.6c0-.1-4.2-10.6-12.4-24.5 2.1-.6 6.8-2 11.3-5 6-4 9.6-9.4 9.6-9.4s-6.4 1-12.5 5.1Z" fill="#84DAED"/><path d="M63.9 343.6a34 34 0 0 0-32.7 24.6h65.4a34 34 0 0 0-32.7-24.6ZM153 343.6a34 34 0 0 0-32.6 24.6h65.4a34 34 0 0 0-32.7-24.6Z" fill="#5BC5DE"/><path d="M110.6 333a48.6 48.6 0 0 0-46.7 35.2h93.4a48.6 48.6 0 0 0-46.7-35.2Z" fill="#5BC5DE"/><path d="M0 362.7c-7 0-13 4.8-15 11.3h30a15.6 15.6 0 0 0-15-11.3ZM41 362.7c-7.1 0-13.1 4.8-15 11.3h30a15.6 15.6 0 0 0-15-11.3Z" fill="#00496F"/><path d="M21.5 357.9A22.3 22.3 0 0 0 .1 374h42.8A22.3 22.3 0 0 0 21.5 358Z" fill="#00496F"/><path d="M504.6 153.4a27 27 0 0 0-25.9 19.5h51.8a27 27 0 0 0-25.9-19.5ZM575.2 153.4a27 27 0 0 0-25.9 19.5h51.8a27 27 0 0 0-25.9-19.5Z" fill="#1698B8"/><path d="M541.6 145a38.5 38.5 0 0 0-37 27.9h74a38.5 38.5 0 0 0-37-27.9Z" fill="#1698B8"/><path d="M592.7 164.3c-8 0-14.7 5.4-16.8 12.7h33.6c-2-7.3-8.8-12.7-16.8-12.7ZM638.6 164.3c-8 0-14.7 5.4-16.8 12.7h33.6c-2-7.3-8.8-12.7-16.8-12.7Z" fill="#5BC5DE"/><path d="M616.7 158.9a25 25 0 0 0-24 18h48a25 25 0 0 0-24-18Z" fill="#5BC5DE"/><path d="M182.1 364.1c-5 0-9.4 3.4-10.8 8.1H193a11.2 11.2 0 0 0-10.8-8.1ZM211.6 364.1c-5.1 0-9.5 3.4-10.8 8.1h21.6a11.2 11.2 0 0 0-10.8-8.1Z" fill="#39AECB"/><path d="M197.6 360.6a16 16 0 0 0-15.5 11.6H213a16 16 0 0 0-15.4-11.6Z" fill="#39AECB"/><path d="M196.9 172c-7 0-13 4.6-14.8 11h29.5a15.3 15.3 0 0 0-14.7-11ZM237.1 172c-7 0-12.9 4.6-14.7 11h29.5a15.3 15.3 0 0 0-14.8-11Z" fill="#fff"/><path d="M218 167.2a22 22 0 0 0-21.1 15.8H239a21.9 21.9 0 0 0-21-15.8Z" fill="#fff"/><path d="M234.7 68.2h159.6a8 8 0 0 1 8 8V369a8 8 0 0 1-8 8.1H234.7a8 8 0 0 1-8-8V76.2a8 8 0 0 1 8-8.1Z" fill="#00365D"/><path d="M387.8 81H241.2a2.8 2.8 0 0 0-2.8 2.8v262c0 1.6 1.2 2.8 2.8 2.8h146.6c1.5 0 2.8-1.2 2.8-2.8v-262c0-1.6-1.3-2.9-2.8-2.9Z" fill="#FD9CAE"/><path d="M259.4 102.7h.9V98h-.9v-1h5v1.8h-1.1V98h-1.8v2.1h2.3v1h-2.3v1.7h1v1h-3v-1ZM277.1 102.7v-2c0-1.4-.6-2-1.6-2-.8 0-1.4.5-1.7 1.1-.2-.7-.8-1-1.5-1-.8 0-1.3.6-1.5 1v-.4c0-.3-.2-.5-.7-.5h-1.3v1h.6l.2.1v3.7h2v-1h-.8v-1c0-.9.4-1.8 1.2-1.8.6 0 .7.4.7 1v2.8h2v-1h-.8v-1c0-1 .5-1.8 1.3-1.8.6 0 .7.4.7 1v2.8h2v-1h-.8ZM279.4 97.1h-1.1v1h1.1v-1Zm.1 5.6V99h-2v1h.9v3.8h1.8v-1h-.7ZM282.5 102.7h-.1c-.4 0-.5-.3-.5-.7v-4.9H280v.8h.7v4.2c0 1.3.7 1.6 1.5 1.6h.4v-1h-.2ZM317.3 102.7v-2c0-1.3-.7-1.9-1.8-1.9-.9 0-1.4.5-1.7 1V97h-2v.8h.8v5.8h2v-1h-.8v-1c0-1 .6-1.8 1.5-1.8.6 0 .7.4.7 1v2.8h2v-1h-.7ZM305.5 101.9c0-1 .5-1.8 1.5-1.8h.3v-1.2h-.2c-.8 0-1.4.5-1.6 1.2v-.6c0-.4-.2-.6-.7-.6h-1.3v1h.6c.1 0 .2 0 .2.2v3.6h2v-1h-.8v-.8ZM303.4 102.7c-.2 0-.3 0-.3-.2v-1.7c0-1.3-.7-2-2-2-1.2 0-2 .6-2 .6l.5.9s.6-.5 1.4-.5c.5 0 .9.2.9.9v.1h-.3c-.8 0-2.8.2-2.8 1.7 0 1 .8 1.3 1.6 1.3 1 0 1.5-.8 1.6-1v.4c0 .2.2.5.6.5h1.2v-1h-.5Zm-1.5-1.2c0 .7-.5 1.4-1.1 1.4-.5 0-.8-.1-.8-.5 0-.8 1.2-.8 1.7-.8h.2ZM268.6 102.7c-.2 0-.3 0-.3-.2v-1.7c0-1.3-.7-2-2-2-1.2 0-2 .6-2 .6l.5.9s.7-.5 1.4-.5c.5 0 .9.2.9.9v.1h-.3c-.8 0-2.8.2-2.8 1.7 0 1 .8 1.3 1.6 1.3 1.1 0 1.5-.8 1.6-1v.4c0 .2.2.5.6.5h1.2v-1h-.4Zm-1.5-1.2c0 .7-.5 1.4-1.1 1.4-.5 0-.7-.1-.7-.5 0-.8 1.1-.8 1.6-.8h.2ZM296.5 103.8c-1.6 0-2.6-1-2.6-2.4 0-1.5 1-2.6 2.5-2.6.2 0 .7 0 1.2.4.7.4 1 1.2 1 2.2v.3h-3.5c0 .6.7 1 1.5 1 .7 0 1.2-.2 1.3-.3l.5.9c-.2 0-.8.5-1.9.5Zm-.2-4c-.6 0-1 .4-1.2 1.1h2.4c0-.7-.6-1.1-1.2-1.1Z" fill="#fff"/><path d="M311.6 102.2c-.3.3-.8.6-1.4.6-.9 0-1.6-.4-1.6-1.4 0-1 .6-1.5 1.5-1.5.4 0 1 .1 1 .5v.3h1v-.7c0-.9-1.2-1.2-2-1.2a2.6 2.6 0 0 0-2.7 2.6c0 1.6 1.3 2.4 2.7 2.4.9 0 1.6-.4 2-.7l-.5-.9ZM285 99.9v-1h-2.5v1h.6l1.7 4.1c-.3.7-.7 1-1 1l-.5-.2v1l.6.2c.8 0 1.5-.5 2-1.5l1.7-4.6h.6v-1h-2.3v1h.5l-1 2.8-1-2.8M289.9 101.6v.5c0 .4.5.7 1.2.7s1.1-.3 1.1-.8c0-.7-.7-1-1.5-1.3-1-.3-1.8-.7-1.8-2s1-1.8 2.3-1.8c1 0 2.1.4 2.1 1.2v.9h-1.1v-.5c0-.4-.5-.5-1-.5-.6 0-1 .2-1 .7 0 .6.6.9 1.3 1.1 1 .4 2 .8 2 2 0 1.5-1.2 2.1-2.4 2.1s-2.4-.5-2.4-1.5v-.8h1.2ZM253 102.4c.8-.6 1.5-1.5 1.8-2.7h-.5c-.3 1-1 1.5-1.7 1.7a8.2 8.2 0 0 1 1-6.7h-1a9 9 0 0 0-1.6 3.9 3 3 0 0 1-1.3-1.6h-.6c.4 1.2 1 2 1.8 2.6v.3a9 9 0 0 0 2.3 6h2.5c-1.2-.9-2.2-2.1-2.8-3.5ZM256.1 91v3.9h4v-4h-4Zm3 3H257v-2.2h2.2V94Z" fill="#fff"/><path d="M253.9 95.8v4.4h4.4v-4.4h-4.4Zm3.5 3.5h-2.6v-2.6h2.6v2.6ZM251.7 91.4v3.5h3.5v-3.5h-3.5Zm2.6 2.6h-1.7v-1.7h1.7V94ZM251.7 87v3.5h3.5V87h-3.5Zm2.6 2.6h-1.7V88h1.7v1.7ZM248.2 89.6v2.7h2.6v-2.7h-2.6Zm2 2h-1.4v-1.3h1.4v1.3ZM246.4 93.1v4.4h4.4v-4.4h-4.4Zm3.6 3.6h-2.7V94h2.7v2.7Z" fill="#fff"/><path d="M341.4 377h-53.8l2.1-7.3a9 9 0 0 1 8.7-6.5h32.2a9 9 0 0 1 8.6 6.5l2.2 7.3ZM364.3 170.6c-18.5 4.5-40.6 16.8-47 44.2-6.6 27.4-12 41.6-62.8 53.5a60 60 0 0 0-16.1 6.3v71.2c0 1.6 1.2 2.8 2.8 2.8h146.6c1.5 0 2.8-1.2 2.8-2.8V153.5a61.3 61.3 0 0 1-26.3 17.1Z" fill="#EC577F"/><path d="M247.5 313.1a2.8 2.8 0 0 1 3.4 3.8c2.2 2.3 4.4 4.8 6.3 7.3-.4-2.6-.7-6.4-.2-10.3a2.8 2.8 0 0 1 .4-5.1 2.8 2.8 0 1 1 1 5.4c-.6 5.7.5 11.7.7 12.7a114.8 114.8 0 0 1 15.5 30.5l-1.5.4a112 112 0 0 0-10.2-22.4c-1-.3-5-1.2-10.4-.6a2.8 2.8 0 1 1-.3-1.5c4.3-.5 7.7 0 9.6.3a89 89 0 0 0-11.9-15.5l-.8.4a2.8 2.8 0 0 1-1.6-5.4Z" fill="#00365D"/><path d="M280.4 334.3c-.9-.7-4.2-3-9.4-4.3a2.8 2.8 0 1 1 .2-1.5c4.1 1 7.2 2.7 8.8 3.7a89 89 0 0 0-5.6-18.7 2.8 2.8 0 1 1 1.3-.8c1.3 3 2.4 6 3.3 9 .6-2.5 1.7-6.2 3.5-9.6a2.8 2.8 0 1 1 1.3.7 45.7 45.7 0 0 0-3.9 12.1c1.8 6.8 2.7 13.3 3.2 18.4.9 9 .5 15.6.5 15.6h-1.5c0-.1.4-6.5-.5-15.5-.2-2.7-.6-5.8-1.2-9.1Z" fill="#00365D"/><path d="M472.2 91H326.8a2.5 2.5 0 0 0-2.4 2.4V132c0 1.4 1 2.5 2.4 2.5h145.4c1.3 0 2.4-1.1 2.4-2.5V93.4c0-1.3-1-2.5-2.4-2.5Z" fill="#1698B8"/><path d="m325.8 125-19.2 2.7 21.3-15.3-2.1 12.5Z" fill="#1698B8"/><path d="M408.2 106.8h-66v4h66v-4ZM457.1 114.7H342.2v4.1h115v-4.1Z" fill="#055C7F"/><path d="M170.3 267h145.3c1.4 0 2.5-1.2 2.5-2.6V226c0-1.3-1.1-2.4-2.5-2.4H170.3a2.5 2.5 0 0 0-2.5 2.4v38.5c0 1.4 1.1 2.5 2.5 2.5Z" fill="#1698B8"/><path d="m316.7 257.4 19.2 2.8-21.4-15.2 2.2 12.4Z" fill="#1698B8"/><path d="M234.3 243.4h66v-4.1h-66v4.1ZM185.3 251.3h115v-4h-115v4Z" fill="#055C7F"/><path d="M168.2 37.4a27 27 0 0 0-26 19.5H194a27 27 0 0 0-25.8-19.5ZM238.8 37.4a27 27 0 0 0-26 19.5h51.9a27 27 0 0 0-26-19.5Z" fill="#1698B8"/><path d="M205.1 29a38.5 38.5 0 0 0-37 28h74a38.5 38.5 0 0 0-37-28Z" fill="#1698B8"/><path d="M377.4 283.7h-72v56.9h72v-57ZM318.4 136.3h-71.7v56h71.7v-56Z" fill="#00365D"/><mask id="b" style="mask-type:luminance" maskUnits="userSpaceOnUse" x="309" y="239" width="82" height="102"><path d="M389 239.4h-78.4c-.8 0-1.5.5-1.5 1.1v99c0 .6.7 1 1.5 1h78.5c.8 0 1.5-.4 1.5-1v-99c0-.6-.7-1-1.5-1Z" fill="#fff"/></mask><g mask="url(#b)"><path d="M330.7 273.2s9.4-4.5 10-7c.5-2.5-8.8.7-12.3 6l2.3 1Z" fill="#fff"/><path d="M350.4 272.7s1.8 6.9 10 4.7c8.4-2.1 9.2-10.7 8.1-14.6-1-3.8-7.5-10.3-15.4-5.5-7.9 4.8-2.7 15.4-2.7 15.4Z" fill="#2D334A"/><path d="M375.2 444.3c1.8-.3 3.4.3 5.2-.2-27.2-42-25-62.8-14-110.2l-16.9-4c-6.5 45.7 3.7 75.4 25.7 114.4Z" fill="#AF7D61"/><path d="M349.5 330c5.7 1.2 11.3 2.6 16.9 4-7.8 33.5-11.2 73.4 10.2 102.8l-3.7 3.6c-22.3-31.2-28.8-73-23.4-110.4Z" fill="#2D334A"/><path d="M341.2 293.1s5.9-11.8 9.6-13.9a12 12 0 0 0 2-1.3c-6.3-1.3-10 7-11 12.6l-.6 2.6Z" fill="#999"/><path d="M357.4 271.3c-3.8 4.8-10.1 6-13 3.7-3-2.3-1.3-7.2 2.4-12s8-5.4 11-3c2.9 2.2 3.3 6.5-.4 11.3Z" fill="#fff"/><path d="M342.6 287.5s-13.9 82.4-21.2 92.4c0 0 8.9 8.2 17 5.9 13.6-3.8 11-55 7.4-79.8-1-6.4.2-14-.6-17-.2-1-2.6-1.5-2.6-1.5Z" fill="#1698B8"/><path d="m332.7 274.1-3.9-4.8c-27.3 39.8 11.6 52.7 22.7 16 1.7-5.7-6.6-5.6-7.9.2-4.8 22.5-33 19.9-10.9-11.4Z" fill="#1698B8"/><path d="M339.4 448.5c2 1 2.2 2.6 4.3 3.2 6.3-37.1 6.2-84.7 14.9-118.3l-16.8-3.5c-6.7 39.2 6 74.3-2.4 118.6Z" fill="#AF7D61"/><path d="M341.8 330c5.6 1 11.2 2.2 16.8 3.4-8 31.2-8 74.3-13.1 110l-5.3.7c6.8-42.3-4.9-76.3 1.6-114.2Z" fill="#2D334A"/><path d="m380.7 390.8-1.5-4.9A600.8 600.8 0 0 1 366 325c-3.3-19.2-2.3-27.6-5.4-37-1.3-3.8-1.5-6.1-4.7-8a12.8 12.8 0 0 0-3-1.4c-6.2-1.3-8.6 6.9-9.7 12.5l-.6 2.6c-.8 3.3-2.4 3.5.4 11.5 1.2 3.5-1.5 23.7-2.7 30.5-.4 2.2-.7 6.1-1.5 10.1a755 755 0 0 0-11.4 74.7c0 .9-.2 1.7-.3 2.6 2.6 0 5.1-.3 7.6-1 5.8-1.7 11.2-4.5 17.1-5.7 4-.8 8-.5 12 .3 2.4.4 4.6 1.5 7.2 1.7 3.7.2 7-.1 10.3-2.3 2.2-1.4 5.5-1.6 7.5-4.5-2.9-5.5-5.5-12.7-8-20.8Z" fill="#84DAED"/><path d="M364.5 389.5a33 33 0 0 0 14.7-3.6 601 601 0 0 1-13.3-61c-3.3-19-2.3-27.5-5.4-36.8-1.3-4-1.5-6.2-4.7-8.2.2 6.2-2 19.5-2.5 44.3a219 219 0 0 0 11.2 65.3Z" fill="#1698B8"/><path d="m356.5 269.9-6.3-1c-.1.8-1.3 9-1.2 12.2.2 1 1.7 1.5 3.5 1.2 1.5-.3 2.7-1.2 2.8-2 0-2 .7-7.4 1.2-10.4ZM361.6 331.2s-9.7 3.7-10.5 6.2c-.8 2.5 8.8 0 12.7-4.9l-2.2-1.3Z" fill="#fff"/><path d="m360.4 331.1 2.8 4.3c23.1-17.6 25.4-33.7-.3-50.6-3.9-2.6-6-2-6.4 1.4-.2 2.6.4 4.3 3.7 6.4 22 13.4 15.8 24.3.2 38.5Z" fill="#1698B8"/><path d="M363.4 260s-1-5.9 5.5-8c6.5-2 13.8.3 13 7-.8 6.8-7.3 14.7-15 12.3-7.5-2.5-3.5-11.3-3.5-11.3Z" fill="#2D334A"/><path d="M350.6 259.4s7.3 4.5 4.3 13.4c-1.5 4.2 10.6-7 10.6-7s-7.7-11.1-15-6.4Z" fill="#2D334A"/><path d="M358.2 274.6c-.8 1.1-3 1.7-3.9 1-.8-.6-.3-1.6.6-2.8.9-1 2.3-1.6 3.2-1 .8.7 1 1.7.1 2.8Z" fill="#fff"/></g><path d="M333.6 228.5c4.3 0 7.8-3.5 7.8-7.8 0 4.3 3.5 7.8 7.8 7.8a7.8 7.8 0 0 0-7.8 7.7c0-4.3-3.5-7.7-7.8-7.7ZM520.8 213.4c4.3 0 7.8-3.5 7.8-7.8 0 4.3 3.5 7.8 7.8 7.8a7.8 7.8 0 0 0-7.8 7.7c0-4.3-3.5-7.7-7.8-7.7ZM356.7 201c2.4 0 4.3-2 4.3-4.3 0 2.4 2 4.3 4.4 4.3-2.4 0-4.4 2-4.4 4.4 0-2.4-2-4.4-4.3-4.4ZM153 145c2.3 0 4.3-2 4.3-4.3 0 2.4 2 4.3 4.3 4.3-2.4 0-4.3 2-4.3 4.4 0-2.4-2-4.4-4.4-4.4ZM10.7 328.4c2.4 0 4.4-2 4.4-4.3 0 2.4 2 4.3 4.3 4.3-2.4 0-4.3 2-4.3 4.4 0-2.4-2-4.4-4.4-4.4Z" fill="#fff"/><path d="M573.3 309.7a4.5 4.5 0 0 0-6.8 4.4 129 129 0 0 0-13 8.5c1.6-3.8 3.8-9.7 4.8-15.8a4.5 4.5 0 1 0-2.4-.3c-1.5 9.1-6 18-6.7 19.4-8.8 7-16.2 14.5-21.7 20.6-9.8 11-15.6 19.8-15.7 19.9l2 1.3c.1-.1 5.8-8.8 15.5-19.6 3-3.2 6.4-6.9 10.3-10.6 1.8 0 8.3.3 16.4 3.5a4.5 4.5 0 1 0 1.1-2.1 52.3 52.3 0 0 0-15-3.7c7.2-6.6 15.8-13.4 25.3-18.9l1 1a4.5 4.5 0 0 0 5-7.6Z" fill="#84DAED"/><path d="M513 327.9c1.6-.6 7.8-2.6 16.5-2.4a4.5 4.5 0 1 0 .3-2.4c-6.9-.2-12.3 1-15.4 1.8 4.5-8.7 10.1-18 17.1-26.6.4.3.8.4 1.3.5a4.5 4.5 0 1 0-3-2.2c-3.3 4-6.4 8.3-9.2 12.6.2-4.2.2-10.5-1-16.6a4.5 4.5 0 0 0-1.3-8.2 4.5 4.5 0 1 0-1 8.8c1.8 9.1.7 19 .6 20.5a184.8 184.8 0 0 0-13.1 27c-5.4 13.6-7.7 24-7.7 24l2.4.6a195 195 0 0 1 13.5-37.4Z" fill="#84DAED"/><path d="M463.7 356.8c-11.4 0-21 7.6-24 18h47.9c-3-10.4-12.6-18-24-18ZM529 356.8c-11.4 0-21 7.6-24 18h47.8c-3-10.4-12.5-18-23.9-18Z" fill="#5BC5DE"/><path d="M497.8 349.1c-16.2 0-29.9 10.9-34.1 25.7H532a35.5 35.5 0 0 0-34.2-25.7Z" fill="#5BC5DE"/><path d="M578 366.6c6.8 0 12.7 4.6 14.5 11h-29.2c1.8-6.4 7.7-11 14.6-11ZM538.1 366.6c7 0 12.8 4.6 14.6 11h-29.2c1.8-6.4 7.7-11 14.6-11Z" fill="#00496F"/><path d="M557 361.9c10 0 18.3 6.6 20.9 15.7h-41.7c2.6-9.1 11-15.7 20.9-15.7Z" fill="#00496F"/><path d="M304 150.1s-2.7-10.5-5.2-11.6c-2.5-1-1 9.2 3.7 13.8l1.5-2.2Z" fill="#fff"/><path d="m305.5 148.3-5.3 2.4c18.5 37.4-17.6 36.1-10.5 6.4 1.1-4.8 1-7.1-5-6-4.2 1-4 2.7-4.2 8.5-1 38.3 51.2 32 25-11.3Z" fill="#5BC5DE"/><path fill-rule="evenodd" clip-rule="evenodd" d="M274.4 147.5c-1 .8-1.8 1.4-2.5 3.2l-.5 1c-1 2.2-1.3 3-2.2 6.7a128.2 128.2 0 0 0-2.3 34h23.7a64.4 64.4 0 0 1-1.2-33.5c.5-2.6.6-3 .3-6.6 0-1.1-.3-1.4-.7-1.6-.2-.2-.4-.4-.5-.8-.3-.7-.6-1-1-1.2l-.2-.1c-3-2.3-5.4-3.6-9-3.2-1.3.2-2 .4-3 1.4l-1 .7Z" fill="#5BC5DE"/><path d="M275.9 146.4c3 5 8.6 10.5 12 8.6a4.3 4.3 0 0 0 2.1-3.1 8.5 8.5 0 0 0-2.3-3.6c-2.7-2.7-6-3.8-8.9-3.2-1 .2-2 .6-3 1.2Z" fill="#1698B8"/><path d="M288.1 125.9s4.8 1.1 4.2 4.1c-.7 3-5.6-1.3-5.6-1.3s-.7-3.7 1.4-2.8Z" fill="#2D334A"/><path d="M281.8 138.4c3.6 4.8 10 6.2 12.9 4 3-2.3 1.4-7.2-2.2-12-3.7-5-8-5.6-10.9-3.3-3 2.2-3.5 6.5.2 11.3Z" fill="#fff"/><path d="m282.9 136 6.2 1.2c-.1.9-1.8 9-3 11.9-.4.8-2 .8-3.6 0-1.3-.9-2.2-2-2-3 .7-1.7 1.8-7 2.4-10Z" fill="#fff"/><path d="M285 139.9c.8-1 1.8-.2 4.1.9 2.3 1 6.3.5 6.2-4.8 0-2.2 1-.6 1.6.7.5 1 .9 2 .8 3.1 0 1.7-.7 3-2 4-2 1.4-5 1.7-8 .8a4 4 0 0 1-3-3.7c0-.4 0-.8.3-1Z" fill="#2D334A"/><path d="m295.5 135.8-.2.1c-1 .7-5.9 3.9-6.3 6-.4 2.3 2.7-1.1 3.6-2.7.8-1.5 2-1.4 3.1-1.8 1-.4 1.4-1.8-.2-1.6ZM278.8 135.8s-1.4-3.8.2-6.8c1.6-3 6.4-6.2 10.7-2.7 0 0 2.7 2.8-.9 5.8s-4.3.6-5 3.8c-.6 3.2-3.3 2.8-3.4 3.5l-1.6-3.6Z" fill="#2D334A"/><path d="M289.7 126.3s-9.6 7.8-9.3 13.1v.7s1 2.1-2.2.1c-3.3-2-2-7.6-2.9-8.6-.9-.9-2.8-3-1.2-5 1.6-2 15.2-5 15.6-.3Z" fill="#066F90"/><path d="M280.5 141.3c.8 1.2 3 1.8 3.8 1.2.8-.7.4-1.7-.5-2.8-.8-1.2-2.3-1.7-3.1-1.1-.8.6-1 1.6-.2 2.8Z" fill="#fff"/><path fill-rule="evenodd" clip-rule="evenodd" d="M246.7 170.6v14c1.5 3 4 5.6 7.5 7.7h19c-30.6-7-26.8-26 .9-35.2l.4-.1c4.2-1.4 6.3-2 3.3-6.7-2.1-3.4-5.1-2.2-9.5 0a43.8 43.8 0 0 0-21.6 20.3Z" fill="#5BC5DE"/></g><defs><clipPath id="a"><path fill="#fff" d="M0 0h629v412H0z"/></clipPath></defs></svg>