<svg width="629" height="412" fill="none" xmlns="http://www.w3.org/2000/svg"><g clip-path="url(#a)"><path d="M629 0H0v412h629V0Z" fill="#FEDD73"/><path d="M448.75 213.34s2.52-6.84-1.2-14.9c-3.7-8.06 2.71-12.12 6.26-9.63 3.55 2.5 5.76 11.6-5.06 24.53ZM442.62 218.68s-2.42-6.87-10.43-10.71c-8-3.84-5.65-11.06-1.32-11.4 4.32-.34 11.83 5.26 11.75 22.11ZM443.42 219.38s7.26-.57 14.02 5.18c6.77 5.75 12.41.67 10.97-3.42-1.44-4.09-9.62-8.67-25-1.76ZM434.43 231.86s7.27-.57 14.03 5.18 12.4.67 10.97-3.42c-1.45-4.09-9.62-8.67-25-1.76ZM429.28 245.13s7.27-.57 14.03 5.18 12.4.67 10.96-3.42c-1.44-4.09-9.61-8.67-25-1.76ZM423.61 261.83s7.27-.57 14.03 5.18 12.4.67 10.97-3.42c-1.45-4.09-9.62-8.67-25-1.76ZM434.53 231.77s-2.43-6.87-10.43-10.72c-8-3.84-5.65-11.06-1.33-11.4 4.33-.34 11.83 5.26 11.76 22.12ZM428.15 246.37s-2.42-6.87-10.43-10.71c-8-3.84-5.65-11.06-1.32-11.4 4.32-.34 11.83 5.26 11.75 22.11ZM423.08 261.54s-2.42-6.87-10.43-10.71c-8-3.84-5.64-11.07-1.32-11.4 4.32-.34 11.83 5.26 11.75 22.11Z" fill="#E68C03"/><path d="M415.85 329.77c.38-.06.66-.4.63-.8-.01-.18-1.26-18.8 2.34-42.59 3.31-21.91 11.54-52.83 31.9-75.66a.75.75 0 1 0-1.14-1c-20.6 23.11-28.91 54.34-32.26 76.47-3.62 23.95-2.36 42.7-2.34 42.9.03.4.39.72.8.7l.07-.02ZM496.69 242.28s3.7-4.8 2.78-12.11c-.92-7.32 5.18-8.94 7.37-6.07 2.19 2.86 1.66 10.63-10.15 18.18ZM490.5 244.98s-.21-6.05-5.6-11.1c-5.38-5.05-1.7-10.18 1.81-9.37 3.52.81 8.06 7.13 3.78 20.47ZM490.95 245.73s5.9 1.37 9.82 7.62 9.68 3.63 9.55.03c-.12-3.6-5.45-9.28-19.38-7.65ZM480.7 253.38s5.9 1.37 9.82 7.62c3.93 6.25 9.68 3.63 9.55.03-.12-3.6-5.45-9.28-19.37-7.65ZM473.3 262.61s5.9 1.37 9.82 7.62 9.67 3.63 9.55.03c-.12-3.6-5.45-9.28-19.38-7.65ZM464.62 274.44s5.9 1.36 9.83 7.61c3.92 6.25 9.67 3.64 9.55.03-.13-3.6-5.46-9.28-19.38-7.64ZM480.8 253.33s-.2-6.05-5.58-11.1c-5.39-5.05-1.72-10.18 1.8-9.37 3.52.81 8.06 7.13 3.78 20.47ZM472.09 263.32s-.2-6.05-5.59-11.1c-5.38-5.05-1.7-10.19 1.8-9.38 3.52.82 8.07 7.13 3.79 20.48ZM464.28 274.08s-.2-6.05-5.59-11.1c-5.38-5.05-1.71-10.19 1.8-9.38 3.52.82 8.07 7.14 3.79 20.48Z" fill="#E68C03"/><path d="M441.46 326.36c.32.05.63-.15.7-.47.04-.15 3.71-15.22 12.52-33.19 8.11-16.54 22.37-39 44.22-52.01a.63.63 0 1 0-.64-1.08c-22.13 13.18-36.53 35.86-44.72 52.57-8.86 18.08-12.55 33.27-12.6 33.42a.63.63 0 0 0 .52.76Z" fill="#E68C03"/><path d="M263.65 311.02a77.55 77.55 0 0 0-74.56 56.18h149.12a77.55 77.55 0 0 0-74.56-56.18ZM467.06 311.02a77.55 77.55 0 0 0-74.56 56.18h149.12a77.55 77.55 0 0 0-74.56-56.18Z" fill="#FAECB4"/><path d="M370.15 286.95c-50.6 0-93.27 33.92-106.5 80.25h213c-13.23-46.33-55.9-80.25-106.5-80.25Z" fill="#FAECB4"/><path d="M532.06 396.59H96.9a14.56 14.56 0 1 1 0-29.1h435.16a14.56 14.56 0 1 1 0 29.1Z" fill="#D87000"/><path d="M-24.1 38.92A60 60 0 0 0-81.8 82.38H33.58A60 60 0 0 0-24.1 38.92ZM133.26 38.92a60 60 0 0 0-57.68 43.46h115.36a60 60 0 0 0-57.68-43.46Z" fill="#fff"/><path d="M58.29 20.3a85.7 85.7 0 0 0-82.4 62.09h164.79a85.7 85.7 0 0 0-82.4-62.08Z" fill="#fff"/><path d="M2.19 70.13a29.61 29.61 0 0 0-28.46 21.44h56.92A29.6 29.6 0 0 0 2.2 70.13ZM79.84 70.13a29.61 29.61 0 0 0-28.46 21.44h56.92a29.6 29.6 0 0 0-28.46-21.44Z" fill="#F1AB0D"/><path d="M42.85 60.94A42.29 42.29 0 0 0 2.19 91.58H83.5a42.29 42.29 0 0 0-40.65-30.64Z" fill="#F1AB0D"/><path d="M176.8 306.82a62.13 62.13 0 0 0-18.24 9.28l-.19-.76a373.8 373.8 0 0 0-6.16-21.74 62.19 62.19 0 0 0 19.53-7.53 61.25 61.25 0 0 0 16.68-15.29s-10.76 1.45-21.23 7.83a62.1 62.1 0 0 0-15.41 13.63 354.67 354.67 0 0 0-7.24-20.43 62.17 62.17 0 0 0 16.82-12.21c8.49-8.85 12.22-19.05 12.22-19.05s-10.04 4.15-18.53 13a62 62 0 0 0-11.17 16.58 317.7 317.7 0 0 0-9.43-21.51c2.93-2.05 9.5-7.1 14.78-14.65 7.04-10.03 9.17-20.68 9.17-20.68s-9.29 5.63-16.33 15.67a62.13 62.13 0 0 0-8.47 17.93 278.2 278.2 0 0 0-7.74-14.63 62.06 62.06 0 0 0 8.12-19.1c2.72-11.95.67-22.61.67-22.61s-6.47 8.72-9.2 20.67a61.53 61.53 0 0 0-1.19 18.25 250.61 250.61 0 0 0-6.21-10.08 61.65 61.65 0 0 0-7.2-16.84C104.3 192.18 95.3 186.1 95.3 186.1s1.6 10.74 8.15 21.1a61.65 61.65 0 0 0 11.99 13.69c2.24 3.44 4.38 6.92 6.42 10.42a62.12 62.12 0 0 0-19.28-4.41c-12.25-.68-22.41 3.14-22.41 3.14s9.68 4.9 21.93 5.58c9.3.52 17.4-1.56 20.76-2.59 2.79 4.88 5.38 9.79 7.8 14.69a62.16 62.16 0 0 0-20.55 1.25c-11.93 2.89-20.56 9.47-20.56 9.47s10.7 1.9 22.62-.98a62.03 62.03 0 0 0 19.12-8.47 312.5 312.5 0 0 1 9.72 22.06 62.09 62.09 0 0 0-20.47-.54c-12.13 1.82-21.32 7.62-21.32 7.62s10.49 2.84 22.61 1.02c9.14-1.38 16.6-5 19.73-6.71a350.55 350.55 0 0 1 7.32 20.62 62.1 62.1 0 0 0-20.34-1.26c-12.18 1.39-21.57 6.85-21.57 6.85s10.38 3.22 22.56 1.83a62.15 62.15 0 0 0 19.83-5.93c2.45 7.76 4.46 15 6.08 21.45l.24.97a61.87 61.87 0 0 0-22 1.08 61.26 61.26 0 0 0-20.55 9.47s10.7 1.9 22.62-.98a61.91 61.91 0 0 0 20.04-9.1c6.54 26.49 8.17 45.4 8.19 45.58l3-.24c-.02-.2-1.63-18.9-8.05-45.17 3.7.18 11.8.19 20.42-2.43 11.73-3.57 19.97-10.64 19.97-10.64s-10.78-1.29-22.52 2.27v.01Z" fill="#F9C636"/><path d="M100.17 317.52a37.14 37.14 0 0 0-8.86 8.45l-.24-.4a223.93 223.93 0 0 0-7.27-11.4 37.18 37.18 0 0 0 9.9-7.67c4.9-5.46 6.93-11.63 6.93-11.63s-5.92 2.68-10.82 8.13a37.06 37.06 0 0 0-6.49 10.46c-2.31-3.37-4.87-6.9-7.66-10.46a37.2 37.2 0 0 0 7.55-9.89c3.34-6.53 3.72-13.01 3.72-13.01s-5.04 4.1-8.38 10.63A37.08 37.08 0 0 0 75 302.15c-2.8-3.55-5.84-7.15-9.1-10.71a37.13 37.13 0 0 0 5.95-10.93c2.3-6.96 1.7-13.43 1.7-13.43s-4.36 4.82-6.67 11.79c-1.59 4.8-1.79 9.35-1.76 11.73a167.31 167.31 0 0 0-6.95-7.06 37.1 37.1 0 0 0 1.36-12.34c-.5-7.32-3.5-13.07-3.5-13.07s-2.21 6.1-1.71 13.42c.3 4.45 1.53 8.32 2.44 10.67-1.71-1.6-3.48-3.18-5.29-4.71a36.87 36.87 0 0 0-7.02-8.42c-5.53-4.82-11.73-6.76-11.73-6.76s2.76 5.88 8.3 10.7c3.32 2.9 6.9 4.76 9.21 5.78 1.88 1.59 3.7 3.22 5.47 4.88-2.37-.23-6.91-.4-11.8.78a36.64 36.64 0 0 0-12.3 5.64s6.39 1.15 13.52-.56c5.42-1.3 9.7-3.88 11.45-5.05 2.44 2.31 4.77 4.68 7 7.07A37.2 37.2 0 0 0 52 295.82a36.66 36.66 0 0 0-10.15 8.96s6.46-.74 12.8-4.44a37.13 37.13 0 0 0 9.5-8.14c3.36 3.64 6.48 7.33 9.36 10.97-2.22.22-6.99.93-11.83 3.21a36.66 36.66 0 0 0-10.9 8.03s6.5-.17 13.13-3.3c5-2.36 8.65-5.72 10.15-7.23 2.83 3.6 5.4 7.15 7.75 10.55-2.26.15-7 .7-11.88 2.78-6.74 2.89-11.18 7.63-11.18 7.63s6.5.06 13.24-2.83a37.14 37.14 0 0 0 10.35-6.8c2.73 4.02 5.13 7.83 7.17 11.25l.3.5a37.03 37.03 0 0 0-12.42 4.4c-6.33 3.7-10.15 8.96-10.15 8.96s6.46-.74 12.8-4.44a36.98 36.98 0 0 0 9.92-8.67c8.3 14.07 12.48 24.62 12.52 24.73l1.68-.66c-.05-.1-4.18-10.54-12.37-24.5 2.14-.53 6.79-1.92 11.28-4.9 6.1-4.06 9.62-9.52 9.62-9.52s-6.4 1.1-12.51 5.17v-.01Z" fill="#F9C636"/><path d="M63.88 343.6a34.01 34.01 0 0 0-32.7 24.63h65.4a34 34 0 0 0-32.7-24.63ZM153.08 343.6a34.01 34.01 0 0 0-32.7 24.63h65.39a34 34 0 0 0-32.7-24.63Z" fill="#F1AB0D"/><path d="M110.58 333.05a48.57 48.57 0 0 0-46.7 35.18h93.4a48.58 48.58 0 0 0-46.7-35.19Z" fill="#F1AB0D"/><path d="M.06 362.7a15.62 15.62 0 0 0-15.02 11.32h30.03A15.62 15.62 0 0 0 .06 362.7ZM41.02 362.7A15.62 15.62 0 0 0 26 374.03h30.03a15.62 15.62 0 0 0-15.01-11.31Z" fill="#B14402"/><path d="M21.5 357.86A22.3 22.3 0 0 0 .06 374.02h42.89a22.3 22.3 0 0 0-21.45-16.16Z" fill="#B14402"/><path d="M504.6 153.38a26.92 26.92 0 0 0-25.88 19.5h51.77a26.93 26.93 0 0 0-25.88-19.5ZM575.22 153.38a26.92 26.92 0 0 0-25.88 19.5h51.77a26.92 26.92 0 0 0-25.88-19.5Z" fill="#D87000"/><path d="M541.58 145.02a38.46 38.46 0 0 0-36.98 27.86h73.95a38.46 38.46 0 0 0-36.97-27.86Z" fill="#D87000"/><path d="M592.7 164.3c-7.98 0-14.72 5.36-16.81 12.68h33.64a17.5 17.5 0 0 0-16.82-12.68ZM638.6 164.3c-7.99 0-14.73 5.36-16.82 12.68h33.65a17.5 17.5 0 0 0-16.82-12.68Z" fill="#F1AB0D"/><path d="M616.74 158.87a25 25 0 0 0-24.03 18.1h48.06a25 25 0 0 0-24.03-18.1Z" fill="#F1AB0D"/><path d="M182.15 364.1c-5.14 0-9.46 3.44-10.8 8.13h21.6a11.23 11.23 0 0 0-10.8-8.13ZM211.6 364.1c-5.13 0-9.45 3.44-10.8 8.13h21.6a11.23 11.23 0 0 0-10.8-8.13Z" fill="#E68C03"/><path d="M197.57 360.61c-7.33 0-13.5 4.92-15.42 11.63h30.84a16.04 16.04 0 0 0-15.42-11.63Z" fill="#E68C03"/><path d="M196.89 171.91c-7 0-12.91 4.7-14.74 11.11h29.48a15.33 15.33 0 0 0-14.74-11.1ZM237.11 171.91c-7 0-12.91 4.7-14.74 11.11h29.49a15.33 15.33 0 0 0-14.75-11.1Z" fill="#fff"/><path d="M217.95 167.15c-10 0-18.44 6.71-21.06 15.87H239a21.9 21.9 0 0 0-21.06-15.87Z" fill="#fff"/><path d="M247.51 323.77a2.78 2.78 0 0 1 3.35 3.77 79.6 79.6 0 0 1 6.32 7.32c-.34-2.6-.65-6.48-.2-10.3a2.76 2.76 0 0 1 .38-5.16 2.78 2.78 0 1 1 1.1 5.41c-.65 5.72.48 11.76.67 12.69a114.68 114.68 0 0 1 9.46 16c4 8.2 5.95 14.44 5.97 14.5l-1.43.45c-.02-.06-1.94-6.2-5.9-14.28-1.18-2.44-2.63-5.2-4.36-8.13a29.56 29.56 0 0 0-10.33-.64 2.78 2.78 0 1 1-.32-1.47c4.24-.47 7.64-.05 9.58.33a89.14 89.14 0 0 0-11.9-15.56 2.78 2.78 0 1 1-2.4-4.93Z" fill="#9A3301"/><path d="M280.41 344.88a29.52 29.52 0 0 0-9.45-4.24 2.78 2.78 0 1 1 .23-1.48 32.39 32.39 0 0 1 8.85 3.68 89.02 89.02 0 0 0-5.66-18.75 2.78 2.78 0 1 1 1.3-.75 79.64 79.64 0 0 1 3.34 9.07c.6-2.54 1.68-6.29 3.44-9.7a2.77 2.77 0 1 1 1.3.75c-2.63 5.12-3.69 11.17-3.84 12.11 1.8 6.79 2.73 13.27 3.2 18.32.86 9.06.49 15.6.49 15.67l-1.5-.09c0-.07.37-6.49-.47-15.44-.26-2.7-.64-5.8-1.22-9.14Z" fill="#9A3301"/><path d="M168.16 37.42a26.92 26.92 0 0 0-25.88 19.5h51.76a26.92 26.92 0 0 0-25.88-19.5ZM238.77 37.42a26.92 26.92 0 0 0-25.88 19.5h51.77a26.92 26.92 0 0 0-25.88-19.5Z" fill="#D87000"/><path d="M205.13 29.06a38.46 38.46 0 0 0-36.97 27.86h73.94a38.46 38.46 0 0 0-36.97-27.86Z" fill="#D87000"/><path d="M520.82 213.37c4.29 0 7.77-3.47 7.77-7.77a7.77 7.77 0 0 0 7.77 7.77 7.77 7.77 0 0 0-7.77 7.77 7.77 7.77 0 0 0-7.77-7.77ZM152.95 145.02c2.39 0 4.33-1.94 4.33-4.33 0 2.4 1.94 4.33 4.34 4.33a4.34 4.34 0 0 0-4.34 4.34c0-2.4-1.94-4.34-4.33-4.34ZM10.73 328.43c2.4 0 4.34-1.94 4.34-4.33 0 2.4 1.94 4.33 4.34 4.33a4.34 4.34 0 0 0-4.34 4.33c0-2.39-1.94-4.33-4.34-4.33Z" fill="#fff"/><path d="M573.32 309.71a4.48 4.48 0 0 0-6.86 4.36c-4.58 2.6-8.94 5.51-13.04 8.56a69.62 69.62 0 0 0 4.87-15.88 4.47 4.47 0 1 0-4.49-6.83 4.47 4.47 0 0 0 2.09 6.57c-1.52 9.15-5.95 18-6.65 19.37a184.55 184.55 0 0 0-21.75 20.65c-9.82 10.93-15.61 19.76-15.67 19.84l2.02 1.32c.06-.09 5.75-8.76 15.45-19.55 2.92-3.24 6.4-6.9 10.36-10.67 1.74.03 8.25.35 16.3 3.58a4.47 4.47 0 1 0 1.15-2.14 52.26 52.26 0 0 0-15-3.73c7.19-6.6 15.78-13.4 25.32-18.86a4.48 4.48 0 1 0 5.9-6.59Z" fill="#F9C636"/><path d="M512.96 327.9c1.64-.59 7.85-2.58 16.53-2.39a4.47 4.47 0 1 0 .31-2.4 52.19 52.19 0 0 0-15.35 1.8c4.4-8.73 10.05-18.1 17.06-26.58a4.48 4.48 0 1 0-1.69-1.75c-3.37 4.06-6.42 8.31-9.19 12.6.2-4.2.2-10.5-1.03-16.57a4.46 4.46 0 0 0-1.3-8.25 4.48 4.48 0 1 0-1.05 8.85c1.8 9.1.78 18.95.6 20.47a184.76 184.76 0 0 0-13.07 26.98c-5.34 13.68-7.65 23.98-7.67 24.09l2.35.52c.03-.1 2.3-10.22 7.57-23.73 1.59-4.06 3.56-8.71 5.94-13.64Z" fill="#F9C636"/><path d="M463.69 356.83a24.87 24.87 0 0 0-23.91 18.01h47.82a24.87 24.87 0 0 0-23.91-18.01ZM528.92 356.83a24.87 24.87 0 0 0-23.9 18.01h47.81a24.87 24.87 0 0 0-23.9-18.01Z" fill="#F1AB0D"/><path d="M497.84 349.11a35.53 35.53 0 0 0-34.15 25.74h68.3a35.52 35.52 0 0 0-34.15-25.74Z" fill="#F1AB0D"/><path d="M577.9 366.57c6.94 0 12.78 4.65 14.6 11h-29.18c1.81-6.35 7.66-11 14.58-11ZM538.11 366.57c6.93 0 12.78 4.65 14.59 11h-29.17c1.8-6.35 7.65-11 14.58-11Z" fill="#B14402"/><path d="M557.07 361.87c9.9 0 18.25 6.63 20.83 15.7h-41.67a21.67 21.67 0 0 1 20.84-15.7Z" fill="#B14402"/><path d="M268.28 145.38A22.14 22.14 0 0 0 247 161.42h42.57a22.14 22.14 0 0 0-21.29-16.04ZM326.35 145.38a22.14 22.14 0 0 0-21.29 16.04h42.57a22.14 22.14 0 0 0-21.28-16.04Z" fill="#fff"/><path d="M298.68 138.5a31.63 31.63 0 0 0-30.4 22.92h60.8a31.63 31.63 0 0 0-30.4-22.92ZM487.5 97.1H367.05v152.1H487.5V97.1Z" fill="#fff"/><path d="M468.44 204.72H386.1v13.55h82.33v-13.55Z" fill="#E6E6E6"/><path d="M412.47 185.08H386.1v3.38h26.36v-3.38ZM432.04 191.6h-45.93v3.4h45.93v-3.4ZM445.72 230.76h-59.6v4.14h59.6v-4.14Z" fill="#5BC5DE"/><path d="m481.81 102.43-5.6 5.6M481.81 108.03l-5.6-5.6" stroke="#8987A8" stroke-width="1.5" stroke-linecap="round" stroke-linejoin="round"/><path d="M427.08 174.19a31.9 31.9 0 1 0 0-63.81 31.9 31.9 0 0 0 0 63.81ZM234.72 98.67H128.9v133.6h105.82V98.66Z" fill="#39AECB"/><path d="M217.13 118.94h-70.64V212h70.64v-93.06Z" fill="#fff"/><path d="M217.13 169.15h-70.64V212h70.64v-42.85Z" fill="#D4D4D4"/><path d="M141.54 110.58a3 3 0 1 0-4.26-4.26 3 3 0 0 0 4.26 4.26ZM152.42 109.13a3.01 3.01 0 1 0-5.86-1.38 3.01 3.01 0 0 0 5.86 1.38ZM162.52 109.14a3.01 3.01 0 1 0-5.86-1.39 3.01 3.01 0 0 0 5.86 1.39Z" fill="#84DAED"/><path d="m210.9 126.16-4.9 4.92M210.9 131.08l-4.9-4.92" stroke="#6F728A" stroke-width="1.92" stroke-linecap="round" stroke-linejoin="round"/><path d="M211.1 150.24h-58.59v11.9h58.6v-11.9Z" fill="#E6E6E6"/><path d="M207.03 142.3h-50.45v2.87h50.45v-2.87ZM184.23 134.8h-27.65v2.86h27.65v-2.87Z" fill="#055C7F"/><path d="M382.08 189.72H155.47V306.9h226.61V189.73Z" fill="#fff"/><path d="M347.93 276.15c-4.26 5.15-9.48 10.09-16.04 11.36-9.98 1.94-19.26-4.98-28.97-7.97-13.09-4.04-28.08-.06-38 9.24v18.1h117.16v-52.31c-7.23 1.39-14.53 2.82-20.53 6.95-5.51 3.79-9.35 9.48-13.62 14.63Z" fill="#D6406E"/><path d="M264.92 189.72v99.06c9.93-9.3 24.92-13.28 38-9.24 9.71 2.99 19 9.91 28.97 7.97 6.57-1.27 11.78-6.21 16.04-11.36 4.27-5.15 8.11-10.84 13.62-14.63 6-4.13 13.3-5.56 20.53-6.95v-64.84H264.92Z" fill="#FD9CAE"/><path d="M210.2 209.77h-39.32v3.85h39.32v-3.85Z" fill="#5BC5DE"/><path d="M247.96 217.22h-77.08v13.87h77.08v-13.87Z" fill="#E6E6E6"/><path d="M210.2 243.17h-39.32v3.85h39.32v-3.85Z" fill="#5BC5DE"/><path d="M247.96 250.62h-77.08v13.87h77.08v-13.87Z" fill="#E6E6E6"/><path d="M222.9 278.88h-26.97v3.47h26.98v-3.47ZM232.93 285.56H185.9v3.47h47.02v-3.47Z" fill="#5BC5DE"/><path d="m376.3 195.17-5.73 5.73M376.3 200.9l-5.73-5.73" stroke="#fff" stroke-width="1.54" stroke-linecap="round" stroke-linejoin="round"/><path d="M233.02 126a12.61 12.61 0 0 0-12.12 9.15h24.24a12.6 12.6 0 0 0-12.12-9.14ZM266.1 126a12.61 12.61 0 0 0-12.13 9.15h24.25A12.6 12.6 0 0 0 266.1 126Z" fill="#F9C636"/><path d="M250.34 122.1a18.02 18.02 0 0 0-17.32 13.05h34.63a18.01 18.01 0 0 0-17.31-13.06Z" fill="#F9C636"/><path d="M403.54 294.14s-6.48 40.95-10.39 46.3c0 0 4.74 4.37 9.14 3.14 7.25-2.03 5.81-29.38 3.89-42.71-.66-4.52-2.64-6.73-2.64-6.73Z" fill="#9A3301"/><path d="M383.54 290.57s-1.76-5.25-3.06-5.73c-1.31-.48-.2 4.7 2.33 6.88l.73-1.15Z" fill="#AF7D61"/><path d="M383.63 289.96c-.81.48-1.61.93-2.37 1.4 8.93 12.73 17.46 14.33 27.08.98 1.47-2.04.74-2.34-.94-3 .11-.42.1-.42 0 0-1.68-.66-2-.36-3.17 1.39-7.68 11.4-13.37 7.88-20.6-.76ZM421.19 321.37c.96.51 1.75.93 2.63 1.34 4.65-18.6 4.88-23.69-11.1-35.03-2.45-1.74-4.02 2.69-.21 4.54 13.37 6.51 11.48 16.44 8.68 29.14Z" fill="#9A3301"/><path d="M402.79 377.14c1.07.48 1.14 1.37 2.27 1.72 3.39-19.89 3.34-45.34 7.96-63.31-2.98-.65-5.98-1.26-8.97-1.87-3.58 20.97 3.22 39.72-1.26 63.46Z" fill="#AF7D61"/><path d="M404.05 313.68c3 .61 5.98 1.22 8.97 1.87-4.29 16.68-4.25 39.75-6.98 58.9l-2.85.33c3.64-22.63-2.6-40.83.86-61.1Z" fill="#9A3301"/><path d="M410.96 377.4c1.11.41 1.23 1.3 2.38 1.57 2.1-20.07.4-45.46 3.85-63.7-3.02-.45-6.05-.86-9.07-1.28-2.22 21.16 5.78 39.43 2.84 63.4Z" fill="#AF7D61"/><path d="M408.12 314c3.02.41 6.05.82 9.07 1.27-3.2 16.93-1.67 39.95-3.15 59.23l-2.82.52c2.16-22.82-5.25-40.58-3.1-61.03Z" fill="#9A3301"/><path d="M424.85 346.27c-.26-.86-.53-1.73-.78-2.62-3.38-11.68-5.94-25.57-7.13-32.61-1.74-10.26-1.22-14.78-2.88-19.76-.7-2.09-.82-3.32-2.5-4.36-.2-.12-.42-.24-.65-.35a4.21 4.21 0 0 0-.97-.34c-3.3-.7-5.3 3.72-5.85 6.72-.1.6-.21 1.04-.3 1.41-.46 1.73-.65 1.83.85 6.1.65 1.85-.8 12.66-1.45 16.3-.2 1.18-.34 3.28-.81 5.43-2.79 12.89-4.58 26.66-6.06 39.95l-.16 1.4c1.36.03 2.73-.18 4.03-.55 3.12-.88 5.98-2.38 9.18-3.02a16.5 16.5 0 0 1 6.38.12c1.32.25 2.5.82 3.87.9 1.97.13 3.73-.03 5.52-1.18 1.17-.75 2.93-.86 4-2.4a72.06 72.06 0 0 1-4.29-11.14Z" fill="#D87000"/><path d="M416.19 345.58c3.48.06 6.54-1.25 7.88-1.93-3.38-11.68-5.94-25.57-7.13-32.61-1.74-10.26-1.22-14.77-2.88-19.76-.7-2.09-.82-3.32-2.5-4.36.07 3.3-1.08 10.43-1.37 23.69-.36 16.67 6 34.97 6 34.97Z" fill="#9A3301"/><path d="M401.94 376.27s-.6 3.47-4.27 5.43c0 0-1.6 1.04.71.71 2.3-.33 5.58-2.06 6.34-3.51 0 0 1.3 2.18 1.32 1.4l.11-4.3-4.2.27ZM410.32 376.27s-.61 3.47-4.27 5.43c0 0-1.6 1.04.71.71 2.3-.33 5.58-2.06 6.33-3.51 0 0 1.3 2.18 1.33 1.4l.1-4.3-4.2.27Z" fill="#F9C636"/><path d="M403.78 294.36s3.13-6.32 5.14-7.44c.44-.25.78-.48 1.02-.69-3.3-.7-5.3 3.72-5.84 6.72-.11.6-.22 1.04-.32 1.41Z" fill="#9A3301"/><path d="M407.21 278.63c.05-.41.37-.78.47-1.17.1-.4 0-.88.17-1.25.17-.39.59-.63.8-.98.23-.35.29-.83.56-1.14.27-.3.75-.41 1.07-.67.32-.27.51-.7.87-.92.36-.2.84-.16 1.22-.31.39-.15.71-.51 1.12-.6.4-.09.84.1 1.26.08.4-.02.83-.26 1.25-.22.41.04.78.36 1.17.46.4.11.88.01 1.25.17.39.17.63.59.98.81.35.23.83.28 1.14.55.3.28.4.75.67 1.07.27.32.7.52.92.88.2.35.16.83.31 1.22.15.38.51.7.6 1.11.09.4-.1.85-.08 1.26.02.41.26.83.22 1.25-.04.42-.36.78-.47 1.17-.1.41 0 .88-.17 1.26-.16.38-.58.63-.8.97-.23.35-.28.83-.55 1.14-.28.3-.75.41-1.07.68-.32.26-.52.7-.88.91-.35.2-.83.16-1.22.32-.38.14-.7.5-1.11.6-.4.08-.85-.11-1.27-.09-.4.03-.82.27-1.24.22-.42-.04-.78-.36-1.18-.46-.4-.1-.87 0-1.25-.17s-.63-.59-.97-.8c-.35-.23-.83-.29-1.14-.56-.31-.28-.42-.75-.68-1.07-.26-.32-.7-.51-.91-.87-.21-.36-.16-.84-.32-1.23-.15-.38-.5-.7-.6-1.11-.08-.4.11-.84.09-1.26-.03-.4-.27-.83-.23-1.25Z" fill="#2D334A"/><path d="M416.88 280.66c-.16.36-.55.59-.75.9-.21.33-.26.78-.52 1.07-.26.29-.7.39-1 .63-.3.25-.48.66-.81.85-.33.2-.78.16-1.14.3l-.14.06c-.3.16-.57.42-.9.5-.38.08-.79-.1-1.18-.08-.38.03-.77.25-1.16.21-.4-.04-.73-.34-1.1-.43-.38-.1-.82 0-1.17-.16s-.58-.55-.9-.75c-.33-.21-.78-.26-1.07-.52-.29-.25-.39-.7-.63-1-.25-.3-.66-.48-.85-.8-.2-.34-.16-.8-.3-1.15-.13-.36-.47-.66-.55-1.04-.09-.38.1-.79.07-1.18-.02-.38-.24-.77-.2-1.16.03-.4.33-.73.43-1.1.1-.38 0-.82.16-1.17.12-.28.4-.5.61-.73l.14-.18c.2-.32.26-.77.51-1.06.26-.29.7-.39 1-.63.3-.25.48-.66.81-.85.34-.2.79-.15 1.15-.3.36-.13.66-.47 1.04-.55.34-.08.71.06 1.07.07h.1c.39-.02.78-.24 1.17-.2.39.03.73.33 1.1.43.37.1.81 0 1.16.16.36.15.59.54.91.75.33.2.78.26 1.06.51.3.26.4.7.64 1 .24.3.65.48.85.82.2.33.15.78.3 1.14.13.35.46.66.55 1.03.08.38-.1.8-.07 1.19.02.38.24.77.2 1.16-.03.39-.33.73-.43 1.1-.1.37 0 .81-.16 1.16Z" fill="#2D334A"/><path d="M420.62 278.86c-.17.38-.58.63-.8.98-.23.34-.28.83-.55 1.13-.28.31-.75.42-1.07.68-.32.26-.52.7-.88.91-.35.21-.83.17-1.22.32-.38.15-.7.5-1.12.6-.4.08-.84-.1-1.26-.08-.4.02-.82.26-1.24.22-.28-.03-.53-.17-.78-.3a2.13 2.13 0 0 0-.4-.16c-.4-.11-.88-.01-1.25-.18-.38-.16-.63-.58-.98-.8-.35-.23-.83-.28-1.13-.55-.31-.28-.42-.75-.68-1.07-.26-.32-.7-.52-.91-.88-.2-.35-.17-.83-.32-1.22-.15-.38-.5-.7-.6-1.11-.06-.32.04-.67.08-1v-.27c-.02-.4-.26-.82-.22-1.24.04-.42.36-.78.47-1.17.1-.41 0-.88.17-1.26.16-.38.58-.63.8-.97.23-.35.28-.83.56-1.14.27-.3.74-.42 1.06-.68.13-.1.24-.23.34-.37.17-.2.32-.41.54-.54.35-.2.83-.16 1.22-.32.39-.14.71-.5 1.12-.6.4-.08.84.11 1.26.09.4-.03.83-.26 1.24-.22.42.04.79.36 1.18.46.4.1.88 0 1.25.17.38.17.63.58.98.8.16.11.36.18.56.25.2.08.41.16.57.3.31.28.42.76.68 1.07.26.33.7.52.91.88.21.36.17.84.32 1.22s.5.71.6 1.12c.08.4-.1.84-.08 1.26.02.4.26.83.22 1.25-.04.41-.36.78-.47 1.17-.1.4 0 .88-.17 1.25Z" fill="#2D334A"/><path d="M412.27 281.61c-1.66 2.8-4.95 3.9-6.65 2.88-1.71-1.01-1.18-3.76.48-6.55 1.66-2.8 3.88-3.39 5.59-2.37 1.7 1.01 2.24 3.25.58 6.04Z" fill="#AF7D61"/><path d="m411.92 281.54-3.37-.55c-.07.47-.7 4.86-.64 6.53.09.53.92.81 1.85.65.84-.15 1.47-.6 1.52-1.08-.03-1 .38-3.94.64-5.54Z" fill="#AF7D61"/><path d="M404.94 276.2s2.44 2.71 7.66.18c0 0-3.5-3.96-7.66-.18Z" fill="#2D334A"/><path d="M409.52 276s2.25 3.15 2.57 6.58c.22 2.27 4.1-4.3 4.1-4.3s-3.88-5.17-6.67-2.27Z" fill="#2D334A"/><path d="M412.95 283.32c-.38.65-1.52 1.1-2 .82-.46-.28-.27-.88.12-1.53s1.13-1.03 1.6-.75c.47.28.67.81.28 1.46ZM421.75 321.67c-1 1.28-3.12 4.18-2.89 5.28.26 1.24 3.28-1.49 4.43-4.5-.5-.24-1-.5-1.54-.78Z" fill="#AF7D61"/><path d="M361.38 120.6c-4.98 0-9.37 5.98-9.37 5.98s-4.4-5.98-9.37-5.98c-3.2 0-7.6 1.8-7.67 7.65-.06 6 8.3 7.28 11.84 7.52 3.55.24 5.2 4.79 5.2 4.79s1.66-4.55 5.2-4.8c3.55-.23 11.9-1.5 11.84-7.51-.06-5.86-4.46-7.65-7.67-7.65Z" fill="#C0285C"/><path d="m329.32 220.47-4 4.55 52.49-9.17-48.49 4.62Z" fill="#5BC5DE"/><path d="m329.32 220.47 9.54 15.31 38.94-19.93-48.48 4.62Z" fill="#fff"/><path d="m333.35 218.71 5.51 17.07 38.94-19.93-44.45 2.86Z" fill="#B4E8F4"/><path d="m352.86 218.2 4.44 8.67 20.5-11.02-24.94 2.34Z" fill="#5BC5DE"/><path d="m355.58 225.02.6 2.45 4.56-2.45h-5.16ZM333.35 218.71l9.19 8.58 35.26-11.44-44.45 2.86Z" fill="#5BC5DE"/><path d="m333.35 218.71 10.06 5.87 34.4-8.73-44.46 2.86ZM485.56 60.13l-48.2 8.82 4.57 24.91 48.2-8.82-4.57-24.91Z" fill="#fff"/><path d="m465.76 71.59-19.98 3.65.61 3.34 19.98-3.66-.61-3.33ZM481.77 75.29l-34.81 6.37.6 3.33 34.82-6.37-.6-3.33Z" fill="#F9C636"/><mask id="b" style="mask-type:luminance" maskUnits="userSpaceOnUse" x="338" y="61" width="160" height="114"><path d="m497.2 61.23-79.92 3.7-61.9 29.36-17 52.77 47.74 24.63 20.93-4.57a31.86 31.86 0 0 0 45.63-5.78l34.83-16.93 9.69-83.18Z" fill="#fff"/></mask><g mask="url(#b)"><path d="M367.35 141.82s-7.68-7.21-10.3-6.83c-2.63.37 3.9 8.06 10.12 9.41l.18-2.58Z" fill="#D4AC96"/><path d="M368.48 140.76c-1.59 1.37-3.1 2.36-4.5 3.38 20.96 26.34 44.07 18.9 55.26-10.79 2.67-7.08-5.27-9.08-8.53-.7-9.33 23.99-24.92 28.4-42.23 8.1Z" fill="#F9C636"/><path d="M461.44 99.8s-.67-10.52 1.3-12.3c1.96-1.79 3.73 8.14.81 13.8l-2.1-1.51Z" fill="#D4AC96"/><path d="M459.9 99.99c2.08-.35 3.8-.89 5.48-1.31 6.97 32.92-13.48 46.02-43.5 35.74-7.16-2.45-3.64-9.84 4.9-7.02 24.43 8.07 37.77-1.14 33.13-27.41Z" fill="#F9C636"/><path d="M416.98 101.05c2 0 4.32 1.52 4.88 3.54.55 2.03-1.1 3.97-3.02 4.5-1.92.52-5.6-1.73-6.16-3.76-.55-2.02 1.77-4.28 4.3-4.28ZM431.27 97.32c2.15-4.73 8.21-8.59 13.57-7.71 5.35.87 8.16 6.85 7.32 11.95-.83 5.1-7.93 11.55-16.03 10.83-5.4-.48-7.57-9.1-4.86-15.07Z" fill="#3B3E54"/><path d="M415.7 106.9c2.33-5.31 8.87-9.7 14.6-8.76 5.73.93 8.68 7.62 7.75 13.35-.94 5.73-5.35 17.44-16.62 11.9-5.21-2.56-8.69-9.76-5.73-16.49Z" fill="#3B3E54"/><path d="M424.44 115.54c-3.06 5.37-9.29 7.58-12.56 5.7-3.28-1.87-2.37-7.12.7-12.48 3.06-5.37 7.28-6.58 10.56-4.7 3.28 1.87 4.37 6.12 1.3 11.48Z" fill="#D4AC96"/><path d="M425.8 118.77c-.7 1.25-2.86 2.14-3.77 1.62-.9-.52-.55-1.66.17-2.9.71-1.25 2.11-2 3.01-1.49.9.52 1.31 1.52.6 2.77Z" fill="#D4AC96"/><path d="M427.18 112.57s.83-4.08-1.15-6.86c-1.98-2.78-7.28-5.53-11.12-1.41 0 0-2.46 3.17 1.62 5.81 4.08 2.64 4.4-.02 5.5 3.15 1.1 3.16 3.77 2.48 3.93 3.17l1.22-3.86Z" fill="#3B3E54"/><path d="M453.77 253.97c-2.39.23-4.4 1.77-6.56 2.8a16.56 16.56 0 0 1-10.66 1.23c-2.46-.54-4.76-1.64-7.15-2.43a29.52 29.52 0 0 0-12.1-1.35c-6.1.6-11.86 3.08-17.88 4.2a27 27 0 0 1-7.76.35c4.38-22.1 8.4-42.96 14.52-63.44 1-3.31 1.8-6.67 2.35-10.08 1.7-10.51 5.84-28.3 4.47-31.65-3.86-9.44-1.95-8.32-1.15-13.5.8-5.17 1.3-10.17 3.88-12.28l.12-.1a7.16 7.16 0 0 1 7.8-.58c1.82.94 1.94-.46 6.43 8.47 3.84 7.63 4.63 37.34 4.63 37.34 3.95 29.76 12.26 57.6 20.72 81.06a7.69 7.69 0 0 0-1.66-.04Z" fill="#F9C636"/><path d="m422.43 116.2-6.5.04c.01.89.2 9.33.86 12.45.33.95 1.98 1.23 3.68.63 1.52-.54 2.56-1.6 2.5-2.5h.01c-.39-1.88-.54-7.52-.56-10.62Z" fill="#D4AC96"/></g><mask id="c" style="mask-type:luminance" maskUnits="userSpaceOnUse" x="227" y="189" width="156" height="118"><path d="M382.08 189.72H227.26V306.9h154.82V189.73Z" fill="#fff"/></mask><g mask="url(#c)"><path d="M356.58 235.05s1.24-10.46 3.49-11.86c2.25-1.4 2.2 8.69-1.68 13.73l-1.8-1.87Z" fill="#fff"/><path d="M356.08 233.59c1.78 1.1 3.42 1.84 4.97 2.64-16.59 29.28-40.58 25.55-56.27-2.04-3.74-6.58 3.8-9.78 8.32-2.02 12.96 22.24 29.05 24.17 42.98 1.42Z" fill="#C85704"/><path d="M305.16 199.45c-1.99.19-4.16 1.92-4.52 3.98-.36 2.07 1.46 3.85 3.42 4.2 1.97.34 5.42-2.25 5.78-4.31.36-2.07-2.16-4.1-4.68-3.87ZM302.4 216.9c-3.42-5.97-11.9-10.31-18.86-8.5-6.95 1.81-9.91 10.05-8.19 16.68 1.73 6.63 11.9 14.26 22.5 12.3 7.06-1.3 8.86-12.93 4.54-20.48Z" fill="#3B3E54"/><path d="M289.6 223.47c-4.63-8.01-16.22-13.81-25.76-11.33-9.54 2.49-13.64 13.6-11.32 22.52 2.32 8.92 16.2 19.13 30.72 16.43 9.7-1.8 12.23-17.47 6.36-27.62ZM306.17 211.28c-1.68-3.02-5.8-5.25-9.14-4.38-3.34.87-4.72 5-3.85 8.34.87 3.34 7.16 7 10.5 6.13 3.35-.87 4.61-6.27 2.49-10.1Z" fill="#3B3E54"/><path d="M299.08 214.58c3.55 5.05 9.96 6.67 13.05 4.5 3.08-2.17 1.7-7.31-1.86-12.37-3.56-5.05-7.87-5.87-10.96-3.7-3.09 2.18-3.78 6.51-.23 11.57Z" fill="#fff"/><path d="M298.02 217.92c.83 1.17 3.06 1.86 3.91 1.26.85-.6.4-1.7-.43-2.88-.83-1.18-2.3-1.8-3.15-1.2-.85.6-1.15 1.64-.33 2.82Z" fill="#fff"/><path d="M296.08 211.87s-1.2-3.99.5-6.94c1.72-2.95 6.74-6.18 10.95-2.44 0 0 2.74 2.93-1.07 5.94-3.82 3.01-4.39.4-5.18 3.64-.8 3.25-3.52 2.83-3.62 3.53l-1.57-3.73Z" fill="#3B3E54"/><path d="M282.79 355.13c2.4.01 4.54 1.35 6.8 2.18a16.55 16.55 0 0 0 10.72.23c2.4-.77 4.58-2.08 6.89-3.1a29.49 29.49 0 0 1 11.93-2.46c6.12.02 12.08 1.96 18.18 2.5 2.55.24 5.23.16 7.76-.36-6.42-21.6-12.37-41.99-20.38-61.81-1.29-3.2-2.4-6.48-3.27-9.82-2.68-10.3-8.45-27.63-7.4-31.1 2.96-9.74 1.16-8.46-.12-13.54-1.27-5.07-2.23-10-5-11.86l-.13-.1a7.16 7.16 0 0 0-7.83.16c-1.71 1.1-4.6 3.92-5.6 9.03-1.65 8.39-1.13 37.6-1.13 37.6-1.17 30.01-6.84 58.5-13.08 82.64a7.7 7.7 0 0 1 1.65-.18Z" fill="#D87000"/><path d="m301.15 215.04 6.46-.56c.08.88.68 9.3.32 12.48-.25.97-1.87 1.4-3.61.97-1.57-.4-2.7-1.37-2.74-2.27.21-1.9-.16-7.52-.44-10.62ZM327.17 284.1s10.73 2.66 11.9 5.2c1.16 2.52-9.34 1.14-14.08-3.57l2.18-1.63Z" fill="#fff"/><path d="M328.32 283.43c-.08 1.94-.14 3.68-.35 5.63-30.69-8.34-32.6-22.18-32.44-52.49.03-4.63 8.04-2.16 7.12 4.9-3.27 24.77 3.74 34.09 25.67 41.96Z" fill="#C85704"/></g><path d="M434.55 273.66s5.06-3.2 5.22-4.69c.17-1.5-4.99 1-6.62 4.22l1.4.47Z" fill="#fff"/><path d="M435.07 273.98c-.71-.74-1.42-1.47-2.1-2.25-17.74 18.55.3 26.4 14.14 11.38 2.12-2.3 1.4-2.33-.45-3.57.14-.4.13-.4 0 0-1.86-1.23-2.56-.58-3.82 1.06-8.24 10.68-21.97 8.85-7.77-6.63Z" fill="#D87000"/><path d="M440.1 380.77c.07 0 .15 0 .23-.02.63-.13 1.03-.74.9-1.37l-1.66-8.17a1.16 1.16 0 0 0-2.27.46l1.66 8.17c.11.55.6.93 1.14.93Z" fill="#fff"/><path d="M437.55 376.02c1.23-.03 2.47-.16 3.69-.34-3.68-19.65-6.46-46.03 3.37-64.4-2.98-1.45-5.98-2.88-8.99-4.3-7.18 16-1.06 52.14 1.93 69.04Z" fill="#9A3301"/><path d="M441.55 379.23s.72 2.98 0 3.07c-.72.08-11.06.4-11.12-.09-.2-1.63 8.25-3.14 9.08-2.98.82.17 1.95-.43 2.04 0Z" fill="#F9C636"/><path d="M455.17 380.77c.08 0 .15 0 .23-.02.63-.13 1.04-.74.9-1.37l-1.66-8.17a1.16 1.16 0 0 0-2.27.46l1.66 8.17c.12.55.6.93 1.14.93Z" fill="#fff"/><path d="M452.46 375.59c1.26.23 2.52.4 3.8.5-1.35-21.17-9.01-46.86-8.7-65.98-3.27.12-6.54.28-9.81.44.57 20.72 14.86 38.78 14.71 65.04Z" fill="#9A3301"/><path d="M456.62 379.23s.72 2.98 0 3.07c-.72.08-11.05.4-11.11-.09-.21-1.63 8.24-3.14 9.07-2.98.83.17 1.95-.43 2.04 0Z" fill="#F9C636"/><path d="M433.15 312.01c1.68-.22 3.83-.32 6.57-.2 4.03.17 6.35.78 7.95 1.41a77.97 77.97 0 0 0 2.94-8.7 58.04 58.04 0 0 0 1.9-17.99 32.2 32.2 0 0 0-.52-4.38 5.23 5.23 0 0 0-8.33-3.14l-.67.5a5.86 5.86 0 0 0-2.2 5.56c.37 2.48.11 6.07-1.56 11.63a123.5 123.5 0 0 1-1.18 3.54 101.55 101.55 0 0 1-2.65 6.73 163.4 163.4 0 0 1-2.25 5.04Z" fill="#D87000"/><path d="M448.4 273.39c-2.19 2.73-5.88 3.42-7.55 2.08-1.67-1.35-.7-4.21 1.5-6.95 2.2-2.73 4.68-3.03 6.35-1.7 1.67 1.35 1.9 3.83-.29 6.57Z" fill="#fff"/><path d="m448.4 272.6-3.66-.36c-.05.5-.44 5.29-.25 7.09.13.55 1.05.8 2.04.57.9-.22 1.54-.76 1.57-1.27-.1-1.09.13-4.28.3-6.03Z" fill="#fff"/><path d="M450.2 271.96s.84-2.21-.02-3.95c-.87-1.73-3.6-3.75-6.12-1.78 0 0-1.66 1.56.4 3.4 2.05 1.85 2.47.39 2.8 2.26.33 1.87 1.89 1.73 1.92 2.13l1.03-2.06Z" fill="#3B3E54"/><path d="M449.33 310.86s-4.5 3.93-4.44 5.44c.07 1.5 4.78-1.76 5.9-5.2l-1.46-.24Z" fill="#fff"/><path d="M448.64 310.88c.56.8 1.19 1.6 1.62 2.34 13.92-9.97 15.45-20.54 2.65-31.77-2.37-2.08-3.58-.29-3.63-.21-1.34 2.06-1.11 2.71.76 4.24 12.6 10.25 8.32 15.4-1.4 25.4Z" fill="#D87000"/><path d="M446.14 265.43s2.07 6.95 3.16 8.35c0 0 .93-.23 1.83-2.72 0 0 1.82-.33 2.02-1.52.2-1.2-3.79-4.73-7.01-4.11Z" fill="#9A3301"/><path d="M449.35 274.56c-.51.63-1.8.94-2.26.57-.46-.37-.16-.98.35-1.62.51-.63 1.37-.93 1.83-.56.46.38.6.97.08 1.6Z" fill="#fff"/><path d="M447.2 274.59s-.56-.57-1.5.11c-.93.68-1.94 1.13-2.93.66-.99-.48-1.12-.78-1.92-1.16-.8-.4-.24-2.74-.05-3.15.47-1-.26-.34-.69.26-.42.6-1.8 2.3-.49 3.91 1.32 1.6 1.9 1.94 3.25 1.8 1.35-.15 3.32-.21 4.33-2.43Z" fill="#3B3E54"/><path d="m355.3 264.03-31.28 37.71 19.5 16.18 31.28-37.72-19.5-16.17Z" fill="#fff"/><path d="m347.48 285.53-12.97 15.64 2.61 2.16 12.97-15.63-2.61-2.17ZM362.13 278.09l-22.6 27.24 2.62 2.16 22.6-27.24-2.62-2.16Z" fill="#F9C636"/><path d="M322.78 208.28c1.97 0 3.56-1.6 3.56-3.56 0 1.97 1.6 3.56 3.57 3.56a3.57 3.57 0 0 0-3.57 3.57c0-1.97-1.6-3.57-3.56-3.57ZM492.18 279.98c1.96 0 3.56-1.6 3.56-3.56 0 1.97 1.6 3.56 3.57 3.56a3.57 3.57 0 0 0-3.57 3.57c0-1.97-1.6-3.57-3.56-3.57ZM35.9 318.97c1.96 0 3.56-1.6 3.56-3.57 0 1.97 1.6 3.57 3.57 3.57a3.57 3.57 0 0 0-3.57 3.56c0-1.97-1.6-3.56-3.56-3.56ZM231.15 334.54c1.97 0 3.56-1.6 3.56-3.57 0 1.97 1.6 3.57 3.57 3.57a3.57 3.57 0 0 0-3.56 3.56c0-1.97-1.6-3.56-3.57-3.56ZM259 86.39a6.39 6.39 0 0 0 6.39-6.39 6.39 6.39 0 0 0 6.39 6.39 6.39 6.39 0 0 0-6.4 6.39 6.39 6.39 0 0 0-6.38-6.4ZM472.62 298.48a6.39 6.39 0 0 0 6.4-6.39 6.39 6.39 0 0 0 6.38 6.39 6.39 6.39 0 0 0-6.39 6.39 6.39 6.39 0 0 0-6.39-6.39ZM123.4 258.67a6.39 6.39 0 0 0 6.4-6.4 6.39 6.39 0 0 0 6.38 6.4 6.39 6.39 0 0 0-6.39 6.38 6.39 6.39 0 0 0-6.38-6.38Z" fill="#fff"/></g><defs><clipPath id="a"><path fill="#fff" d="M0 0h629v412H0z"/></clipPath></defs></svg>