<svg width="629" height="412" fill="none" xmlns="http://www.w3.org/2000/svg"><g clip-path="url(#a)"><path d="M629 0H0v412h629V0Z" fill="#E4F898"/><path d="M448.75 213.34s2.52-6.84-1.2-14.9c-3.7-8.06 2.71-12.12 6.27-9.63 3.55 2.5 5.75 11.6-5.07 24.53ZM442.62 218.68s-2.42-6.87-10.43-10.71c-8-3.84-5.65-11.06-1.32-11.4 4.32-.34 11.83 5.26 11.75 22.11ZM443.42 219.38s7.26-.57 14.02 5.18c6.77 5.75 12.42.67 10.97-3.42-1.44-4.09-9.62-8.67-25-1.76ZM434.43 231.86s7.27-.57 14.03 5.18 12.41.67 10.97-3.42c-1.45-4.09-9.62-8.67-25-1.76ZM429.28 245.13s7.27-.57 14.03 5.18 12.4.67 10.96-3.42c-1.44-4.09-9.61-8.67-25-1.76ZM423.61 261.83s7.27-.57 14.03 5.18 12.4.67 10.97-3.42c-1.45-4.09-9.62-8.67-25-1.76ZM434.53 231.77s-2.43-6.87-10.43-10.72c-8-3.84-5.65-11.06-1.33-11.4 4.33-.34 11.84 5.26 11.76 22.12ZM428.15 246.37s-2.42-6.87-10.43-10.71c-8-3.84-5.65-11.06-1.32-11.4 4.32-.34 11.83 5.26 11.75 22.11ZM423.09 261.54s-2.43-6.87-10.44-10.71c-8-3.84-5.64-11.07-1.32-11.4 4.33-.34 11.83 5.26 11.76 22.11Z" fill="#A7C41A"/><path d="M415.85 329.77c.38-.06.66-.4.63-.8 0-.18-1.26-18.8 2.34-42.59 3.32-21.91 11.54-52.83 31.9-75.66a.75.75 0 1 0-1.14-1c-20.6 23.11-28.91 54.34-32.26 76.47-3.62 23.95-2.36 42.7-2.34 42.9.03.4.39.72.8.7l.07-.02ZM496.7 242.28s3.7-4.8 2.77-12.11c-.92-7.32 5.18-8.94 7.37-6.07 2.19 2.86 1.66 10.63-10.15 18.18ZM490.5 244.98s-.21-6.05-5.6-11.1c-5.38-5.05-1.7-10.18 1.81-9.37 3.52.81 8.06 7.13 3.78 20.47ZM490.95 245.73s5.9 1.37 9.82 7.62c3.93 6.25 9.68 3.63 9.55.03-.12-3.6-5.45-9.28-19.37-7.65ZM480.7 253.38s5.9 1.37 9.82 7.62c3.93 6.25 9.68 3.63 9.55.03-.12-3.6-5.45-9.28-19.37-7.65ZM473.3 262.61s5.9 1.37 9.82 7.62 9.67 3.63 9.55.03c-.12-3.6-5.45-9.28-19.38-7.65ZM464.62 274.44s5.9 1.36 9.83 7.61c3.92 6.25 9.67 3.64 9.55.03-.13-3.6-5.46-9.28-19.38-7.64ZM480.8 253.33s-.2-6.05-5.58-11.1c-5.39-5.05-1.72-10.18 1.8-9.37 3.52.81 8.06 7.13 3.78 20.47ZM472.09 263.32s-.2-6.05-5.59-11.1c-5.38-5.05-1.7-10.19 1.8-9.38 3.52.82 8.07 7.13 3.79 20.48ZM464.28 274.08s-.2-6.05-5.59-11.1c-5.38-5.05-1.7-10.19 1.8-9.38 3.52.82 8.07 7.14 3.79 20.48Z" fill="#A7C41A"/><path d="M441.46 326.36c.32.05.63-.15.7-.47.04-.15 3.71-15.22 12.52-33.19 8.11-16.54 22.37-39 44.22-52.01a.63.63 0 0 0-.64-1.08c-22.13 13.18-36.53 35.86-44.72 52.57-8.86 18.08-12.55 33.27-12.59 33.42a.63.63 0 0 0 .51.76Z" fill="#A7C41A"/><path d="M263.65 311.02a77.55 77.55 0 0 0-74.56 56.18h149.12a77.55 77.55 0 0 0-74.56-56.18ZM467.06 311.02a77.55 77.55 0 0 0-74.56 56.18h149.12a77.56 77.56 0 0 0-74.56-56.18Z" fill="#E0E594"/><path d="M370.15 286.95c-50.6 0-93.27 33.92-106.5 80.25h213c-13.23-46.33-55.9-80.25-106.5-80.25Z" fill="#E0E594"/><path d="M532.06 396.59H96.9a14.56 14.56 0 1 1 0-29.1h435.16a14.56 14.56 0 1 1 0 29.1Z" fill="#679A1E"/><path d="M-24.1 38.92A60 60 0 0 0-81.8 82.38H33.58A60 60 0 0 0-24.1 38.92ZM133.26 38.92a60 60 0 0 0-57.68 43.46h115.36a60 60 0 0 0-57.68-43.46Z" fill="#fff"/><path d="M58.29 20.3a85.7 85.7 0 0 0-82.4 62.09h164.8a85.7 85.7 0 0 0-82.4-62.08Z" fill="#fff"/><path d="M2.2 70.13a29.61 29.61 0 0 0-28.47 21.44h56.92A29.6 29.6 0 0 0 2.2 70.13ZM79.84 70.13a29.61 29.61 0 0 0-28.46 21.44h56.92a29.6 29.6 0 0 0-28.46-21.44Z" fill="#A7C41A"/><path d="M42.85 60.94A42.29 42.29 0 0 0 2.19 91.58H83.5a42.29 42.29 0 0 0-40.65-30.64Z" fill="#A7C41A"/><path d="M176.8 306.82a62.13 62.13 0 0 0-18.24 9.28l-.19-.76a373.8 373.8 0 0 0-6.16-21.74 62.19 62.19 0 0 0 19.53-7.53 61.25 61.25 0 0 0 16.68-15.29s-10.76 1.45-21.23 7.83a62.1 62.1 0 0 0-15.41 13.63 354.67 354.67 0 0 0-7.24-20.43 62.17 62.17 0 0 0 16.82-12.21c8.49-8.85 12.22-19.05 12.22-19.05s-10.04 4.15-18.53 13a62 62 0 0 0-11.17 16.58 317.7 317.7 0 0 0-9.43-21.51c2.93-2.05 9.5-7.1 14.78-14.65 7.04-10.03 9.17-20.68 9.17-20.68s-9.29 5.63-16.33 15.67a62.13 62.13 0 0 0-8.47 17.93 278.2 278.2 0 0 0-7.74-14.63 62.06 62.06 0 0 0 8.12-19.1c2.72-11.95.67-22.61.67-22.61s-6.47 8.72-9.2 20.67a61.53 61.53 0 0 0-1.19 18.25 250.61 250.61 0 0 0-6.21-10.08 61.65 61.65 0 0 0-7.2-16.84C104.3 192.18 95.3 186.1 95.3 186.1s1.6 10.74 8.15 21.1a61.65 61.65 0 0 0 11.99 13.69c2.24 3.44 4.38 6.92 6.42 10.42a62.12 62.12 0 0 0-19.28-4.41c-12.25-.68-22.41 3.14-22.41 3.14s9.68 4.9 21.93 5.58c9.3.52 17.4-1.56 20.76-2.59 2.79 4.88 5.38 9.79 7.8 14.69a62.16 62.16 0 0 0-20.55 1.25c-11.93 2.89-20.56 9.47-20.56 9.47s10.7 1.9 22.62-.98a62.03 62.03 0 0 0 19.12-8.47 312.5 312.5 0 0 1 9.72 22.06 62.09 62.09 0 0 0-20.47-.54c-12.13 1.82-21.32 7.62-21.32 7.62s10.49 2.84 22.61 1.02c9.14-1.38 16.6-5 19.73-6.71a350.55 350.55 0 0 1 7.32 20.62 62.1 62.1 0 0 0-20.34-1.26c-12.18 1.39-21.57 6.85-21.57 6.85s10.38 3.22 22.56 1.83a62.15 62.15 0 0 0 19.83-5.93c2.45 7.76 4.46 15 6.08 21.45l.24.97a61.87 61.87 0 0 0-22 1.08 61.26 61.26 0 0 0-20.55 9.47s10.7 1.9 22.62-.98a61.91 61.91 0 0 0 20.04-9.1c6.54 26.49 8.17 45.4 8.19 45.58l3-.24c-.02-.2-1.63-18.9-8.05-45.17 3.7.18 11.8.19 20.42-2.43 11.73-3.57 19.97-10.64 19.97-10.64s-10.78-1.29-22.52 2.27v.01Z" fill="#C6D64E"/><path d="M100.17 317.52a37.14 37.14 0 0 0-8.86 8.45l-.24-.4a223.93 223.93 0 0 0-7.27-11.4 37.18 37.18 0 0 0 9.9-7.67c4.9-5.46 6.93-11.63 6.93-11.63s-5.92 2.68-10.82 8.13a37.06 37.06 0 0 0-6.49 10.46c-2.31-3.37-4.87-6.9-7.66-10.46a37.2 37.2 0 0 0 7.55-9.89c3.34-6.53 3.72-13.01 3.72-13.01s-5.04 4.1-8.38 10.63A37.08 37.08 0 0 0 75 302.15c-2.8-3.55-5.84-7.15-9.1-10.71a37.13 37.13 0 0 0 5.95-10.93c2.3-6.96 1.7-13.43 1.7-13.43s-4.36 4.82-6.67 11.79c-1.59 4.8-1.79 9.35-1.76 11.73a167.31 167.31 0 0 0-6.95-7.06 37.1 37.1 0 0 0 1.36-12.34c-.5-7.32-3.5-13.07-3.5-13.07s-2.21 6.1-1.71 13.42c.3 4.45 1.53 8.32 2.44 10.67-1.71-1.6-3.48-3.18-5.29-4.71a36.87 36.87 0 0 0-7.02-8.42c-5.53-4.82-11.73-6.76-11.73-6.76s2.76 5.88 8.3 10.7c3.32 2.9 6.9 4.76 9.21 5.78 1.88 1.59 3.7 3.22 5.47 4.88-2.37-.23-6.91-.4-11.8.78a36.64 36.64 0 0 0-12.3 5.64s6.39 1.15 13.52-.56c5.42-1.3 9.7-3.88 11.45-5.05 2.44 2.31 4.77 4.68 7 7.07A37.2 37.2 0 0 0 52 295.82a36.66 36.66 0 0 0-10.15 8.96s6.46-.74 12.8-4.44a37.13 37.13 0 0 0 9.5-8.14c3.36 3.64 6.48 7.33 9.36 10.97-2.22.22-6.99.93-11.83 3.21a36.66 36.66 0 0 0-10.9 8.03s6.5-.17 13.13-3.3c5-2.36 8.65-5.72 10.15-7.23 2.83 3.6 5.4 7.15 7.75 10.55-2.26.15-7 .7-11.88 2.78-6.74 2.89-11.18 7.63-11.18 7.63s6.5.06 13.24-2.83a37.14 37.14 0 0 0 10.35-6.8c2.73 4.02 5.13 7.83 7.17 11.25l.3.5a37.03 37.03 0 0 0-12.42 4.4c-6.33 3.7-10.15 8.96-10.15 8.96s6.46-.74 12.8-4.44a36.98 36.98 0 0 0 9.92-8.67c8.3 14.07 12.48 24.62 12.52 24.73l1.68-.66c-.05-.1-4.18-10.54-12.37-24.5 2.14-.53 6.79-1.92 11.28-4.9 6.1-4.06 9.62-9.52 9.62-9.52s-6.4 1.1-12.51 5.17v-.01Z" fill="#C6D64E"/><path d="M63.88 343.6a34.01 34.01 0 0 0-32.7 24.63h65.4a34 34 0 0 0-32.7-24.63ZM153.08 343.6a34.01 34.01 0 0 0-32.7 24.63h65.39a34.01 34.01 0 0 0-32.7-24.63Z" fill="#A7C41A"/><path d="M110.58 333.05a48.57 48.57 0 0 0-46.7 35.18h93.4a48.58 48.58 0 0 0-46.7-35.19Z" fill="#A7C41A"/><path d="M.06 362.7a15.62 15.62 0 0 0-15.02 11.32h30.03A15.62 15.62 0 0 0 .06 362.7ZM41.02 362.7A15.62 15.62 0 0 0 26 374.03h30.03a15.62 15.62 0 0 0-15.01-11.31Z" fill="#0F511A"/><path d="M21.5 357.86A22.3 22.3 0 0 0 .06 374.02h42.89a22.3 22.3 0 0 0-21.45-16.16Z" fill="#0F511A"/><path d="M504.6 153.38a26.92 26.92 0 0 0-25.88 19.5h51.77a26.93 26.93 0 0 0-25.88-19.5ZM575.22 153.38a26.92 26.92 0 0 0-25.88 19.5h51.77a26.92 26.92 0 0 0-25.88-19.5Z" fill="#679A1E"/><path d="M541.58 145.02a38.46 38.46 0 0 0-36.98 27.86h73.95a38.46 38.46 0 0 0-36.97-27.86Z" fill="#679A1E"/><path d="M592.71 164.3c-8 0-14.73 5.36-16.82 12.68h33.64a17.5 17.5 0 0 0-16.82-12.68ZM638.6 164.3c-7.99 0-14.73 5.36-16.82 12.68h33.65a17.5 17.5 0 0 0-16.82-12.68Z" fill="#A7C41A"/><path d="M616.74 158.87a25 25 0 0 0-24.03 18.1h48.06a25 25 0 0 0-24.03-18.1Z" fill="#A7C41A"/><path d="M182.15 364.1c-5.13 0-9.46 3.44-10.8 8.13h21.6a11.23 11.23 0 0 0-10.8-8.13ZM211.6 364.1c-5.13 0-9.45 3.44-10.8 8.13h21.6a11.23 11.23 0 0 0-10.8-8.13Z" fill="#83AF1D"/><path d="M197.57 360.61c-7.33 0-13.5 4.92-15.42 11.63h30.84a16.04 16.04 0 0 0-15.42-11.63Z" fill="#83AF1D"/><path d="M196.89 171.91c-7 0-12.91 4.7-14.74 11.11h29.48a15.33 15.33 0 0 0-14.74-11.1ZM237.11 171.91c-7 0-12.91 4.7-14.74 11.11h29.49a15.33 15.33 0 0 0-14.75-11.1Z" fill="#fff"/><path d="M217.95 167.15c-10 0-18.44 6.71-21.06 15.87H239a21.9 21.9 0 0 0-21.06-15.87Z" fill="#fff"/><path d="M247.51 323.15a2.78 2.78 0 0 1 3.35 3.76 79.6 79.6 0 0 1 6.32 7.33c-.34-2.6-.65-6.48-.2-10.3a2.77 2.77 0 0 1 .38-5.17 2.78 2.78 0 1 1 1.1 5.42c-.65 5.71.48 11.75.67 12.68a114.74 114.74 0 0 1 9.46 16.01c4 8.19 5.95 14.44 5.97 14.5l-1.43.45c-.02-.06-1.94-6.2-5.9-14.29-1.18-2.43-2.63-5.2-4.36-8.12a29.52 29.52 0 0 0-10.33-.64 2.78 2.78 0 1 1-.32-1.47c4.24-.47 7.64-.05 9.58.33a89.1 89.1 0 0 0-11.9-15.56 2.78 2.78 0 1 1-2.4-4.93Z" fill="#367419"/><path d="M280.41 344.26a29.48 29.48 0 0 0-9.45-4.24 2.78 2.78 0 1 1 .23-1.49 32.4 32.4 0 0 1 8.85 3.69 89.09 89.09 0 0 0-5.65-18.75 2.78 2.78 0 1 1 1.3-.75 79.33 79.33 0 0 1 3.33 9.07c.6-2.55 1.68-6.3 3.44-9.7a2.77 2.77 0 1 1 1.3.75c-2.62 5.12-3.69 11.17-3.84 12.1a114.7 114.7 0 0 1 3.2 18.32c.86 9.07.49 15.61.49 15.68l-1.5-.1c0-.06.37-6.48-.47-15.43-.26-2.7-.64-5.8-1.22-9.15Z" fill="#367419"/><path d="M168.16 37.42a26.92 26.92 0 0 0-25.88 19.5h51.77a26.92 26.92 0 0 0-25.89-19.5ZM238.78 37.42a26.92 26.92 0 0 0-25.89 19.5h51.77a26.93 26.93 0 0 0-25.88-19.5Z" fill="#679A1E"/><path d="M205.13 29.06a38.46 38.46 0 0 0-36.97 27.86h73.94a38.46 38.46 0 0 0-36.97-27.86Z" fill="#679A1E"/><path d="M520.82 213.37c4.3 0 7.77-3.47 7.77-7.76a7.77 7.77 0 0 0 7.77 7.76 7.77 7.77 0 0 0-7.77 7.77 7.77 7.77 0 0 0-7.77-7.77ZM152.95 145.02c2.4 0 4.33-1.94 4.33-4.33 0 2.4 1.94 4.33 4.34 4.33a4.34 4.34 0 0 0-4.34 4.34c0-2.4-1.94-4.34-4.33-4.34ZM10.73 328.43c2.4 0 4.34-1.94 4.34-4.33 0 2.4 1.94 4.33 4.34 4.33a4.34 4.34 0 0 0-4.34 4.33c0-2.39-1.94-4.33-4.34-4.33Z" fill="#fff"/><path d="M573.32 309.71a4.48 4.48 0 0 0-6.86 4.36c-4.58 2.6-8.94 5.51-13.04 8.56a69.61 69.61 0 0 0 4.87-15.88 4.47 4.47 0 1 0-2.4-.26c-1.52 9.15-5.95 18-6.65 19.37a184.63 184.63 0 0 0-21.75 20.65c-9.82 10.93-15.61 19.76-15.67 19.84l2.02 1.32c.06-.09 5.75-8.76 15.45-19.55 2.92-3.24 6.4-6.9 10.36-10.67 1.74.03 8.25.35 16.3 3.58a4.47 4.47 0 1 0 1.15-2.14 52.28 52.28 0 0 0-15-3.73c7.2-6.6 15.78-13.4 25.32-18.86a4.48 4.48 0 1 0 5.9-6.59Z" fill="#C6D64E"/><path d="M512.96 327.9c1.64-.59 7.85-2.58 16.53-2.39a4.47 4.47 0 1 0 .31-2.4 52.19 52.19 0 0 0-15.35 1.8c4.4-8.73 10.05-18.1 17.06-26.58a4.48 4.48 0 1 0-1.69-1.75c-3.36 4.06-6.42 8.31-9.19 12.6.21-4.2.2-10.5-1.03-16.57a4.46 4.46 0 0 0-1.3-8.25 4.48 4.48 0 1 0-1.04 8.85c1.8 9.1.77 18.95.6 20.47a184.76 184.76 0 0 0-13.08 26.98c-5.34 13.68-7.65 23.98-7.67 24.09l2.35.52c.03-.1 2.3-10.22 7.57-23.73 1.59-4.06 3.56-8.71 5.94-13.64Z" fill="#C6D64E"/><path d="M463.69 356.83a24.87 24.87 0 0 0-23.91 18.01h47.82a24.87 24.87 0 0 0-23.91-18.01ZM528.92 356.83a24.87 24.87 0 0 0-23.9 18.01h47.81a24.87 24.87 0 0 0-23.9-18.01Z" fill="#A7C41A"/><path d="M497.84 349.11a35.53 35.53 0 0 0-34.15 25.74h68.3a35.52 35.52 0 0 0-34.15-25.74Z" fill="#A7C41A"/><path d="M577.9 366.57c6.94 0 12.78 4.65 14.6 11h-29.18c1.81-6.35 7.66-11 14.58-11ZM538.11 366.57c6.93 0 12.78 4.65 14.59 11h-29.17c1.8-6.35 7.65-11 14.58-11Z" fill="#0F511A"/><path d="M557.07 361.87c9.9 0 18.25 6.63 20.84 15.7h-41.67a21.67 21.67 0 0 1 20.83-15.7Z" fill="#0F511A"/><g clip-path="url(#b)"><path d="M341.05 89.9H221.02V103h120.03V89.9Z" fill="#D87000"/><path d="M341.05 112.57H221.02v60.59h120.03v-60.59Z" fill="#F9C636"/><path d="M341.05 182.56H221.02v2.75h120.03v-2.75ZM341.05 200.85H221.02v2.74h120.03v-2.74ZM341.05 191.44H221.02v2.74h120.03v-2.74ZM341.05 210H221.02v2.73h120.03V210Z" fill="#D87000"/><path d="M356.3 281.38a59.2 59.2 0 0 1-59.2 59.2 58.89 58.89 0 0 1-59.2-59.2c0-12.89 4.13-24.83 11.13-34.55a59.13 59.13 0 0 1 48.08-24.65 59.01 59.01 0 0 1 43.17 18.7 58.98 58.98 0 0 1 16.02 40.5Z" fill="#F9C636"/><path d="m302.95 267.97-2.19 3.2-4.22 3.65s-.61 6.12-1.18 6.56c-.57.44 2.2 3.64 2.2 3.64l1.56 3.94 4.7.59 5.55-1.46 6.12.43 2.48 1.03-2.33 4.37 3.93 5.98-2.18 6.56 1.6 6.12 2.04 5.4s-.87 2.62 0 2.62h4.38l8.6-6.41v-7.3s5.1-6.12 5.4-6.55c.28-.44 2.03-7 2.03-7l4.67-5.4-2.19-3.5-3.64-1.02-5.98-8.6-2.04-5.1-5.54-1.75-4.23 2.33-2.33-2.33-2.34-2.19-1.16-1.9-6.56 2.05-4.38-.3-2.77 2.34ZM259.65 286.92l-3.94 5.32 1.97 9.7 3.86 3.06 5.25 4.23 2.04 7.58 6.27 9.04s2.63 6.27 3.36 6.56c.72.3 4.08 3.21 4.08 3.21l5.83-.58v-1.9s-4.52-4.66-4.81-5.25c-.3-.58-.15-6.56 0-7.29.14-.73 3.8-7 3.8-7l-1.03-4.52s3.2-4.37 3.2-5.1c0-.73-.72-3.94-.72-3.94l-.88-5.5-7.43-2.3-5.54.66-2.33-3.5-6.13-.73-6.85-1.75Z" fill="#FEDD73"/><path d="m348.59 272.78-2.48 1.17 4.23 4.08-4.23 3.94h-3.79l-3.06-6.27-3.94-3.5-3.06-2.48 4.95-4.52-4.95-1.31-2.48-1.9s-3.79 0-5.4 1.02c-1.6 1.02-3.69-1.6-3.69-1.6l-4.91-2.19-2.63.58-3.35 3.36h-4.23l-1.75 2.04-3.79-2.77 3.21-3.2h5.25l1.02-1.61-1.9-.58-.14-1.6 2.48-.88-2.63-2.34-2.04.59h-2.77v-1.46l4.37-2.63 3.94 4.08h1.46l2.04-1.89 2.04.58 3.65 1.31 3.5-.72s4.23-3.94 4.23-4.38c0-.43-2.05-1.46-2.05-1.46h-2.48c-.43 0 1.17-3.64 1.17-3.64l-3.69 1.9s.34 2.62 0 3.2c-.34.59-2 1.6-2 1.6s-3.35-2.47-3.79-2.04c-.43.44-2.03 0-2.03 0l-1.32-2.48 3.5-.87 1.75-2.63 6.27-3.93s2.92.43 3.94 1.01c1.02.6 3.06.88 3.06.88l-2.19 2.33 2.05 2.34h3.64l5.83-2.34.88-.7a58.98 58.98 0 0 1 15.76 34.87l-1.77-.63-5.68-2.34ZM269.56 261.4c0 .88-2.33 3.8-2.33 3.8l-3.65 1.75-4.22 4.08-.73 7.14-1.02 3.8h-3.2l-1.61-2.92-3.07-.88-2.9 2.77.43 2.92s3.64 2.48 3.79 3.06c.14.59.87 2.34.87 2.34l3.8 1.89v2.04l-7.74-4.08-8.16-2.19-1.9-4.09-.01-1.45c0-12.89 4.12-24.83 11.13-34.55l.4-.3 3.43 2.77v2.78l-1.97 1.75-3.5 1.16v1.31l3.8-.43 2.9-1.46 3.07-2.33h2.48l-2.04 1.89-3.5 3.8-2.33 3.2 1.09 2.33 2.11-1.02.15 1.6 1.46 1.9 2.04-3.94.88-3.94 3.2-1.89 1.9.88h3.64s1.31 3.64 1.31 4.52Z" fill="#FEDD73"/><path d="M266.5 242.6h3.06v2.77l1.6 1.16.59 6.86h2.77l2.04-4.08 4.37-5.25 3.21-2.19 5.4-3.94.73-5.1 3.5-4.08-3.21-1.17-2.77 1.02-7.66 3.65-4.44 1.3-4.82 2.49-7.87 2.18-3.94 2.26v3.43l-3.35 2.62 3.94.59 2.62-2.2 2.34-2.61 1.89.29Z" fill="#BFC2D6"/><path d="M415.93 243.6s-5.58 2.93-2.06 6.81c3.52 3.9 5.5 4.77 4.8 8.41-.7 3.64-4.06 11.9 3.3 13.03 7.37 1.12.46 7.02 4.08 10.67 3.62 3.65 17 11.45 23.66-9.98 6.67-21.44-14.48-14.23-16.8-18.05-2.3-3.82-.66-10.5-8.33-12.95-5.92-1.88-8.65 2.05-8.65 2.05Z" fill="#2D334A"/><path d="M411.5 268.78s-8.61 54.48-13.81 61.6c0 0 6.3 5.8 12.14 4.16 9.65-2.7 7.74-39.08 5.18-56.8-.87-6.02-3.51-8.96-3.51-8.96Z" fill="#454A5F"/><path d="M384.9 264.04s-2.34-6.98-4.08-7.62c-1.74-.64-.27 6.26 3.1 9.15l.97-1.53Z" fill="#AF7D61"/><path d="M385.02 263.23c-1.08.63-2.14 1.24-3.16 1.86 11.88 16.93 23.23 19.05 36.03 1.3 1.96-2.71.97-3.12-1.26-4 .15-.56.14-.56 0 0-2.24-.87-2.66-.47-4.22 1.85-10.2 15.17-17.78 10.5-27.39-1.01ZM434.98 305c1.27.69 2.32 1.25 3.5 1.79 6.17-24.75 6.48-31.5-14.78-46.6-3.25-2.31-5.34 3.58-.27 6.05 17.79 8.66 15.27 21.87 11.55 38.76Z" fill="#454A5F"/><path d="M410.5 379.18c1.43.64 1.51 1.82 3.01 2.29 4.51-26.45 4.45-60.3 10.6-84.21-3.97-.86-7.95-1.67-11.94-2.49-4.76 27.9 4.3 52.84-1.68 84.41Z" fill="#AF7D61"/><path d="M412.18 294.77c3.98.82 7.96 1.63 11.93 2.49-5.7 22.2-5.66 52.88-9.29 78.33l-3.78.45c4.83-30.1-3.48-54.3 1.13-81.27Z" fill="#2D334A"/><path d="M421.37 379.53c1.48.55 1.63 1.71 3.16 2.08 2.8-26.68.54-60.46 5.13-84.72-4.02-.6-8.05-1.15-12.07-1.7-2.96 28.14 7.7 52.45 3.78 84.33Z" fill="#AF7D61"/><path d="M417.58 295.19c4.03.55 8.06 1.1 12.07 1.7-4.25 22.52-2.22 53.14-4.19 78.78l-3.75.69c2.88-30.35-6.98-53.97-4.13-81.17Z" fill="#2D334A"/><path d="M429.32 291.26c-2.32-13.64-1.63-19.65-3.83-26.28-.93-2.77-1.1-4.42-3.34-5.8a9.39 9.39 0 0 0-.85-.46 5.6 5.6 0 0 0-1.29-.45c-4.4-.94-7.05 4.94-7.77 8.94-.14.78-.29 1.38-.42 1.88-.6 2.29-.84 2.42 1.15 8.1.86 2.47-1.07 16.84-1.93 21.69-.28 1.57-.46 4.35-1.08 7.22-2.78 12.85-6.43 44.08-8.1 57.49 1.92.66 3.93 1.1 5.96 1.3 5.35.52 10.95-.58 15.97 1.32 3.19 1.2 5.86 3.54 9.06 4.69 3.5 1.26 7.46.8 10.75-.9-1.9-3.86-12.69-69.37-14.28-78.74Z" fill="#6F728A"/><path d="M428.32 337.2c4.64.08 10.71-2.39 12.5-3.3-4.49-15.54-9.9-33.27-11.5-42.64-2.31-13.64-1.62-19.65-3.83-26.28-.93-2.78-1.1-4.42-3.33-5.8.1 4.37-1.43 13.87-1.81 31.5-.48 22.19 7.97 46.52 7.97 46.52Z" fill="#454A5F"/><path d="M409.38 378.03s-.82 4.61-5.68 7.21c0 0-2.12 1.4.94.95 3.06-.44 7.42-2.74 8.43-4.67 0 0 1.73 2.9 1.76 1.88l.14-5.73-5.6.36ZM420.52 378.03s-.81 4.61-5.68 7.21c0 0-2.12 1.4.95.95 3.06-.44 7.41-2.74 8.42-4.67 0 0 1.73 2.9 1.76 1.88l.15-5.73-5.6.36Z" fill="#F2BF80"/><path d="M411.82 269.08s4.17-8.4 6.84-9.9a8.56 8.56 0 0 0 1.36-.92c-4.41-.93-7.05 4.95-7.78 8.95-.14.78-.29 1.38-.42 1.87Z" fill="#454A5F"/><path d="M423.1 252.12c-2.2 3.71-6.58 5.18-8.84 3.84-2.27-1.35-1.57-5.01.64-8.72 2.2-3.71 5.17-4.5 7.44-3.16 2.27 1.35 2.98 4.33.77 8.04Z" fill="#AF7D61"/><path d="m422.65 252.03-4.48-.73c-.1.61-.95 6.45-.86 8.68.12.7 1.22 1.08 2.46.86 1.12-.2 1.95-.8 2.03-1.43-.05-1.34.5-5.24.85-7.38Z" fill="#AF7D61"/><path d="M419.46 244.66s2.99 4.18 3.42 8.74c.28 3.02 5.44-5.7 5.44-5.7s-5.16-6.88-8.86-3.04Z" fill="#2D334A"/><path d="M424.02 254.4c-.51.86-2.03 1.45-2.65 1.08-.63-.37-.37-1.17.15-2.03.51-.86 1.5-1.37 2.12-1 .63.38.9 1.08.38 1.94ZM435.72 305.4c-1.33 1.71-4.15 5.57-3.84 7.03.35 1.65 4.36-1.98 5.9-5.98-.68-.33-1.35-.67-2.06-1.05Z" fill="#AF7D61"/><path d="M417.12 243.25s-1.55 1.09.77 2.97c2.31 1.87 5.61 1.98 6.68 1.07 1.07-.91-1.07-5.13-3.03-5.09-1.97.04-4.42 1.05-4.42 1.05Z" fill="#2D334A"/><path d="M426.78 247s-1.71.78-2.85.53c-1.14-.25-1.67-.88-1.54-1.49.13-.6.88-.95 2.01-.7 1.14.24 2.38 1.66 2.38 1.66ZM426.78 247s1.71.78 2.85.53c1.14-.25 1.67-.88 1.54-1.49-.13-.6-.88-.95-2.02-.7-1.13.24-2.37 1.66-2.37 1.66Z" stroke="#F0B267" stroke-width=".28" stroke-miterlimit="10"/><path d="M426.78 247.78a.78.78 0 1 0 0-1.57.78.78 0 0 0 0 1.57Z" fill="#F0B267"/><path d="M426.88 246.93c-.03.47.19.91.48 1.27.3.36.66.65 1 .98.71.7 1.27 1.63 1.33 2.63" stroke="#F0B267" stroke-width=".28" stroke-linecap="round" stroke-linejoin="round"/><path d="M426.74 246.95c.16.1.19.3.2.49.02.2.04.4.03.6-.02.5-.17.97-.22 1.47-.05.5.04 1.04.41 1.37" stroke="#F0B267" stroke-width=".28" stroke-linecap="round" stroke-linejoin="round"/><path d="M452.67 247.58s6.44-4.07 6.66-5.98c.21-1.9-6.36 1.27-8.44 5.38l1.78.6Z" fill="#fff"/><path d="M453.33 247.98c-.9-.93-1.8-1.86-2.67-2.86-22.62 23.64.38 33.64 18.03 14.5 2.7-2.93 1.78-2.97-.58-4.54.18-.53.17-.53 0 0-2.37-1.58-3.27-.74-4.88 1.34-10.5 13.62-28 11.29-9.9-8.44Z" fill="#6F728A"/><path d="M459.75 384.1c.1 0 .2 0 .3-.02.8-.16 1.3-.94 1.14-1.75l-2.12-10.42a1.48 1.48 0 0 0-2.9.6l2.13 10.41c.14.7.76 1.19 1.44 1.19Z" fill="#fff"/><path d="M456.49 378.05c1.57-.04 3.15-.2 4.7-.43-4.68-25.05-8.22-58.67 4.3-82.08-3.8-1.87-7.62-3.69-11.45-5.5-9.16 20.4-1.36 66.46 2.45 88v.01Z" fill="#454A5F"/><path d="M461.6 382.14s.91 3.8 0 3.91c-.92.1-14.1.5-14.17-.1-.27-2.09 10.5-4.01 11.56-3.8 1.06.2 2.49-.56 2.6 0Z" fill="#F0B267"/><path d="M478.96 384.1c.1 0 .2 0 .3-.02.8-.16 1.31-.94 1.15-1.75l-2.12-10.42a1.48 1.48 0 0 0-2.9.6l2.12 10.41c.14.7.76 1.19 1.45 1.19Z" fill="#fff"/><path d="M475.5 377.5c1.61.3 3.22.5 4.85.64-1.73-26.98-11.5-59.73-11.09-84.1-4.17.16-8.34.35-12.5.57.72 26.4 18.93 49.43 18.75 82.9Z" fill="#454A5F"/><path d="M480.8 382.14s.93 3.8 0 3.91c-.9.1-14.08.5-14.16-.1-.26-2.09 10.5-4.01 11.56-3.8 1.06.2 2.49-.56 2.6 0Z" fill="#F0B267"/><path d="M450.89 296.46a48.9 48.9 0 0 1 8.38-.26c5.14.22 8.09 1 10.13 1.8a98.3 98.3 0 0 0 3.74-11.1 78.55 78.55 0 0 0 1.96-9.91 72.65 72.65 0 0 0 .47-13c-.1-2.1-.35-3.96-.66-5.6a6.67 6.67 0 0 0-10.62-4l-.85.66a7.47 7.47 0 0 0-2.81 7.07c.47 3.16.14 7.74-2 14.83l-.56 1.8-.93 2.71-.63 1.73a122.27 122.27 0 0 1-1.97 4.98l-.78 1.86-.73 1.69c-.67 1.5-1.38 3.08-2.15 4.74Z" fill="#6F728A"/><path d="M470.34 247.23c-2.8 3.49-7.5 4.36-9.64 2.65-2.13-1.71-.88-5.36 1.92-8.85 2.8-3.49 5.95-3.88 8.08-2.16 2.13 1.71 2.44 4.87-.37 8.36Z" fill="#fff"/><path d="m470.33 246.22-4.68-.45c-.06.64-.55 6.73-.31 9.03.17.7 1.34 1.03 2.6.73 1.14-.28 1.97-.97 2-1.62-.14-1.38.17-5.45.39-7.69Z" fill="#fff"/><path d="M472.63 245.42s1.06-2.83-.04-5.04-4.58-4.78-7.8-2.28c0 0-2.11 2 .5 4.35 2.62 2.35 3.16.49 3.58 2.87.42 2.39 2.4 2.2 2.45 2.71l1.3-2.61Z" fill="#3B3E54"/><path d="M471.5 294.99s-5.73 5.02-5.64 6.94c.08 1.91 6.08-2.25 7.5-6.63l-1.85-.31Z" fill="#fff"/><path d="M470.63 295.02c.71 1.01 1.52 2.05 2.07 2.98 17.73-12.7 19.69-26.18 3.38-40.49-3.02-2.65-4.56-.37-4.62-.27-1.72 2.62-1.43 3.46.96 5.4 16.06 13.07 10.61 19.63-1.78 32.38Z" fill="#6F728A"/><path d="M467.44 237.08s2.65 8.86 4.03 10.65c0 0 1.18-.3 2.34-3.46 0 0 2.32-.43 2.58-1.95.25-1.52-4.83-6.02-8.95-5.24Z" fill="#F0B267"/><path d="M471.54 248.72c-.66.81-2.3 1.2-2.88.73-.6-.47-.21-1.24.44-2.06.65-.8 1.74-1.18 2.33-.71.59.47.76 1.23.1 2.04Z" fill="#fff"/><path d="M468.8 248.75s-.71-.72-1.9.15c-1.2.87-2.48 1.44-3.75.84-1.26-.61-1.43-1-2.44-1.49-1.02-.49-.3-3.49-.07-4 .6-1.28-.34-.45-.88.32s-2.3 2.95-.62 4.99c1.67 2.04 2.42 2.47 4.14 2.29 1.72-.19 4.23-.27 5.52-3.1Z" fill="#3B3E54"/><path d="M283.47 139.39c2.1 0 3.8-1.7 3.8-3.8 0 2.1 1.7 3.8 3.79 3.8a3.8 3.8 0 0 0-3.8 3.8c0-2.1-1.7-3.8-3.8-3.8ZM190.35 348.8c2.1 0 3.8-1.7 3.8-3.8 0 2.1 1.7 3.8 3.8 3.8a3.8 3.8 0 0 0-3.8 3.8c0-2.1-1.7-3.8-3.8-3.8ZM260.22 128.25a6.8 6.8 0 0 0 6.8-6.8 6.8 6.8 0 0 0 6.8 6.8 6.8 6.8 0 0 0-6.8 6.8 6.8 6.8 0 0 0-6.8-6.8ZM294.14 309.12a6.8 6.8 0 0 0 6.8-6.8 6.8 6.8 0 0 0 6.8 6.8 6.8 6.8 0 0 0-6.8 6.8 6.8 6.8 0 0 0-6.8-6.8ZM444.2 178.33a6.8 6.8 0 0 0 6.8-6.8 6.8 6.8 0 0 0 6.81 6.8 6.8 6.8 0 0 0-6.8 6.8 6.8 6.8 0 0 0-6.8-6.8ZM484.77 197.93H139.01v37.4h345.76v-37.4Z" fill="#fff"/><path d="M484.77 197.93h-37.39v37.4h37.4v-37.4Z" fill="#9A3301"/><path d="M473.66 224.21a10.72 10.72 0 1 0-15.16-15.16 10.72 10.72 0 0 0 15.16 15.16Z" stroke="#F1AB0D" stroke-width="1.82" stroke-miterlimit="10"/><path d="m474.77 222-3.16 3.15 6.55 6.55 3.16-3.16-6.55-6.55Z" fill="#F1AB0D"/><path d="M211.47 257.49H113v3.89h98.47v-3.9ZM211.47 271.99H113v3.9h98.47v-3.9ZM211.47 286.5H113v3.89h98.47v-3.9ZM211.47 301H113v3.9h98.47V301ZM504.59 102.49h-98.48v3.9h98.48v-3.9ZM504.59 117h-98.48v3.89h98.48v-3.9ZM504.59 131.5h-98.48v3.9h98.48v-3.9ZM504.59 146.01h-98.48v3.9h98.48V146Z" fill="#D87000"/><path d="M366.04 222.56h-31.36v31.37h31.36v-31.37Z" fill="#FEDD73"/><path d="m339.49 234.24 10.36 10.36 24.37-24.37" stroke="#F1AB0D" stroke-width="2.27" stroke-linecap="round" stroke-linejoin="round"/><path d="M203.57 146.97h-31.36v31.36h31.36v-31.36Z" fill="#9A3301"/><path d="m179.23 153.99 17.32 17.32M196.55 153.99l-17.32 17.32" stroke="#fff" stroke-width="2.27" stroke-linecap="round" stroke-linejoin="round"/><path d="M231.42 296.04h-31.36v31.36h31.36v-31.36Z" fill="#FEDD73"/><path d="m207.08 303.06 17.32 17.32M224.4 303.06l-17.32 17.32" stroke="#fff" stroke-width="2.27" stroke-linecap="round" stroke-linejoin="round"/><path fill="#A90E4B" d="M302 126.07h115v12H302z"/><path fill="#FD9CAE" d="M302 138.07h115v50H302z"/><path d="M397.1 142.46c-13.94 1.14-30.61 4.28-35.52 11.3-4.9 7.03-9.01 10.68-47.36 13.73-4.62.36-8.67.91-12.22 1.6v18.26c0 .4.95.72 2.13.72h110.74c1.18 0 2.13-.32 2.13-.72v-49.28a86.54 86.54 0 0 1-19.9 4.39Z" fill="#EC577F"/><path d="M399.71 146.1H317v4h82.71v-4ZM399.71 156.1H317v4h82.71v-4Z" fill="#fff"/><path d="m417 216.99-24-28.92h14.5L417 217Z" fill="#EC577F"/><path d="M377 174.84c4.3 0 7.77-3.48 7.77-7.77a7.77 7.77 0 0 0 7.77 7.77 7.77 7.77 0 0 0-7.77 7.76 7.77 7.77 0 0 0-7.77-7.76ZM404 167.4c2.4 0 4.33-1.94 4.33-4.33 0 2.4 1.95 4.34 4.34 4.34a4.34 4.34 0 0 0-4.34 4.33c0-2.4-1.94-4.33-4.33-4.33Z" fill="#fff"/><path d="m303.7 260.21-8 5.94 69.96 94.14 8-5.94-69.97-94.14Z" fill="#812401"/><path d="M371.43 359.72a7.98 7.98 0 0 1-11.17-1.65l-46-61.91 12.8-9.52 46.01 61.91a7.98 7.98 0 0 1-1.64 11.17Z" fill="#F1AB0D"/><path d="M226.8 165.09a62.82 62.82 0 1 0 74.94 100.84 62.82 62.82 0 0 0-74.95-100.84Zm71.56 96.3a57.16 57.16 0 1 1-68.2-91.76 57.16 57.16 0 0 1 68.2 91.76Z" fill="#812401"/><path opacity=".61" d="M264.26 272.67a57.16 57.16 0 1 0 0-114.32 57.16 57.16 0 0 0 0 114.32Z" fill="#fff"/><path d="M117.23 185.31a4.23 4.23 0 1 0 0-8.46 4.23 4.23 0 0 0 0 8.47Z" fill="#F87895"/><path d="M132.58 185.31a4.24 4.24 0 1 0 0-8.47 4.24 4.24 0 0 0 0 8.47Z" fill="#F9C636"/><path d="M147.92 185.31a4.23 4.23 0 1 0 0-8.46 4.23 4.23 0 0 0 0 8.47Z" fill="#C6D64E"/><path d="m249.6 258.4 7.62-12.44 10.33 13.9 2.89-2.16-27.13-36.5 6.3 37.2Z" fill="#F1AB0D"/><path d="M243.3 221.12v.08l27.14 36.5 2.88-2.15-10.32-13.9 14.13-3.74-33.82-16.8Z" fill="#F1AB0D"/></g></g><defs><clipPath id="a"><path fill="#fff" d="M0 0h629v412H0z"/></clipPath><clipPath id="b"><path fill="#fff" transform="translate(113 89.9)" d="M0 0h391.59v296.37H0z"/></clipPath></defs></svg>