<svg width="26" height="24" viewBox="0 0 26 24" fill="none" xmlns="http://www.w3.org/2000/svg">
<path d="M9.61361 19.2252C14.2349 19.2252 17.9811 15.4251 17.9811 10.7376C17.9811 6.05002 14.2349 2.25 9.61361 2.25C4.99236 2.25 1.24609 6.05002 1.24609 10.7376C1.24609 15.4251 4.99236 19.2252 9.61361 19.2252Z" fill="#F3E9FA"/>
<path d="M12.5767 18.666C15.7318 17.4528 17.9812 14.3623 17.9812 10.7376C17.9812 8.79548 17.3315 7.0081 16.2486 5.5752H8.80151V10.1585L12.5767 14.0228V18.661V18.666Z" fill="#DEC3F6"/>
<path d="M7.72837 19.0002V12.7793H1.50195C2.25503 15.8648 4.67176 18.2812 7.73329 19.0002H7.72837Z" fill="#DEC3F6"/>
<path d="M12.5767 18.5005V16.5005V14.0228L8.80151 10.1585V5.5752H16.2486" stroke="#8C3FCC" stroke-miterlimit="10"/>
<path d="M1.50195 12.7793H7.72837V19" stroke="#8C3FCC" stroke-miterlimit="10"/>
<path d="M9.61361 19.2252C14.2349 19.2252 17.9811 15.4251 17.9811 10.7376C17.9811 6.05002 14.2349 2.25 9.61361 2.25C4.99236 2.25 1.24609 6.05002 1.24609 10.7376C1.24609 15.4251 4.99236 19.2252 9.61361 19.2252Z" stroke="#632296" stroke-miterlimit="10"/>
<path d="M21.7811 12.7994L20.3241 11.2666L18.8672 12.7994H15.8943V22.2505H24.754V12.7994H21.7811Z" fill="#DEC3F6" stroke="#632296" stroke-miterlimit="10"/>
<path d="M20.3241 18.4805C21.4114 18.4805 22.2929 17.5864 22.2929 16.4834C22.2929 15.3805 21.4114 14.4863 20.3241 14.4863C19.2367 14.4863 18.3552 15.3805 18.3552 16.4834C18.3552 17.5864 19.2367 18.4805 20.3241 18.4805Z" fill="#F3E9FA" stroke="#8C3FCC" stroke-miterlimit="10"/>
<path d="M23.7696 21.3213C23.7696 20.2179 22.2289 19.3242 20.3241 19.3242C18.4193 19.3242 16.8787 20.2179 16.8787 21.3213" stroke="#8C3FCC" stroke-miterlimit="10"/>
</svg>
