<svg width="25" height="26" viewBox="0 0 25 26" fill="none" xmlns="http://www.w3.org/2000/svg">
<path d="M19.9183 6.24567C19.1426 3.09535 16.2296 0.75 12.75 0.75C9.27038 0.75 6.35465 3.09268 5.57896 6.24567C3.40041 6.63076 1.75 8.48137 1.75 10.7091C1.75 13.2175 3.84052 15.25 6.42067 15.25H19.0793C21.6595 15.25 23.75 13.2175 23.75 10.7091C23.75 8.48137 22.0968 6.63076 19.921 6.24567H19.9183Z" fill="#E0E594" stroke="#4E871C" stroke-miterlimit="10"/>
<path d="M14.25 6.75V14.75" stroke="#C6D64E" stroke-miterlimit="10"/>
<path d="M7.75 10.25C9.6827 10.25 11.25 11.6341 11.25 13.341V22.9685C11.25 23.9526 10.3471 24.75 9.23274 24.75" stroke="#C6D64E" stroke-miterlimit="10"/>
<path d="M17.75 10.25C15.8173 10.25 14.25 11.6341 14.25 13.341V22.9685C14.25 23.9526 15.1529 24.75 16.2673 24.75" stroke="#C6D64E" stroke-miterlimit="10"/>
<circle cx="4.25" cy="19.75" r="1.75" fill="#C6D64E" stroke="#83AF1D"/>
<circle cx="21.25" cy="19.75" r="1.75" fill="#C6D64E" stroke="#83AF1D"/>
<path d="M1 25C1 23.9749 1 23.5 1 23.5C1 23.5 2.08333 22 4.25 22C6.41667 22 7.5 23.5 7.5 23.5C7.5 23.5 7.5 23.9749 7.5 25" stroke="#83AF1D"/>
<path d="M18 25C18 23.9749 18 23.5 18 23.5C18 23.5 19.0833 22 21.25 22C23.4167 22 24.5 23.5 24.5 23.5C24.5 23.5 24.5 23.9749 24.5 25" stroke="#83AF1D"/>
</svg>
