<svg width="746" height="412" viewBox="0 0 746 412" fill="none" xmlns="http://www.w3.org/2000/svg">
<path d="M567.257 109.228C550.436 109.228 534.249 111.551 518.836 115.915C479.212 64.8895 417.349 32.0928 347.744 32.0928C244.568 32.0928 158.283 104.302 136.606 200.862C133.791 200.299 130.835 199.947 127.808 199.947C104.231 199.947 85.1586 219.02 85.1586 242.597C85.1586 245.553 85.4401 248.368 86.0031 251.113C39.2009 263.148 4.50391 305.728 4.50391 356.33C4.50391 376.67 10.1342 395.743 19.8466 412H693.799C725.47 379.907 745.035 335.779 745.035 287.077C745.105 188.827 665.436 109.228 567.257 109.228Z" fill="#B4E8F4"/>
<path d="M532.631 309.879C509.969 309.879 490.896 325.081 484.984 345.843H580.348C574.436 325.081 555.293 309.879 532.631 309.879Z" fill="#84DAED"/>
<path d="M662.692 309.879C640.03 309.879 620.957 325.081 615.045 345.843H710.409C704.427 325.081 685.354 309.879 662.692 309.879Z" fill="#84DAED"/>
<path d="M600.758 294.536C568.384 294.536 541.147 316.213 532.631 345.843H668.815C660.369 316.213 633.062 294.536 600.758 294.536Z" fill="#84DAED"/>
<path d="M494.062 7.95312C482.379 7.95312 472.526 15.8356 469.43 26.5333H518.695C515.599 15.7652 505.745 7.95312 494.062 7.95312Z" fill="#FEF6F4"/>
<path d="M561.275 7.95312C549.592 7.95312 539.739 15.8356 536.643 26.5333H585.908C582.811 15.7652 572.958 7.95312 561.275 7.95312Z" fill="#FEF6F4"/>
<path d="M529.252 0C512.572 0 498.426 11.1903 494.062 26.533H564.442C560.078 11.1903 545.932 0 529.252 0Z" fill="#FEF6F4"/>
<path d="M572.466 370.266H179.186C171.937 370.266 166.025 364.354 166.025 357.105C166.025 349.856 171.937 343.944 179.186 343.944H572.396C579.645 343.944 585.556 349.856 585.556 357.105C585.627 364.425 579.715 370.266 572.466 370.266Z" fill="#F1F9FC"/>
<path d="M77.7685 318.747C60.6663 318.747 46.309 330.219 41.8047 345.843H113.732C109.298 330.219 94.8707 318.747 77.7685 318.747Z" fill="#84DAED"/>
<path d="M175.876 318.747C158.774 318.747 144.416 330.219 139.912 345.843H211.84C207.335 330.219 192.978 318.747 175.876 318.747Z" fill="#84DAED"/>
<path d="M129.144 307.135C104.723 307.135 84.1721 323.533 77.7676 345.843H180.451C174.117 323.463 153.566 307.135 129.144 307.135Z" fill="#84DAED"/>
<path d="M585.627 18.5098C569.158 18.5098 555.293 29.5593 551 44.6205H620.253C615.96 29.5593 602.095 18.5098 585.627 18.5098Z" fill="#F1F9FC"/>
<path d="M680.146 18.5098C663.677 18.5098 649.813 29.5593 645.52 44.6205H714.773C710.409 29.5593 696.545 18.5098 680.146 18.5098Z" fill="#F1F9FC"/>
<path d="M635.104 7.31934C611.597 7.31934 591.75 23.0843 585.627 44.6204H684.58C678.387 23.0843 658.61 7.31934 635.104 7.31934Z" fill="#F1F9FC"/>
<path d="M22.451 136.045C11.8237 136.045 2.81517 143.224 0 153.006H44.902C42.1572 143.224 33.1487 136.045 22.451 136.045Z" fill="#FED6D6"/>
<path d="M83.7518 136.045C73.0541 136.045 64.116 143.224 61.3008 153.006H106.203C103.388 143.224 94.379 136.045 83.7518 136.045Z" fill="#FED6D6"/>
<path d="M54.5441 128.795C39.2718 128.795 26.4628 139 22.4512 153.005H86.6371C82.6255 139.07 69.8164 128.795 54.5441 128.795Z" fill="#FED6D6"/>
<path d="M680.779 279.757C684.158 279.335 686.832 276.66 687.254 273.282C687.254 273.212 687.325 273.212 687.325 273.282C687.747 276.66 690.421 279.335 693.8 279.757C693.87 279.757 693.87 279.828 693.8 279.828C690.421 280.25 687.747 282.924 687.325 286.302C687.325 286.373 687.254 286.373 687.254 286.302C686.832 282.924 684.158 280.25 680.779 279.828C680.709 279.828 680.709 279.757 680.779 279.757Z" fill="#F1F9FC"/>
<path d="M470.627 102.049C474.005 101.627 476.68 98.9525 477.102 95.5743C477.102 95.5039 477.172 95.5039 477.172 95.5743C477.595 98.9525 480.269 101.627 483.647 102.049C483.718 102.049 483.718 102.12 483.647 102.12C480.269 102.542 477.595 105.216 477.172 108.594C477.172 108.665 477.102 108.665 477.102 108.594C476.68 105.216 474.005 102.542 470.627 102.12C470.557 102.19 470.557 102.049 470.627 102.049Z" fill="#F1F9FC"/>
<path d="M695.137 259.77C697.389 259.418 699.219 257.659 699.571 255.336C699.571 255.266 699.641 255.266 699.641 255.336C699.993 257.588 701.752 259.418 704.075 259.77C704.145 259.77 704.145 259.84 704.075 259.84C701.823 260.192 699.993 261.952 699.641 264.274C699.641 264.345 699.571 264.345 699.571 264.274C699.219 262.022 697.459 260.192 695.137 259.84C695.066 259.911 695.066 259.84 695.137 259.77Z" fill="#F1F9FC"/>
<path d="M53.9805 298.478C56.2327 298.126 58.0625 296.367 58.4144 294.044C58.4144 293.974 58.4848 293.974 58.4848 294.044C58.8367 296.296 60.5962 298.126 62.9187 298.478C62.9891 298.478 62.9891 298.548 62.9187 298.548C60.6666 298.9 58.8367 300.66 58.4848 302.982C58.4848 303.053 58.4144 303.053 58.4144 302.982C58.0625 300.73 56.303 298.9 53.9805 298.548C53.9101 298.619 53.9101 298.548 53.9805 298.478Z" fill="#F1F9FC"/>
<path d="M174.471 204.17C176.723 203.818 178.553 202.059 178.905 199.736C178.905 199.666 178.975 199.666 178.975 199.736C179.327 201.989 181.086 203.818 183.409 204.17C183.479 204.17 183.479 204.241 183.409 204.241C181.157 204.593 179.327 206.352 178.975 208.675C178.975 208.745 178.905 208.745 178.905 208.675C178.553 206.422 176.793 204.593 174.471 204.241C174.4 204.311 174.4 204.241 174.471 204.17Z" fill="#F1F9FC"/>
<path d="M268.074 77.1351C270.326 76.7832 272.156 75.0237 272.508 72.7012C272.508 72.6308 272.579 72.6308 272.579 72.7012C272.93 74.9534 274.69 76.7832 277.012 77.1351C277.083 77.1351 277.083 77.2055 277.012 77.2055C274.76 77.5574 272.93 79.3169 272.579 81.6394C272.579 81.7098 272.508 81.7098 272.508 81.6394C272.156 79.3873 270.397 77.5574 268.074 77.2055C268.004 77.2055 268.004 77.1351 268.074 77.1351Z" fill="#F1F9FC"/>
<path d="M294.184 43.917H289.258V345.844H294.184V43.917Z" fill="#055C7F"/>
<path d="M462.391 43.916H457.465V345.843H462.391V43.916Z" fill="#055C7F"/>
<path d="M460.28 57.2881H289.258V62.2146H460.28V57.2881Z" fill="#055C7F"/>
<path d="M460.28 124.148H289.258V129.075H460.28V124.148Z" fill="#055C7F"/>
<path d="M460.28 191.009H289.258V195.935H460.28V191.009Z" fill="#055C7F"/>
<path d="M460.28 257.869H289.258V262.796H460.28V257.869Z" fill="#055C7F"/>
<path d="M460.28 324.729H289.258V329.656H460.28V324.729Z" fill="#055C7F"/>
<path d="M291.722 49.5468C294.832 49.5468 297.352 47.026 297.352 43.9165C297.352 40.8069 294.832 38.2861 291.722 38.2861C288.613 38.2861 286.092 40.8069 286.092 43.9165C286.092 47.026 288.613 49.5468 291.722 49.5468Z" fill="#055C7F"/>
<path d="M459.929 49.5478C463.039 49.5478 465.56 47.027 465.56 43.9175C465.56 40.8079 463.039 38.2871 459.929 38.2871C456.82 38.2871 454.299 40.8079 454.299 43.9175C454.299 47.027 456.82 49.5478 459.929 49.5478Z" fill="#055C7F"/>
<path d="M313.892 72.0684H294.186V124.149H313.892V72.0684Z" fill="#39AECB"/>
<path d="M313.892 84.7373H294.186V100.925H313.892V84.7373Z" fill="#5BC5DE"/>
<path d="M313.892 77.6992H294.186V81.2182H313.892V77.6992Z" fill="#5BC5DE"/>
<path d="M345.562 77.6992H333.598V124.15H345.562V77.6992Z" fill="#39AECB"/>
<path d="M345.562 89.0293H333.598V103.457H345.562V89.0293Z" fill="#5BC5DE"/>
<path d="M345.562 82.6953H333.598V85.8624H345.562V82.6953Z" fill="#5BC5DE"/>
<path d="M345.562 115.069H333.598V118.236H345.562V115.069Z" fill="#5BC5DE"/>
<path d="M333.599 72.0684H313.893V124.149H333.599V72.0684Z" fill="#0383A4"/>
<path d="M333.599 84.7373H313.893V100.925H333.599V84.7373Z" fill="#39AECB"/>
<path d="M333.599 77.6992H313.893V81.2182H333.599V77.6992Z" fill="#39AECB"/>
<path d="M446.978 124.149H408.199V71.3643H446.978C448.456 71.3643 449.723 72.5607 449.723 74.109V121.404C449.723 122.952 448.527 124.149 446.978 124.149Z" fill="#39AECB"/>
<path d="M413.829 71.3652H412.422V124.15H413.829V71.3652Z" fill="#055C7F"/>
<path d="M398.346 116.266C398.487 118.518 397.642 120.559 396.164 121.967C394.827 123.304 392.997 124.149 390.956 124.149H351.544C350.981 124.149 350.488 123.656 350.488 123.093C350.488 122.53 350.981 122.037 351.544 122.037H385.819C388.493 122.037 390.886 120.137 391.238 117.463C391.66 114.225 389.127 111.481 386.03 111.481H351.544C350.981 111.481 350.488 110.988 350.488 110.425C350.488 109.862 350.981 109.369 351.544 109.369H390.745C394.616 109.369 398.065 112.325 398.346 116.266Z" fill="#39AECB"/>
<path d="M352.6 122.037V111.48H390.956C393.842 111.48 396.235 113.873 396.235 116.759C396.235 119.644 393.842 122.037 390.956 122.037H352.6Z" fill="#DBF0F7"/>
<path d="M355.416 102.472C355.275 100.22 356.119 98.1792 357.597 96.7716C358.935 95.4344 360.764 94.5898 362.805 94.5898H402.218C402.781 94.5898 403.274 95.0825 403.274 95.6455C403.274 96.2086 402.781 96.7012 402.218 96.7012H367.943C365.269 96.7012 362.876 98.6015 362.524 101.276C362.102 104.513 364.635 107.258 367.732 107.258H402.218C402.781 107.258 403.274 107.751 403.274 108.314C403.274 108.877 402.781 109.369 402.218 109.369H363.017C359.146 109.369 355.697 106.414 355.416 102.472Z" fill="#055C7F"/>
<path d="M401.163 96.7012V107.258H362.806C359.92 107.258 357.527 104.865 357.527 101.98C357.527 99.0941 359.92 96.7012 362.806 96.7012H401.163Z" fill="#DBF0F7"/>
<path d="M401.866 86.7077C402.007 88.9599 401.162 91.0009 399.684 92.4084C398.347 93.7456 396.517 94.5902 394.476 94.5902H355.064C354.5 94.5902 354.008 94.0975 354.008 93.5345C354.008 92.9715 354.5 92.4788 355.064 92.4788H389.338C392.013 92.4788 394.406 90.5786 394.757 87.9042C395.18 84.6667 392.646 81.9219 389.549 81.9219H355.064C354.5 81.9219 354.008 81.4293 354.008 80.8662C354.008 80.3032 354.5 79.8105 355.064 79.8105H394.265C398.136 79.8105 401.584 82.7665 401.866 86.7077Z" fill="#5BC5DE"/>
<path d="M356.119 92.4778V81.9209H394.476C397.361 81.9209 399.754 84.3138 399.754 87.1993C399.754 90.0849 397.361 92.4778 394.476 92.4778H356.119Z" fill="#DBF0F7"/>
<path d="M87.2683 43.917H82.3418V345.844H87.2683V43.917Z" fill="#055C7F"/>
<path d="M255.475 43.916H250.549V345.843H255.475V43.916Z" fill="#055C7F"/>
<path d="M253.364 57.2881H82.3418V62.2146H253.364V57.2881Z" fill="#055C7F"/>
<path d="M253.364 124.148H82.3418V129.075H253.364V124.148Z" fill="#055C7F"/>
<path d="M253.364 191.009H82.3418V195.935H253.364V191.009Z" fill="#055C7F"/>
<path d="M253.364 257.869H82.3418V262.796H253.364V257.869Z" fill="#055C7F"/>
<path d="M253.364 324.729H82.3418V329.656H253.364V324.729Z" fill="#055C7F"/>
<path d="M84.8061 49.5468C87.9157 49.5468 90.4365 47.026 90.4365 43.9165C90.4365 40.8069 87.9157 38.2861 84.8061 38.2861C81.6966 38.2861 79.1758 40.8069 79.1758 43.9165C79.1758 47.026 81.6966 49.5468 84.8061 49.5468Z" fill="#055C7F"/>
<path d="M253.013 49.5478C256.123 49.5478 258.644 47.027 258.644 43.9175C258.644 40.8079 256.123 38.2871 253.013 38.2871C249.904 38.2871 247.383 40.8079 247.383 43.9175C247.383 47.027 249.904 49.5478 253.013 49.5478Z" fill="#055C7F"/>
<path d="M106.976 72.0684H87.2695V124.149H106.976V72.0684Z" fill="#39AECB"/>
<path d="M106.976 84.7373H87.2695V100.925H106.976V84.7373Z" fill="#5BC5DE"/>
<path d="M106.976 77.6992H87.2695V81.2182H106.976V77.6992Z" fill="#5BC5DE"/>
<path d="M138.646 77.6992H126.682V124.15H138.646V77.6992Z" fill="#39AECB"/>
<path d="M138.646 89.0293H126.682V103.457H138.646V89.0293Z" fill="#5BC5DE"/>
<path d="M138.646 82.6953H126.682V85.8624H138.646V82.6953Z" fill="#5BC5DE"/>
<path d="M138.646 115.069H126.682V118.236H138.646V115.069Z" fill="#5BC5DE"/>
<path d="M150.611 77.6992H138.646V124.15H150.611V77.6992Z" fill="#0383A4"/>
<path d="M150.611 89.0293H138.646V103.457H150.611V89.0293Z" fill="#39AECB"/>
<path d="M150.611 82.6953H138.646V85.8624H150.611V82.6953Z" fill="#39AECB"/>
<path d="M150.611 115.069H138.646V118.236H150.611V115.069Z" fill="#39AECB"/>
<path d="M158.353 66.4385H150.611V124.15H158.353V66.4385Z" fill="#39AECB"/>
<path d="M156.242 72.0693H152.723V116.408H156.242V72.0693Z" fill="#5BC5DE"/>
<path d="M173.412 66.2138L165.801 67.629L176.35 124.365L183.961 122.95L173.412 66.2138Z" fill="#39AECB"/>
<path d="M172.342 72.1225L168.883 72.7657L176.988 116.355L180.447 115.712L172.342 72.1225Z" fill="#5BC5DE"/>
<path d="M166.095 66.4385H158.354V124.15H166.095V66.4385Z" fill="#0383A4"/>
<path d="M163.984 72.0693H160.465V116.408H163.984V72.0693Z" fill="#39AECB"/>
<path d="M250.555 67.5387L242.931 66.1963L232.924 123.03L240.548 124.373L250.555 67.5387Z" fill="#0383A4"/>
<path d="M247.557 72.7186L244.091 72.1084L236.403 115.778L239.869 116.388L247.557 72.7186Z" fill="#39AECB"/>
<path d="M99.234 211.42H87.2695V257.87H99.234V211.42Z" fill="#39AECB"/>
<path d="M99.234 222.75H87.2695V237.178H99.234V222.75Z" fill="#5BC5DE"/>
<path d="M99.234 216.416H87.2695V219.583H99.234V216.416Z" fill="#5BC5DE"/>
<path d="M99.234 248.79H87.2695V251.957H99.234V248.79Z" fill="#5BC5DE"/>
<path d="M111.199 211.42H99.2344V257.87H111.199V211.42Z" fill="#0383A4"/>
<path d="M111.199 222.75H99.2344V237.178H111.199V222.75Z" fill="#39AECB"/>
<path d="M111.199 216.416H99.2344V219.583H111.199V216.416Z" fill="#39AECB"/>
<path d="M111.199 248.79H99.2344V251.957H111.199V248.79Z" fill="#39AECB"/>
<path d="M118.941 200.159H111.199V257.87H118.941V200.159Z" fill="#39AECB"/>
<path d="M116.831 205.789H113.312V250.128H116.831V205.789Z" fill="#5BC5DE"/>
<path d="M144.476 210.325L138.857 215.651L178.563 257.532L184.181 252.206L144.476 210.325Z" fill="#39AECB"/>
<path d="M146.829 215.837L144.275 218.258L174.781 250.435L177.334 248.014L146.829 215.837Z" fill="#5BC5DE"/>
<path d="M155.032 210.325L149.414 215.651L189.119 257.532L194.737 252.206L155.032 210.325Z" fill="#0383A4"/>
<path d="M157.386 215.837L154.832 218.258L185.337 250.435L187.891 248.014L157.386 215.837Z" fill="#5BC5DE"/>
<path d="M126.683 200.159H118.941V257.87H126.683V200.159Z" fill="#0383A4"/>
<path d="M124.572 205.789H121.053V250.128H124.572V205.789Z" fill="#39AECB"/>
<path d="M133.565 201.603L126.42 204.583L148.639 257.845L155.784 254.864L133.565 201.603Z" fill="#0383A4"/>
<path d="M133.765 207.609L130.518 208.964L147.588 249.884L150.836 248.529L133.765 207.609Z" fill="#39AECB"/>
<path d="M126.683 72.0684H106.977V124.149H126.683V72.0684Z" fill="#0383A4"/>
<path d="M126.683 84.7373H106.977V100.925H126.683V84.7373Z" fill="#39AECB"/>
<path d="M126.683 77.6992H106.977V81.2182H126.683V77.6992Z" fill="#39AECB"/>
<path d="M171.726 144.56H159.762V191.01H171.726V144.56Z" fill="#39AECB"/>
<path d="M171.726 155.891H159.762V170.319H171.726V155.891Z" fill="#5BC5DE"/>
<path d="M171.726 149.557H159.762V152.724H171.726V149.557Z" fill="#5BC5DE"/>
<path d="M171.726 181.931H159.762V185.098H171.726V181.931Z" fill="#5BC5DE"/>
<path d="M183.768 144.262L171.822 144.946L174.479 191.322L186.425 190.638L183.768 144.262Z" fill="#0383A4"/>
<path d="M184.404 155.567L172.459 156.252L173.284 170.657L185.23 169.972L184.404 155.567Z" fill="#39AECB"/>
<path d="M184.022 149.295L172.076 149.979L172.257 153.141L184.203 152.457L184.022 149.295Z" fill="#39AECB"/>
<path d="M185.92 181.599L173.975 182.283L174.156 185.445L186.101 184.761L185.92 181.599Z" fill="#39AECB"/>
<path d="M159.761 138.929H140.055V191.009H159.761V138.929Z" fill="#0383A4"/>
<path d="M159.761 151.597H140.055V167.784H159.761V151.597Z" fill="#39AECB"/>
<path d="M159.761 144.559H140.055V148.078H159.761V144.559Z" fill="#39AECB"/>
<path d="M182.987 316.847C183.128 319.099 182.283 321.141 180.805 322.548C179.468 323.885 177.638 324.73 175.597 324.73H136.185C135.622 324.73 135.129 324.237 135.129 323.674C135.129 323.111 135.622 322.618 136.185 322.618H170.459C173.134 322.618 175.527 320.718 175.879 318.044C176.301 314.806 173.767 312.062 170.67 312.062H136.185C135.622 312.062 135.129 311.569 135.129 311.006C135.129 310.443 135.622 309.95 136.185 309.95H175.386C179.257 309.95 182.705 312.906 182.987 316.847Z" fill="#39AECB"/>
<path d="M137.24 322.619V312.062H175.597C178.483 312.062 180.875 314.455 180.875 317.341C180.875 320.226 178.483 322.619 175.597 322.619H137.24Z" fill="#DBF0F7"/>
<path d="M140.054 303.053C139.914 300.801 140.758 298.76 142.236 297.353C143.573 296.015 145.403 295.171 147.444 295.171H186.857C187.42 295.171 187.912 295.664 187.912 296.227C187.912 296.79 187.42 297.282 186.857 297.282H152.582C149.907 297.282 147.514 299.183 147.163 301.857C146.74 305.094 149.274 307.839 152.371 307.839H186.857C187.42 307.839 187.912 308.332 187.912 308.895C187.912 309.458 187.42 309.951 186.857 309.951H147.655C143.784 309.951 140.336 306.995 140.054 303.053Z" fill="#055C7F"/>
<path d="M185.801 297.282V307.839H147.444C144.559 307.839 142.166 305.446 142.166 302.561C142.166 299.675 144.559 297.282 147.444 297.282H185.801Z" fill="#DBF0F7"/>
<path d="M186.504 287.289C186.645 289.541 185.801 291.582 184.323 292.989C182.985 294.327 181.156 295.171 179.115 295.171H139.702C139.139 295.171 138.646 294.679 138.646 294.116C138.646 293.553 139.139 293.06 139.702 293.06H173.977C176.651 293.06 179.044 291.16 179.396 288.485C179.818 285.248 177.285 282.503 174.188 282.503H139.702C139.139 282.503 138.646 282.01 138.646 281.447C138.646 280.884 139.139 280.392 139.702 280.392H178.903C182.774 280.392 186.223 283.348 186.504 287.289Z" fill="#5BC5DE"/>
<path d="M140.758 293.059V282.502H179.115C182 282.502 184.393 284.895 184.393 287.78C184.393 290.666 182 293.059 179.115 293.059H140.758Z" fill="#DBF0F7"/>
<path d="M235.067 183.127C235.208 185.379 234.363 187.42 232.885 188.827C231.548 190.165 229.718 191.009 227.677 191.009H188.265C187.702 191.009 187.209 190.516 187.209 189.953C187.209 189.39 187.702 188.898 188.265 188.898H222.539C225.214 188.898 227.607 186.998 227.959 184.323C228.381 181.086 225.847 178.341 222.751 178.341H188.265C187.702 178.341 187.209 177.848 187.209 177.285C187.209 176.722 187.702 176.229 188.265 176.229H227.466C231.337 176.229 234.785 179.185 235.067 183.127Z" fill="#39AECB"/>
<path d="M189.322 188.897V178.34H227.679C230.565 178.34 232.957 180.733 232.957 183.618C232.957 186.504 230.565 188.897 227.679 188.897H189.322Z" fill="#DBF0F7"/>
<path d="M192.136 169.333C191.996 167.081 192.84 165.04 194.318 163.632C195.655 162.295 197.485 161.45 199.526 161.45H238.939C239.502 161.45 239.994 161.943 239.994 162.506C239.994 163.069 239.502 163.562 238.939 163.562H204.664C201.989 163.562 199.597 165.462 199.245 168.136C198.822 171.374 201.356 174.118 204.453 174.118H238.939C239.502 174.118 239.994 174.611 239.994 175.174C239.994 175.737 239.502 176.23 238.939 176.23H199.737C195.866 176.23 192.418 173.274 192.136 169.333Z" fill="#055C7F"/>
<path d="M237.883 163.562V174.119H199.526C196.641 174.119 194.248 171.726 194.248 168.841C194.248 165.955 196.641 163.562 199.526 163.562H237.883Z" fill="#DBF0F7"/>
<path d="M238.586 153.568C238.727 155.82 237.883 157.861 236.405 159.269C235.067 160.606 233.238 161.451 231.197 161.451H191.784C191.221 161.451 190.729 160.958 190.729 160.395C190.729 159.832 191.221 159.339 191.784 159.339H226.059C228.733 159.339 231.126 157.439 231.478 154.765C231.9 151.527 229.367 148.782 226.27 148.782H191.784C191.221 148.782 190.729 148.29 190.729 147.727C190.729 147.164 191.221 146.671 191.784 146.671H230.985C234.856 146.671 238.305 149.627 238.586 153.568Z" fill="#5BC5DE"/>
<path d="M192.84 159.339V148.782H231.197C234.082 148.782 236.475 151.175 236.475 154.061C236.475 156.946 234.082 159.339 231.197 159.339H192.84Z" fill="#DBF0F7"/>
<path d="M90.0855 184.112C89.9448 181.86 90.7893 179.819 92.2673 178.411C93.6045 177.074 95.4344 176.229 97.4754 176.229H136.888C137.451 176.229 137.943 176.722 137.943 177.285C137.943 177.848 137.451 178.341 136.888 178.341H102.613C99.9386 178.341 97.5457 180.241 97.1938 182.916C96.7716 186.153 99.3052 188.898 102.402 188.898H136.888C137.451 188.898 137.943 189.39 137.943 189.953C137.943 190.516 137.451 191.009 136.888 191.009H97.6865C93.8156 191.009 90.367 188.053 90.0855 184.112Z" fill="#055C7F"/>
<path d="M135.832 178.34V188.897H97.4757C94.5902 188.897 92.1973 186.504 92.1973 183.618C92.1973 180.733 94.5902 178.34 97.4757 178.34H135.832Z" fill="#DBF0F7"/>
<path d="M136.536 168.347C136.676 170.599 135.832 172.641 134.354 174.048C133.017 175.385 131.187 176.23 129.146 176.23H89.7334C89.1704 176.23 88.6777 175.737 88.6777 175.174C88.6777 174.611 89.1704 174.118 89.7334 174.118H124.008C126.683 174.118 129.075 172.218 129.427 169.544C129.85 166.306 127.316 163.562 124.219 163.562H89.7334C89.1704 163.562 88.6777 163.069 88.6777 162.506C88.6777 161.943 89.1704 161.45 89.7334 161.45H128.935C132.806 161.45 136.254 164.406 136.536 168.347Z" fill="#5BC5DE"/>
<path d="M90.7891 174.119V163.562H129.146C132.031 163.562 134.424 165.955 134.424 168.841C134.424 171.726 132.031 174.119 129.146 174.119H90.7891Z" fill="#DBF0F7"/>
<path d="M129.568 324.731H90.7891V271.946H129.568C131.046 271.946 132.313 273.143 132.313 274.691V321.986C132.313 323.534 131.116 324.731 129.568 324.731Z" fill="#39AECB"/>
<path d="M96.4193 271.945H95.0117V324.73H96.4193V271.945Z" fill="#055C7F"/>
<path d="M225.988 124.149H187.209V71.3643H225.988C227.466 71.3643 228.733 72.5607 228.733 74.109V121.404C228.733 122.952 227.536 124.149 225.988 124.149Z" fill="#39AECB"/>
<path d="M192.839 71.3652H191.432V124.15H192.839V71.3652Z" fill="#055C7F"/>
<path d="M662.972 345.843H667.898V43.9156H662.972V345.843Z" fill="#055C7F"/>
<path d="M494.765 345.843H499.691L499.691 43.9156H494.765L494.765 345.843Z" fill="#055C7F"/>
<path d="M496.877 62.2148L667.898 62.2148V57.2883L496.877 57.2883V62.2148Z" fill="#055C7F"/>
<path d="M496.877 129.075L667.898 129.075V124.149L496.877 124.149V129.075Z" fill="#055C7F"/>
<path d="M496.877 195.936L667.898 195.936V191.009L496.877 191.009V195.936Z" fill="#055C7F"/>
<path d="M496.877 262.796H667.898V257.869H496.877V262.796Z" fill="#055C7F"/>
<path d="M496.877 329.656H667.898V324.73H496.877V329.656Z" fill="#055C7F"/>
<path d="M665.437 49.5478C668.547 49.5478 671.067 47.027 671.067 43.9175C671.067 40.8079 668.547 38.2871 665.437 38.2871C662.327 38.2871 659.807 40.8079 659.807 43.9175C659.807 47.027 662.327 49.5478 665.437 49.5478Z" fill="#055C7F"/>
<path d="M497.23 49.5468C500.34 49.5468 502.86 47.026 502.86 43.9165C502.86 40.8069 500.34 38.2861 497.23 38.2861C494.12 38.2861 491.6 40.8069 491.6 43.9165C491.6 47.026 494.12 49.5468 497.23 49.5468Z" fill="#055C7F"/>
<path d="M655.096 134.15L647.435 133.033L639.113 190.138L646.774 191.255L655.096 134.15Z" fill="#39AECB"/>
<path d="M652.183 139.405L648.701 138.897L642.307 182.771L645.789 183.278L652.183 139.405Z" fill="#5BC5DE"/>
<path d="M647.356 134.15L639.695 133.033L631.373 190.138L639.034 191.255L647.356 134.15Z" fill="#0383A4"/>
<path d="M644.443 139.405L640.961 138.897L634.567 182.771L638.049 183.278L644.443 139.405Z" fill="#5BC5DE"/>
<path d="M662.972 133.299H655.23V191.01H662.972V133.299Z" fill="#0383A4"/>
<path d="M660.861 138.931H657.342V183.27H660.861V138.931Z" fill="#39AECB"/>
<path d="M657.304 199.913L649.6 200.668L655.231 258.102L662.935 257.347L657.304 199.913Z" fill="#0383A4"/>
<path d="M655.783 205.713L652.281 206.056L656.608 250.182L660.11 249.839L655.783 205.713Z" fill="#39AECB"/>
<path d="M549.662 278.28H537.697V324.731H549.662V278.28Z" fill="#39AECB"/>
<path d="M549.662 289.611H537.697V304.039H549.662V289.611Z" fill="#5BC5DE"/>
<path d="M549.662 283.276H537.697V286.443H549.662V283.276Z" fill="#5BC5DE"/>
<path d="M549.662 315.651H537.697V318.818H549.662V315.651Z" fill="#5BC5DE"/>
<path d="M561.627 278.28H549.662V324.731H561.627V278.28Z" fill="#0383A4"/>
<path d="M561.627 289.611H549.662V304.039H561.627V289.611Z" fill="#39AECB"/>
<path d="M561.627 283.276H549.662V286.443H561.627V283.276Z" fill="#39AECB"/>
<path d="M561.627 315.651H549.662V318.818H561.627V315.651Z" fill="#39AECB"/>
<path d="M537.697 278.28H525.732V324.731H537.697V278.28Z" fill="#0383A4"/>
<path d="M537.697 289.611H525.732V304.039H537.697V289.611Z" fill="#39AECB"/>
<path d="M537.697 283.276H525.732V286.443H537.697V283.276Z" fill="#39AECB"/>
<path d="M537.697 315.651H525.732V318.818H537.697V315.651Z" fill="#39AECB"/>
<path d="M662.972 278.28H651.008V324.731H662.972V278.28Z" fill="#39AECB"/>
<path d="M662.972 289.611H651.008V304.039H662.972V289.611Z" fill="#5BC5DE"/>
<path d="M662.972 283.276H651.008V286.443H662.972V283.276Z" fill="#5BC5DE"/>
<path d="M662.972 315.651H651.008V318.818H662.972V315.651Z" fill="#5BC5DE"/>
<path d="M569.369 267.02H561.627V324.731H569.369V267.02Z" fill="#39AECB"/>
<path d="M567.257 272.65H563.738V316.989H567.257V272.65Z" fill="#5BC5DE"/>
<path d="M594.892 277.173L589.273 282.499L628.979 324.38L634.597 319.054L594.892 277.173Z" fill="#39AECB"/>
<path d="M597.241 282.678L594.688 285.099L625.193 317.276L627.746 314.854L597.241 282.678Z" fill="#5BC5DE"/>
<path d="M605.446 277.173L599.828 282.499L639.533 324.38L645.151 319.054L605.446 277.173Z" fill="#0383A4"/>
<path d="M607.796 282.678L605.242 285.099L635.747 317.276L638.301 314.854L607.796 282.678Z" fill="#5BC5DE"/>
<path d="M577.111 267.02H569.369V324.731H577.111V267.02Z" fill="#0383A4"/>
<path d="M574.999 272.65H571.48V316.989H574.999V272.65Z" fill="#39AECB"/>
<path d="M583.989 268.48L576.844 271.461L599.062 324.722L606.207 321.742L583.989 268.48Z" fill="#0383A4"/>
<path d="M584.189 274.488L580.941 275.843L598.012 316.763L601.26 315.408L584.189 274.488Z" fill="#39AECB"/>
<path d="M558.812 72.0684H539.105V124.149H558.812V72.0684Z" fill="#39AECB"/>
<path d="M558.812 84.7373H539.105V100.925H558.812V84.7373Z" fill="#5BC5DE"/>
<path d="M558.812 77.6992H539.105V81.2182H558.812V77.6992Z" fill="#5BC5DE"/>
<path d="M590.482 77.6992H578.518V124.15H590.482V77.6992Z" fill="#39AECB"/>
<path d="M590.482 89.0293H578.518V103.457H590.482V89.0293Z" fill="#5BC5DE"/>
<path d="M590.482 82.6953H578.518V85.8624H590.482V82.6953Z" fill="#5BC5DE"/>
<path d="M590.482 115.069H578.518V118.236H590.482V115.069Z" fill="#5BC5DE"/>
<path d="M602.447 77.6992H590.482V124.15H602.447V77.6992Z" fill="#0383A4"/>
<path d="M602.447 89.0293H590.482V103.457H602.447V89.0293Z" fill="#39AECB"/>
<path d="M602.447 82.6953H590.482V85.8624H602.447V82.6953Z" fill="#39AECB"/>
<path d="M602.447 115.069H590.482V118.236H602.447V115.069Z" fill="#39AECB"/>
<path d="M610.189 66.4385H602.447V124.15H610.189V66.4385Z" fill="#39AECB"/>
<path d="M608.076 72.0693H604.557V116.408H608.076V72.0693Z" fill="#5BC5DE"/>
<path d="M625.224 66.2197L617.613 67.6349L628.163 124.371L635.774 122.955L625.224 66.2197Z" fill="#39AECB"/>
<path d="M624.157 72.1313L620.697 72.7745L628.802 116.364L632.262 115.721L624.157 72.1313Z" fill="#5BC5DE"/>
<path d="M617.929 66.4385H610.188V124.15H617.929V66.4385Z" fill="#0383A4"/>
<path d="M615.818 72.0693H612.299V116.408H615.818V72.0693Z" fill="#39AECB"/>
<path d="M647.49 77.6992H635.525V124.15H647.49V77.6992Z" fill="#0383A4"/>
<path d="M647.49 89.0293H635.525V103.457H647.49V89.0293Z" fill="#39AECB"/>
<path d="M647.49 82.6953H635.525V85.8624H647.49V82.6953Z" fill="#39AECB"/>
<path d="M647.49 115.069H635.525V118.236H647.49V115.069Z" fill="#39AECB"/>
<path d="M655.232 66.4385H647.49V124.15H655.232V66.4385Z" fill="#39AECB"/>
<path d="M653.121 72.0693H649.602V116.408H653.121V72.0693Z" fill="#5BC5DE"/>
<path d="M662.972 66.4385H655.23V124.15H662.972V66.4385Z" fill="#0383A4"/>
<path d="M660.861 72.0693H657.342V116.408H660.861V72.0693Z" fill="#39AECB"/>
<path d="M539.105 66.4385H531.363V124.15H539.105V66.4385Z" fill="#0383A4"/>
<path d="M536.994 72.0693H533.475V116.408H536.994V72.0693Z" fill="#39AECB"/>
<path d="M578.519 72.0684H558.812V124.149H578.519V72.0684Z" fill="#0383A4"/>
<path d="M578.519 84.7373H558.812V100.925H578.519V84.7373Z" fill="#39AECB"/>
<path d="M578.519 77.6992H558.812V81.2182H578.519V77.6992Z" fill="#39AECB"/>
<path d="M626.376 183.127C626.516 185.379 625.672 187.42 624.194 188.827C622.857 190.165 621.027 191.009 618.986 191.009H579.573C579.01 191.009 578.518 190.516 578.518 189.953C578.518 189.39 579.01 188.898 579.573 188.898H613.848C616.522 188.898 618.915 186.998 619.267 184.323C619.689 181.086 617.156 178.341 614.059 178.341H579.573C579.01 178.341 578.518 177.848 578.518 177.285C578.518 176.722 579.01 176.229 579.573 176.229H618.775C622.645 176.229 626.094 179.185 626.376 183.127Z" fill="#39AECB"/>
<path d="M580.629 188.897V178.34H618.986C621.871 178.34 624.264 180.733 624.264 183.618C624.264 186.504 621.871 188.897 618.986 188.897H580.629Z" fill="#DBF0F7"/>
<path d="M583.445 169.333C583.304 167.081 584.149 165.04 585.627 163.632C586.964 162.295 588.794 161.45 590.835 161.45H630.247C630.81 161.45 631.303 161.943 631.303 162.506C631.303 163.069 630.81 163.562 630.247 163.562H595.972C593.298 163.562 590.905 165.462 590.553 168.136C590.131 171.374 592.665 174.118 595.761 174.118H630.247C630.81 174.118 631.303 174.611 631.303 175.174C631.303 175.737 630.81 176.23 630.247 176.23H591.046C587.175 176.23 583.726 173.274 583.445 169.333Z" fill="#055C7F"/>
<path d="M629.192 163.562V174.119H590.835C587.95 174.119 585.557 171.726 585.557 168.841C585.557 165.955 587.95 163.562 590.835 163.562H629.192Z" fill="#DBF0F7"/>
<path d="M629.895 153.568C630.036 155.82 629.191 157.861 627.713 159.269C626.376 160.606 624.546 161.451 622.505 161.451H583.093C582.53 161.451 582.037 160.958 582.037 160.395C582.037 159.832 582.53 159.339 583.093 159.339H617.368C620.042 159.339 622.435 157.439 622.787 154.765C623.209 151.527 620.675 148.782 617.579 148.782H583.093C582.53 148.782 582.037 148.29 582.037 147.727C582.037 147.164 582.53 146.671 583.093 146.671H622.294C626.165 146.671 629.614 149.627 629.895 153.568Z" fill="#5BC5DE"/>
<path d="M584.148 159.339V148.782H622.505C625.391 148.782 627.784 151.175 627.784 154.061C627.784 156.946 625.391 159.339 622.505 159.339H584.148Z" fill="#DBF0F7"/>
<path d="M580.629 249.987C580.77 252.239 579.926 254.28 578.448 255.688C577.11 257.025 575.281 257.869 573.24 257.869H533.827C533.264 257.869 532.771 257.377 532.771 256.814C532.771 256.251 533.264 255.758 533.827 255.758H568.102C570.776 255.758 573.169 253.858 573.521 251.183C573.943 247.946 571.41 245.201 568.313 245.201H533.827C533.264 245.201 532.771 244.709 532.771 244.146C532.771 243.582 533.264 243.09 533.827 243.09H573.028C576.899 243.09 580.348 246.046 580.629 249.987Z" fill="#39AECB"/>
<path d="M534.883 255.758V245.201H573.24C576.125 245.201 578.518 247.594 578.518 250.48C578.518 253.365 576.125 255.758 573.24 255.758H534.883Z" fill="#DBF0F7"/>
<path d="M602.939 210.645C605.12 211.209 606.809 212.616 607.724 214.446C608.569 216.135 608.78 218.106 608.217 220.076L596.112 257.659C595.901 258.222 595.338 258.503 594.775 258.363C594.212 258.152 593.93 257.588 594.071 257.025L604.628 224.369C605.472 221.836 604.346 218.95 601.953 217.824C598.997 216.417 595.619 217.965 594.634 220.991L584.007 253.788C583.795 254.351 583.232 254.633 582.669 254.492C582.106 254.281 581.825 253.718 581.966 253.155L594 215.854C595.267 212.053 599.138 209.731 602.939 210.645Z" fill="#055C7F"/>
<path d="M594.422 255.969L584.357 252.731L596.111 216.204C597.026 213.46 599.982 211.911 602.726 212.826C605.471 213.741 607.02 216.697 606.105 219.442L594.422 255.969Z" fill="#DBF0F7"/>
<path d="M525.523 76.2207C527.704 76.7837 529.393 78.1913 530.308 80.0212C531.153 81.7103 531.364 83.6809 530.801 85.6515L518.696 123.234C518.485 123.797 517.922 124.079 517.359 123.938C516.796 123.727 516.514 123.164 516.655 122.601L527.212 89.9446C528.056 87.411 526.93 84.5255 524.537 83.3994C521.581 81.9918 518.203 83.5401 517.218 86.5665L506.591 119.363C506.379 119.926 505.816 120.208 505.253 120.067C504.69 119.856 504.409 119.293 504.55 118.73L516.584 81.4288C517.851 77.6283 521.722 75.3058 525.523 76.2207Z" fill="#055C7F"/>
<path d="M517.006 121.544L506.941 118.306L518.695 81.7795C519.61 79.0347 522.566 77.4864 525.31 78.4013C528.055 79.3163 529.604 82.2722 528.689 85.017L517.006 121.544Z" fill="#DBF0F7"/>
<path d="M537.699 236.193C537.558 233.941 538.403 231.9 539.881 230.492C541.218 229.155 543.048 228.311 545.089 228.311H584.501C585.064 228.311 585.557 228.803 585.557 229.366C585.557 229.929 585.064 230.422 584.501 230.422H550.226C547.552 230.422 545.159 232.322 544.807 234.997C544.385 238.234 546.918 240.979 550.015 240.979H584.501C585.064 240.979 585.557 241.471 585.557 242.035C585.557 242.598 585.064 243.09 584.501 243.09H545.3C541.429 243.09 537.98 240.134 537.699 236.193Z" fill="#055C7F"/>
<path d="M583.446 230.421V240.978H545.089C542.203 240.978 539.811 238.585 539.811 235.699C539.811 232.814 542.203 230.421 545.089 230.421H583.446Z" fill="#DBF0F7"/>
<path d="M584.149 220.428C584.29 222.681 583.445 224.722 581.967 226.129C580.63 227.466 578.8 228.311 576.759 228.311H537.347C536.784 228.311 536.291 227.818 536.291 227.255C536.291 226.692 536.784 226.2 537.347 226.2H571.621C574.296 226.2 576.689 224.299 577.041 221.625C577.463 218.387 574.929 215.643 571.833 215.643H537.347C536.784 215.643 536.291 215.15 536.291 214.587C536.291 214.024 536.784 213.531 537.347 213.531H576.548C580.419 213.531 583.867 216.487 584.149 220.428Z" fill="#5BC5DE"/>
<path d="M538.402 226.2V215.644H576.759C579.645 215.644 582.038 218.036 582.038 220.922C582.038 223.808 579.645 226.2 576.759 226.2H538.402Z" fill="#DBF0F7"/>
<path d="M647.56 257.869H608.781V205.085H647.56C649.038 205.085 650.305 206.281 650.305 207.83V255.125C650.305 256.673 649.109 257.869 647.56 257.869Z" fill="#39AECB"/>
<path d="M614.411 205.086H613.004V257.87H614.411V205.086Z" fill="#055C7F"/>
<path d="M574.365 191.009H535.586V138.225H574.365C575.843 138.225 577.11 139.421 577.11 140.969V188.264C577.11 189.813 575.913 191.009 574.365 191.009Z" fill="#39AECB"/>
<path d="M541.216 138.225H539.809V191.009H541.216V138.225Z" fill="#055C7F"/>
<path d="M518.485 349.081H233.167C225.777 349.081 219.795 343.099 219.795 335.709V151.667C219.795 144.277 225.777 138.295 233.167 138.295H518.555C525.945 138.295 531.927 144.277 531.927 151.667V335.709C531.927 343.099 525.875 349.081 518.485 349.081Z" fill="#003057"/>
<path d="M511.447 151.598H240.205V335.71H511.447V151.598Z" fill="#FEE6E2"/>
<path d="M518.695 240.979C518.695 239.149 520.173 237.601 522.074 237.601C523.974 237.601 525.452 239.079 525.452 240.979C525.452 242.879 523.974 244.357 522.074 244.357C520.173 244.357 518.695 242.879 518.695 240.979Z" fill="#055C7F"/>
<path d="M511.447 318.115V335.71H407.145L240.205 168.77V151.598H344.929L511.447 318.115Z" fill="#FED6D6"/>
<path fill-rule="evenodd" clip-rule="evenodd" d="M375.875 220.642H335.174C330.911 220.642 327.455 224.097 327.455 228.361V298.533C327.455 302.796 330.911 306.252 335.174 306.252H375.875V220.642Z" fill="#A90E4B"/>
<path fill-rule="evenodd" clip-rule="evenodd" d="M375.875 306.252H416.574C420.837 306.252 424.293 302.796 424.293 298.533V228.36C424.293 224.097 420.837 220.641 416.574 220.641H375.875V306.252Z" fill="#8A0A3C"/>
<path fill-rule="evenodd" clip-rule="evenodd" d="M375.873 243.103C375.757 243.099 375.64 243.098 375.522 243.098C368.74 243.098 363.242 248.596 363.242 255.378C363.242 260.276 366.11 264.504 370.258 266.476V283.096H375.873V243.103Z" fill="#FEF6F4"/>
<path fill-rule="evenodd" clip-rule="evenodd" d="M375.873 243.103C375.99 243.099 376.106 243.098 376.224 243.098C383.006 243.098 388.504 248.596 388.504 255.378C388.504 260.276 385.636 264.504 381.488 266.476V283.096H375.873V243.103Z" fill="#FED6D6"/>
<path fill-rule="evenodd" clip-rule="evenodd" d="M375.875 174.328C358.433 174.341 344.297 188.485 344.297 205.931V205.931V205.931V220.642H355.194V205.931H355.195V205.931C355.195 194.504 364.452 185.239 375.875 185.226V174.328Z" fill="#A90E4B"/>
<path fill-rule="evenodd" clip-rule="evenodd" d="M375.873 174.328C393.315 174.341 407.451 188.485 407.451 205.931V205.931V220.642H396.554V205.931H396.553V205.931C396.553 194.504 387.296 185.239 375.873 185.226V174.328Z" fill="#8A0A3C"/>
<path d="M530.379 351.897C530.45 351.897 530.591 351.826 530.661 351.756C531.365 351.334 531.576 350.489 531.154 349.785L526.016 340.847C525.594 340.143 524.749 339.932 524.045 340.354C523.341 340.777 523.13 341.621 523.553 342.325L528.69 351.263C529.042 351.897 529.746 352.108 530.379 351.897Z" fill="#784F20"/>
<path d="M530.801 348.658C530.801 348.658 533.968 350.699 533.405 351.403C532.842 352.106 523.833 361.115 523.411 360.763C521.863 359.496 528.126 350.98 528.971 350.417C529.816 349.854 530.308 348.306 530.801 348.658Z" fill="#00496F"/>
<path d="M462.392 256.321C462.392 256.321 455.073 257.166 454.088 258.714C453.102 260.263 460.14 260.263 463.73 257.588L462.392 256.321Z" fill="#784F20"/>
<path d="M461.971 255.547C462.111 256.743 462.182 257.94 462.393 259.066C481.114 256.251 488.996 253.224 494.908 234.644C495.823 231.829 494.767 231.336 492.445 231.125C492.445 230.633 492.445 230.633 492.445 231.125C490.193 230.914 489.771 231.759 488.996 234.222C483.929 250.48 477.736 251.535 461.971 255.547Z" fill="#D6406E"/>
<path d="M477.242 357.668C477.312 357.738 477.383 357.738 477.523 357.808C478.298 358.019 479.072 357.597 479.283 356.823L482.168 346.97C482.38 346.196 481.957 345.422 481.183 345.21C480.409 344.999 479.635 345.422 479.424 346.196L476.538 356.049C476.327 356.682 476.608 357.386 477.242 357.668Z" fill="#784F20"/>
<path d="M476.891 350.63C478.228 351.474 479.565 352.319 480.973 352.952C489.629 327.475 493.5 294.326 503.353 271.664C499.553 270.186 495.752 268.779 491.952 267.301C482.732 294.256 489.77 319.663 476.891 350.63Z" fill="#00365D"/>
<path d="M526.015 348.025C527.423 347.321 528.76 346.618 530.097 345.843C514.121 318.607 504.127 299.956 505.957 267.371C501.875 266.808 497.793 266.385 493.711 265.893C493.852 297.141 509.617 322.759 526.015 348.025Z" fill="#00365D"/>
<path d="M490.263 211.841C491.67 211.7 493.359 212.685 493.852 214.022C494.345 215.43 493.289 216.837 492.022 217.33C490.685 217.823 488.01 216.415 487.518 215.078C486.955 213.741 488.433 211.981 490.263 211.841Z" fill="#202121"/>
<path d="M497.159 209.941C499.693 207.9 504.197 207.478 506.942 209.448C509.687 211.419 509.546 215.571 507.646 218.175C505.746 220.779 499.975 222.398 495.611 219.724C492.726 217.964 493.992 212.545 497.159 209.941Z" fill="#202121"/>
<path d="M493.289 219.02C495.19 217.472 498.427 217.049 500.398 218.527C502.368 220.005 502.228 222.961 500.75 224.932C499.342 226.903 494.275 227.677 492.304 226.269C490.333 224.791 490.896 220.92 493.289 219.02Z" fill="#202121"/>
<path d="M496.244 221.554C494.415 225.495 490.192 227.396 487.799 226.269C485.406 225.143 485.758 221.413 487.588 217.542C489.418 213.601 492.303 212.546 494.696 213.672C497.089 214.727 498.074 217.613 496.244 221.554Z" fill="#784F20"/>
<path d="M497.442 223.735C497.019 224.65 495.541 225.424 494.908 225.072C494.275 224.721 494.415 223.946 494.838 223.031C495.26 222.117 496.175 221.483 496.879 221.835C497.582 222.187 497.864 222.82 497.442 223.735Z" fill="#784F20"/>
<path d="M498.004 219.301C498.004 219.301 498.356 216.415 496.808 214.586C495.259 212.756 491.389 211.137 488.996 214.234C488.996 214.234 487.447 216.556 490.474 218.175C493.5 219.794 493.57 217.893 494.485 220.075C495.4 222.186 497.23 221.623 497.441 222.046L498.004 219.301Z" fill="#202121"/>
<path d="M489.699 275.605C493.148 275.746 495.822 274.479 498.708 272.72C500.96 271.382 503.845 270.819 506.168 269.834C507.857 259.207 505.534 241.964 501.382 235.207C497.722 229.225 497.722 230.211 496.385 229.647C494.555 228.873 492.444 229.155 490.966 230.492L490.895 230.562C489.206 232.181 489.136 235.7 488.925 239.36C488.643 243.02 487.236 242.316 490.473 248.72C491.881 251.535 489.558 270.186 489.699 275.605Z" fill="#EC577F"/>
<path d="M494.907 222.116L490.402 222.538C490.473 223.172 491.106 229.013 491.74 231.195C492.021 231.829 493.218 231.969 494.344 231.406C495.399 230.914 496.033 230.139 495.962 229.506C495.54 228.239 495.118 224.298 494.907 222.116Z" fill="#784F20"/>
<path d="M479.847 356.049C479.847 356.049 480.762 359.709 479.847 359.849C478.932 359.92 466.193 360.342 466.123 359.779C465.841 357.738 476.328 355.908 477.313 356.119C478.369 356.26 479.706 355.486 479.847 356.049Z" fill="#00496F"/>
<path d="M469.078 263.076C469.078 263.076 461.477 261.458 459.999 262.725C458.521 263.991 465.559 266.314 469.993 264.766L469.078 263.076Z" fill="#784F20"/>
<path d="M467.248 262.445C467.178 263.712 467.037 264.767 466.896 266.105C491.318 266.034 495.4 260.052 501.453 237.601C502.368 234.152 496.456 232.393 495.541 238.305C492.022 258.996 488.433 259.841 467.248 262.445Z" fill="#D6406E"/>
<path d="M258.363 178.059C261.742 177.637 264.416 174.962 264.838 171.584C264.838 171.514 264.909 171.514 264.909 171.584C265.331 174.962 268.005 177.637 271.384 178.059C271.454 178.059 271.454 178.129 271.384 178.129C268.005 178.552 265.331 181.226 264.909 184.604C264.909 184.675 264.838 184.675 264.838 184.604C264.416 181.226 261.742 178.552 258.363 178.129C258.293 178.2 258.293 178.059 258.363 178.059Z" fill="#F1F9FC"/>
<path d="M198.188 308.403C201.566 307.98 204.24 305.306 204.662 301.928C204.662 301.857 204.733 301.857 204.733 301.928C205.155 305.306 207.83 307.98 211.208 308.403C211.278 308.403 211.278 308.473 211.208 308.473C207.83 308.895 205.155 311.57 204.733 314.948C204.733 315.018 204.662 315.018 204.662 314.948C204.24 311.57 201.566 308.895 198.188 308.473C198.117 308.543 198.117 308.403 198.188 308.403Z" fill="#F1F9FC"/>
<path d="M248.861 197.062C251.114 196.71 252.943 194.95 253.295 192.628C253.295 192.558 253.366 192.558 253.366 192.628C253.718 194.88 255.477 196.71 257.8 197.062C257.87 197.062 257.87 197.132 257.8 197.132C255.547 197.484 253.718 199.244 253.366 201.566C253.366 201.637 253.295 201.637 253.295 201.566C252.943 199.314 251.184 197.484 248.861 197.132C248.791 197.132 248.791 197.062 248.861 197.062Z" fill="#F1F9FC"/>
<path d="M213.037 325.997C215.289 325.646 217.119 323.886 217.471 321.564C217.471 321.493 217.541 321.493 217.541 321.564C217.893 323.816 219.653 325.646 221.975 325.997C222.046 325.997 222.046 326.068 221.975 326.068C219.723 326.42 217.893 328.179 217.541 330.502C217.541 330.572 217.471 330.572 217.471 330.502C217.119 328.25 215.36 326.42 213.037 326.068C212.967 326.068 212.967 325.997 213.037 325.997Z" fill="#F1F9FC"/>
<path d="M418.404 109.018C420.656 108.666 422.486 106.907 422.838 104.584C422.838 104.514 422.909 104.514 422.909 104.584C423.261 106.836 425.02 108.666 427.343 109.018C427.413 109.018 427.413 109.088 427.343 109.088C425.09 109.44 423.261 111.2 422.909 113.522C422.909 113.593 422.838 113.593 422.838 113.522C422.486 111.27 420.727 109.44 418.404 109.088C418.334 109.088 418.334 109.018 418.404 109.018Z" fill="#F1F9FC"/>
</svg>
