<svg width="911" height="504" viewBox="0 0 911 504" fill="none" xmlns="http://www.w3.org/2000/svg">
<path d="M693.29 133.497C672.732 133.497 652.949 136.335 634.111 141.668C585.684 79.3064 510.076 39.2229 425.006 39.2229C298.906 39.2229 193.45 127.475 166.957 245.49C163.517 244.801 159.904 244.371 156.205 244.371C127.39 244.371 104.08 267.682 104.08 296.497C104.08 300.11 104.424 303.551 105.112 306.905C47.9111 321.614 5.50513 373.654 5.50513 435.499C5.50513 460.358 12.3864 483.668 24.2566 503.538H847.947C886.654 464.315 910.567 410.383 910.567 350.859C910.653 230.781 813.283 133.497 693.29 133.497Z" fill="#B4E8F4"/>
<path d="M650.97 378.728C623.273 378.728 599.963 397.308 592.737 422.683H709.289C702.064 397.308 678.667 378.728 650.97 378.728Z" fill="#84DAED"/>
<path d="M809.928 378.728C782.231 378.728 758.92 397.308 751.695 422.683H868.247C860.936 397.308 837.625 378.728 809.928 378.728Z" fill="#84DAED"/>
<path d="M734.234 359.976C694.667 359.976 661.378 386.469 650.97 422.682H817.412C807.09 386.469 773.715 359.976 734.234 359.976Z" fill="#84DAED"/>
<path d="M603.833 9.72046C589.555 9.72046 577.512 19.3543 573.728 32.4287H633.939C630.154 19.2683 618.112 9.72046 603.833 9.72046Z" fill="#FEF6F4"/>
<path d="M685.979 9.72046C671.7 9.72046 659.658 19.3543 655.873 32.4287H716.084C712.3 19.2683 700.258 9.72046 685.979 9.72046Z" fill="#FEF6F4"/>
<path d="M646.841 0C626.456 0 609.166 13.6766 603.833 32.4281H689.85C684.517 13.6766 667.227 0 646.841 0Z" fill="#FEF6F4"/>
<path d="M699.655 452.532H218.997C210.137 452.532 202.912 445.306 202.912 436.447C202.912 427.587 210.137 420.362 218.997 420.362H699.569C708.429 420.362 715.654 427.587 715.654 436.447C715.74 445.392 708.515 452.532 699.655 452.532Z" fill="#F1F9FC"/>
<path d="M95.0478 389.566C74.1458 389.566 56.5985 403.587 51.0935 422.683H139.002C133.583 403.587 115.95 389.566 95.0478 389.566Z" fill="#84DAED"/>
<path d="M214.954 389.566C194.053 389.566 176.505 403.587 171 422.683H258.909C253.404 403.587 235.856 389.566 214.954 389.566Z" fill="#84DAED"/>
<path d="M157.839 375.374C127.992 375.374 102.875 395.416 95.0476 422.683H220.545C212.804 395.33 187.687 375.374 157.839 375.374Z" fill="#84DAED"/>
<path d="M715.74 22.6221C695.613 22.6221 678.667 36.1266 673.42 54.5341H758.06C752.813 36.1266 735.868 22.6221 715.74 22.6221Z" fill="#F1F9FC"/>
<path d="M831.26 22.6221C811.132 22.6221 794.187 36.1266 788.94 54.5341H873.58C868.247 36.1266 851.302 22.6221 831.26 22.6221Z" fill="#F1F9FC"/>
<path d="M776.21 8.94507C747.48 8.94507 723.224 28.2127 715.74 54.5336H836.679C829.11 28.2127 804.939 8.94507 776.21 8.94507Z" fill="#F1F9FC"/>
<path d="M27.4392 166.271C14.4507 166.271 3.44065 175.045 0 187.001H54.8783C51.5237 175.045 40.5136 166.271 27.4392 166.271Z" fill="#FED6D6"/>
<path d="M102.359 166.271C89.2846 166.271 78.3606 175.045 74.9199 187.001H129.798C126.358 175.045 115.348 166.271 102.359 166.271Z" fill="#FED6D6"/>
<path d="M66.6623 157.411C47.9968 157.411 32.3419 169.883 27.439 187H105.886C100.983 169.969 85.3278 157.411 66.6623 157.411Z" fill="#FED6D6"/>
<path d="M832.034 341.914C836.163 341.397 839.431 338.129 839.947 334C839.947 333.914 840.033 333.914 840.033 334C840.55 338.129 843.818 341.397 847.947 341.914C848.033 341.914 848.033 342 847.947 342C843.818 342.516 840.55 345.784 840.033 349.913C840.033 349.999 839.947 349.999 839.947 349.913C839.431 345.784 836.163 342.516 832.034 342C831.948 342 831.948 341.914 832.034 341.914Z" fill="#F1F9FC"/>
<path d="M575.19 124.723C579.319 124.207 582.588 120.938 583.104 116.809C583.104 116.723 583.19 116.723 583.19 116.809C583.706 120.938 586.974 124.207 591.103 124.723C591.189 124.723 591.189 124.809 591.103 124.809C586.974 125.325 583.706 128.594 583.19 132.722C583.19 132.808 583.104 132.808 583.104 132.722C582.588 128.594 579.319 125.325 575.19 124.809C575.104 124.895 575.104 124.723 575.19 124.723Z" fill="#F1F9FC"/>
<path d="M849.581 317.485C852.334 317.055 854.57 314.905 855 312.066C855 311.98 855.086 311.98 855.086 312.066C855.516 314.818 857.667 317.055 860.505 317.485C860.591 317.485 860.591 317.571 860.505 317.571C857.753 318.001 855.516 320.152 855.086 322.99C855.086 323.076 855 323.076 855 322.99C854.57 320.238 852.42 318.001 849.581 317.571C849.495 317.657 849.495 317.571 849.581 317.485Z" fill="#F1F9FC"/>
<path d="M65.9744 364.794C68.7269 364.364 70.9634 362.213 71.3934 359.375C71.3934 359.289 71.4795 359.289 71.4795 359.375C71.9095 362.127 74.0599 364.364 76.8985 364.794C76.9845 364.794 76.9845 364.88 76.8985 364.88C74.146 365.31 71.9095 367.46 71.4795 370.299C71.4795 370.385 71.3934 370.385 71.3934 370.299C70.9634 367.546 68.813 365.31 65.9744 364.88C65.8884 364.966 65.8884 364.88 65.9744 364.794Z" fill="#F1F9FC"/>
<path d="M213.234 249.532C215.987 249.102 218.223 246.952 218.653 244.113C218.653 244.027 218.739 244.027 218.739 244.113C219.169 246.866 221.32 249.102 224.158 249.532C224.244 249.532 224.244 249.618 224.158 249.618C221.406 250.048 219.169 252.199 218.739 255.037C218.739 255.123 218.653 255.123 218.653 255.037C218.223 252.285 216.073 250.048 213.234 249.618C213.148 249.704 213.148 249.618 213.234 249.532Z" fill="#F1F9FC"/>
<path d="M327.636 94.2731C330.388 93.843 332.625 91.6926 333.055 88.8541C333.055 88.768 333.141 88.768 333.141 88.8541C333.571 91.6066 335.721 93.843 338.56 94.2731C338.646 94.2731 338.646 94.3591 338.56 94.3591C335.807 94.7892 333.571 96.9396 333.141 99.7781C333.141 99.8641 333.055 99.8641 333.055 99.7781C332.625 97.0256 330.474 94.7892 327.636 94.3591C327.55 94.3591 327.55 94.2731 327.636 94.2731Z" fill="#F1F9FC"/>
<path d="M106.66 53.6748H100.639V422.684H106.66V53.6748Z" fill="#055C7F"/>
<path d="M312.239 53.6738H306.218V422.683H312.239V53.6738Z" fill="#055C7F"/>
<path d="M309.658 70.0168H100.639V76.038H309.658V70.0168Z" fill="#055C7F"/>
<path d="M309.658 151.732H100.639V157.753H309.658V151.732Z" fill="#055C7F"/>
<path d="M309.658 233.448H100.639V239.469H309.658V233.448Z" fill="#055C7F"/>
<path d="M309.658 315.163H100.639V321.184H309.658V315.163Z" fill="#055C7F"/>
<path d="M309.658 396.878H100.639V402.899H309.658V396.878Z" fill="#055C7F"/>
<path d="M103.65 60.5556C107.45 60.5556 110.531 57.4747 110.531 53.6743C110.531 49.8738 107.45 46.793 103.65 46.793C99.8492 46.793 96.7683 49.8738 96.7683 53.6743C96.7683 57.4747 99.8492 60.5556 103.65 60.5556Z" fill="#055C7F"/>
<path d="M309.228 60.5563C313.029 60.5563 316.11 57.4754 316.11 53.675C316.11 49.8746 313.029 46.7937 309.228 46.7937C305.428 46.7937 302.347 49.8746 302.347 53.675C302.347 57.4754 305.428 60.5563 309.228 60.5563Z" fill="#055C7F"/>
<path d="M810.272 422.683H816.293V53.6738H810.272V422.683Z" fill="#055C7F"/>
<path d="M604.694 422.683H610.715V53.6738H604.694V422.683Z" fill="#055C7F"/>
<path d="M607.274 76.0381L816.293 76.0381V70.017L607.274 70.017V76.0381Z" fill="#055C7F"/>
<path d="M607.274 157.753L816.293 157.753V151.732L607.274 151.732V157.753Z" fill="#055C7F"/>
<path d="M607.274 239.469L816.293 239.469V233.448L607.274 233.448V239.469Z" fill="#055C7F"/>
<path d="M607.274 321.184H816.293V315.163H607.274V321.184Z" fill="#055C7F"/>
<path d="M607.274 402.899H816.293V396.878H607.274V402.899Z" fill="#055C7F"/>
<path d="M813.282 60.5563C817.083 60.5563 820.164 57.4754 820.164 53.675C820.164 49.8746 817.083 46.7937 813.282 46.7937C809.482 46.7937 806.401 49.8746 806.401 53.675C806.401 57.4754 809.482 60.5563 813.282 60.5563Z" fill="#055C7F"/>
<path d="M607.704 60.5556C611.504 60.5556 614.585 57.4747 614.585 53.6743C614.585 49.8738 611.504 46.793 607.704 46.793C603.904 46.793 600.823 49.8738 600.823 53.6743C600.823 57.4747 603.904 60.5556 607.704 60.5556Z" fill="#055C7F"/>
<path d="M359.547 53.6748H353.526V422.684H359.547V53.6748Z" fill="#055C7F"/>
<path d="M565.126 53.6738H559.105V422.683H565.126V53.6738Z" fill="#055C7F"/>
<path d="M562.545 70.0168H353.526V76.038H562.545V70.0168Z" fill="#055C7F"/>
<path d="M562.545 151.732H353.526V157.753H562.545V151.732Z" fill="#055C7F"/>
<path d="M562.545 233.448H353.526V239.469H562.545V233.448Z" fill="#055C7F"/>
<path d="M562.545 315.163H353.526V321.184H562.545V315.163Z" fill="#055C7F"/>
<path d="M562.545 396.878H353.526V402.899H562.545V396.878Z" fill="#055C7F"/>
<path d="M356.537 60.5556C360.337 60.5556 363.418 57.4747 363.418 53.6743C363.418 49.8738 360.337 46.793 356.537 46.793C352.737 46.793 349.656 49.8738 349.656 53.6743C349.656 57.4747 352.737 60.5556 356.537 60.5556Z" fill="#055C7F"/>
<path d="M562.116 60.5563C565.916 60.5563 568.997 57.4754 568.997 53.675C568.997 49.8746 565.916 46.7937 562.116 46.7937C558.315 46.7937 555.234 49.8746 555.234 53.675C555.234 57.4754 558.315 60.5563 562.116 60.5563Z" fill="#055C7F"/>
<path d="M130.744 88.0806H106.66V151.733H130.744V88.0806Z" fill="#39AECB"/>
<path d="M130.744 103.565H106.66V123.348H130.744V103.565Z" fill="#5BC5DE"/>
<path d="M130.744 94.9629H106.66V99.2637H130.744V94.9629Z" fill="#5BC5DE"/>
<path d="M169.452 94.9619H154.829V151.733H169.452V94.9619Z" fill="#39AECB"/>
<path d="M169.452 108.81H154.829V126.443H169.452V108.81Z" fill="#5BC5DE"/>
<path d="M169.452 101.068H154.829V104.939H169.452V101.068Z" fill="#5BC5DE"/>
<path d="M169.452 140.635H154.829V144.506H169.452V140.635Z" fill="#5BC5DE"/>
<path d="M184.075 94.9619H169.452V151.733H184.075V94.9619Z" fill="#0383A4"/>
<path d="M184.075 108.81H169.452V126.443H184.075V108.81Z" fill="#39AECB"/>
<path d="M184.075 101.068H169.452V104.939H184.075V101.068Z" fill="#39AECB"/>
<path d="M184.075 140.635H169.452V144.506H184.075V140.635Z" fill="#39AECB"/>
<path d="M193.536 81.1992H184.074V151.732H193.536V81.1992Z" fill="#39AECB"/>
<path d="M190.956 88.0806H186.655V142.271H190.956V88.0806Z" fill="#5BC5DE"/>
<path d="M211.939 80.9252L202.637 82.6548L215.531 151.996L224.833 150.266L211.939 80.9252Z" fill="#39AECB"/>
<path d="M210.634 88.1469L206.406 88.9331L216.312 142.207L220.54 141.421L210.634 88.1469Z" fill="#5BC5DE"/>
<path d="M202.998 81.1992H193.536V151.732H202.998V81.1992Z" fill="#0383A4"/>
<path d="M200.418 88.0806H196.117V142.271H200.418V88.0806Z" fill="#39AECB"/>
<path d="M800.644 163.955L791.282 162.591L781.111 232.383L790.473 233.748L800.644 163.955Z" fill="#39AECB"/>
<path d="M797.086 170.378L792.83 169.758L785.016 223.379L789.271 223.999L797.086 170.378Z" fill="#5BC5DE"/>
<path d="M791.183 163.955L781.82 162.591L771.649 232.383L781.012 233.748L791.183 163.955Z" fill="#0383A4"/>
<path d="M787.624 170.378L783.368 169.758L775.554 223.379L779.81 223.999L787.624 170.378Z" fill="#5BC5DE"/>
<path d="M810.272 162.915H800.81V233.448H810.272V162.915Z" fill="#0383A4"/>
<path d="M807.692 169.797H803.391V223.987H807.692V169.797Z" fill="#39AECB"/>
<path d="M803.343 244.33L793.927 245.253L800.809 315.448L810.225 314.524L803.343 244.33Z" fill="#0383A4"/>
<path d="M801.486 251.419L797.206 251.839L802.494 305.769L806.774 305.349L801.486 251.419Z" fill="#39AECB"/>
<path d="M306.224 82.544L296.906 80.9033L284.676 150.364L293.993 152.005L306.224 82.544Z" fill="#0383A4"/>
<path d="M302.56 88.8747L298.324 88.1289L288.927 141.501L293.163 142.247L302.56 88.8747Z" fill="#39AECB"/>
<path d="M121.282 258.393H106.66V315.163H121.282V258.393Z" fill="#39AECB"/>
<path d="M121.282 272.24H106.66V289.873H121.282V272.24Z" fill="#5BC5DE"/>
<path d="M121.282 264.498H106.66V268.369H121.282V264.498Z" fill="#5BC5DE"/>
<path d="M121.282 304.066H106.66V307.936H121.282V304.066Z" fill="#5BC5DE"/>
<path d="M135.906 258.393H121.283V315.163H135.906V258.393Z" fill="#0383A4"/>
<path d="M135.906 272.24H121.283V289.873H135.906V272.24Z" fill="#39AECB"/>
<path d="M135.906 264.498H121.283V268.369H135.906V264.498Z" fill="#39AECB"/>
<path d="M135.906 304.066H121.283V307.936H135.906V304.066Z" fill="#39AECB"/>
<path d="M145.367 244.63H135.906V315.163H145.367V244.63Z" fill="#39AECB"/>
<path d="M142.787 251.511H138.486V305.701H142.787V251.511Z" fill="#5BC5DE"/>
<path d="M176.576 257.055L169.709 263.565L218.236 314.751L225.103 308.241L176.576 257.055Z" fill="#39AECB"/>
<path d="M179.452 263.791L176.331 266.75L213.614 306.076L216.735 303.117L179.452 263.791Z" fill="#5BC5DE"/>
<path d="M189.478 257.055L182.612 263.565L231.138 314.751L238.005 308.241L189.478 257.055Z" fill="#0383A4"/>
<path d="M192.354 263.791L189.233 266.75L226.516 306.076L229.637 303.117L192.354 263.791Z" fill="#5BC5DE"/>
<path d="M154.829 244.63H145.367V315.163H154.829V244.63Z" fill="#0383A4"/>
<path d="M152.249 251.511H147.948V305.701H152.249V251.511Z" fill="#39AECB"/>
<path d="M163.239 246.395L154.507 250.037L181.662 315.132L190.394 311.49L163.239 246.395Z" fill="#0383A4"/>
<path d="M163.483 253.736L159.513 255.391L180.377 305.403L184.346 303.748L163.483 253.736Z" fill="#39AECB"/>
<path d="M671.786 340.108H657.163V396.879H671.786V340.108Z" fill="#39AECB"/>
<path d="M671.786 353.956H657.163V371.589H671.786V353.956Z" fill="#5BC5DE"/>
<path d="M671.786 346.215H657.163V350.085H671.786V346.215Z" fill="#5BC5DE"/>
<path d="M671.786 385.782H657.163V389.653H671.786V385.782Z" fill="#5BC5DE"/>
<path d="M686.409 340.108H671.786V396.879H686.409V340.108Z" fill="#0383A4"/>
<path d="M686.409 353.956H671.786V371.589H686.409V353.956Z" fill="#39AECB"/>
<path d="M686.409 346.215H671.786V350.085H686.409V346.215Z" fill="#39AECB"/>
<path d="M686.409 385.782H671.786V389.653H686.409V385.782Z" fill="#39AECB"/>
<path d="M657.163 340.108H642.541V396.879H657.163V340.108Z" fill="#0383A4"/>
<path d="M657.164 353.956H642.541V371.589H657.164V353.956Z" fill="#39AECB"/>
<path d="M657.164 346.215H642.541V350.085H657.164V346.215Z" fill="#39AECB"/>
<path d="M657.164 385.782H642.541V389.653H657.164V385.782Z" fill="#39AECB"/>
<path d="M810.272 340.108H795.649V396.879H810.272V340.108Z" fill="#39AECB"/>
<path d="M810.272 353.956H795.649V371.589H810.272V353.956Z" fill="#5BC5DE"/>
<path d="M810.272 346.215H795.649V350.085H810.272V346.215Z" fill="#5BC5DE"/>
<path d="M810.272 385.782H795.649V389.653H810.272V385.782Z" fill="#5BC5DE"/>
<path d="M695.87 326.345H686.409V396.879H695.87V326.345Z" fill="#39AECB"/>
<path d="M693.29 333.228H688.989V387.418H693.29V333.228Z" fill="#5BC5DE"/>
<path d="M727.063 338.755L720.197 345.265L768.724 396.451L775.59 389.941L727.063 338.755Z" fill="#39AECB"/>
<path d="M729.933 345.483L726.812 348.442L764.095 387.768L767.216 384.809L729.933 345.483Z" fill="#5BC5DE"/>
<path d="M739.965 338.755L733.099 345.265L781.626 396.451L788.492 389.941L739.965 338.755Z" fill="#0383A4"/>
<path d="M742.836 345.483L739.714 348.442L776.997 387.768L780.118 384.809L742.836 345.483Z" fill="#5BC5DE"/>
<path d="M705.332 326.345H695.871V396.879H705.332V326.345Z" fill="#0383A4"/>
<path d="M702.752 333.228H698.451V387.418H702.752V333.228Z" fill="#39AECB"/>
<path d="M713.739 328.132L705.006 331.775L732.162 396.87L740.894 393.227L713.739 328.132Z" fill="#0383A4"/>
<path d="M713.983 335.475L710.014 337.13L730.877 387.142L734.847 385.487L713.983 335.475Z" fill="#39AECB"/>
<path d="M154.829 88.0806H130.744V151.733H154.829V88.0806Z" fill="#0383A4"/>
<path d="M154.829 103.565H130.744V123.348H154.829V103.565Z" fill="#39AECB"/>
<path d="M154.829 94.9629H130.744V99.2637H154.829V94.9629Z" fill="#39AECB"/>
<path d="M682.968 88.0806H658.884V151.733H682.968V88.0806Z" fill="#39AECB"/>
<path d="M682.968 103.565H658.884V123.348H682.968V103.565Z" fill="#5BC5DE"/>
<path d="M682.968 94.9629H658.884V99.2637H682.968V94.9629Z" fill="#5BC5DE"/>
<path d="M721.675 94.9619H707.053V151.733H721.675V94.9619Z" fill="#39AECB"/>
<path d="M721.675 108.81H707.053V126.443H721.675V108.81Z" fill="#5BC5DE"/>
<path d="M721.675 101.068H707.053V104.939H721.675V101.068Z" fill="#5BC5DE"/>
<path d="M721.675 140.635H707.053V144.506H721.675V140.635Z" fill="#5BC5DE"/>
<path d="M736.298 94.9619H721.676V151.733H736.298V94.9619Z" fill="#0383A4"/>
<path d="M736.298 108.81H721.676V126.443H736.298V108.81Z" fill="#39AECB"/>
<path d="M736.298 101.068H721.676V104.939H736.298V101.068Z" fill="#39AECB"/>
<path d="M736.298 140.635H721.676V144.506H736.298V140.635Z" fill="#39AECB"/>
<path d="M745.76 81.1992H736.298V151.732H745.76V81.1992Z" fill="#39AECB"/>
<path d="M743.179 88.0806H738.879V142.271H743.179V88.0806Z" fill="#5BC5DE"/>
<path d="M764.137 80.9325L754.835 82.6621L767.728 152.003L777.03 150.274L764.137 80.9325Z" fill="#39AECB"/>
<path d="M762.832 88.1577L758.604 88.9438L768.51 142.218L772.738 141.432L762.832 88.1577Z" fill="#5BC5DE"/>
<path d="M755.222 81.1992H745.76V151.732H755.222V81.1992Z" fill="#0383A4"/>
<path d="M752.641 88.0806H748.34V142.271H752.641V88.0806Z" fill="#39AECB"/>
<path d="M791.348 94.9619H776.726V151.733H791.348V94.9619Z" fill="#0383A4"/>
<path d="M791.349 108.81H776.726V126.443H791.349V108.81Z" fill="#39AECB"/>
<path d="M791.349 101.068H776.726V104.939H791.349V101.068Z" fill="#39AECB"/>
<path d="M791.349 140.635H776.726V144.506H791.349V140.635Z" fill="#39AECB"/>
<path d="M800.81 81.1992H791.349V151.732H800.81V81.1992Z" fill="#39AECB"/>
<path d="M798.23 88.0806H793.929V142.271H798.23V88.0806Z" fill="#5BC5DE"/>
<path d="M810.272 81.1992H800.81V151.732H810.272V81.1992Z" fill="#0383A4"/>
<path d="M807.692 88.0806H803.391V142.271H807.692V88.0806Z" fill="#39AECB"/>
<path d="M658.883 81.1992H649.422V151.732H658.883V81.1992Z" fill="#0383A4"/>
<path d="M656.303 88.0806H652.002V142.271H656.303V88.0806Z" fill="#39AECB"/>
<path d="M707.053 88.0806H682.968V151.733H707.053V88.0806Z" fill="#0383A4"/>
<path d="M707.053 103.565H682.968V123.348H707.053V103.565Z" fill="#39AECB"/>
<path d="M707.053 94.9629H682.968V99.2637H707.053V94.9629Z" fill="#39AECB"/>
<path d="M383.632 88.0806H359.547V151.733H383.632V88.0806Z" fill="#39AECB"/>
<path d="M383.632 103.565H359.547V123.348H383.632V103.565Z" fill="#5BC5DE"/>
<path d="M383.632 94.9629H359.547V99.2637H383.632V94.9629Z" fill="#5BC5DE"/>
<path d="M422.339 94.9619H407.716V151.733H422.339V94.9619Z" fill="#39AECB"/>
<path d="M422.339 108.81H407.716V126.443H422.339V108.81Z" fill="#5BC5DE"/>
<path d="M422.339 101.068H407.716V104.939H422.339V101.068Z" fill="#5BC5DE"/>
<path d="M422.339 140.635H407.716V144.506H422.339V140.635Z" fill="#5BC5DE"/>
<path d="M407.716 88.0806H383.632V151.733H407.716V88.0806Z" fill="#0383A4"/>
<path d="M407.716 103.565H383.632V123.348H407.716V103.565Z" fill="#39AECB"/>
<path d="M407.716 94.9629H383.632V99.2637H407.716V94.9629Z" fill="#39AECB"/>
<path d="M209.879 176.677H195.257V233.448H209.879V176.677Z" fill="#39AECB"/>
<path d="M209.879 190.526H195.257V208.159H209.879V190.526Z" fill="#5BC5DE"/>
<path d="M209.879 182.784H195.257V186.655H209.879V182.784Z" fill="#5BC5DE"/>
<path d="M209.879 222.352H195.257V226.223H209.879V222.352Z" fill="#5BC5DE"/>
<path d="M224.597 176.314L209.998 177.151L213.245 233.83L227.845 232.994L224.597 176.314Z" fill="#0383A4"/>
<path d="M225.374 190.132L210.774 190.969L211.783 208.574L226.382 207.737L225.374 190.132Z" fill="#39AECB"/>
<path d="M224.908 182.466L210.309 183.303L210.53 187.167L225.13 186.331L224.908 182.466Z" fill="#39AECB"/>
<path d="M227.229 221.947L212.63 222.783L212.852 226.647L227.451 225.811L227.229 221.947Z" fill="#39AECB"/>
<path d="M195.256 169.796H171.172V233.448H195.256V169.796Z" fill="#0383A4"/>
<path d="M195.256 185.278H171.172V205.062H195.256V185.278Z" fill="#39AECB"/>
<path d="M195.256 176.677H171.172V180.977H195.256V176.677Z" fill="#39AECB"/>
<path d="M546.288 151.733H498.893V87.2205H546.288C548.095 87.2205 549.643 88.6827 549.643 90.5751V148.378C549.643 150.27 548.181 151.733 546.288 151.733Z" fill="#39AECB"/>
<path d="M505.774 87.2219H504.054V151.734H505.774V87.2219Z" fill="#055C7F"/>
<path d="M223.642 387.245C223.814 389.997 222.782 392.492 220.975 394.212C219.341 395.846 217.105 396.879 214.61 396.879H166.441C165.753 396.879 165.151 396.276 165.151 395.588C165.151 394.9 165.753 394.298 166.441 394.298H208.331C211.6 394.298 214.524 391.976 214.954 388.707C215.47 384.75 212.374 381.396 208.589 381.396H166.441C165.753 381.396 165.151 380.794 165.151 380.105C165.151 379.417 165.753 378.815 166.441 378.815H214.352C219.083 378.815 223.298 382.428 223.642 387.245Z" fill="#39AECB"/>
<path d="M167.731 394.299V381.397H214.61C218.137 381.397 221.061 384.321 221.061 387.848C221.061 391.375 218.137 394.299 214.61 394.299H167.731Z" fill="#DBF0F7"/>
<path d="M171.172 370.386C171 367.633 172.033 365.139 173.839 363.418C175.473 361.784 177.71 360.752 180.204 360.752H228.373C229.061 360.752 229.663 361.354 229.663 362.042C229.663 362.73 229.061 363.332 228.373 363.332H186.483C183.215 363.332 180.29 365.655 179.86 368.923C179.344 372.88 182.441 376.235 186.225 376.235H228.373C229.061 376.235 229.663 376.837 229.663 377.525C229.663 378.213 229.061 378.815 228.373 378.815H180.462C175.731 378.815 171.516 375.203 171.172 370.386Z" fill="#055C7F"/>
<path d="M227.083 363.333V376.235H180.204C176.677 376.235 173.753 373.31 173.753 369.784C173.753 366.257 176.677 363.333 180.204 363.333H227.083Z" fill="#DBF0F7"/>
<path d="M227.943 351.118C228.115 353.871 227.083 356.365 225.276 358.085C223.642 359.72 221.406 360.752 218.911 360.752H170.742C170.054 360.752 169.452 360.15 169.452 359.462C169.452 358.773 170.054 358.171 170.742 358.171H212.632C215.901 358.171 218.825 355.849 219.255 352.58C219.771 348.624 216.675 345.269 212.89 345.269H170.742C170.054 345.269 169.452 344.667 169.452 343.979C169.452 343.291 170.054 342.688 170.742 342.688H218.653C223.384 342.688 227.599 346.301 227.943 351.118Z" fill="#5BC5DE"/>
<path d="M172.032 358.171V345.268H218.911C222.438 345.268 225.362 348.193 225.362 351.72C225.362 355.246 222.438 358.171 218.911 358.171H172.032Z" fill="#DBF0F7"/>
<path d="M765.544 223.814C765.716 226.567 764.684 229.061 762.877 230.781C761.243 232.416 759.006 233.448 756.512 233.448H708.343C707.655 233.448 707.053 232.846 707.053 232.158C707.053 231.47 707.655 230.867 708.343 230.867H750.233C753.501 230.867 756.426 228.545 756.856 225.276C757.372 221.32 754.276 217.965 750.491 217.965H708.343C707.655 217.965 707.053 217.363 707.053 216.675C707.053 215.987 707.655 215.385 708.343 215.385H756.254C760.985 215.385 765.2 218.997 765.544 223.814Z" fill="#39AECB"/>
<path d="M709.633 230.866V217.964H756.512C760.039 217.964 762.963 220.888 762.963 224.415C762.963 227.942 760.039 230.866 756.512 230.866H709.633Z" fill="#DBF0F7"/>
<path d="M713.074 206.955C712.902 204.203 713.934 201.708 715.74 199.988C717.374 198.353 719.611 197.321 722.105 197.321H770.274C770.963 197.321 771.565 197.923 771.565 198.612C771.565 199.3 770.963 199.902 770.274 199.902H728.385C725.116 199.902 722.191 202.224 721.761 205.493C721.245 209.45 724.342 212.804 728.126 212.804H770.274C770.963 212.804 771.565 213.406 771.565 214.094C771.565 214.783 770.963 215.385 770.274 215.385H722.363C717.632 215.385 713.418 211.772 713.074 206.955Z" fill="#055C7F"/>
<path d="M768.984 199.902V212.805H722.105C718.579 212.805 715.654 209.88 715.654 206.354C715.654 202.827 718.579 199.902 722.105 199.902H768.984Z" fill="#DBF0F7"/>
<path d="M769.844 187.687C770.016 190.44 768.984 192.934 767.178 194.655C765.543 196.289 763.307 197.321 760.812 197.321H712.643C711.955 197.321 711.353 196.719 711.353 196.031C711.353 195.343 711.955 194.741 712.643 194.741H754.533C757.802 194.741 760.726 192.418 761.156 189.15C761.672 185.193 758.576 181.838 754.791 181.838H712.643C711.955 181.838 711.353 181.236 711.353 180.548C711.353 179.86 711.955 179.258 712.643 179.258H760.554C765.285 179.258 769.5 182.87 769.844 187.687Z" fill="#5BC5DE"/>
<path d="M713.934 194.741V181.838H760.813C764.339 181.838 767.264 184.763 767.264 188.289C767.264 191.816 764.339 194.741 760.813 194.741H713.934Z" fill="#DBF0F7"/>
<path d="M709.633 305.529C709.805 308.282 708.773 310.776 706.966 312.497C705.332 314.131 703.096 315.163 700.601 315.163H652.432C651.744 315.163 651.142 314.561 651.142 313.873C651.142 313.185 651.744 312.583 652.432 312.583H694.322C697.591 312.583 700.515 310.26 700.945 306.992C701.461 303.035 698.365 299.68 694.58 299.68H652.432C651.744 299.68 651.142 299.078 651.142 298.39C651.142 297.702 651.744 297.1 652.432 297.1H700.343C705.074 297.1 709.289 300.713 709.633 305.529Z" fill="#39AECB"/>
<path d="M653.723 312.583V299.68H700.601C704.128 299.68 707.053 302.605 707.053 306.131C707.053 309.658 704.128 312.583 700.601 312.583H653.723Z" fill="#DBF0F7"/>
<path d="M736.9 257.447C739.567 258.135 741.631 259.855 742.749 262.091C743.782 264.156 744.04 266.564 743.351 268.973L728.557 314.905C728.299 315.594 727.61 315.938 726.922 315.766C726.234 315.507 725.89 314.819 726.062 314.131L738.965 274.22C739.997 271.123 738.621 267.596 735.696 266.22C732.083 264.5 727.955 266.392 726.75 270.091L713.762 310.174C713.504 310.863 712.816 311.207 712.128 311.035C711.44 310.777 711.095 310.088 711.267 309.4L725.976 263.812C727.525 259.167 732.255 256.328 736.9 257.447Z" fill="#055C7F"/>
<path d="M726.492 312.839L714.192 308.882L728.557 264.24C729.675 260.885 733.288 258.993 736.642 260.111C739.997 261.229 741.889 264.842 740.771 268.197L726.492 312.839Z" fill="#DBF0F7"/>
<path d="M642.283 93.1558C644.949 93.8439 647.014 95.5643 648.132 97.8007C649.164 99.8651 649.422 102.274 648.734 104.682L633.939 150.615C633.681 151.303 632.993 151.647 632.305 151.475C631.617 151.217 631.273 150.529 631.445 149.84L644.347 109.929C645.379 106.832 644.003 103.306 641.078 101.929C637.466 100.209 633.337 102.102 632.133 105.8L619.144 145.884C618.886 146.572 618.198 146.916 617.51 146.744C616.822 146.486 616.478 145.798 616.65 145.11L631.359 99.521C632.907 94.8761 637.638 92.0376 642.283 93.1558Z" fill="#055C7F"/>
<path d="M631.875 148.549L619.575 144.592L633.94 99.95C635.058 96.5954 638.67 94.703 642.025 95.8212C645.38 96.9394 647.272 100.552 646.154 103.907L631.875 148.549Z" fill="#DBF0F7"/>
<path d="M657.163 288.67C656.991 285.918 658.023 283.423 659.83 281.703C661.464 280.069 663.7 279.036 666.195 279.036H714.364C715.052 279.036 715.654 279.638 715.654 280.327C715.654 281.015 715.052 281.617 714.364 281.617H672.474C669.205 281.617 666.281 283.939 665.851 287.208C665.335 291.165 668.431 294.519 672.216 294.519H714.364C715.052 294.519 715.654 295.121 715.654 295.81C715.654 296.498 715.052 297.1 714.364 297.1H666.453C661.722 297.1 657.507 293.487 657.163 288.67Z" fill="#055C7F"/>
<path d="M713.074 281.616V294.518H666.195C662.668 294.518 659.744 291.594 659.744 288.067C659.744 284.541 662.668 281.616 666.195 281.616H713.074Z" fill="#DBF0F7"/>
<path d="M713.934 269.403C714.106 272.155 713.074 274.65 711.267 276.37C709.633 278.004 707.397 279.037 704.902 279.037H656.733C656.045 279.037 655.443 278.434 655.443 277.746C655.443 277.058 656.045 276.456 656.733 276.456H698.623C701.892 276.456 704.816 274.134 705.246 270.865C705.762 266.908 702.666 263.554 698.881 263.554H656.733C656.045 263.554 655.443 262.952 655.443 262.263C655.443 261.575 656.045 260.973 656.733 260.973H704.644C709.375 260.973 713.59 264.586 713.934 269.403Z" fill="#5BC5DE"/>
<path d="M658.023 276.457V263.554H704.902C708.429 263.554 711.353 266.479 711.353 270.006C711.353 273.532 708.429 276.457 704.902 276.457H658.023Z" fill="#DBF0F7"/>
<path d="M486.851 142.099C487.023 144.851 485.991 147.346 484.185 149.066C482.551 150.7 480.314 151.733 477.82 151.733H429.651C428.962 151.733 428.36 151.13 428.36 150.442C428.36 149.754 428.962 149.152 429.651 149.152H471.54C474.809 149.152 477.734 146.83 478.164 143.561C478.68 139.604 475.583 136.25 471.799 136.25H429.651C428.962 136.25 428.36 135.648 428.36 134.959C428.36 134.271 428.962 133.669 429.651 133.669H477.562C482.292 133.669 486.507 137.282 486.851 142.099Z" fill="#39AECB"/>
<path d="M430.941 149.153V136.25H477.819C481.346 136.25 484.271 139.175 484.271 142.701C484.271 146.228 481.346 149.153 477.819 149.153H430.941Z" fill="#DBF0F7"/>
<path d="M434.382 125.24C434.21 122.487 435.242 119.993 437.048 118.272C438.683 116.638 440.919 115.606 443.414 115.606H491.583C492.271 115.606 492.873 116.208 492.873 116.896C492.873 117.584 492.271 118.186 491.583 118.186H449.693C446.424 118.186 443.5 120.509 443.069 123.777C442.553 127.734 445.65 131.089 449.435 131.089H491.583C492.271 131.089 492.873 131.691 492.873 132.379C492.873 133.067 492.271 133.669 491.583 133.669H443.672C438.941 133.669 434.726 130.056 434.382 125.24Z" fill="#055C7F"/>
<path d="M490.292 118.186V131.088H443.413C439.887 131.088 436.962 128.164 436.962 124.637C436.962 121.11 439.887 118.186 443.413 118.186H490.292Z" fill="#DBF0F7"/>
<path d="M491.152 105.972C491.324 108.725 490.292 111.219 488.486 112.939C486.851 114.574 484.615 115.606 482.12 115.606H433.951C433.263 115.606 432.661 115.004 432.661 114.316C432.661 113.628 433.263 113.025 433.951 113.025H475.841C479.11 113.025 482.034 110.703 482.465 107.434C482.981 103.478 479.884 100.123 476.099 100.123H433.951C433.263 100.123 432.661 99.5209 432.661 98.8327C432.661 98.1446 433.263 97.5425 433.951 97.5425H481.862C486.593 97.5425 490.808 101.155 491.152 105.972Z" fill="#5BC5DE"/>
<path d="M435.242 113.024V100.122H482.12C485.647 100.122 488.572 103.046 488.572 106.573C488.572 110.099 485.647 113.024 482.12 113.024H435.242Z" fill="#DBF0F7"/>
<path d="M287.294 223.814C287.466 226.567 286.434 229.061 284.627 230.781C282.993 232.416 280.757 233.448 278.262 233.448H230.093C229.405 233.448 228.803 232.846 228.803 232.158C228.803 231.47 229.405 230.867 230.093 230.867H271.983C275.252 230.867 278.176 228.545 278.606 225.276C279.122 221.32 276.026 217.965 272.241 217.965H230.093C229.405 217.965 228.803 217.363 228.803 216.675C228.803 215.987 229.405 215.385 230.093 215.385H278.004C282.735 215.385 286.95 218.997 287.294 223.814Z" fill="#39AECB"/>
<path d="M231.383 230.866V217.964H278.262C281.789 217.964 284.713 220.888 284.713 224.415C284.713 227.942 281.789 230.866 278.262 230.866H231.383Z" fill="#DBF0F7"/>
<path d="M234.824 206.955C234.652 204.203 235.684 201.708 237.49 199.988C239.125 198.353 241.361 197.321 243.855 197.321H292.025C292.713 197.321 293.315 197.923 293.315 198.612C293.315 199.3 292.713 199.902 292.025 199.902H250.135C246.866 199.902 243.941 202.224 243.511 205.493C242.995 209.45 246.092 212.804 249.877 212.804H292.025C292.713 212.804 293.315 213.406 293.315 214.094C293.315 214.783 292.713 215.385 292.025 215.385H244.114C239.383 215.385 235.168 211.772 234.824 206.955Z" fill="#055C7F"/>
<path d="M290.734 199.902V212.805H243.856C240.329 212.805 237.404 209.88 237.404 206.354C237.404 202.827 240.329 199.902 243.856 199.902H290.734Z" fill="#DBF0F7"/>
<path d="M291.594 187.687C291.767 190.44 290.734 192.934 288.928 194.655C287.294 196.289 285.057 197.321 282.563 197.321H234.394C233.706 197.321 233.104 196.719 233.104 196.031C233.104 195.343 233.706 194.741 234.394 194.741H276.284C279.552 194.741 282.477 192.418 282.907 189.15C283.423 185.193 280.326 181.838 276.542 181.838H234.394C233.706 181.838 233.104 181.236 233.104 180.548C233.104 179.86 233.706 179.258 234.394 179.258H282.305C287.036 179.258 291.25 182.87 291.594 187.687Z" fill="#5BC5DE"/>
<path d="M235.684 194.741V181.838H282.563C286.09 181.838 289.014 184.763 289.014 188.289C289.014 191.816 286.09 194.741 282.563 194.741H235.684Z" fill="#DBF0F7"/>
<path d="M110.101 225.018C109.929 222.266 110.961 219.771 112.767 218.051C114.401 216.417 116.638 215.385 119.132 215.385H167.301C167.989 215.385 168.592 215.987 168.592 216.675C168.592 217.363 167.989 217.965 167.301 217.965H125.411C122.143 217.965 119.218 220.287 118.788 223.556C118.272 227.513 121.369 230.867 125.153 230.867H167.301C167.989 230.867 168.592 231.47 168.592 232.158C168.592 232.846 167.989 233.448 167.301 233.448H119.39C114.659 233.448 110.445 229.835 110.101 225.018Z" fill="#055C7F"/>
<path d="M166.011 217.964V230.866H119.132C115.605 230.866 112.681 227.942 112.681 224.415C112.681 220.888 115.605 217.964 119.132 217.964H166.011Z" fill="#DBF0F7"/>
<path d="M166.871 205.751C167.043 208.503 166.011 210.998 164.205 212.718C162.57 214.352 160.334 215.385 157.839 215.385H109.67C108.982 215.385 108.38 214.783 108.38 214.094C108.38 213.406 108.982 212.804 109.67 212.804H151.56C154.829 212.804 157.753 210.482 158.183 207.213C158.7 203.256 155.603 199.902 151.818 199.902H109.67C108.982 199.902 108.38 199.3 108.38 198.612C108.38 197.923 108.982 197.321 109.67 197.321H157.581C162.312 197.321 166.527 200.934 166.871 205.751Z" fill="#5BC5DE"/>
<path d="M110.96 212.805V199.902H157.839C161.366 199.902 164.29 202.827 164.29 206.354C164.29 209.88 161.366 212.805 157.839 212.805H110.96Z" fill="#DBF0F7"/>
<path d="M158.355 396.879H110.96V332.366H158.355C160.162 332.366 161.71 333.829 161.71 335.721V393.524C161.71 395.416 160.248 396.879 158.355 396.879Z" fill="#39AECB"/>
<path d="M117.842 332.366H116.122V396.878H117.842V332.366Z" fill="#055C7F"/>
<path d="M276.198 151.733H228.803V87.2205H276.198C278.004 87.2205 279.553 88.6827 279.553 90.5751V148.378C279.553 150.27 278.09 151.733 276.198 151.733Z" fill="#39AECB"/>
<path d="M235.684 87.2219H233.964V151.734H235.684V87.2219Z" fill="#055C7F"/>
<path d="M791.434 315.163H744.039V250.651H791.434C793.241 250.651 794.789 252.113 794.789 254.006V311.809C794.789 313.701 793.327 315.163 791.434 315.163Z" fill="#39AECB"/>
<path d="M750.921 250.652H749.201V315.164H750.921V250.652Z" fill="#055C7F"/>
<path d="M701.978 233.448H654.583V168.936H701.978C703.784 168.936 705.332 170.398 705.332 172.29V230.093C705.332 231.986 703.87 233.448 701.978 233.448Z" fill="#39AECB"/>
<path d="M661.464 168.936H659.744V233.448H661.464V168.936Z" fill="#055C7F"/>
<path d="M633.681 426.64H284.971C275.94 426.64 268.628 419.328 268.628 410.297V185.365C268.628 176.333 275.94 169.021 284.971 169.021H633.767C642.798 169.021 650.11 176.333 650.11 185.365V410.297C650.11 419.328 642.712 426.64 633.681 426.64Z" fill="#00365D"/>
<path d="M625.506 185H294V410.018H625.506V185Z" fill="#FEE6E2"/>
<path d="M633.939 294.52C633.939 292.283 635.745 290.391 638.068 290.391C640.39 290.391 642.196 292.197 642.196 294.52C642.196 296.842 640.39 298.648 638.068 298.648C635.745 298.648 633.939 296.842 633.939 294.52Z" fill="#055C7F"/>
<path d="M625.079 388.794V410.298H497.603L293.573 206.268V185.28H421.565L625.079 388.794Z" fill="#FED6D6"/>
<path d="M648.22 430.08C648.306 430.08 648.478 429.994 648.564 429.908C649.425 429.392 649.683 428.36 649.166 427.5L642.887 416.576C642.371 415.716 641.339 415.458 640.479 415.974C639.619 416.49 639.361 417.522 639.877 418.382L646.156 429.306C646.586 430.08 647.446 430.338 648.22 430.08Z" fill="#725129"/>
<path d="M648.737 426.122C648.737 426.122 652.608 428.617 651.919 429.477C651.231 430.337 640.221 441.347 639.705 440.917C637.813 439.369 645.468 428.961 646.5 428.273C647.533 427.584 648.135 425.692 648.737 426.122Z" fill="#00365D"/>
<path d="M565.129 313.271C565.129 313.271 556.183 314.303 554.979 316.195C553.775 318.088 562.376 318.088 566.763 314.819L565.129 313.271Z" fill="#725129"/>
<path d="M564.613 312.324C564.785 313.786 564.871 315.248 565.129 316.624C588.009 313.184 597.643 309.485 604.868 286.777C605.986 283.336 604.696 282.734 601.858 282.476C601.858 281.874 601.858 281.874 601.858 282.476C599.105 282.218 598.589 283.25 597.643 286.261C591.45 306.13 583.88 307.421 564.613 312.324Z" fill="#D6406E"/>
<path d="M583.278 437.134C583.364 437.22 583.45 437.22 583.622 437.306C584.568 437.564 585.514 437.048 585.772 436.101L589.299 424.059C589.557 423.113 589.041 422.167 588.095 421.909C587.149 421.651 586.202 422.167 585.944 423.113L582.418 435.155C582.16 435.929 582.504 436.79 583.278 437.134Z" fill="#725129"/>
<path d="M582.848 428.532C584.482 429.564 586.117 430.596 587.837 431.371C598.417 400.233 603.148 359.719 615.19 332.022C610.545 330.216 605.9 328.495 601.255 326.689C589.987 359.633 598.589 390.685 582.848 428.532Z" fill="#00496F"/>
<path d="M642.887 425.349C644.608 424.489 646.242 423.629 647.876 422.683C628.351 389.395 616.136 366.6 618.373 326.775C613.384 326.087 608.395 325.571 603.406 324.969C603.578 363.16 622.846 394.47 642.887 425.349Z" fill="#00496F"/>
<path d="M599.191 258.907C600.911 258.735 602.976 259.939 603.578 261.573C604.18 263.294 602.89 265.014 601.341 265.616C599.707 266.218 596.438 264.498 595.836 262.864C595.148 261.229 596.954 259.079 599.191 258.907Z" fill="#202121"/>
<path d="M607.621 256.585C610.718 254.091 616.223 253.575 619.577 255.983C622.932 258.392 622.76 263.467 620.437 266.649C618.115 269.832 611.062 271.81 605.729 268.541C602.202 266.391 603.75 259.768 607.621 256.585Z" fill="#202121"/>
<path d="M602.89 267.681C605.212 265.789 609.169 265.273 611.578 267.079C613.986 268.886 613.814 272.498 612.008 274.907C610.287 277.315 604.094 278.261 601.686 276.541C599.277 274.735 599.965 270.004 602.89 267.681Z" fill="#202121"/>
<path d="M606.502 270.779C604.266 275.596 599.105 277.918 596.181 276.542C593.256 275.166 593.686 270.607 595.922 265.876C598.159 261.059 601.686 259.769 604.61 261.145C607.535 262.435 608.739 265.962 606.502 270.779Z" fill="#725129"/>
<path d="M607.965 273.445C607.449 274.563 605.642 275.509 604.868 275.079C604.094 274.649 604.266 273.703 604.782 272.585C605.298 271.467 606.416 270.693 607.277 271.123C608.137 271.553 608.481 272.327 607.965 273.445Z" fill="#725129"/>
<path d="M608.653 268.025C608.653 268.025 609.083 264.499 607.19 262.262C605.298 260.026 600.567 258.047 597.642 261.832C597.642 261.832 595.75 264.671 599.449 266.649C603.148 268.627 603.233 266.305 604.352 268.972C605.47 271.552 607.706 270.864 607.964 271.38L608.653 268.025Z" fill="#202121"/>
<path d="M598.503 336.838C602.718 337.01 605.986 335.462 609.513 333.312C612.265 331.677 615.792 330.989 618.631 329.785C620.695 316.797 617.856 295.723 612.781 287.465C608.309 280.154 608.309 281.358 606.674 280.67C604.438 279.724 601.857 280.068 600.051 281.702L599.965 281.788C597.901 283.766 597.815 288.067 597.557 292.54C597.212 297.013 595.492 296.153 599.449 303.98C601.169 307.421 598.331 330.215 598.503 336.838Z" fill="#EC577F"/>
<path d="M604.868 271.466L599.363 271.982C599.449 272.756 600.223 279.895 600.997 282.562C601.341 283.336 602.804 283.508 604.18 282.82C605.47 282.218 606.244 281.271 606.158 280.497C605.642 278.949 605.126 274.132 604.868 271.466Z" fill="#725129"/>
<path d="M586.461 435.155C586.461 435.155 587.579 439.628 586.461 439.8C585.343 439.886 569.774 440.402 569.688 439.714C569.344 437.22 582.16 434.983 583.364 435.241C584.655 435.413 586.289 434.467 586.461 435.155Z" fill="#00365D"/>
<path d="M573.301 321.527C573.301 321.527 564.011 319.549 562.204 321.097C560.398 322.645 569 325.484 574.419 323.591L573.301 321.527Z" fill="#725129"/>
<path d="M571.064 320.754C570.977 322.302 570.805 323.592 570.633 325.227C600.481 325.141 605.47 317.829 612.867 290.39C613.986 286.175 606.76 284.025 605.642 291.25C601.341 316.539 596.954 317.571 571.064 320.754Z" fill="#D6406E"/>
<path d="M315.765 217.62C319.894 217.104 323.163 213.836 323.679 209.707C323.679 209.621 323.765 209.621 323.765 209.707C324.281 213.836 327.549 217.104 331.678 217.62C331.764 217.62 331.764 217.706 331.678 217.706C327.549 218.222 324.281 221.491 323.765 225.62C323.765 225.706 323.679 225.706 323.679 225.62C323.163 221.491 319.894 218.222 315.765 217.706C315.679 217.792 315.679 217.62 315.765 217.62Z" fill="#F1F9FC"/>
<path d="M242.221 376.923C246.35 376.407 249.619 373.139 250.135 369.01C250.135 368.924 250.221 368.924 250.221 369.01C250.737 373.139 254.006 376.407 258.134 376.923C258.22 376.923 258.22 377.009 258.134 377.009C254.006 377.525 250.737 380.794 250.221 384.923C250.221 385.009 250.135 385.009 250.135 384.923C249.619 380.794 246.35 377.525 242.221 377.009C242.135 377.095 242.135 376.923 242.221 376.923Z" fill="#F1F9FC"/>
<path d="M304.153 240.845C306.906 240.415 309.142 238.264 309.572 235.426C309.572 235.34 309.658 235.34 309.658 235.426C310.088 238.178 312.239 240.415 315.077 240.845C315.163 240.845 315.163 240.931 315.077 240.931C312.325 241.361 310.088 243.511 309.658 246.35C309.658 246.436 309.572 246.436 309.572 246.35C309.142 243.597 306.992 241.361 304.153 240.931C304.067 240.931 304.067 240.845 304.153 240.845Z" fill="#F1F9FC"/>
<path d="M260.371 398.427C263.123 397.997 265.36 395.847 265.79 393.008C265.79 392.922 265.876 392.922 265.876 393.008C266.306 395.761 268.456 397.997 271.295 398.427C271.381 398.427 271.381 398.513 271.295 398.513C268.542 398.943 266.306 401.094 265.876 403.932C265.876 404.018 265.79 404.018 265.79 403.932C265.36 401.18 263.209 398.943 260.371 398.513C260.285 398.513 260.285 398.427 260.371 398.427Z" fill="#F1F9FC"/>
<path d="M511.366 133.239C514.118 132.809 516.355 130.659 516.785 127.82C516.785 127.734 516.871 127.734 516.871 127.82C517.301 130.573 519.451 132.809 522.29 133.239C522.376 133.239 522.376 133.325 522.29 133.325C519.537 133.755 517.301 135.906 516.871 138.744C516.871 138.83 516.785 138.83 516.785 138.744C516.355 135.992 514.204 133.755 511.366 133.325C511.28 133.325 511.28 133.239 511.366 133.239Z" fill="#F1F9FC"/>
<path fill-rule="evenodd" clip-rule="evenodd" d="M402.36 365.013L394.373 373L385 363.627L525.599 223.027L534.973 232.401L515.824 251.549L517.698 253.422V355.558C517.698 359.074 516.301 362.445 513.815 364.932C511.329 367.418 507.957 368.814 504.442 368.814H411.651C408.174 368.814 404.838 367.448 402.36 365.013ZM504.442 262.931V355.558H411.815L431.699 335.675H491.186L471.357 296.016L504.442 262.931ZM471.139 296.234L451.5 315.873L458.047 322.419L471.139 296.234ZM433.56 296.321L451.832 278.048C450.474 277.197 448.965 276.594 447.376 276.278C444.805 275.767 442.14 276.029 439.718 277.032C437.295 278.036 435.225 279.735 433.769 281.915C432.312 284.095 431.535 286.657 431.535 289.279C431.535 291.79 432.247 294.227 433.56 296.321ZM477.93 236.256V251.95L497.078 232.802L487.276 223H411.651C408.135 223 404.764 224.397 402.278 226.883C399.792 229.369 398.395 232.74 398.395 236.256V331.486L411.651 318.23V236.256H477.93Z" fill="#A90E4B"/>
<path fill-rule="evenodd" clip-rule="evenodd" d="M460 368.814H504.442C507.957 368.814 511.329 367.418 513.815 364.932C516.301 362.445 517.698 359.074 517.698 355.558V253.422L515.824 251.549L534.973 232.401L525.599 223.027L460 288.627V307.373L471.139 296.234L460 318.512V335.675H491.186L471.357 296.016L504.442 262.931V355.558H460V368.814ZM460 236.256H477.93V251.95L497.078 232.802L487.276 223H460V236.256Z" fill="#8A0A3C"/>
</svg>
