<svg width="26" height="25" viewBox="0 0 26 25" fill="none" xmlns="http://www.w3.org/2000/svg">
<path d="M10 23.9799V12.6225C10.75 12.0817 12.7 11 14.5 11C16.3 11 18.25 11.4636 19 11.6954V23.0528C18.25 22.7438 17.2 22.3575 14.5 22.3575C11.8 22.3575 10 24.2117 10 23.9799Z" fill="#FEBFAA" stroke="#DA4234"/>
<path d="M10 23.9799V12.6225C9.25 12.0817 7.3 11 5.5 11C3.7 11 1.75 11.4636 1 11.6954V23.0528C1.75 22.7438 2.8 22.3575 5.5 22.3575C8.2 22.3575 10 24.2117 10 23.9799Z" fill="#FED7C8" stroke="#DA4234"/>
<rect x="7" y="8" width="4.5" height="8.5" fill="#FEBFAA" stroke="#FA7C61"/>
<path d="M18.9827 17L11.5 14.5V8H13.9942C15.8234 8.66667 19.5814 10.1 19.9804 10.5C20.3795 10.9 20.6456 12.3333 20.7287 13C21.5601 13 23.4225 13.05 24.2207 13.25C25.0188 13.45 25.0521 14.5 24.9689 15L18.9827 17Z" fill="#FED7C8" stroke="#FA7C61"/>
<path d="M15.325 12.1543L17.8 13.0774C18.5353 13.0431 19.6431 13.0027 20.725 12.9848" stroke="#FA7C61"/>
<path d="M18.7511 1.13178C17.9762 0.325655 16.5012 0.253922 15.6426 1.13178C14.7858 2.01151 14.7858 3.4371 15.6426 4.31683L18.7493 7.5L21.856 4.31683C22.7147 3.4371 22.7147 2.01339 21.856 1.13366C21.0293 0.28662 19.8338 0.325707 18.7511 1.13178Z" fill="#DA4234" stroke="#FA7C61" stroke-miterlimit="10"/>
</svg>
